ISO-10303-21;
HEADER;
FILE_DESCRIPTION(('KiCad electronic assembly'),'2;1');
FILE_NAME('Active Flyback converter.step','2025-07-05T13:31:53',(
    'Pcbnew'),('Kicad'),'Open CASCADE STEP processor 7.8',
  'KiCad to STEP converter','Unknown');
FILE_SCHEMA(('AUTOMOTIVE_DESIGN { 1 0 10303 214 1 1 1 1 }'));
ENDSEC;
DATA;
#1 = APPLICATION_PROTOCOL_DEFINITION('international standard',
  'automotive_design',2000,#2);
#2 = APPLICATION_CONTEXT(
  'core data for automotive mechanical design processes');
#3 = SHAPE_DEFINITION_REPRESENTATION(#4,#10);
#4 = PRODUCT_DEFINITION_SHAPE('','',#5);
#5 = PRODUCT_DEFINITION('design','',#6,#9);
#6 = PRODUCT_DEFINITION_FORMATION('','',#7);
#7 = PRODUCT('Active Flyback converter 1','Active Flyback converter 1',
  '',(#8));
#8 = PRODUCT_CONTEXT('',#2,'mechanical');
#9 = PRODUCT_DEFINITION_CONTEXT('part definition',#2,'design');
#10 = SHAPE_REPRESENTATION('',(#11,#15,#19,#23,#27,#31,#35,#39,#43,#47),
  #51);
#11 = AXIS2_PLACEMENT_3D('',#12,#13,#14);
#12 = CARTESIAN_POINT('',(0.,0.,0.));
#13 = DIRECTION('',(0.,0.,1.));
#14 = DIRECTION('',(1.,0.,-0.));
#15 = AXIS2_PLACEMENT_3D('',#16,#17,#18);
#16 = CARTESIAN_POINT('',(124.8,-37.2,-8.5E-02));
#17 = DIRECTION('',(0.,-1.224646799147E-16,-1.));
#18 = DIRECTION('',(1.,0.,0.));
#19 = AXIS2_PLACEMENT_3D('',#20,#21,#22);
#20 = CARTESIAN_POINT('',(135.7,-44.,-8.5E-02));
#21 = DIRECTION('',(1.224646799147E-16,-1.359631073447E-32,-1.));
#22 = DIRECTION('',(1.110223024625E-16,1.,0.));
#23 = AXIS2_PLACEMENT_3D('',#24,#25,#26);
#24 = CARTESIAN_POINT('',(99.8,-66.5,-8.5E-02));
#25 = DIRECTION('',(1.224646799147E-16,-1.359631073447E-32,-1.));
#26 = DIRECTION('',(1.110223024625E-16,1.,0.));
#27 = AXIS2_PLACEMENT_3D('',#28,#29,#30);
#28 = CARTESIAN_POINT('',(135.7,-40.4,-8.5E-02));
#29 = DIRECTION('',(1.224646799147E-16,-1.359631073447E-32,-1.));
#30 = DIRECTION('',(1.110223024625E-16,1.,0.));
#31 = AXIS2_PLACEMENT_3D('',#32,#33,#34);
#32 = CARTESIAN_POINT('',(99.8,-39.6,-8.5E-02));
#33 = DIRECTION('',(1.224646799147E-16,-1.359631073447E-32,-1.));
#34 = DIRECTION('',(1.110223024625E-16,1.,0.));
#35 = AXIS2_PLACEMENT_3D('',#36,#37,#38);
#36 = CARTESIAN_POINT('',(128.4,-37.2,-8.5E-02));
#37 = DIRECTION('',(0.,-1.224646799147E-16,-1.));
#38 = DIRECTION('',(1.,0.,0.));
#39 = AXIS2_PLACEMENT_3D('',#40,#41,#42);
#40 = CARTESIAN_POINT('',(132.,-37.2,-8.5E-02));
#41 = DIRECTION('',(0.,-1.224646799147E-16,-1.));
#42 = DIRECTION('',(1.,0.,0.));
#43 = AXIS2_PLACEMENT_3D('',#44,#45,#46);
#44 = CARTESIAN_POINT('',(135.7,-47.6,-8.5E-02));
#45 = DIRECTION('',(1.224646799147E-16,-1.359631073447E-32,-1.));
#46 = DIRECTION('',(1.110223024625E-16,1.,0.));
#47 = AXIS2_PLACEMENT_3D('',#48,#49,#50);
#48 = CARTESIAN_POINT('',(0.,0.,0.));
#49 = DIRECTION('',(0.,0.,1.));
#50 = DIRECTION('',(1.,0.,-0.));
#51 = ( GEOMETRIC_REPRESENTATION_CONTEXT(3) 
GLOBAL_UNCERTAINTY_ASSIGNED_CONTEXT((#55)) GLOBAL_UNIT_ASSIGNED_CONTEXT(
(#52,#53,#54)) REPRESENTATION_CONTEXT('Context #1',
  '3D Context with UNIT and UNCERTAINTY') );
#52 = ( LENGTH_UNIT() NAMED_UNIT(*) SI_UNIT(.MILLI.,.METRE.) );
#53 = ( NAMED_UNIT(*) PLANE_ANGLE_UNIT() SI_UNIT($,.RADIAN.) );
#54 = ( NAMED_UNIT(*) SI_UNIT($,.STERADIAN.) SOLID_ANGLE_UNIT() );
#55 = UNCERTAINTY_MEASURE_WITH_UNIT(LENGTH_MEASURE(1.E-07),#52,
  'distance_accuracy_value','confusion accuracy');
#56 = PRODUCT_RELATED_PRODUCT_CATEGORY('part',$,(#7));
#57 = SHAPE_DEFINITION_REPRESENTATION(#58,#64);
#58 = PRODUCT_DEFINITION_SHAPE('','',#59);
#59 = PRODUCT_DEFINITION('design','',#60,#63);
#60 = PRODUCT_DEFINITION_FORMATION('','',#61);
#61 = PRODUCT('PinHeader_1x01_P2.54mm_Vertical',
  'PinHeader_1x01_P2.54mm_Vertical','',(#62));
#62 = PRODUCT_CONTEXT('',#2,'mechanical');
#63 = PRODUCT_DEFINITION_CONTEXT('part definition',#2,'design');
#64 = ADVANCED_BREP_SHAPE_REPRESENTATION('',(#11,#65),#823);
#65 = MANIFOLD_SOLID_BREP('',#66);
#66 = CLOSED_SHELL('',(#67,#107,#138,#169,#252,#335,#352,#369,#386,#403,
    #415,#446,#470,#494,#511,#542,#566,#590,#607,#638,#662,#686,#703,
    #734,#758,#782,#799,#811));
#67 = ADVANCED_FACE('',(#68),#102,.F.);
#68 = FACE_BOUND('',#69,.F.);
#69 = EDGE_LOOP('',(#70,#80,#88,#96));
#70 = ORIENTED_EDGE('',*,*,#71,.T.);
#71 = EDGE_CURVE('',#72,#74,#76,.T.);
#72 = VERTEX_POINT('',#73);
#73 = CARTESIAN_POINT('',(-1.016,1.27,0.));
#74 = VERTEX_POINT('',#75);
#75 = CARTESIAN_POINT('',(-1.016,1.27,2.54));
#76 = LINE('',#77,#78);
#77 = CARTESIAN_POINT('',(-1.016,1.27,0.));
#78 = VECTOR('',#79,1.);
#79 = DIRECTION('',(0.,0.,1.));
#80 = ORIENTED_EDGE('',*,*,#81,.T.);
#81 = EDGE_CURVE('',#74,#82,#84,.T.);
#82 = VERTEX_POINT('',#83);
#83 = CARTESIAN_POINT('',(-1.27,1.016,2.54));
#84 = LINE('',#85,#86);
#85 = CARTESIAN_POINT('',(-1.016,1.27,2.54));
#86 = VECTOR('',#87,1.);
#87 = DIRECTION('',(-0.707106781187,-0.707106781187,0.));
#88 = ORIENTED_EDGE('',*,*,#89,.F.);
#89 = EDGE_CURVE('',#90,#82,#92,.T.);
#90 = VERTEX_POINT('',#91);
#91 = CARTESIAN_POINT('',(-1.27,1.016,0.));
#92 = LINE('',#93,#94);
#93 = CARTESIAN_POINT('',(-1.27,1.016,0.));
#94 = VECTOR('',#95,1.);
#95 = DIRECTION('',(0.,0.,1.));
#96 = ORIENTED_EDGE('',*,*,#97,.F.);
#97 = EDGE_CURVE('',#72,#90,#98,.T.);
#98 = LINE('',#99,#100);
#99 = CARTESIAN_POINT('',(-1.016,1.27,0.));
#100 = VECTOR('',#101,1.);
#101 = DIRECTION('',(-0.707106781187,-0.707106781187,0.));
#102 = PLANE('',#103);
#103 = AXIS2_PLACEMENT_3D('',#104,#105,#106);
#104 = CARTESIAN_POINT('',(-1.016,1.27,0.));
#105 = DIRECTION('',(0.707106781187,-0.707106781187,0.));
#106 = DIRECTION('',(-0.707106781187,-0.707106781187,0.));
#107 = ADVANCED_FACE('',(#108),#133,.F.);
#108 = FACE_BOUND('',#109,.F.);
#109 = EDGE_LOOP('',(#110,#120,#126,#127));
#110 = ORIENTED_EDGE('',*,*,#111,.T.);
#111 = EDGE_CURVE('',#112,#114,#116,.T.);
#112 = VERTEX_POINT('',#113);
#113 = CARTESIAN_POINT('',(1.016,1.27,0.));
#114 = VERTEX_POINT('',#115);
#115 = CARTESIAN_POINT('',(1.016,1.27,2.54));
#116 = LINE('',#117,#118);
#117 = CARTESIAN_POINT('',(1.016,1.27,0.));
#118 = VECTOR('',#119,1.);
#119 = DIRECTION('',(0.,0.,1.));
#120 = ORIENTED_EDGE('',*,*,#121,.T.);
#121 = EDGE_CURVE('',#114,#74,#122,.T.);
#122 = LINE('',#123,#124);
#123 = CARTESIAN_POINT('',(1.016,1.27,2.54));
#124 = VECTOR('',#125,1.);
#125 = DIRECTION('',(-1.,0.,0.));
#126 = ORIENTED_EDGE('',*,*,#71,.F.);
#127 = ORIENTED_EDGE('',*,*,#128,.F.);
#128 = EDGE_CURVE('',#112,#72,#129,.T.);
#129 = LINE('',#130,#131);
#130 = CARTESIAN_POINT('',(1.016,1.27,0.));
#131 = VECTOR('',#132,1.);
#132 = DIRECTION('',(-1.,0.,0.));
#133 = PLANE('',#134);
#134 = AXIS2_PLACEMENT_3D('',#135,#136,#137);
#135 = CARTESIAN_POINT('',(1.016,1.27,0.));
#136 = DIRECTION('',(0.,-1.,0.));
#137 = DIRECTION('',(-1.,0.,0.));
#138 = ADVANCED_FACE('',(#139),#164,.F.);
#139 = FACE_BOUND('',#140,.F.);
#140 = EDGE_LOOP('',(#141,#142,#150,#158));
#141 = ORIENTED_EDGE('',*,*,#89,.T.);
#142 = ORIENTED_EDGE('',*,*,#143,.T.);
#143 = EDGE_CURVE('',#82,#144,#146,.T.);
#144 = VERTEX_POINT('',#145);
#145 = CARTESIAN_POINT('',(-1.27,-1.016,2.54));
#146 = LINE('',#147,#148);
#147 = CARTESIAN_POINT('',(-1.27,1.016,2.54));
#148 = VECTOR('',#149,1.);
#149 = DIRECTION('',(0.,-1.,0.));
#150 = ORIENTED_EDGE('',*,*,#151,.F.);
#151 = EDGE_CURVE('',#152,#144,#154,.T.);
#152 = VERTEX_POINT('',#153);
#153 = CARTESIAN_POINT('',(-1.27,-1.016,0.));
#154 = LINE('',#155,#156);
#155 = CARTESIAN_POINT('',(-1.27,-1.016,0.));
#156 = VECTOR('',#157,1.);
#157 = DIRECTION('',(0.,0.,1.));
#158 = ORIENTED_EDGE('',*,*,#159,.F.);
#159 = EDGE_CURVE('',#90,#152,#160,.T.);
#160 = LINE('',#161,#162);
#161 = CARTESIAN_POINT('',(-1.27,1.016,0.));
#162 = VECTOR('',#163,1.);
#163 = DIRECTION('',(0.,-1.,0.));
#164 = PLANE('',#165);
#165 = AXIS2_PLACEMENT_3D('',#166,#167,#168);
#166 = CARTESIAN_POINT('',(-1.27,1.016,0.));
#167 = DIRECTION('',(1.,0.,0.));
#168 = DIRECTION('',(0.,-1.,0.));
#169 = ADVANCED_FACE('',(#170,#213),#247,.F.);
#170 = FACE_BOUND('',#171,.F.);
#171 = EDGE_LOOP('',(#172,#173,#174,#182,#190,#198,#206,#212));
#172 = ORIENTED_EDGE('',*,*,#97,.T.);
#173 = ORIENTED_EDGE('',*,*,#159,.T.);
#174 = ORIENTED_EDGE('',*,*,#175,.T.);
#175 = EDGE_CURVE('',#152,#176,#178,.T.);
#176 = VERTEX_POINT('',#177);
#177 = CARTESIAN_POINT('',(-1.016,-1.27,0.));
#178 = LINE('',#179,#180);
#179 = CARTESIAN_POINT('',(-1.27,-1.016,0.));
#180 = VECTOR('',#181,1.);
#181 = DIRECTION('',(0.707106781187,-0.707106781187,0.));
#182 = ORIENTED_EDGE('',*,*,#183,.T.);
#183 = EDGE_CURVE('',#176,#184,#186,.T.);
#184 = VERTEX_POINT('',#185);
#185 = CARTESIAN_POINT('',(1.016,-1.27,0.));
#186 = LINE('',#187,#188);
#187 = CARTESIAN_POINT('',(-1.016,-1.27,0.));
#188 = VECTOR('',#189,1.);
#189 = DIRECTION('',(1.,0.,0.));
#190 = ORIENTED_EDGE('',*,*,#191,.T.);
#191 = EDGE_CURVE('',#184,#192,#194,.T.);
#192 = VERTEX_POINT('',#193);
#193 = CARTESIAN_POINT('',(1.27,-1.016,0.));
#194 = LINE('',#195,#196);
#195 = CARTESIAN_POINT('',(1.016,-1.27,0.));
#196 = VECTOR('',#197,1.);
#197 = DIRECTION('',(0.707106781187,0.707106781187,0.));
#198 = ORIENTED_EDGE('',*,*,#199,.T.);
#199 = EDGE_CURVE('',#192,#200,#202,.T.);
#200 = VERTEX_POINT('',#201);
#201 = CARTESIAN_POINT('',(1.27,1.016,0.));
#202 = LINE('',#203,#204);
#203 = CARTESIAN_POINT('',(1.27,-1.016,0.));
#204 = VECTOR('',#205,1.);
#205 = DIRECTION('',(0.,1.,0.));
#206 = ORIENTED_EDGE('',*,*,#207,.T.);
#207 = EDGE_CURVE('',#200,#112,#208,.T.);
#208 = LINE('',#209,#210);
#209 = CARTESIAN_POINT('',(1.27,1.016,0.));
#210 = VECTOR('',#211,1.);
#211 = DIRECTION('',(-0.707106781187,0.707106781187,0.));
#212 = ORIENTED_EDGE('',*,*,#128,.T.);
#213 = FACE_BOUND('',#214,.F.);
#214 = EDGE_LOOP('',(#215,#225,#233,#241));
#215 = ORIENTED_EDGE('',*,*,#216,.T.);
#216 = EDGE_CURVE('',#217,#219,#221,.T.);
#217 = VERTEX_POINT('',#218);
#218 = CARTESIAN_POINT('',(0.32,-0.32,0.));
#219 = VERTEX_POINT('',#220);
#220 = CARTESIAN_POINT('',(-0.32,-0.32,0.));
#221 = LINE('',#222,#223);
#222 = CARTESIAN_POINT('',(-0.16,-0.32,0.));
#223 = VECTOR('',#224,1.);
#224 = DIRECTION('',(-1.,0.,0.));
#225 = ORIENTED_EDGE('',*,*,#226,.T.);
#226 = EDGE_CURVE('',#219,#227,#229,.T.);
#227 = VERTEX_POINT('',#228);
#228 = CARTESIAN_POINT('',(-0.32,0.32,0.));
#229 = LINE('',#230,#231);
#230 = CARTESIAN_POINT('',(-0.32,-0.16,0.));
#231 = VECTOR('',#232,1.);
#232 = DIRECTION('',(0.,1.,0.));
#233 = ORIENTED_EDGE('',*,*,#234,.F.);
#234 = EDGE_CURVE('',#235,#227,#237,.T.);
#235 = VERTEX_POINT('',#236);
#236 = CARTESIAN_POINT('',(0.32,0.32,0.));
#237 = LINE('',#238,#239);
#238 = CARTESIAN_POINT('',(-0.16,0.32,0.));
#239 = VECTOR('',#240,1.);
#240 = DIRECTION('',(-1.,0.,0.));
#241 = ORIENTED_EDGE('',*,*,#242,.F.);
#242 = EDGE_CURVE('',#217,#235,#243,.T.);
#243 = LINE('',#244,#245);
#244 = CARTESIAN_POINT('',(0.32,-0.16,0.));
#245 = VECTOR('',#246,1.);
#246 = DIRECTION('',(0.,1.,0.));
#247 = PLANE('',#248);
#248 = AXIS2_PLACEMENT_3D('',#249,#250,#251);
#249 = CARTESIAN_POINT('',(2.321466769849E-17,4.642933539699E-17,0.));
#250 = DIRECTION('',(0.,0.,1.));
#251 = DIRECTION('',(1.,0.,-0.));
#252 = ADVANCED_FACE('',(#253,#296),#330,.T.);
#253 = FACE_BOUND('',#254,.T.);
#254 = EDGE_LOOP('',(#255,#256,#257,#265,#273,#281,#289,#295));
#255 = ORIENTED_EDGE('',*,*,#81,.T.);
#256 = ORIENTED_EDGE('',*,*,#143,.T.);
#257 = ORIENTED_EDGE('',*,*,#258,.T.);
#258 = EDGE_CURVE('',#144,#259,#261,.T.);
#259 = VERTEX_POINT('',#260);
#260 = CARTESIAN_POINT('',(-1.016,-1.27,2.54));
#261 = LINE('',#262,#263);
#262 = CARTESIAN_POINT('',(-1.27,-1.016,2.54));
#263 = VECTOR('',#264,1.);
#264 = DIRECTION('',(0.707106781187,-0.707106781187,0.));
#265 = ORIENTED_EDGE('',*,*,#266,.T.);
#266 = EDGE_CURVE('',#259,#267,#269,.T.);
#267 = VERTEX_POINT('',#268);
#268 = CARTESIAN_POINT('',(1.016,-1.27,2.54));
#269 = LINE('',#270,#271);
#270 = CARTESIAN_POINT('',(-1.016,-1.27,2.54));
#271 = VECTOR('',#272,1.);
#272 = DIRECTION('',(1.,0.,0.));
#273 = ORIENTED_EDGE('',*,*,#274,.T.);
#274 = EDGE_CURVE('',#267,#275,#277,.T.);
#275 = VERTEX_POINT('',#276);
#276 = CARTESIAN_POINT('',(1.27,-1.016,2.54));
#277 = LINE('',#278,#279);
#278 = CARTESIAN_POINT('',(1.016,-1.27,2.54));
#279 = VECTOR('',#280,1.);
#280 = DIRECTION('',(0.707106781187,0.707106781187,0.));
#281 = ORIENTED_EDGE('',*,*,#282,.T.);
#282 = EDGE_CURVE('',#275,#283,#285,.T.);
#283 = VERTEX_POINT('',#284);
#284 = CARTESIAN_POINT('',(1.27,1.016,2.54));
#285 = LINE('',#286,#287);
#286 = CARTESIAN_POINT('',(1.27,-1.016,2.54));
#287 = VECTOR('',#288,1.);
#288 = DIRECTION('',(0.,1.,0.));
#289 = ORIENTED_EDGE('',*,*,#290,.T.);
#290 = EDGE_CURVE('',#283,#114,#291,.T.);
#291 = LINE('',#292,#293);
#292 = CARTESIAN_POINT('',(1.27,1.016,2.54));
#293 = VECTOR('',#294,1.);
#294 = DIRECTION('',(-0.707106781187,0.707106781187,0.));
#295 = ORIENTED_EDGE('',*,*,#121,.T.);
#296 = FACE_BOUND('',#297,.T.);
#297 = EDGE_LOOP('',(#298,#308,#316,#324));
#298 = ORIENTED_EDGE('',*,*,#299,.T.);
#299 = EDGE_CURVE('',#300,#302,#304,.T.);
#300 = VERTEX_POINT('',#301);
#301 = CARTESIAN_POINT('',(0.32,-0.32,2.54));
#302 = VERTEX_POINT('',#303);
#303 = CARTESIAN_POINT('',(-0.32,-0.32,2.54));
#304 = LINE('',#305,#306);
#305 = CARTESIAN_POINT('',(-0.16,-0.32,2.54));
#306 = VECTOR('',#307,1.);
#307 = DIRECTION('',(-1.,0.,0.));
#308 = ORIENTED_EDGE('',*,*,#309,.T.);
#309 = EDGE_CURVE('',#302,#310,#312,.T.);
#310 = VERTEX_POINT('',#311);
#311 = CARTESIAN_POINT('',(-0.32,0.32,2.54));
#312 = LINE('',#313,#314);
#313 = CARTESIAN_POINT('',(-0.32,-0.16,2.54));
#314 = VECTOR('',#315,1.);
#315 = DIRECTION('',(0.,1.,0.));
#316 = ORIENTED_EDGE('',*,*,#317,.F.);
#317 = EDGE_CURVE('',#318,#310,#320,.T.);
#318 = VERTEX_POINT('',#319);
#319 = CARTESIAN_POINT('',(0.32,0.32,2.54));
#320 = LINE('',#321,#322);
#321 = CARTESIAN_POINT('',(-0.16,0.32,2.54));
#322 = VECTOR('',#323,1.);
#323 = DIRECTION('',(-1.,0.,0.));
#324 = ORIENTED_EDGE('',*,*,#325,.F.);
#325 = EDGE_CURVE('',#300,#318,#326,.T.);
#326 = LINE('',#327,#328);
#327 = CARTESIAN_POINT('',(0.32,-0.16,2.54));
#328 = VECTOR('',#329,1.);
#329 = DIRECTION('',(0.,1.,0.));
#330 = PLANE('',#331);
#331 = AXIS2_PLACEMENT_3D('',#332,#333,#334);
#332 = CARTESIAN_POINT('',(2.321466769849E-17,4.642933539699E-17,2.54));
#333 = DIRECTION('',(0.,0.,1.));
#334 = DIRECTION('',(1.,0.,-0.));
#335 = ADVANCED_FACE('',(#336),#347,.F.);
#336 = FACE_BOUND('',#337,.F.);
#337 = EDGE_LOOP('',(#338,#344,#345,#346));
#338 = ORIENTED_EDGE('',*,*,#339,.T.);
#339 = EDGE_CURVE('',#200,#283,#340,.T.);
#340 = LINE('',#341,#342);
#341 = CARTESIAN_POINT('',(1.27,1.016,0.));
#342 = VECTOR('',#343,1.);
#343 = DIRECTION('',(0.,0.,1.));
#344 = ORIENTED_EDGE('',*,*,#290,.T.);
#345 = ORIENTED_EDGE('',*,*,#111,.F.);
#346 = ORIENTED_EDGE('',*,*,#207,.F.);
#347 = PLANE('',#348);
#348 = AXIS2_PLACEMENT_3D('',#349,#350,#351);
#349 = CARTESIAN_POINT('',(1.27,1.016,0.));
#350 = DIRECTION('',(-0.707106781187,-0.707106781187,0.));
#351 = DIRECTION('',(-0.707106781187,0.707106781187,0.));
#352 = ADVANCED_FACE('',(#353),#364,.F.);
#353 = FACE_BOUND('',#354,.F.);
#354 = EDGE_LOOP('',(#355,#356,#357,#363));
#355 = ORIENTED_EDGE('',*,*,#151,.T.);
#356 = ORIENTED_EDGE('',*,*,#258,.T.);
#357 = ORIENTED_EDGE('',*,*,#358,.F.);
#358 = EDGE_CURVE('',#176,#259,#359,.T.);
#359 = LINE('',#360,#361);
#360 = CARTESIAN_POINT('',(-1.016,-1.27,0.));
#361 = VECTOR('',#362,1.);
#362 = DIRECTION('',(0.,0.,1.));
#363 = ORIENTED_EDGE('',*,*,#175,.F.);
#364 = PLANE('',#365);
#365 = AXIS2_PLACEMENT_3D('',#366,#367,#368);
#366 = CARTESIAN_POINT('',(-1.27,-1.016,0.));
#367 = DIRECTION('',(0.707106781187,0.707106781187,0.));
#368 = DIRECTION('',(0.707106781187,-0.707106781187,0.));
#369 = ADVANCED_FACE('',(#370),#381,.F.);
#370 = FACE_BOUND('',#371,.F.);
#371 = EDGE_LOOP('',(#372,#378,#379,#380));
#372 = ORIENTED_EDGE('',*,*,#373,.T.);
#373 = EDGE_CURVE('',#192,#275,#374,.T.);
#374 = LINE('',#375,#376);
#375 = CARTESIAN_POINT('',(1.27,-1.016,0.));
#376 = VECTOR('',#377,1.);
#377 = DIRECTION('',(0.,0.,1.));
#378 = ORIENTED_EDGE('',*,*,#282,.T.);
#379 = ORIENTED_EDGE('',*,*,#339,.F.);
#380 = ORIENTED_EDGE('',*,*,#199,.F.);
#381 = PLANE('',#382);
#382 = AXIS2_PLACEMENT_3D('',#383,#384,#385);
#383 = CARTESIAN_POINT('',(1.27,-1.016,0.));
#384 = DIRECTION('',(-1.,0.,0.));
#385 = DIRECTION('',(0.,1.,0.));
#386 = ADVANCED_FACE('',(#387),#398,.F.);
#387 = FACE_BOUND('',#388,.F.);
#388 = EDGE_LOOP('',(#389,#390,#391,#397));
#389 = ORIENTED_EDGE('',*,*,#358,.T.);
#390 = ORIENTED_EDGE('',*,*,#266,.T.);
#391 = ORIENTED_EDGE('',*,*,#392,.F.);
#392 = EDGE_CURVE('',#184,#267,#393,.T.);
#393 = LINE('',#394,#395);
#394 = CARTESIAN_POINT('',(1.016,-1.27,0.));
#395 = VECTOR('',#396,1.);
#396 = DIRECTION('',(0.,0.,1.));
#397 = ORIENTED_EDGE('',*,*,#183,.F.);
#398 = PLANE('',#399);
#399 = AXIS2_PLACEMENT_3D('',#400,#401,#402);
#400 = CARTESIAN_POINT('',(-1.016,-1.27,0.));
#401 = DIRECTION('',(0.,1.,0.));
#402 = DIRECTION('',(1.,0.,0.));
#403 = ADVANCED_FACE('',(#404),#410,.F.);
#404 = FACE_BOUND('',#405,.F.);
#405 = EDGE_LOOP('',(#406,#407,#408,#409));
#406 = ORIENTED_EDGE('',*,*,#392,.T.);
#407 = ORIENTED_EDGE('',*,*,#274,.T.);
#408 = ORIENTED_EDGE('',*,*,#373,.F.);
#409 = ORIENTED_EDGE('',*,*,#191,.F.);
#410 = PLANE('',#411);
#411 = AXIS2_PLACEMENT_3D('',#412,#413,#414);
#412 = CARTESIAN_POINT('',(1.016,-1.27,0.));
#413 = DIRECTION('',(-0.707106781187,0.707106781187,0.));
#414 = DIRECTION('',(0.707106781187,0.707106781187,0.));
#415 = ADVANCED_FACE('',(#416),#441,.F.);
#416 = FACE_BOUND('',#417,.F.);
#417 = EDGE_LOOP('',(#418,#426,#434,#440));
#418 = ORIENTED_EDGE('',*,*,#419,.F.);
#419 = EDGE_CURVE('',#420,#217,#422,.T.);
#420 = VERTEX_POINT('',#421);
#421 = CARTESIAN_POINT('',(0.32,-0.32,-2.84));
#422 = LINE('',#423,#424);
#423 = CARTESIAN_POINT('',(0.32,-0.32,-3.));
#424 = VECTOR('',#425,1.);
#425 = DIRECTION('',(0.,0.,1.));
#426 = ORIENTED_EDGE('',*,*,#427,.F.);
#427 = EDGE_CURVE('',#428,#420,#430,.T.);
#428 = VERTEX_POINT('',#429);
#429 = CARTESIAN_POINT('',(-0.32,-0.32,-2.84));
#430 = LINE('',#431,#432);
#431 = CARTESIAN_POINT('',(-0.32,-0.32,-2.84));
#432 = VECTOR('',#433,1.);
#433 = DIRECTION('',(1.,0.,0.));
#434 = ORIENTED_EDGE('',*,*,#435,.T.);
#435 = EDGE_CURVE('',#428,#219,#436,.T.);
#436 = LINE('',#437,#438);
#437 = CARTESIAN_POINT('',(-0.32,-0.32,-3.));
#438 = VECTOR('',#439,1.);
#439 = DIRECTION('',(0.,0.,1.));
#440 = ORIENTED_EDGE('',*,*,#216,.F.);
#441 = PLANE('',#442);
#442 = AXIS2_PLACEMENT_3D('',#443,#444,#445);
#443 = CARTESIAN_POINT('',(-0.32,-0.32,-3.));
#444 = DIRECTION('',(0.,1.,0.));
#445 = DIRECTION('',(0.,-0.,1.));
#446 = ADVANCED_FACE('',(#447),#465,.T.);
#447 = FACE_BOUND('',#448,.T.);
#448 = EDGE_LOOP('',(#449,#450,#458,#464));
#449 = ORIENTED_EDGE('',*,*,#419,.F.);
#450 = ORIENTED_EDGE('',*,*,#451,.T.);
#451 = EDGE_CURVE('',#420,#452,#454,.T.);
#452 = VERTEX_POINT('',#453);
#453 = CARTESIAN_POINT('',(0.32,0.32,-2.84));
#454 = LINE('',#455,#456);
#455 = CARTESIAN_POINT('',(0.32,-0.32,-2.84));
#456 = VECTOR('',#457,1.);
#457 = DIRECTION('',(0.,1.,0.));
#458 = ORIENTED_EDGE('',*,*,#459,.T.);
#459 = EDGE_CURVE('',#452,#235,#460,.T.);
#460 = LINE('',#461,#462);
#461 = CARTESIAN_POINT('',(0.32,0.32,-3.));
#462 = VECTOR('',#463,1.);
#463 = DIRECTION('',(0.,0.,1.));
#464 = ORIENTED_EDGE('',*,*,#242,.F.);
#465 = PLANE('',#466);
#466 = AXIS2_PLACEMENT_3D('',#467,#468,#469);
#467 = CARTESIAN_POINT('',(0.32,-0.32,-3.));
#468 = DIRECTION('',(1.,0.,0.));
#469 = DIRECTION('',(0.,0.,1.));
#470 = ADVANCED_FACE('',(#471),#489,.T.);
#471 = FACE_BOUND('',#472,.T.);
#472 = EDGE_LOOP('',(#473,#474,#482,#488));
#473 = ORIENTED_EDGE('',*,*,#459,.F.);
#474 = ORIENTED_EDGE('',*,*,#475,.F.);
#475 = EDGE_CURVE('',#476,#452,#478,.T.);
#476 = VERTEX_POINT('',#477);
#477 = CARTESIAN_POINT('',(-0.32,0.32,-2.84));
#478 = LINE('',#479,#480);
#479 = CARTESIAN_POINT('',(-0.32,0.32,-2.84));
#480 = VECTOR('',#481,1.);
#481 = DIRECTION('',(1.,0.,0.));
#482 = ORIENTED_EDGE('',*,*,#483,.T.);
#483 = EDGE_CURVE('',#476,#227,#484,.T.);
#484 = LINE('',#485,#486);
#485 = CARTESIAN_POINT('',(-0.32,0.32,-3.));
#486 = VECTOR('',#487,1.);
#487 = DIRECTION('',(0.,0.,1.));
#488 = ORIENTED_EDGE('',*,*,#234,.F.);
#489 = PLANE('',#490);
#490 = AXIS2_PLACEMENT_3D('',#491,#492,#493);
#491 = CARTESIAN_POINT('',(-0.32,0.32,-3.));
#492 = DIRECTION('',(0.,1.,0.));
#493 = DIRECTION('',(0.,-0.,1.));
#494 = ADVANCED_FACE('',(#495),#506,.F.);
#495 = FACE_BOUND('',#496,.F.);
#496 = EDGE_LOOP('',(#497,#498,#504,#505));
#497 = ORIENTED_EDGE('',*,*,#435,.F.);
#498 = ORIENTED_EDGE('',*,*,#499,.T.);
#499 = EDGE_CURVE('',#428,#476,#500,.T.);
#500 = LINE('',#501,#502);
#501 = CARTESIAN_POINT('',(-0.32,-0.32,-2.84));
#502 = VECTOR('',#503,1.);
#503 = DIRECTION('',(0.,1.,0.));
#504 = ORIENTED_EDGE('',*,*,#483,.T.);
#505 = ORIENTED_EDGE('',*,*,#226,.F.);
#506 = PLANE('',#507);
#507 = AXIS2_PLACEMENT_3D('',#508,#509,#510);
#508 = CARTESIAN_POINT('',(-0.32,-0.32,-3.));
#509 = DIRECTION('',(1.,0.,0.));
#510 = DIRECTION('',(0.,0.,1.));
#511 = ADVANCED_FACE('',(#512),#537,.F.);
#512 = FACE_BOUND('',#513,.F.);
#513 = EDGE_LOOP('',(#514,#522,#523,#531));
#514 = ORIENTED_EDGE('',*,*,#515,.F.);
#515 = EDGE_CURVE('',#300,#516,#518,.T.);
#516 = VERTEX_POINT('',#517);
#517 = CARTESIAN_POINT('',(0.32,-0.32,8.38));
#518 = LINE('',#519,#520);
#519 = CARTESIAN_POINT('',(0.32,-0.32,-3.));
#520 = VECTOR('',#521,1.);
#521 = DIRECTION('',(0.,0.,1.));
#522 = ORIENTED_EDGE('',*,*,#299,.T.);
#523 = ORIENTED_EDGE('',*,*,#524,.T.);
#524 = EDGE_CURVE('',#302,#525,#527,.T.);
#525 = VERTEX_POINT('',#526);
#526 = CARTESIAN_POINT('',(-0.32,-0.32,8.38));
#527 = LINE('',#528,#529);
#528 = CARTESIAN_POINT('',(-0.32,-0.32,-3.));
#529 = VECTOR('',#530,1.);
#530 = DIRECTION('',(0.,0.,1.));
#531 = ORIENTED_EDGE('',*,*,#532,.T.);
#532 = EDGE_CURVE('',#525,#516,#533,.T.);
#533 = LINE('',#534,#535);
#534 = CARTESIAN_POINT('',(-0.32,-0.32,8.38));
#535 = VECTOR('',#536,1.);
#536 = DIRECTION('',(1.,0.,0.));
#537 = PLANE('',#538);
#538 = AXIS2_PLACEMENT_3D('',#539,#540,#541);
#539 = CARTESIAN_POINT('',(-0.32,-0.32,-3.));
#540 = DIRECTION('',(0.,1.,0.));
#541 = DIRECTION('',(0.,-0.,1.));
#542 = ADVANCED_FACE('',(#543),#561,.T.);
#543 = FACE_BOUND('',#544,.T.);
#544 = EDGE_LOOP('',(#545,#546,#547,#555));
#545 = ORIENTED_EDGE('',*,*,#515,.F.);
#546 = ORIENTED_EDGE('',*,*,#325,.T.);
#547 = ORIENTED_EDGE('',*,*,#548,.T.);
#548 = EDGE_CURVE('',#318,#549,#551,.T.);
#549 = VERTEX_POINT('',#550);
#550 = CARTESIAN_POINT('',(0.32,0.32,8.38));
#551 = LINE('',#552,#553);
#552 = CARTESIAN_POINT('',(0.32,0.32,-3.));
#553 = VECTOR('',#554,1.);
#554 = DIRECTION('',(0.,0.,1.));
#555 = ORIENTED_EDGE('',*,*,#556,.F.);
#556 = EDGE_CURVE('',#516,#549,#557,.T.);
#557 = LINE('',#558,#559);
#558 = CARTESIAN_POINT('',(0.32,-0.32,8.38));
#559 = VECTOR('',#560,1.);
#560 = DIRECTION('',(0.,1.,0.));
#561 = PLANE('',#562);
#562 = AXIS2_PLACEMENT_3D('',#563,#564,#565);
#563 = CARTESIAN_POINT('',(0.32,-0.32,-3.));
#564 = DIRECTION('',(1.,0.,0.));
#565 = DIRECTION('',(0.,0.,1.));
#566 = ADVANCED_FACE('',(#567),#585,.T.);
#567 = FACE_BOUND('',#568,.T.);
#568 = EDGE_LOOP('',(#569,#570,#571,#579));
#569 = ORIENTED_EDGE('',*,*,#548,.F.);
#570 = ORIENTED_EDGE('',*,*,#317,.T.);
#571 = ORIENTED_EDGE('',*,*,#572,.T.);
#572 = EDGE_CURVE('',#310,#573,#575,.T.);
#573 = VERTEX_POINT('',#574);
#574 = CARTESIAN_POINT('',(-0.32,0.32,8.38));
#575 = LINE('',#576,#577);
#576 = CARTESIAN_POINT('',(-0.32,0.32,-3.));
#577 = VECTOR('',#578,1.);
#578 = DIRECTION('',(0.,0.,1.));
#579 = ORIENTED_EDGE('',*,*,#580,.T.);
#580 = EDGE_CURVE('',#573,#549,#581,.T.);
#581 = LINE('',#582,#583);
#582 = CARTESIAN_POINT('',(-0.32,0.32,8.38));
#583 = VECTOR('',#584,1.);
#584 = DIRECTION('',(1.,0.,0.));
#585 = PLANE('',#586);
#586 = AXIS2_PLACEMENT_3D('',#587,#588,#589);
#587 = CARTESIAN_POINT('',(-0.32,0.32,-3.));
#588 = DIRECTION('',(0.,1.,0.));
#589 = DIRECTION('',(0.,-0.,1.));
#590 = ADVANCED_FACE('',(#591),#602,.F.);
#591 = FACE_BOUND('',#592,.F.);
#592 = EDGE_LOOP('',(#593,#594,#595,#596));
#593 = ORIENTED_EDGE('',*,*,#524,.F.);
#594 = ORIENTED_EDGE('',*,*,#309,.T.);
#595 = ORIENTED_EDGE('',*,*,#572,.T.);
#596 = ORIENTED_EDGE('',*,*,#597,.F.);
#597 = EDGE_CURVE('',#525,#573,#598,.T.);
#598 = LINE('',#599,#600);
#599 = CARTESIAN_POINT('',(-0.32,-0.32,8.38));
#600 = VECTOR('',#601,1.);
#601 = DIRECTION('',(0.,1.,0.));
#602 = PLANE('',#603);
#603 = AXIS2_PLACEMENT_3D('',#604,#605,#606);
#604 = CARTESIAN_POINT('',(-0.32,-0.32,-3.));
#605 = DIRECTION('',(1.,0.,0.));
#606 = DIRECTION('',(0.,0.,1.));
#607 = ADVANCED_FACE('',(#608),#633,.T.);
#608 = FACE_BOUND('',#609,.F.);
#609 = EDGE_LOOP('',(#610,#618,#619,#627));
#610 = ORIENTED_EDGE('',*,*,#611,.F.);
#611 = EDGE_CURVE('',#428,#612,#614,.T.);
#612 = VERTEX_POINT('',#613);
#613 = CARTESIAN_POINT('',(-0.16,-0.16,-3.));
#614 = LINE('',#615,#616);
#615 = CARTESIAN_POINT('',(-0.266666666667,-0.266666666667,
    -2.893333333333));
#616 = VECTOR('',#617,1.);
#617 = DIRECTION('',(0.57735026919,0.57735026919,-0.57735026919));
#618 = ORIENTED_EDGE('',*,*,#427,.T.);
#619 = ORIENTED_EDGE('',*,*,#620,.T.);
#620 = EDGE_CURVE('',#420,#621,#623,.T.);
#621 = VERTEX_POINT('',#622);
#622 = CARTESIAN_POINT('',(0.16,-0.16,-3.));
#623 = LINE('',#624,#625);
#624 = CARTESIAN_POINT('',(0.16,-0.16,-3.));
#625 = VECTOR('',#626,1.);
#626 = DIRECTION('',(-0.57735026919,0.57735026919,-0.57735026919));
#627 = ORIENTED_EDGE('',*,*,#628,.F.);
#628 = EDGE_CURVE('',#612,#621,#629,.T.);
#629 = LINE('',#630,#631);
#630 = CARTESIAN_POINT('',(-0.32,-0.16,-3.));
#631 = VECTOR('',#632,1.);
#632 = DIRECTION('',(1.,0.,0.));
#633 = PLANE('',#634);
#634 = AXIS2_PLACEMENT_3D('',#635,#636,#637);
#635 = CARTESIAN_POINT('',(-0.32,-0.24,-2.92));
#636 = DIRECTION('',(1.735167508357E-18,-0.707106781187,-0.707106781187)
  );
#637 = DIRECTION('',(-1.,-1.226948711654E-18,-1.226948711654E-18));
#638 = ADVANCED_FACE('',(#639),#657,.F.);
#639 = FACE_BOUND('',#640,.F.);
#640 = EDGE_LOOP('',(#641,#642,#643,#651));
#641 = ORIENTED_EDGE('',*,*,#620,.F.);
#642 = ORIENTED_EDGE('',*,*,#451,.T.);
#643 = ORIENTED_EDGE('',*,*,#644,.T.);
#644 = EDGE_CURVE('',#452,#645,#647,.T.);
#645 = VERTEX_POINT('',#646);
#646 = CARTESIAN_POINT('',(0.16,0.16,-3.));
#647 = LINE('',#648,#649);
#648 = CARTESIAN_POINT('',(5.333333333333E-02,5.333333333333E-02,
    -3.106666666667));
#649 = VECTOR('',#650,1.);
#650 = DIRECTION('',(-0.57735026919,-0.57735026919,-0.57735026919));
#651 = ORIENTED_EDGE('',*,*,#652,.F.);
#652 = EDGE_CURVE('',#621,#645,#653,.T.);
#653 = LINE('',#654,#655);
#654 = CARTESIAN_POINT('',(0.16,-0.32,-3.));
#655 = VECTOR('',#656,1.);
#656 = DIRECTION('',(0.,1.,0.));
#657 = PLANE('',#658);
#658 = AXIS2_PLACEMENT_3D('',#659,#660,#661);
#659 = CARTESIAN_POINT('',(0.24,-0.32,-2.92));
#660 = DIRECTION('',(-0.707106781187,1.735167508357E-18,0.707106781187)
  );
#661 = DIRECTION('',(1.226948711654E-18,1.,-1.226948711654E-18));
#662 = ADVANCED_FACE('',(#663),#681,.F.);
#663 = FACE_BOUND('',#664,.T.);
#664 = EDGE_LOOP('',(#665,#673,#674,#675));
#665 = ORIENTED_EDGE('',*,*,#666,.F.);
#666 = EDGE_CURVE('',#476,#667,#669,.T.);
#667 = VERTEX_POINT('',#668);
#668 = CARTESIAN_POINT('',(-0.16,0.16,-3.));
#669 = LINE('',#670,#671);
#670 = CARTESIAN_POINT('',(-0.16,0.16,-3.));
#671 = VECTOR('',#672,1.);
#672 = DIRECTION('',(0.57735026919,-0.57735026919,-0.57735026919));
#673 = ORIENTED_EDGE('',*,*,#475,.T.);
#674 = ORIENTED_EDGE('',*,*,#644,.T.);
#675 = ORIENTED_EDGE('',*,*,#676,.F.);
#676 = EDGE_CURVE('',#667,#645,#677,.T.);
#677 = LINE('',#678,#679);
#678 = CARTESIAN_POINT('',(-0.32,0.16,-3.));
#679 = VECTOR('',#680,1.);
#680 = DIRECTION('',(1.,0.,0.));
#681 = PLANE('',#682);
#682 = AXIS2_PLACEMENT_3D('',#683,#684,#685);
#683 = CARTESIAN_POINT('',(-0.32,0.24,-2.92));
#684 = DIRECTION('',(-1.735167508357E-18,-0.707106781187,0.707106781187)
  );
#685 = DIRECTION('',(-1.,1.226948711654E-18,-1.226948711654E-18));
#686 = ADVANCED_FACE('',(#687),#698,.T.);
#687 = FACE_BOUND('',#688,.T.);
#688 = EDGE_LOOP('',(#689,#690,#691,#692));
#689 = ORIENTED_EDGE('',*,*,#611,.F.);
#690 = ORIENTED_EDGE('',*,*,#499,.T.);
#691 = ORIENTED_EDGE('',*,*,#666,.T.);
#692 = ORIENTED_EDGE('',*,*,#693,.F.);
#693 = EDGE_CURVE('',#612,#667,#694,.T.);
#694 = LINE('',#695,#696);
#695 = CARTESIAN_POINT('',(-0.16,-0.32,-3.));
#696 = VECTOR('',#697,1.);
#697 = DIRECTION('',(0.,1.,0.));
#698 = PLANE('',#699);
#699 = AXIS2_PLACEMENT_3D('',#700,#701,#702);
#700 = CARTESIAN_POINT('',(-0.24,-0.32,-2.92));
#701 = DIRECTION('',(-0.707106781187,-1.735167508357E-18,-0.707106781187
    ));
#702 = DIRECTION('',(-1.226948711654E-18,1.,-1.226948711654E-18));
#703 = ADVANCED_FACE('',(#704),#729,.F.);
#704 = FACE_BOUND('',#705,.T.);
#705 = EDGE_LOOP('',(#706,#714,#715,#723));
#706 = ORIENTED_EDGE('',*,*,#707,.F.);
#707 = EDGE_CURVE('',#525,#708,#710,.T.);
#708 = VERTEX_POINT('',#709);
#709 = CARTESIAN_POINT('',(-0.16,-0.16,8.54));
#710 = LINE('',#711,#712);
#711 = CARTESIAN_POINT('',(-0.266666666667,-0.266666666667,
    8.433333333333));
#712 = VECTOR('',#713,1.);
#713 = DIRECTION('',(0.57735026919,0.57735026919,0.57735026919));
#714 = ORIENTED_EDGE('',*,*,#532,.T.);
#715 = ORIENTED_EDGE('',*,*,#716,.T.);
#716 = EDGE_CURVE('',#516,#717,#719,.T.);
#717 = VERTEX_POINT('',#718);
#718 = CARTESIAN_POINT('',(0.16,-0.16,8.54));
#719 = LINE('',#720,#721);
#720 = CARTESIAN_POINT('',(0.16,-0.16,8.54));
#721 = VECTOR('',#722,1.);
#722 = DIRECTION('',(-0.57735026919,0.57735026919,0.57735026919));
#723 = ORIENTED_EDGE('',*,*,#724,.F.);
#724 = EDGE_CURVE('',#708,#717,#725,.T.);
#725 = LINE('',#726,#727);
#726 = CARTESIAN_POINT('',(-0.32,-0.16,8.54));
#727 = VECTOR('',#728,1.);
#728 = DIRECTION('',(1.,0.,0.));
#729 = PLANE('',#730);
#730 = AXIS2_PLACEMENT_3D('',#731,#732,#733);
#731 = CARTESIAN_POINT('',(-0.32,-0.24,8.46));
#732 = DIRECTION('',(-1.735167508357E-18,0.707106781187,-0.707106781187)
  );
#733 = DIRECTION('',(-1.,-1.226948711654E-18,1.226948711654E-18));
#734 = ADVANCED_FACE('',(#735),#753,.T.);
#735 = FACE_BOUND('',#736,.T.);
#736 = EDGE_LOOP('',(#737,#738,#739,#747));
#737 = ORIENTED_EDGE('',*,*,#716,.F.);
#738 = ORIENTED_EDGE('',*,*,#556,.T.);
#739 = ORIENTED_EDGE('',*,*,#740,.T.);
#740 = EDGE_CURVE('',#549,#741,#743,.T.);
#741 = VERTEX_POINT('',#742);
#742 = CARTESIAN_POINT('',(0.16,0.16,8.54));
#743 = LINE('',#744,#745);
#744 = CARTESIAN_POINT('',(5.333333333333E-02,5.333333333333E-02,
    8.646666666667));
#745 = VECTOR('',#746,1.);
#746 = DIRECTION('',(-0.57735026919,-0.57735026919,0.57735026919));
#747 = ORIENTED_EDGE('',*,*,#748,.F.);
#748 = EDGE_CURVE('',#717,#741,#749,.T.);
#749 = LINE('',#750,#751);
#750 = CARTESIAN_POINT('',(0.16,-0.32,8.54));
#751 = VECTOR('',#752,1.);
#752 = DIRECTION('',(0.,1.,0.));
#753 = PLANE('',#754);
#754 = AXIS2_PLACEMENT_3D('',#755,#756,#757);
#755 = CARTESIAN_POINT('',(0.24,-0.32,8.46));
#756 = DIRECTION('',(0.707106781187,-1.735167508357E-18,0.707106781187)
  );
#757 = DIRECTION('',(1.226948711654E-18,1.,1.226948711654E-18));
#758 = ADVANCED_FACE('',(#759),#777,.T.);
#759 = FACE_BOUND('',#760,.F.);
#760 = EDGE_LOOP('',(#761,#769,#770,#771));
#761 = ORIENTED_EDGE('',*,*,#762,.F.);
#762 = EDGE_CURVE('',#573,#763,#765,.T.);
#763 = VERTEX_POINT('',#764);
#764 = CARTESIAN_POINT('',(-0.16,0.16,8.54));
#765 = LINE('',#766,#767);
#766 = CARTESIAN_POINT('',(-0.16,0.16,8.54));
#767 = VECTOR('',#768,1.);
#768 = DIRECTION('',(0.57735026919,-0.57735026919,0.57735026919));
#769 = ORIENTED_EDGE('',*,*,#580,.T.);
#770 = ORIENTED_EDGE('',*,*,#740,.T.);
#771 = ORIENTED_EDGE('',*,*,#772,.F.);
#772 = EDGE_CURVE('',#763,#741,#773,.T.);
#773 = LINE('',#774,#775);
#774 = CARTESIAN_POINT('',(-0.32,0.16,8.54));
#775 = VECTOR('',#776,1.);
#776 = DIRECTION('',(1.,0.,0.));
#777 = PLANE('',#778);
#778 = AXIS2_PLACEMENT_3D('',#779,#780,#781);
#779 = CARTESIAN_POINT('',(-0.32,0.24,8.46));
#780 = DIRECTION('',(1.735167508357E-18,0.707106781187,0.707106781187));
#781 = DIRECTION('',(-1.,1.226948711654E-18,1.226948711654E-18));
#782 = ADVANCED_FACE('',(#783),#794,.F.);
#783 = FACE_BOUND('',#784,.F.);
#784 = EDGE_LOOP('',(#785,#786,#787,#788));
#785 = ORIENTED_EDGE('',*,*,#707,.F.);
#786 = ORIENTED_EDGE('',*,*,#597,.T.);
#787 = ORIENTED_EDGE('',*,*,#762,.T.);
#788 = ORIENTED_EDGE('',*,*,#789,.F.);
#789 = EDGE_CURVE('',#708,#763,#790,.T.);
#790 = LINE('',#791,#792);
#791 = CARTESIAN_POINT('',(-0.16,-0.32,8.54));
#792 = VECTOR('',#793,1.);
#793 = DIRECTION('',(0.,1.,0.));
#794 = PLANE('',#795);
#795 = AXIS2_PLACEMENT_3D('',#796,#797,#798);
#796 = CARTESIAN_POINT('',(-0.24,-0.32,8.46));
#797 = DIRECTION('',(0.707106781187,1.735167508357E-18,-0.707106781187)
  );
#798 = DIRECTION('',(-1.226948711654E-18,1.,1.226948711654E-18));
#799 = ADVANCED_FACE('',(#800),#806,.F.);
#800 = FACE_BOUND('',#801,.F.);
#801 = EDGE_LOOP('',(#802,#803,#804,#805));
#802 = ORIENTED_EDGE('',*,*,#676,.F.);
#803 = ORIENTED_EDGE('',*,*,#693,.F.);
#804 = ORIENTED_EDGE('',*,*,#628,.T.);
#805 = ORIENTED_EDGE('',*,*,#652,.T.);
#806 = PLANE('',#807);
#807 = AXIS2_PLACEMENT_3D('',#808,#809,#810);
#808 = CARTESIAN_POINT('',(-0.32,-0.32,-3.));
#809 = DIRECTION('',(0.,0.,1.));
#810 = DIRECTION('',(1.,0.,-0.));
#811 = ADVANCED_FACE('',(#812),#818,.T.);
#812 = FACE_BOUND('',#813,.T.);
#813 = EDGE_LOOP('',(#814,#815,#816,#817));
#814 = ORIENTED_EDGE('',*,*,#748,.T.);
#815 = ORIENTED_EDGE('',*,*,#772,.F.);
#816 = ORIENTED_EDGE('',*,*,#789,.F.);
#817 = ORIENTED_EDGE('',*,*,#724,.T.);
#818 = PLANE('',#819);
#819 = AXIS2_PLACEMENT_3D('',#820,#821,#822);
#820 = CARTESIAN_POINT('',(-0.32,-0.32,8.54));
#821 = DIRECTION('',(0.,0.,1.));
#822 = DIRECTION('',(1.,0.,-0.));
#823 = ( GEOMETRIC_REPRESENTATION_CONTEXT(3) 
GLOBAL_UNCERTAINTY_ASSIGNED_CONTEXT((#827)) GLOBAL_UNIT_ASSIGNED_CONTEXT
((#824,#825,#826)) REPRESENTATION_CONTEXT('Context #1',
  '3D Context with UNIT and UNCERTAINTY') );
#824 = ( LENGTH_UNIT() NAMED_UNIT(*) SI_UNIT(.MILLI.,.METRE.) );
#825 = ( NAMED_UNIT(*) PLANE_ANGLE_UNIT() SI_UNIT($,.RADIAN.) );
#826 = ( NAMED_UNIT(*) SI_UNIT($,.STERADIAN.) SOLID_ANGLE_UNIT() );
#827 = UNCERTAINTY_MEASURE_WITH_UNIT(LENGTH_MEASURE(1.E-07),#824,
  'distance_accuracy_value','confusion accuracy');
#828 = CONTEXT_DEPENDENT_SHAPE_REPRESENTATION(#829,#831);
#829 = ( REPRESENTATION_RELATIONSHIP('','',#64,#10) 
REPRESENTATION_RELATIONSHIP_WITH_TRANSFORMATION(#830) 
SHAPE_REPRESENTATION_RELATIONSHIP() );
#830 = ITEM_DEFINED_TRANSFORMATION('','',#11,#15);
#831 = PRODUCT_DEFINITION_SHAPE('Placement','Placement of an item',#832
  );
#832 = NEXT_ASSEMBLY_USAGE_OCCURRENCE('1','J8','',#5,#59,$);
#833 = PRODUCT_RELATED_PRODUCT_CATEGORY('part',$,(#61));
#834 = CONTEXT_DEPENDENT_SHAPE_REPRESENTATION(#835,#837);
#835 = ( REPRESENTATION_RELATIONSHIP('','',#64,#10) 
REPRESENTATION_RELATIONSHIP_WITH_TRANSFORMATION(#836) 
SHAPE_REPRESENTATION_RELATIONSHIP() );
#836 = ITEM_DEFINED_TRANSFORMATION('','',#11,#19);
#837 = PRODUCT_DEFINITION_SHAPE('Placement','Placement of an item',#838
  );
#838 = NEXT_ASSEMBLY_USAGE_OCCURRENCE('2','J7','',#5,#59,$);
#839 = CONTEXT_DEPENDENT_SHAPE_REPRESENTATION(#840,#842);
#840 = ( REPRESENTATION_RELATIONSHIP('','',#64,#10) 
REPRESENTATION_RELATIONSHIP_WITH_TRANSFORMATION(#841) 
SHAPE_REPRESENTATION_RELATIONSHIP() );
#841 = ITEM_DEFINED_TRANSFORMATION('','',#11,#23);
#842 = PRODUCT_DEFINITION_SHAPE('Placement','Placement of an item',#843
  );
#843 = NEXT_ASSEMBLY_USAGE_OCCURRENCE('3','J1','',#5,#59,$);
#844 = CONTEXT_DEPENDENT_SHAPE_REPRESENTATION(#845,#847);
#845 = ( REPRESENTATION_RELATIONSHIP('','',#64,#10) 
REPRESENTATION_RELATIONSHIP_WITH_TRANSFORMATION(#846) 
SHAPE_REPRESENTATION_RELATIONSHIP() );
#846 = ITEM_DEFINED_TRANSFORMATION('','',#11,#27);
#847 = PRODUCT_DEFINITION_SHAPE('Placement','Placement of an item',#848
  );
#848 = NEXT_ASSEMBLY_USAGE_OCCURRENCE('4','J4','',#5,#59,$);
#849 = CONTEXT_DEPENDENT_SHAPE_REPRESENTATION(#850,#852);
#850 = ( REPRESENTATION_RELATIONSHIP('','',#64,#10) 
REPRESENTATION_RELATIONSHIP_WITH_TRANSFORMATION(#851) 
SHAPE_REPRESENTATION_RELATIONSHIP() );
#851 = ITEM_DEFINED_TRANSFORMATION('','',#11,#31);
#852 = PRODUCT_DEFINITION_SHAPE('Placement','Placement of an item',#853
  );
#853 = NEXT_ASSEMBLY_USAGE_OCCURRENCE('5','J3','',#5,#59,$);
#854 = CONTEXT_DEPENDENT_SHAPE_REPRESENTATION(#855,#857);
#855 = ( REPRESENTATION_RELATIONSHIP('','',#64,#10) 
REPRESENTATION_RELATIONSHIP_WITH_TRANSFORMATION(#856) 
SHAPE_REPRESENTATION_RELATIONSHIP() );
#856 = ITEM_DEFINED_TRANSFORMATION('','',#11,#35);
#857 = PRODUCT_DEFINITION_SHAPE('Placement','Placement of an item',#858
  );
#858 = NEXT_ASSEMBLY_USAGE_OCCURRENCE('6','J2','',#5,#59,$);
#859 = CONTEXT_DEPENDENT_SHAPE_REPRESENTATION(#860,#862);
#860 = ( REPRESENTATION_RELATIONSHIP('','',#64,#10) 
REPRESENTATION_RELATIONSHIP_WITH_TRANSFORMATION(#861) 
SHAPE_REPRESENTATION_RELATIONSHIP() );
#861 = ITEM_DEFINED_TRANSFORMATION('','',#11,#39);
#862 = PRODUCT_DEFINITION_SHAPE('Placement','Placement of an item',#863
  );
#863 = NEXT_ASSEMBLY_USAGE_OCCURRENCE('7','J6','',#5,#59,$);
#864 = CONTEXT_DEPENDENT_SHAPE_REPRESENTATION(#865,#867);
#865 = ( REPRESENTATION_RELATIONSHIP('','',#64,#10) 
REPRESENTATION_RELATIONSHIP_WITH_TRANSFORMATION(#866) 
SHAPE_REPRESENTATION_RELATIONSHIP() );
#866 = ITEM_DEFINED_TRANSFORMATION('','',#11,#43);
#867 = PRODUCT_DEFINITION_SHAPE('Placement','Placement of an item',#868
  );
#868 = NEXT_ASSEMBLY_USAGE_OCCURRENCE('8','J5','',#5,#59,$);
#869 = SHAPE_DEFINITION_REPRESENTATION(#870,#876);
#870 = PRODUCT_DEFINITION_SHAPE('','',#871);
#871 = PRODUCT_DEFINITION('design','',#872,#875);
#872 = PRODUCT_DEFINITION_FORMATION('','',#873);
#873 = PRODUCT('Active Flyback converter_PCB',
  'Active Flyback converter_PCB','',(#874));
#874 = PRODUCT_CONTEXT('',#2,'mechanical');
#875 = PRODUCT_DEFINITION_CONTEXT('part definition',#2,'design');
#876 = ADVANCED_BREP_SHAPE_REPRESENTATION('',(#11,#877),#1611);
#877 = MANIFOLD_SOLID_BREP('',#878);
#878 = CLOSED_SHELL('',(#879,#919,#950,#981,#1154,#1327,#1339,#1361,
    #1378,#1395,#1407,#1424,#1446,#1463,#1480,#1492,#1509,#1526,#1543,
    #1560,#1577,#1594));
#879 = ADVANCED_FACE('',(#880),#914,.T.);
#880 = FACE_BOUND('',#881,.T.);
#881 = EDGE_LOOP('',(#882,#892,#900,#908));
#882 = ORIENTED_EDGE('',*,*,#883,.T.);
#883 = EDGE_CURVE('',#884,#886,#888,.T.);
#884 = VERTEX_POINT('',#885);
#885 = CARTESIAN_POINT('',(138.,-92.,0.));
#886 = VERTEX_POINT('',#887);
#887 = CARTESIAN_POINT('',(138.,-92.,1.51));
#888 = LINE('',#889,#890);
#889 = CARTESIAN_POINT('',(138.,-92.,0.));
#890 = VECTOR('',#891,1.);
#891 = DIRECTION('',(0.,0.,1.));
#892 = ORIENTED_EDGE('',*,*,#893,.T.);
#893 = EDGE_CURVE('',#886,#894,#896,.T.);
#894 = VERTEX_POINT('',#895);
#895 = CARTESIAN_POINT('',(97.,-92.,1.51));
#896 = LINE('',#897,#898);
#897 = CARTESIAN_POINT('',(138.,-92.,1.51));
#898 = VECTOR('',#899,1.);
#899 = DIRECTION('',(-1.,0.,0.));
#900 = ORIENTED_EDGE('',*,*,#901,.F.);
#901 = EDGE_CURVE('',#902,#894,#904,.T.);
#902 = VERTEX_POINT('',#903);
#903 = CARTESIAN_POINT('',(97.,-92.,0.));
#904 = LINE('',#905,#906);
#905 = CARTESIAN_POINT('',(97.,-92.,0.));
#906 = VECTOR('',#907,1.);
#907 = DIRECTION('',(0.,0.,1.));
#908 = ORIENTED_EDGE('',*,*,#909,.F.);
#909 = EDGE_CURVE('',#884,#902,#910,.T.);
#910 = LINE('',#911,#912);
#911 = CARTESIAN_POINT('',(138.,-92.,0.));
#912 = VECTOR('',#913,1.);
#913 = DIRECTION('',(-1.,0.,0.));
#914 = PLANE('',#915);
#915 = AXIS2_PLACEMENT_3D('',#916,#917,#918);
#916 = CARTESIAN_POINT('',(138.,-92.,0.));
#917 = DIRECTION('',(0.,-1.,0.));
#918 = DIRECTION('',(-1.,0.,0.));
#919 = ADVANCED_FACE('',(#920),#945,.T.);
#920 = FACE_BOUND('',#921,.T.);
#921 = EDGE_LOOP('',(#922,#932,#938,#939));
#922 = ORIENTED_EDGE('',*,*,#923,.T.);
#923 = EDGE_CURVE('',#924,#926,#928,.T.);
#924 = VERTEX_POINT('',#925);
#925 = CARTESIAN_POINT('',(138.,-35.,0.));
#926 = VERTEX_POINT('',#927);
#927 = CARTESIAN_POINT('',(138.,-35.,1.51));
#928 = LINE('',#929,#930);
#929 = CARTESIAN_POINT('',(138.,-35.,0.));
#930 = VECTOR('',#931,1.);
#931 = DIRECTION('',(0.,0.,1.));
#932 = ORIENTED_EDGE('',*,*,#933,.T.);
#933 = EDGE_CURVE('',#926,#886,#934,.T.);
#934 = LINE('',#935,#936);
#935 = CARTESIAN_POINT('',(138.,-35.,1.51));
#936 = VECTOR('',#937,1.);
#937 = DIRECTION('',(0.,-1.,0.));
#938 = ORIENTED_EDGE('',*,*,#883,.F.);
#939 = ORIENTED_EDGE('',*,*,#940,.F.);
#940 = EDGE_CURVE('',#924,#884,#941,.T.);
#941 = LINE('',#942,#943);
#942 = CARTESIAN_POINT('',(138.,-35.,0.));
#943 = VECTOR('',#944,1.);
#944 = DIRECTION('',(0.,-1.,0.));
#945 = PLANE('',#946);
#946 = AXIS2_PLACEMENT_3D('',#947,#948,#949);
#947 = CARTESIAN_POINT('',(138.,-35.,0.));
#948 = DIRECTION('',(1.,0.,-0.));
#949 = DIRECTION('',(0.,-1.,0.));
#950 = ADVANCED_FACE('',(#951),#976,.T.);
#951 = FACE_BOUND('',#952,.T.);
#952 = EDGE_LOOP('',(#953,#954,#962,#970));
#953 = ORIENTED_EDGE('',*,*,#901,.T.);
#954 = ORIENTED_EDGE('',*,*,#955,.T.);
#955 = EDGE_CURVE('',#894,#956,#958,.T.);
#956 = VERTEX_POINT('',#957);
#957 = CARTESIAN_POINT('',(97.,-35.,1.51));
#958 = LINE('',#959,#960);
#959 = CARTESIAN_POINT('',(97.,-92.,1.51));
#960 = VECTOR('',#961,1.);
#961 = DIRECTION('',(0.,1.,0.));
#962 = ORIENTED_EDGE('',*,*,#963,.F.);
#963 = EDGE_CURVE('',#964,#956,#966,.T.);
#964 = VERTEX_POINT('',#965);
#965 = CARTESIAN_POINT('',(97.,-35.,0.));
#966 = LINE('',#967,#968);
#967 = CARTESIAN_POINT('',(97.,-35.,0.));
#968 = VECTOR('',#969,1.);
#969 = DIRECTION('',(0.,0.,1.));
#970 = ORIENTED_EDGE('',*,*,#971,.F.);
#971 = EDGE_CURVE('',#902,#964,#972,.T.);
#972 = LINE('',#973,#974);
#973 = CARTESIAN_POINT('',(97.,-92.,0.));
#974 = VECTOR('',#975,1.);
#975 = DIRECTION('',(0.,1.,0.));
#976 = PLANE('',#977);
#977 = AXIS2_PLACEMENT_3D('',#978,#979,#980);
#978 = CARTESIAN_POINT('',(97.,-92.,0.));
#979 = DIRECTION('',(-1.,0.,0.));
#980 = DIRECTION('',(0.,1.,0.));
#981 = ADVANCED_FACE('',(#982,#993,#1027,#1038,#1072,#1083,#1094,#1105,
    #1116,#1127,#1138),#1149,.F.);
#982 = FACE_BOUND('',#983,.F.);
#983 = EDGE_LOOP('',(#984,#985,#986,#992));
#984 = ORIENTED_EDGE('',*,*,#909,.F.);
#985 = ORIENTED_EDGE('',*,*,#940,.F.);
#986 = ORIENTED_EDGE('',*,*,#987,.F.);
#987 = EDGE_CURVE('',#964,#924,#988,.T.);
#988 = LINE('',#989,#990);
#989 = CARTESIAN_POINT('',(97.,-35.,0.));
#990 = VECTOR('',#991,1.);
#991 = DIRECTION('',(1.,0.,0.));
#992 = ORIENTED_EDGE('',*,*,#971,.F.);
#993 = FACE_BOUND('',#994,.F.);
#994 = EDGE_LOOP('',(#995,#1005,#1013,#1021));
#995 = ORIENTED_EDGE('',*,*,#996,.F.);
#996 = EDGE_CURVE('',#997,#999,#1001,.T.);
#997 = VERTEX_POINT('',#998);
#998 = CARTESIAN_POINT('',(112.5,-79.6,0.));
#999 = VERTEX_POINT('',#1000);
#1000 = CARTESIAN_POINT('',(122.5,-79.6,0.));
#1001 = LINE('',#1002,#1003);
#1002 = CARTESIAN_POINT('',(112.5,-79.6,0.));
#1003 = VECTOR('',#1004,1.);
#1004 = DIRECTION('',(1.,0.,0.));
#1005 = ORIENTED_EDGE('',*,*,#1006,.F.);
#1006 = EDGE_CURVE('',#1007,#997,#1009,.T.);
#1007 = VERTEX_POINT('',#1008);
#1008 = CARTESIAN_POINT('',(112.5,-77.,0.));
#1009 = LINE('',#1010,#1011);
#1010 = CARTESIAN_POINT('',(112.5,-77.,0.));
#1011 = VECTOR('',#1012,1.);
#1012 = DIRECTION('',(0.,-1.,0.));
#1013 = ORIENTED_EDGE('',*,*,#1014,.F.);
#1014 = EDGE_CURVE('',#1015,#1007,#1017,.T.);
#1015 = VERTEX_POINT('',#1016);
#1016 = CARTESIAN_POINT('',(122.5,-77.,0.));
#1017 = LINE('',#1018,#1019);
#1018 = CARTESIAN_POINT('',(122.5,-77.,0.));
#1019 = VECTOR('',#1020,1.);
#1020 = DIRECTION('',(-1.,0.,0.));
#1021 = ORIENTED_EDGE('',*,*,#1022,.F.);
#1022 = EDGE_CURVE('',#999,#1015,#1023,.T.);
#1023 = LINE('',#1024,#1025);
#1024 = CARTESIAN_POINT('',(122.5,-79.6,0.));
#1025 = VECTOR('',#1026,1.);
#1026 = DIRECTION('',(0.,1.,0.));
#1027 = FACE_BOUND('',#1028,.F.);
#1028 = EDGE_LOOP('',(#1029));
#1029 = ORIENTED_EDGE('',*,*,#1030,.T.);
#1030 = EDGE_CURVE('',#1031,#1031,#1033,.T.);
#1031 = VERTEX_POINT('',#1032);
#1032 = CARTESIAN_POINT('',(99.8,-67.,0.));
#1033 = CIRCLE('',#1034,0.5);
#1034 = AXIS2_PLACEMENT_3D('',#1035,#1036,#1037);
#1035 = CARTESIAN_POINT('',(99.8,-66.5,0.));
#1036 = DIRECTION('',(-0.,0.,-1.));
#1037 = DIRECTION('',(-0.,-1.,0.));
#1038 = FACE_BOUND('',#1039,.F.);
#1039 = EDGE_LOOP('',(#1040,#1050,#1058,#1066));
#1040 = ORIENTED_EDGE('',*,*,#1041,.F.);
#1041 = EDGE_CURVE('',#1042,#1044,#1046,.T.);
#1042 = VERTEX_POINT('',#1043);
#1043 = CARTESIAN_POINT('',(112.5,-53.7,0.));
#1044 = VERTEX_POINT('',#1045);
#1045 = CARTESIAN_POINT('',(122.5,-53.7,0.));
#1046 = LINE('',#1047,#1048);
#1047 = CARTESIAN_POINT('',(112.5,-53.7,0.));
#1048 = VECTOR('',#1049,1.);
#1049 = DIRECTION('',(1.,0.,0.));
#1050 = ORIENTED_EDGE('',*,*,#1051,.F.);
#1051 = EDGE_CURVE('',#1052,#1042,#1054,.T.);
#1052 = VERTEX_POINT('',#1053);
#1053 = CARTESIAN_POINT('',(112.5,-51.1,0.));
#1054 = LINE('',#1055,#1056);
#1055 = CARTESIAN_POINT('',(112.5,-51.1,0.));
#1056 = VECTOR('',#1057,1.);
#1057 = DIRECTION('',(0.,-1.,0.));
#1058 = ORIENTED_EDGE('',*,*,#1059,.F.);
#1059 = EDGE_CURVE('',#1060,#1052,#1062,.T.);
#1060 = VERTEX_POINT('',#1061);
#1061 = CARTESIAN_POINT('',(122.5,-51.1,0.));
#1062 = LINE('',#1063,#1064);
#1063 = CARTESIAN_POINT('',(122.5,-51.1,0.));
#1064 = VECTOR('',#1065,1.);
#1065 = DIRECTION('',(-1.,0.,0.));
#1066 = ORIENTED_EDGE('',*,*,#1067,.F.);
#1067 = EDGE_CURVE('',#1044,#1060,#1068,.T.);
#1068 = LINE('',#1069,#1070);
#1069 = CARTESIAN_POINT('',(122.5,-53.7,0.));
#1070 = VECTOR('',#1071,1.);
#1071 = DIRECTION('',(0.,1.,0.));
#1072 = FACE_BOUND('',#1073,.F.);
#1073 = EDGE_LOOP('',(#1074));
#1074 = ORIENTED_EDGE('',*,*,#1075,.T.);
#1075 = EDGE_CURVE('',#1076,#1076,#1078,.T.);
#1076 = VERTEX_POINT('',#1077);
#1077 = CARTESIAN_POINT('',(99.8,-40.1,0.));
#1078 = CIRCLE('',#1079,0.5);
#1079 = AXIS2_PLACEMENT_3D('',#1080,#1081,#1082);
#1080 = CARTESIAN_POINT('',(99.8,-39.6,0.));
#1081 = DIRECTION('',(-0.,0.,-1.));
#1082 = DIRECTION('',(-0.,-1.,0.));
#1083 = FACE_BOUND('',#1084,.F.);
#1084 = EDGE_LOOP('',(#1085));
#1085 = ORIENTED_EDGE('',*,*,#1086,.T.);
#1086 = EDGE_CURVE('',#1087,#1087,#1089,.T.);
#1087 = VERTEX_POINT('',#1088);
#1088 = CARTESIAN_POINT('',(135.7,-48.1,0.));
#1089 = CIRCLE('',#1090,0.5);
#1090 = AXIS2_PLACEMENT_3D('',#1091,#1092,#1093);
#1091 = CARTESIAN_POINT('',(135.7,-47.6,0.));
#1092 = DIRECTION('',(-0.,0.,-1.));
#1093 = DIRECTION('',(-0.,-1.,0.));
#1094 = FACE_BOUND('',#1095,.F.);
#1095 = EDGE_LOOP('',(#1096));
#1096 = ORIENTED_EDGE('',*,*,#1097,.T.);
#1097 = EDGE_CURVE('',#1098,#1098,#1100,.T.);
#1098 = VERTEX_POINT('',#1099);
#1099 = CARTESIAN_POINT('',(124.8,-37.7,0.));
#1100 = CIRCLE('',#1101,0.5);
#1101 = AXIS2_PLACEMENT_3D('',#1102,#1103,#1104);
#1102 = CARTESIAN_POINT('',(124.8,-37.2,0.));
#1103 = DIRECTION('',(-0.,0.,-1.));
#1104 = DIRECTION('',(-0.,-1.,0.));
#1105 = FACE_BOUND('',#1106,.F.);
#1106 = EDGE_LOOP('',(#1107));
#1107 = ORIENTED_EDGE('',*,*,#1108,.T.);
#1108 = EDGE_CURVE('',#1109,#1109,#1111,.T.);
#1109 = VERTEX_POINT('',#1110);
#1110 = CARTESIAN_POINT('',(135.7,-44.5,0.));
#1111 = CIRCLE('',#1112,0.5);
#1112 = AXIS2_PLACEMENT_3D('',#1113,#1114,#1115);
#1113 = CARTESIAN_POINT('',(135.7,-44.,0.));
#1114 = DIRECTION('',(-0.,0.,-1.));
#1115 = DIRECTION('',(-0.,-1.,0.));
#1116 = FACE_BOUND('',#1117,.F.);
#1117 = EDGE_LOOP('',(#1118));
#1118 = ORIENTED_EDGE('',*,*,#1119,.T.);
#1119 = EDGE_CURVE('',#1120,#1120,#1122,.T.);
#1120 = VERTEX_POINT('',#1121);
#1121 = CARTESIAN_POINT('',(128.4,-37.7,0.));
#1122 = CIRCLE('',#1123,0.5);
#1123 = AXIS2_PLACEMENT_3D('',#1124,#1125,#1126);
#1124 = CARTESIAN_POINT('',(128.4,-37.2,0.));
#1125 = DIRECTION('',(-0.,0.,-1.));
#1126 = DIRECTION('',(-0.,-1.,0.));
#1127 = FACE_BOUND('',#1128,.F.);
#1128 = EDGE_LOOP('',(#1129));
#1129 = ORIENTED_EDGE('',*,*,#1130,.T.);
#1130 = EDGE_CURVE('',#1131,#1131,#1133,.T.);
#1131 = VERTEX_POINT('',#1132);
#1132 = CARTESIAN_POINT('',(135.7,-40.9,0.));
#1133 = CIRCLE('',#1134,0.5);
#1134 = AXIS2_PLACEMENT_3D('',#1135,#1136,#1137);
#1135 = CARTESIAN_POINT('',(135.7,-40.4,0.));
#1136 = DIRECTION('',(-0.,0.,-1.));
#1137 = DIRECTION('',(-0.,-1.,0.));
#1138 = FACE_BOUND('',#1139,.F.);
#1139 = EDGE_LOOP('',(#1140));
#1140 = ORIENTED_EDGE('',*,*,#1141,.T.);
#1141 = EDGE_CURVE('',#1142,#1142,#1144,.T.);
#1142 = VERTEX_POINT('',#1143);
#1143 = CARTESIAN_POINT('',(132.,-37.7,0.));
#1144 = CIRCLE('',#1145,0.5);
#1145 = AXIS2_PLACEMENT_3D('',#1146,#1147,#1148);
#1146 = CARTESIAN_POINT('',(132.,-37.2,0.));
#1147 = DIRECTION('',(-0.,0.,-1.));
#1148 = DIRECTION('',(-0.,-1.,0.));
#1149 = PLANE('',#1150);
#1150 = AXIS2_PLACEMENT_3D('',#1151,#1152,#1153);
#1151 = CARTESIAN_POINT('',(0.,0.,0.));
#1152 = DIRECTION('',(0.,0.,1.));
#1153 = DIRECTION('',(1.,0.,-0.));
#1154 = ADVANCED_FACE('',(#1155,#1166,#1200,#1211,#1245,#1256,#1267,
    #1278,#1289,#1300,#1311),#1322,.T.);
#1155 = FACE_BOUND('',#1156,.T.);
#1156 = EDGE_LOOP('',(#1157,#1158,#1159,#1165));
#1157 = ORIENTED_EDGE('',*,*,#893,.F.);
#1158 = ORIENTED_EDGE('',*,*,#933,.F.);
#1159 = ORIENTED_EDGE('',*,*,#1160,.F.);
#1160 = EDGE_CURVE('',#956,#926,#1161,.T.);
#1161 = LINE('',#1162,#1163);
#1162 = CARTESIAN_POINT('',(97.,-35.,1.51));
#1163 = VECTOR('',#1164,1.);
#1164 = DIRECTION('',(1.,0.,0.));
#1165 = ORIENTED_EDGE('',*,*,#955,.F.);
#1166 = FACE_BOUND('',#1167,.T.);
#1167 = EDGE_LOOP('',(#1168,#1178,#1186,#1194));
#1168 = ORIENTED_EDGE('',*,*,#1169,.F.);
#1169 = EDGE_CURVE('',#1170,#1172,#1174,.T.);
#1170 = VERTEX_POINT('',#1171);
#1171 = CARTESIAN_POINT('',(112.5,-79.6,1.51));
#1172 = VERTEX_POINT('',#1173);
#1173 = CARTESIAN_POINT('',(122.5,-79.6,1.51));
#1174 = LINE('',#1175,#1176);
#1175 = CARTESIAN_POINT('',(112.5,-79.6,1.51));
#1176 = VECTOR('',#1177,1.);
#1177 = DIRECTION('',(1.,0.,0.));
#1178 = ORIENTED_EDGE('',*,*,#1179,.F.);
#1179 = EDGE_CURVE('',#1180,#1170,#1182,.T.);
#1180 = VERTEX_POINT('',#1181);
#1181 = CARTESIAN_POINT('',(112.5,-77.,1.51));
#1182 = LINE('',#1183,#1184);
#1183 = CARTESIAN_POINT('',(112.5,-77.,1.51));
#1184 = VECTOR('',#1185,1.);
#1185 = DIRECTION('',(0.,-1.,0.));
#1186 = ORIENTED_EDGE('',*,*,#1187,.F.);
#1187 = EDGE_CURVE('',#1188,#1180,#1190,.T.);
#1188 = VERTEX_POINT('',#1189);
#1189 = CARTESIAN_POINT('',(122.5,-77.,1.51));
#1190 = LINE('',#1191,#1192);
#1191 = CARTESIAN_POINT('',(122.5,-77.,1.51));
#1192 = VECTOR('',#1193,1.);
#1193 = DIRECTION('',(-1.,0.,0.));
#1194 = ORIENTED_EDGE('',*,*,#1195,.F.);
#1195 = EDGE_CURVE('',#1172,#1188,#1196,.T.);
#1196 = LINE('',#1197,#1198);
#1197 = CARTESIAN_POINT('',(122.5,-79.6,1.51));
#1198 = VECTOR('',#1199,1.);
#1199 = DIRECTION('',(0.,1.,0.));
#1200 = FACE_BOUND('',#1201,.T.);
#1201 = EDGE_LOOP('',(#1202));
#1202 = ORIENTED_EDGE('',*,*,#1203,.T.);
#1203 = EDGE_CURVE('',#1204,#1204,#1206,.T.);
#1204 = VERTEX_POINT('',#1205);
#1205 = CARTESIAN_POINT('',(99.8,-67.,1.51));
#1206 = CIRCLE('',#1207,0.5);
#1207 = AXIS2_PLACEMENT_3D('',#1208,#1209,#1210);
#1208 = CARTESIAN_POINT('',(99.8,-66.5,1.51));
#1209 = DIRECTION('',(-0.,0.,-1.));
#1210 = DIRECTION('',(-0.,-1.,0.));
#1211 = FACE_BOUND('',#1212,.T.);
#1212 = EDGE_LOOP('',(#1213,#1223,#1231,#1239));
#1213 = ORIENTED_EDGE('',*,*,#1214,.F.);
#1214 = EDGE_CURVE('',#1215,#1217,#1219,.T.);
#1215 = VERTEX_POINT('',#1216);
#1216 = CARTESIAN_POINT('',(112.5,-53.7,1.51));
#1217 = VERTEX_POINT('',#1218);
#1218 = CARTESIAN_POINT('',(122.5,-53.7,1.51));
#1219 = LINE('',#1220,#1221);
#1220 = CARTESIAN_POINT('',(112.5,-53.7,1.51));
#1221 = VECTOR('',#1222,1.);
#1222 = DIRECTION('',(1.,0.,0.));
#1223 = ORIENTED_EDGE('',*,*,#1224,.F.);
#1224 = EDGE_CURVE('',#1225,#1215,#1227,.T.);
#1225 = VERTEX_POINT('',#1226);
#1226 = CARTESIAN_POINT('',(112.5,-51.1,1.51));
#1227 = LINE('',#1228,#1229);
#1228 = CARTESIAN_POINT('',(112.5,-51.1,1.51));
#1229 = VECTOR('',#1230,1.);
#1230 = DIRECTION('',(0.,-1.,0.));
#1231 = ORIENTED_EDGE('',*,*,#1232,.F.);
#1232 = EDGE_CURVE('',#1233,#1225,#1235,.T.);
#1233 = VERTEX_POINT('',#1234);
#1234 = CARTESIAN_POINT('',(122.5,-51.1,1.51));
#1235 = LINE('',#1236,#1237);
#1236 = CARTESIAN_POINT('',(122.5,-51.1,1.51));
#1237 = VECTOR('',#1238,1.);
#1238 = DIRECTION('',(-1.,0.,0.));
#1239 = ORIENTED_EDGE('',*,*,#1240,.F.);
#1240 = EDGE_CURVE('',#1217,#1233,#1241,.T.);
#1241 = LINE('',#1242,#1243);
#1242 = CARTESIAN_POINT('',(122.5,-53.7,1.51));
#1243 = VECTOR('',#1244,1.);
#1244 = DIRECTION('',(0.,1.,0.));
#1245 = FACE_BOUND('',#1246,.T.);
#1246 = EDGE_LOOP('',(#1247));
#1247 = ORIENTED_EDGE('',*,*,#1248,.T.);
#1248 = EDGE_CURVE('',#1249,#1249,#1251,.T.);
#1249 = VERTEX_POINT('',#1250);
#1250 = CARTESIAN_POINT('',(99.8,-40.1,1.51));
#1251 = CIRCLE('',#1252,0.5);
#1252 = AXIS2_PLACEMENT_3D('',#1253,#1254,#1255);
#1253 = CARTESIAN_POINT('',(99.8,-39.6,1.51));
#1254 = DIRECTION('',(-0.,0.,-1.));
#1255 = DIRECTION('',(-0.,-1.,0.));
#1256 = FACE_BOUND('',#1257,.T.);
#1257 = EDGE_LOOP('',(#1258));
#1258 = ORIENTED_EDGE('',*,*,#1259,.T.);
#1259 = EDGE_CURVE('',#1260,#1260,#1262,.T.);
#1260 = VERTEX_POINT('',#1261);
#1261 = CARTESIAN_POINT('',(135.7,-48.1,1.51));
#1262 = CIRCLE('',#1263,0.5);
#1263 = AXIS2_PLACEMENT_3D('',#1264,#1265,#1266);
#1264 = CARTESIAN_POINT('',(135.7,-47.6,1.51));
#1265 = DIRECTION('',(-0.,0.,-1.));
#1266 = DIRECTION('',(-0.,-1.,0.));
#1267 = FACE_BOUND('',#1268,.T.);
#1268 = EDGE_LOOP('',(#1269));
#1269 = ORIENTED_EDGE('',*,*,#1270,.T.);
#1270 = EDGE_CURVE('',#1271,#1271,#1273,.T.);
#1271 = VERTEX_POINT('',#1272);
#1272 = CARTESIAN_POINT('',(124.8,-37.7,1.51));
#1273 = CIRCLE('',#1274,0.5);
#1274 = AXIS2_PLACEMENT_3D('',#1275,#1276,#1277);
#1275 = CARTESIAN_POINT('',(124.8,-37.2,1.51));
#1276 = DIRECTION('',(-0.,0.,-1.));
#1277 = DIRECTION('',(-0.,-1.,0.));
#1278 = FACE_BOUND('',#1279,.T.);
#1279 = EDGE_LOOP('',(#1280));
#1280 = ORIENTED_EDGE('',*,*,#1281,.T.);
#1281 = EDGE_CURVE('',#1282,#1282,#1284,.T.);
#1282 = VERTEX_POINT('',#1283);
#1283 = CARTESIAN_POINT('',(135.7,-44.5,1.51));
#1284 = CIRCLE('',#1285,0.5);
#1285 = AXIS2_PLACEMENT_3D('',#1286,#1287,#1288);
#1286 = CARTESIAN_POINT('',(135.7,-44.,1.51));
#1287 = DIRECTION('',(-0.,0.,-1.));
#1288 = DIRECTION('',(-0.,-1.,0.));
#1289 = FACE_BOUND('',#1290,.T.);
#1290 = EDGE_LOOP('',(#1291));
#1291 = ORIENTED_EDGE('',*,*,#1292,.T.);
#1292 = EDGE_CURVE('',#1293,#1293,#1295,.T.);
#1293 = VERTEX_POINT('',#1294);
#1294 = CARTESIAN_POINT('',(128.4,-37.7,1.51));
#1295 = CIRCLE('',#1296,0.5);
#1296 = AXIS2_PLACEMENT_3D('',#1297,#1298,#1299);
#1297 = CARTESIAN_POINT('',(128.4,-37.2,1.51));
#1298 = DIRECTION('',(-0.,0.,-1.));
#1299 = DIRECTION('',(-0.,-1.,0.));
#1300 = FACE_BOUND('',#1301,.T.);
#1301 = EDGE_LOOP('',(#1302));
#1302 = ORIENTED_EDGE('',*,*,#1303,.T.);
#1303 = EDGE_CURVE('',#1304,#1304,#1306,.T.);
#1304 = VERTEX_POINT('',#1305);
#1305 = CARTESIAN_POINT('',(135.7,-40.9,1.51));
#1306 = CIRCLE('',#1307,0.5);
#1307 = AXIS2_PLACEMENT_3D('',#1308,#1309,#1310);
#1308 = CARTESIAN_POINT('',(135.7,-40.4,1.51));
#1309 = DIRECTION('',(-0.,0.,-1.));
#1310 = DIRECTION('',(-0.,-1.,0.));
#1311 = FACE_BOUND('',#1312,.T.);
#1312 = EDGE_LOOP('',(#1313));
#1313 = ORIENTED_EDGE('',*,*,#1314,.T.);
#1314 = EDGE_CURVE('',#1315,#1315,#1317,.T.);
#1315 = VERTEX_POINT('',#1316);
#1316 = CARTESIAN_POINT('',(132.,-37.7,1.51));
#1317 = CIRCLE('',#1318,0.5);
#1318 = AXIS2_PLACEMENT_3D('',#1319,#1320,#1321);
#1319 = CARTESIAN_POINT('',(132.,-37.2,1.51));
#1320 = DIRECTION('',(-0.,0.,-1.));
#1321 = DIRECTION('',(-0.,-1.,0.));
#1322 = PLANE('',#1323);
#1323 = AXIS2_PLACEMENT_3D('',#1324,#1325,#1326);
#1324 = CARTESIAN_POINT('',(0.,0.,1.51));
#1325 = DIRECTION('',(0.,0.,1.));
#1326 = DIRECTION('',(1.,0.,-0.));
#1327 = ADVANCED_FACE('',(#1328),#1334,.T.);
#1328 = FACE_BOUND('',#1329,.T.);
#1329 = EDGE_LOOP('',(#1330,#1331,#1332,#1333));
#1330 = ORIENTED_EDGE('',*,*,#963,.T.);
#1331 = ORIENTED_EDGE('',*,*,#1160,.T.);
#1332 = ORIENTED_EDGE('',*,*,#923,.F.);
#1333 = ORIENTED_EDGE('',*,*,#987,.F.);
#1334 = PLANE('',#1335);
#1335 = AXIS2_PLACEMENT_3D('',#1336,#1337,#1338);
#1336 = CARTESIAN_POINT('',(97.,-35.,0.));
#1337 = DIRECTION('',(0.,1.,0.));
#1338 = DIRECTION('',(1.,0.,0.));
#1339 = ADVANCED_FACE('',(#1340),#1356,.T.);
#1340 = FACE_BOUND('',#1341,.T.);
#1341 = EDGE_LOOP('',(#1342,#1348,#1349,#1355));
#1342 = ORIENTED_EDGE('',*,*,#1343,.T.);
#1343 = EDGE_CURVE('',#997,#1170,#1344,.T.);
#1344 = LINE('',#1345,#1346);
#1345 = CARTESIAN_POINT('',(112.5,-79.6,0.));
#1346 = VECTOR('',#1347,1.);
#1347 = DIRECTION('',(0.,0.,1.));
#1348 = ORIENTED_EDGE('',*,*,#1169,.T.);
#1349 = ORIENTED_EDGE('',*,*,#1350,.F.);
#1350 = EDGE_CURVE('',#999,#1172,#1351,.T.);
#1351 = LINE('',#1352,#1353);
#1352 = CARTESIAN_POINT('',(122.5,-79.6,0.));
#1353 = VECTOR('',#1354,1.);
#1354 = DIRECTION('',(0.,0.,1.));
#1355 = ORIENTED_EDGE('',*,*,#996,.F.);
#1356 = PLANE('',#1357);
#1357 = AXIS2_PLACEMENT_3D('',#1358,#1359,#1360);
#1358 = CARTESIAN_POINT('',(112.5,-79.6,0.));
#1359 = DIRECTION('',(0.,1.,0.));
#1360 = DIRECTION('',(1.,0.,0.));
#1361 = ADVANCED_FACE('',(#1362),#1373,.T.);
#1362 = FACE_BOUND('',#1363,.T.);
#1363 = EDGE_LOOP('',(#1364,#1370,#1371,#1372));
#1364 = ORIENTED_EDGE('',*,*,#1365,.T.);
#1365 = EDGE_CURVE('',#1007,#1180,#1366,.T.);
#1366 = LINE('',#1367,#1368);
#1367 = CARTESIAN_POINT('',(112.5,-77.,0.));
#1368 = VECTOR('',#1369,1.);
#1369 = DIRECTION('',(0.,0.,1.));
#1370 = ORIENTED_EDGE('',*,*,#1179,.T.);
#1371 = ORIENTED_EDGE('',*,*,#1343,.F.);
#1372 = ORIENTED_EDGE('',*,*,#1006,.F.);
#1373 = PLANE('',#1374);
#1374 = AXIS2_PLACEMENT_3D('',#1375,#1376,#1377);
#1375 = CARTESIAN_POINT('',(112.5,-77.,0.));
#1376 = DIRECTION('',(1.,0.,-0.));
#1377 = DIRECTION('',(0.,-1.,0.));
#1378 = ADVANCED_FACE('',(#1379),#1390,.T.);
#1379 = FACE_BOUND('',#1380,.T.);
#1380 = EDGE_LOOP('',(#1381,#1382,#1383,#1389));
#1381 = ORIENTED_EDGE('',*,*,#1350,.T.);
#1382 = ORIENTED_EDGE('',*,*,#1195,.T.);
#1383 = ORIENTED_EDGE('',*,*,#1384,.F.);
#1384 = EDGE_CURVE('',#1015,#1188,#1385,.T.);
#1385 = LINE('',#1386,#1387);
#1386 = CARTESIAN_POINT('',(122.5,-77.,0.));
#1387 = VECTOR('',#1388,1.);
#1388 = DIRECTION('',(0.,0.,1.));
#1389 = ORIENTED_EDGE('',*,*,#1022,.F.);
#1390 = PLANE('',#1391);
#1391 = AXIS2_PLACEMENT_3D('',#1392,#1393,#1394);
#1392 = CARTESIAN_POINT('',(122.5,-79.6,0.));
#1393 = DIRECTION('',(-1.,0.,0.));
#1394 = DIRECTION('',(0.,1.,0.));
#1395 = ADVANCED_FACE('',(#1396),#1402,.T.);
#1396 = FACE_BOUND('',#1397,.T.);
#1397 = EDGE_LOOP('',(#1398,#1399,#1400,#1401));
#1398 = ORIENTED_EDGE('',*,*,#1384,.T.);
#1399 = ORIENTED_EDGE('',*,*,#1187,.T.);
#1400 = ORIENTED_EDGE('',*,*,#1365,.F.);
#1401 = ORIENTED_EDGE('',*,*,#1014,.F.);
#1402 = PLANE('',#1403);
#1403 = AXIS2_PLACEMENT_3D('',#1404,#1405,#1406);
#1404 = CARTESIAN_POINT('',(122.5,-77.,0.));
#1405 = DIRECTION('',(0.,-1.,0.));
#1406 = DIRECTION('',(-1.,0.,0.));
#1407 = ADVANCED_FACE('',(#1408),#1419,.F.);
#1408 = FACE_BOUND('',#1409,.T.);
#1409 = EDGE_LOOP('',(#1410,#1411,#1417,#1418));
#1410 = ORIENTED_EDGE('',*,*,#1030,.T.);
#1411 = ORIENTED_EDGE('',*,*,#1412,.T.);
#1412 = EDGE_CURVE('',#1031,#1204,#1413,.T.);
#1413 = LINE('',#1414,#1415);
#1414 = CARTESIAN_POINT('',(99.8,-67.,-4.6E-02));
#1415 = VECTOR('',#1416,1.);
#1416 = DIRECTION('',(0.,0.,1.));
#1417 = ORIENTED_EDGE('',*,*,#1203,.F.);
#1418 = ORIENTED_EDGE('',*,*,#1412,.F.);
#1419 = CYLINDRICAL_SURFACE('',#1420,0.5);
#1420 = AXIS2_PLACEMENT_3D('',#1421,#1422,#1423);
#1421 = CARTESIAN_POINT('',(99.8,-66.5,-4.6E-02));
#1422 = DIRECTION('',(-0.,-0.,-1.));
#1423 = DIRECTION('',(-0.,-1.,0.));
#1424 = ADVANCED_FACE('',(#1425),#1441,.T.);
#1425 = FACE_BOUND('',#1426,.T.);
#1426 = EDGE_LOOP('',(#1427,#1433,#1434,#1440));
#1427 = ORIENTED_EDGE('',*,*,#1428,.T.);
#1428 = EDGE_CURVE('',#1042,#1215,#1429,.T.);
#1429 = LINE('',#1430,#1431);
#1430 = CARTESIAN_POINT('',(112.5,-53.7,0.));
#1431 = VECTOR('',#1432,1.);
#1432 = DIRECTION('',(0.,0.,1.));
#1433 = ORIENTED_EDGE('',*,*,#1214,.T.);
#1434 = ORIENTED_EDGE('',*,*,#1435,.F.);
#1435 = EDGE_CURVE('',#1044,#1217,#1436,.T.);
#1436 = LINE('',#1437,#1438);
#1437 = CARTESIAN_POINT('',(122.5,-53.7,0.));
#1438 = VECTOR('',#1439,1.);
#1439 = DIRECTION('',(0.,0.,1.));
#1440 = ORIENTED_EDGE('',*,*,#1041,.F.);
#1441 = PLANE('',#1442);
#1442 = AXIS2_PLACEMENT_3D('',#1443,#1444,#1445);
#1443 = CARTESIAN_POINT('',(112.5,-53.7,0.));
#1444 = DIRECTION('',(0.,1.,0.));
#1445 = DIRECTION('',(1.,0.,0.));
#1446 = ADVANCED_FACE('',(#1447),#1458,.T.);
#1447 = FACE_BOUND('',#1448,.T.);
#1448 = EDGE_LOOP('',(#1449,#1455,#1456,#1457));
#1449 = ORIENTED_EDGE('',*,*,#1450,.T.);
#1450 = EDGE_CURVE('',#1052,#1225,#1451,.T.);
#1451 = LINE('',#1452,#1453);
#1452 = CARTESIAN_POINT('',(112.5,-51.1,0.));
#1453 = VECTOR('',#1454,1.);
#1454 = DIRECTION('',(0.,0.,1.));
#1455 = ORIENTED_EDGE('',*,*,#1224,.T.);
#1456 = ORIENTED_EDGE('',*,*,#1428,.F.);
#1457 = ORIENTED_EDGE('',*,*,#1051,.F.);
#1458 = PLANE('',#1459);
#1459 = AXIS2_PLACEMENT_3D('',#1460,#1461,#1462);
#1460 = CARTESIAN_POINT('',(112.5,-51.1,0.));
#1461 = DIRECTION('',(1.,0.,-0.));
#1462 = DIRECTION('',(0.,-1.,0.));
#1463 = ADVANCED_FACE('',(#1464),#1475,.T.);
#1464 = FACE_BOUND('',#1465,.T.);
#1465 = EDGE_LOOP('',(#1466,#1467,#1468,#1474));
#1466 = ORIENTED_EDGE('',*,*,#1435,.T.);
#1467 = ORIENTED_EDGE('',*,*,#1240,.T.);
#1468 = ORIENTED_EDGE('',*,*,#1469,.F.);
#1469 = EDGE_CURVE('',#1060,#1233,#1470,.T.);
#1470 = LINE('',#1471,#1472);
#1471 = CARTESIAN_POINT('',(122.5,-51.1,0.));
#1472 = VECTOR('',#1473,1.);
#1473 = DIRECTION('',(0.,0.,1.));
#1474 = ORIENTED_EDGE('',*,*,#1067,.F.);
#1475 = PLANE('',#1476);
#1476 = AXIS2_PLACEMENT_3D('',#1477,#1478,#1479);
#1477 = CARTESIAN_POINT('',(122.5,-53.7,0.));
#1478 = DIRECTION('',(-1.,0.,0.));
#1479 = DIRECTION('',(0.,1.,0.));
#1480 = ADVANCED_FACE('',(#1481),#1487,.T.);
#1481 = FACE_BOUND('',#1482,.T.);
#1482 = EDGE_LOOP('',(#1483,#1484,#1485,#1486));
#1483 = ORIENTED_EDGE('',*,*,#1469,.T.);
#1484 = ORIENTED_EDGE('',*,*,#1232,.T.);
#1485 = ORIENTED_EDGE('',*,*,#1450,.F.);
#1486 = ORIENTED_EDGE('',*,*,#1059,.F.);
#1487 = PLANE('',#1488);
#1488 = AXIS2_PLACEMENT_3D('',#1489,#1490,#1491);
#1489 = CARTESIAN_POINT('',(122.5,-51.1,0.));
#1490 = DIRECTION('',(0.,-1.,0.));
#1491 = DIRECTION('',(-1.,0.,0.));
#1492 = ADVANCED_FACE('',(#1493),#1504,.F.);
#1493 = FACE_BOUND('',#1494,.T.);
#1494 = EDGE_LOOP('',(#1495,#1496,#1502,#1503));
#1495 = ORIENTED_EDGE('',*,*,#1075,.T.);
#1496 = ORIENTED_EDGE('',*,*,#1497,.T.);
#1497 = EDGE_CURVE('',#1076,#1249,#1498,.T.);
#1498 = LINE('',#1499,#1500);
#1499 = CARTESIAN_POINT('',(99.8,-40.1,-4.6E-02));
#1500 = VECTOR('',#1501,1.);
#1501 = DIRECTION('',(0.,0.,1.));
#1502 = ORIENTED_EDGE('',*,*,#1248,.F.);
#1503 = ORIENTED_EDGE('',*,*,#1497,.F.);
#1504 = CYLINDRICAL_SURFACE('',#1505,0.5);
#1505 = AXIS2_PLACEMENT_3D('',#1506,#1507,#1508);
#1506 = CARTESIAN_POINT('',(99.8,-39.6,-4.6E-02));
#1507 = DIRECTION('',(-0.,-0.,-1.));
#1508 = DIRECTION('',(-0.,-1.,0.));
#1509 = ADVANCED_FACE('',(#1510),#1521,.F.);
#1510 = FACE_BOUND('',#1511,.T.);
#1511 = EDGE_LOOP('',(#1512,#1513,#1519,#1520));
#1512 = ORIENTED_EDGE('',*,*,#1086,.T.);
#1513 = ORIENTED_EDGE('',*,*,#1514,.T.);
#1514 = EDGE_CURVE('',#1087,#1260,#1515,.T.);
#1515 = LINE('',#1516,#1517);
#1516 = CARTESIAN_POINT('',(135.7,-48.1,-4.6E-02));
#1517 = VECTOR('',#1518,1.);
#1518 = DIRECTION('',(0.,0.,1.));
#1519 = ORIENTED_EDGE('',*,*,#1259,.F.);
#1520 = ORIENTED_EDGE('',*,*,#1514,.F.);
#1521 = CYLINDRICAL_SURFACE('',#1522,0.5);
#1522 = AXIS2_PLACEMENT_3D('',#1523,#1524,#1525);
#1523 = CARTESIAN_POINT('',(135.7,-47.6,-4.6E-02));
#1524 = DIRECTION('',(-0.,-0.,-1.));
#1525 = DIRECTION('',(-0.,-1.,0.));
#1526 = ADVANCED_FACE('',(#1527),#1538,.F.);
#1527 = FACE_BOUND('',#1528,.T.);
#1528 = EDGE_LOOP('',(#1529,#1530,#1536,#1537));
#1529 = ORIENTED_EDGE('',*,*,#1097,.T.);
#1530 = ORIENTED_EDGE('',*,*,#1531,.T.);
#1531 = EDGE_CURVE('',#1098,#1271,#1532,.T.);
#1532 = LINE('',#1533,#1534);
#1533 = CARTESIAN_POINT('',(124.8,-37.7,-4.6E-02));
#1534 = VECTOR('',#1535,1.);
#1535 = DIRECTION('',(0.,0.,1.));
#1536 = ORIENTED_EDGE('',*,*,#1270,.F.);
#1537 = ORIENTED_EDGE('',*,*,#1531,.F.);
#1538 = CYLINDRICAL_SURFACE('',#1539,0.5);
#1539 = AXIS2_PLACEMENT_3D('',#1540,#1541,#1542);
#1540 = CARTESIAN_POINT('',(124.8,-37.2,-4.6E-02));
#1541 = DIRECTION('',(-0.,-0.,-1.));
#1542 = DIRECTION('',(-0.,-1.,0.));
#1543 = ADVANCED_FACE('',(#1544),#1555,.F.);
#1544 = FACE_BOUND('',#1545,.T.);
#1545 = EDGE_LOOP('',(#1546,#1547,#1553,#1554));
#1546 = ORIENTED_EDGE('',*,*,#1108,.T.);
#1547 = ORIENTED_EDGE('',*,*,#1548,.T.);
#1548 = EDGE_CURVE('',#1109,#1282,#1549,.T.);
#1549 = LINE('',#1550,#1551);
#1550 = CARTESIAN_POINT('',(135.7,-44.5,-4.6E-02));
#1551 = VECTOR('',#1552,1.);
#1552 = DIRECTION('',(0.,0.,1.));
#1553 = ORIENTED_EDGE('',*,*,#1281,.F.);
#1554 = ORIENTED_EDGE('',*,*,#1548,.F.);
#1555 = CYLINDRICAL_SURFACE('',#1556,0.5);
#1556 = AXIS2_PLACEMENT_3D('',#1557,#1558,#1559);
#1557 = CARTESIAN_POINT('',(135.7,-44.,-4.6E-02));
#1558 = DIRECTION('',(-0.,-0.,-1.));
#1559 = DIRECTION('',(-0.,-1.,0.));
#1560 = ADVANCED_FACE('',(#1561),#1572,.F.);
#1561 = FACE_BOUND('',#1562,.T.);
#1562 = EDGE_LOOP('',(#1563,#1564,#1570,#1571));
#1563 = ORIENTED_EDGE('',*,*,#1119,.T.);
#1564 = ORIENTED_EDGE('',*,*,#1565,.T.);
#1565 = EDGE_CURVE('',#1120,#1293,#1566,.T.);
#1566 = LINE('',#1567,#1568);
#1567 = CARTESIAN_POINT('',(128.4,-37.7,-4.6E-02));
#1568 = VECTOR('',#1569,1.);
#1569 = DIRECTION('',(0.,0.,1.));
#1570 = ORIENTED_EDGE('',*,*,#1292,.F.);
#1571 = ORIENTED_EDGE('',*,*,#1565,.F.);
#1572 = CYLINDRICAL_SURFACE('',#1573,0.5);
#1573 = AXIS2_PLACEMENT_3D('',#1574,#1575,#1576);
#1574 = CARTESIAN_POINT('',(128.4,-37.2,-4.6E-02));
#1575 = DIRECTION('',(-0.,-0.,-1.));
#1576 = DIRECTION('',(-0.,-1.,0.));
#1577 = ADVANCED_FACE('',(#1578),#1589,.F.);
#1578 = FACE_BOUND('',#1579,.T.);
#1579 = EDGE_LOOP('',(#1580,#1581,#1587,#1588));
#1580 = ORIENTED_EDGE('',*,*,#1130,.T.);
#1581 = ORIENTED_EDGE('',*,*,#1582,.T.);
#1582 = EDGE_CURVE('',#1131,#1304,#1583,.T.);
#1583 = LINE('',#1584,#1585);
#1584 = CARTESIAN_POINT('',(135.7,-40.9,-4.6E-02));
#1585 = VECTOR('',#1586,1.);
#1586 = DIRECTION('',(0.,0.,1.));
#1587 = ORIENTED_EDGE('',*,*,#1303,.F.);
#1588 = ORIENTED_EDGE('',*,*,#1582,.F.);
#1589 = CYLINDRICAL_SURFACE('',#1590,0.5);
#1590 = AXIS2_PLACEMENT_3D('',#1591,#1592,#1593);
#1591 = CARTESIAN_POINT('',(135.7,-40.4,-4.6E-02));
#1592 = DIRECTION('',(-0.,-0.,-1.));
#1593 = DIRECTION('',(-0.,-1.,0.));
#1594 = ADVANCED_FACE('',(#1595),#1606,.F.);
#1595 = FACE_BOUND('',#1596,.T.);
#1596 = EDGE_LOOP('',(#1597,#1598,#1604,#1605));
#1597 = ORIENTED_EDGE('',*,*,#1141,.T.);
#1598 = ORIENTED_EDGE('',*,*,#1599,.T.);
#1599 = EDGE_CURVE('',#1142,#1315,#1600,.T.);
#1600 = LINE('',#1601,#1602);
#1601 = CARTESIAN_POINT('',(132.,-37.7,-4.6E-02));
#1602 = VECTOR('',#1603,1.);
#1603 = DIRECTION('',(0.,0.,1.));
#1604 = ORIENTED_EDGE('',*,*,#1314,.F.);
#1605 = ORIENTED_EDGE('',*,*,#1599,.F.);
#1606 = CYLINDRICAL_SURFACE('',#1607,0.5);
#1607 = AXIS2_PLACEMENT_3D('',#1608,#1609,#1610);
#1608 = CARTESIAN_POINT('',(132.,-37.2,-4.6E-02));
#1609 = DIRECTION('',(-0.,-0.,-1.));
#1610 = DIRECTION('',(-0.,-1.,0.));
#1611 = ( GEOMETRIC_REPRESENTATION_CONTEXT(3) 
GLOBAL_UNCERTAINTY_ASSIGNED_CONTEXT((#1615)) 
GLOBAL_UNIT_ASSIGNED_CONTEXT((#1612,#1613,#1614)) REPRESENTATION_CONTEXT
('Context #1','3D Context with UNIT and UNCERTAINTY') );
#1612 = ( LENGTH_UNIT() NAMED_UNIT(*) SI_UNIT(.MILLI.,.METRE.) );
#1613 = ( NAMED_UNIT(*) PLANE_ANGLE_UNIT() SI_UNIT($,.RADIAN.) );
#1614 = ( NAMED_UNIT(*) SI_UNIT($,.STERADIAN.) SOLID_ANGLE_UNIT() );
#1615 = UNCERTAINTY_MEASURE_WITH_UNIT(LENGTH_MEASURE(1.E-07),#1612,
  'distance_accuracy_value','confusion accuracy');
#1616 = CONTEXT_DEPENDENT_SHAPE_REPRESENTATION(#1617,#1619);
#1617 = ( REPRESENTATION_RELATIONSHIP('','',#876,#10) 
REPRESENTATION_RELATIONSHIP_WITH_TRANSFORMATION(#1618) 
SHAPE_REPRESENTATION_RELATIONSHIP() );
#1618 = ITEM_DEFINED_TRANSFORMATION('','',#11,#47);
#1619 = PRODUCT_DEFINITION_SHAPE('Placement','Placement of an item',
  #1620);
#1620 = NEXT_ASSEMBLY_USAGE_OCCURRENCE('9','=>[0:1:1:3]','',#5,#871,$);
#1621 = PRODUCT_RELATED_PRODUCT_CATEGORY('part',$,(#873));
#1622 = MECHANICAL_DESIGN_GEOMETRIC_PRESENTATION_REPRESENTATION('',(
    #1623,#1631,#1638,#1645,#1652,#1659,#1666,#1673,#1680,#1687,#1694,
    #1702,#1709,#1716,#1723,#1730,#1737,#1744,#1751,#1758,#1765,#1772,
    #1779,#1786,#1793,#1800,#1807,#1814),#823);
#1623 = STYLED_ITEM('color',(#1624),#67);
#1624 = PRESENTATION_STYLE_ASSIGNMENT((#1625));
#1625 = SURFACE_STYLE_USAGE(.BOTH.,#1626);
#1626 = SURFACE_SIDE_STYLE('',(#1627));
#1627 = SURFACE_STYLE_FILL_AREA(#1628);
#1628 = FILL_AREA_STYLE('',(#1629));
#1629 = FILL_AREA_STYLE_COLOUR('',#1630);
#1630 = COLOUR_RGB('',0.147999998088,0.144999993226,0.144999993226);
#1631 = STYLED_ITEM('color',(#1632),#107);
#1632 = PRESENTATION_STYLE_ASSIGNMENT((#1633));
#1633 = SURFACE_STYLE_USAGE(.BOTH.,#1634);
#1634 = SURFACE_SIDE_STYLE('',(#1635));
#1635 = SURFACE_STYLE_FILL_AREA(#1636);
#1636 = FILL_AREA_STYLE('',(#1637));
#1637 = FILL_AREA_STYLE_COLOUR('',#1630);
#1638 = STYLED_ITEM('color',(#1639),#138);
#1639 = PRESENTATION_STYLE_ASSIGNMENT((#1640));
#1640 = SURFACE_STYLE_USAGE(.BOTH.,#1641);
#1641 = SURFACE_SIDE_STYLE('',(#1642));
#1642 = SURFACE_STYLE_FILL_AREA(#1643);
#1643 = FILL_AREA_STYLE('',(#1644));
#1644 = FILL_AREA_STYLE_COLOUR('',#1630);
#1645 = STYLED_ITEM('color',(#1646),#169);
#1646 = PRESENTATION_STYLE_ASSIGNMENT((#1647));
#1647 = SURFACE_STYLE_USAGE(.BOTH.,#1648);
#1648 = SURFACE_SIDE_STYLE('',(#1649));
#1649 = SURFACE_STYLE_FILL_AREA(#1650);
#1650 = FILL_AREA_STYLE('',(#1651));
#1651 = FILL_AREA_STYLE_COLOUR('',#1630);
#1652 = STYLED_ITEM('color',(#1653),#252);
#1653 = PRESENTATION_STYLE_ASSIGNMENT((#1654));
#1654 = SURFACE_STYLE_USAGE(.BOTH.,#1655);
#1655 = SURFACE_SIDE_STYLE('',(#1656));
#1656 = SURFACE_STYLE_FILL_AREA(#1657);
#1657 = FILL_AREA_STYLE('',(#1658));
#1658 = FILL_AREA_STYLE_COLOUR('',#1630);
#1659 = STYLED_ITEM('color',(#1660),#335);
#1660 = PRESENTATION_STYLE_ASSIGNMENT((#1661));
#1661 = SURFACE_STYLE_USAGE(.BOTH.,#1662);
#1662 = SURFACE_SIDE_STYLE('',(#1663));
#1663 = SURFACE_STYLE_FILL_AREA(#1664);
#1664 = FILL_AREA_STYLE('',(#1665));
#1665 = FILL_AREA_STYLE_COLOUR('',#1630);
#1666 = STYLED_ITEM('color',(#1667),#352);
#1667 = PRESENTATION_STYLE_ASSIGNMENT((#1668));
#1668 = SURFACE_STYLE_USAGE(.BOTH.,#1669);
#1669 = SURFACE_SIDE_STYLE('',(#1670));
#1670 = SURFACE_STYLE_FILL_AREA(#1671);
#1671 = FILL_AREA_STYLE('',(#1672));
#1672 = FILL_AREA_STYLE_COLOUR('',#1630);
#1673 = STYLED_ITEM('color',(#1674),#369);
#1674 = PRESENTATION_STYLE_ASSIGNMENT((#1675));
#1675 = SURFACE_STYLE_USAGE(.BOTH.,#1676);
#1676 = SURFACE_SIDE_STYLE('',(#1677));
#1677 = SURFACE_STYLE_FILL_AREA(#1678);
#1678 = FILL_AREA_STYLE('',(#1679));
#1679 = FILL_AREA_STYLE_COLOUR('',#1630);
#1680 = STYLED_ITEM('color',(#1681),#386);
#1681 = PRESENTATION_STYLE_ASSIGNMENT((#1682));
#1682 = SURFACE_STYLE_USAGE(.BOTH.,#1683);
#1683 = SURFACE_SIDE_STYLE('',(#1684));
#1684 = SURFACE_STYLE_FILL_AREA(#1685);
#1685 = FILL_AREA_STYLE('',(#1686));
#1686 = FILL_AREA_STYLE_COLOUR('',#1630);
#1687 = STYLED_ITEM('color',(#1688),#403);
#1688 = PRESENTATION_STYLE_ASSIGNMENT((#1689));
#1689 = SURFACE_STYLE_USAGE(.BOTH.,#1690);
#1690 = SURFACE_SIDE_STYLE('',(#1691));
#1691 = SURFACE_STYLE_FILL_AREA(#1692);
#1692 = FILL_AREA_STYLE('',(#1693));
#1693 = FILL_AREA_STYLE_COLOUR('',#1630);
#1694 = STYLED_ITEM('color',(#1695),#415);
#1695 = PRESENTATION_STYLE_ASSIGNMENT((#1696));
#1696 = SURFACE_STYLE_USAGE(.BOTH.,#1697);
#1697 = SURFACE_SIDE_STYLE('',(#1698));
#1698 = SURFACE_STYLE_FILL_AREA(#1699);
#1699 = FILL_AREA_STYLE('',(#1700));
#1700 = FILL_AREA_STYLE_COLOUR('',#1701);
#1701 = COLOUR_RGB('',0.859000020776,0.737999965183,0.495999988746);
#1702 = STYLED_ITEM('color',(#1703),#446);
#1703 = PRESENTATION_STYLE_ASSIGNMENT((#1704));
#1704 = SURFACE_STYLE_USAGE(.BOTH.,#1705);
#1705 = SURFACE_SIDE_STYLE('',(#1706));
#1706 = SURFACE_STYLE_FILL_AREA(#1707);
#1707 = FILL_AREA_STYLE('',(#1708));
#1708 = FILL_AREA_STYLE_COLOUR('',#1701);
#1709 = STYLED_ITEM('color',(#1710),#470);
#1710 = PRESENTATION_STYLE_ASSIGNMENT((#1711));
#1711 = SURFACE_STYLE_USAGE(.BOTH.,#1712);
#1712 = SURFACE_SIDE_STYLE('',(#1713));
#1713 = SURFACE_STYLE_FILL_AREA(#1714);
#1714 = FILL_AREA_STYLE('',(#1715));
#1715 = FILL_AREA_STYLE_COLOUR('',#1701);
#1716 = STYLED_ITEM('color',(#1717),#494);
#1717 = PRESENTATION_STYLE_ASSIGNMENT((#1718));
#1718 = SURFACE_STYLE_USAGE(.BOTH.,#1719);
#1719 = SURFACE_SIDE_STYLE('',(#1720));
#1720 = SURFACE_STYLE_FILL_AREA(#1721);
#1721 = FILL_AREA_STYLE('',(#1722));
#1722 = FILL_AREA_STYLE_COLOUR('',#1701);
#1723 = STYLED_ITEM('color',(#1724),#511);
#1724 = PRESENTATION_STYLE_ASSIGNMENT((#1725));
#1725 = SURFACE_STYLE_USAGE(.BOTH.,#1726);
#1726 = SURFACE_SIDE_STYLE('',(#1727));
#1727 = SURFACE_STYLE_FILL_AREA(#1728);
#1728 = FILL_AREA_STYLE('',(#1729));
#1729 = FILL_AREA_STYLE_COLOUR('',#1701);
#1730 = STYLED_ITEM('color',(#1731),#542);
#1731 = PRESENTATION_STYLE_ASSIGNMENT((#1732));
#1732 = SURFACE_STYLE_USAGE(.BOTH.,#1733);
#1733 = SURFACE_SIDE_STYLE('',(#1734));
#1734 = SURFACE_STYLE_FILL_AREA(#1735);
#1735 = FILL_AREA_STYLE('',(#1736));
#1736 = FILL_AREA_STYLE_COLOUR('',#1701);
#1737 = STYLED_ITEM('color',(#1738),#566);
#1738 = PRESENTATION_STYLE_ASSIGNMENT((#1739));
#1739 = SURFACE_STYLE_USAGE(.BOTH.,#1740);
#1740 = SURFACE_SIDE_STYLE('',(#1741));
#1741 = SURFACE_STYLE_FILL_AREA(#1742);
#1742 = FILL_AREA_STYLE('',(#1743));
#1743 = FILL_AREA_STYLE_COLOUR('',#1701);
#1744 = STYLED_ITEM('color',(#1745),#590);
#1745 = PRESENTATION_STYLE_ASSIGNMENT((#1746));
#1746 = SURFACE_STYLE_USAGE(.BOTH.,#1747);
#1747 = SURFACE_SIDE_STYLE('',(#1748));
#1748 = SURFACE_STYLE_FILL_AREA(#1749);
#1749 = FILL_AREA_STYLE('',(#1750));
#1750 = FILL_AREA_STYLE_COLOUR('',#1701);
#1751 = STYLED_ITEM('color',(#1752),#607);
#1752 = PRESENTATION_STYLE_ASSIGNMENT((#1753));
#1753 = SURFACE_STYLE_USAGE(.BOTH.,#1754);
#1754 = SURFACE_SIDE_STYLE('',(#1755));
#1755 = SURFACE_STYLE_FILL_AREA(#1756);
#1756 = FILL_AREA_STYLE('',(#1757));
#1757 = FILL_AREA_STYLE_COLOUR('',#1701);
#1758 = STYLED_ITEM('color',(#1759),#638);
#1759 = PRESENTATION_STYLE_ASSIGNMENT((#1760));
#1760 = SURFACE_STYLE_USAGE(.BOTH.,#1761);
#1761 = SURFACE_SIDE_STYLE('',(#1762));
#1762 = SURFACE_STYLE_FILL_AREA(#1763);
#1763 = FILL_AREA_STYLE('',(#1764));
#1764 = FILL_AREA_STYLE_COLOUR('',#1701);
#1765 = STYLED_ITEM('color',(#1766),#662);
#1766 = PRESENTATION_STYLE_ASSIGNMENT((#1767));
#1767 = SURFACE_STYLE_USAGE(.BOTH.,#1768);
#1768 = SURFACE_SIDE_STYLE('',(#1769));
#1769 = SURFACE_STYLE_FILL_AREA(#1770);
#1770 = FILL_AREA_STYLE('',(#1771));
#1771 = FILL_AREA_STYLE_COLOUR('',#1701);
#1772 = STYLED_ITEM('color',(#1773),#686);
#1773 = PRESENTATION_STYLE_ASSIGNMENT((#1774));
#1774 = SURFACE_STYLE_USAGE(.BOTH.,#1775);
#1775 = SURFACE_SIDE_STYLE('',(#1776));
#1776 = SURFACE_STYLE_FILL_AREA(#1777);
#1777 = FILL_AREA_STYLE('',(#1778));
#1778 = FILL_AREA_STYLE_COLOUR('',#1701);
#1779 = STYLED_ITEM('color',(#1780),#703);
#1780 = PRESENTATION_STYLE_ASSIGNMENT((#1781));
#1781 = SURFACE_STYLE_USAGE(.BOTH.,#1782);
#1782 = SURFACE_SIDE_STYLE('',(#1783));
#1783 = SURFACE_STYLE_FILL_AREA(#1784);
#1784 = FILL_AREA_STYLE('',(#1785));
#1785 = FILL_AREA_STYLE_COLOUR('',#1701);
#1786 = STYLED_ITEM('color',(#1787),#734);
#1787 = PRESENTATION_STYLE_ASSIGNMENT((#1788));
#1788 = SURFACE_STYLE_USAGE(.BOTH.,#1789);
#1789 = SURFACE_SIDE_STYLE('',(#1790));
#1790 = SURFACE_STYLE_FILL_AREA(#1791);
#1791 = FILL_AREA_STYLE('',(#1792));
#1792 = FILL_AREA_STYLE_COLOUR('',#1701);
#1793 = STYLED_ITEM('color',(#1794),#758);
#1794 = PRESENTATION_STYLE_ASSIGNMENT((#1795));
#1795 = SURFACE_STYLE_USAGE(.BOTH.,#1796);
#1796 = SURFACE_SIDE_STYLE('',(#1797));
#1797 = SURFACE_STYLE_FILL_AREA(#1798);
#1798 = FILL_AREA_STYLE('',(#1799));
#1799 = FILL_AREA_STYLE_COLOUR('',#1701);
#1800 = STYLED_ITEM('color',(#1801),#782);
#1801 = PRESENTATION_STYLE_ASSIGNMENT((#1802));
#1802 = SURFACE_STYLE_USAGE(.BOTH.,#1803);
#1803 = SURFACE_SIDE_STYLE('',(#1804));
#1804 = SURFACE_STYLE_FILL_AREA(#1805);
#1805 = FILL_AREA_STYLE('',(#1806));
#1806 = FILL_AREA_STYLE_COLOUR('',#1701);
#1807 = STYLED_ITEM('color',(#1808),#799);
#1808 = PRESENTATION_STYLE_ASSIGNMENT((#1809));
#1809 = SURFACE_STYLE_USAGE(.BOTH.,#1810);
#1810 = SURFACE_SIDE_STYLE('',(#1811));
#1811 = SURFACE_STYLE_FILL_AREA(#1812);
#1812 = FILL_AREA_STYLE('',(#1813));
#1813 = FILL_AREA_STYLE_COLOUR('',#1701);
#1814 = STYLED_ITEM('color',(#1815),#811);
#1815 = PRESENTATION_STYLE_ASSIGNMENT((#1816));
#1816 = SURFACE_STYLE_USAGE(.BOTH.,#1817);
#1817 = SURFACE_SIDE_STYLE('',(#1818));
#1818 = SURFACE_STYLE_FILL_AREA(#1819);
#1819 = FILL_AREA_STYLE('',(#1820));
#1820 = FILL_AREA_STYLE_COLOUR('',#1701);
#1821 = MECHANICAL_DESIGN_GEOMETRIC_PRESENTATION_REPRESENTATION('',(
    #1822),#1611);
#1822 = STYLED_ITEM('color',(#1823),#877);
#1823 = PRESENTATION_STYLE_ASSIGNMENT((#1824));
#1824 = SURFACE_STYLE_USAGE(.BOTH.,#1825);
#1825 = SURFACE_SIDE_STYLE('',(#1826));
#1826 = SURFACE_STYLE_FILL_AREA(#1827);
#1827 = FILL_AREA_STYLE('',(#1828));
#1828 = FILL_AREA_STYLE_COLOUR('',#1829);
#1829 = COLOUR_RGB('',0.313304153717,0.484529207832,0.410020903123);
ENDSEC;
END-ISO-10303-21;
