ISO-10303-21;
HEADER;
FILE_DESCRIPTION (( 'STEP AP203' ),
    '1' );
FILE_NAME ('toroid_core.STEP',
    '2025-07-05T17:49:07',
    ( '' ),
    ( '' ),
    'SwSTEP 2.0',
    'SolidWorks 2023',
    '' );
FILE_SCHEMA (( 'CONFIG_CONTROL_DESIGN' ));
ENDSEC;

DATA;
#1 = VERTEX_POINT ( 'NONE', #509 ) ;
#2 = VERTEX_POINT ( 'NONE', #207 ) ;
#3 = EDGE_CURVE ( 'NONE', #398, #476, #166, .T. ) ;
#4 = DIRECTION ( 'NONE',  ( 1.000000000000000000, 0.000000000000000000, 0.000000000000000000 ) ) ;
#5 = ORIENTED_EDGE ( 'NONE', *, *, #58, .T. ) ;
#6 = CARTESIAN_POINT ( 'NONE',  ( 0.000000000000000000, 0.000000000000000000, 0.000000000000000000 ) ) ;
#7 = ORIENTED_EDGE ( 'NONE', *, *, #448, .T. ) ;
#8 = LINE ( 'NONE', #490, #109 ) ;
#9 = ADVANCED_FACE ( 'NONE', ( #469 ), #75, .F. ) ;
#10 = EDGE_LOOP ( 'NONE', ( #45, #452, #221, #104 ) ) ;
#11 = DIRECTION ( 'NONE',  ( -1.000000000000000000, 0.000000000000000000, 0.000000000000000000 ) ) ;
#12 = CARTESIAN_POINT ( 'NONE',  ( -4.949999999999999289, -0.8499999999999974243, -11.64999999999999858 ) ) ;
#13 = AXIS2_PLACEMENT_3D ( 'NONE', #160, #24, #302 ) ;
#14 = ORIENTED_EDGE ( 'NONE', *, *, #521, .F. ) ;
#15 = DIRECTION ( 'NONE',  ( 0.000000000000000000, 0.000000000000000000, -1.000000000000000000 ) ) ;
#16 = CC_DESIGN_APPROVAL ( #29, ( #242 ) ) ;
#17 = DIRECTION ( 'NONE',  ( -1.000000000000000000, 0.000000000000000000, 0.000000000000000000 ) ) ;
#18 = CARTESIAN_POINT ( 'NONE',  ( 4.950000000000001066, -0.8499999999999983125, -14.48000000000000398 ) ) ;
#19 = DIRECTION ( 'NONE',  ( 0.000000000000000000, 0.000000000000000000, -1.000000000000000000 ) ) ;
#20 = LINE ( 'NONE', #367, #551 ) ;
#21 = DIRECTION ( 'NONE',  ( 0.000000000000000000, 0.000000000000000000, -1.000000000000000000 ) ) ;
#22 = ADVANCED_FACE ( 'NONE', ( #473 ), #549, .F. ) ;
#23 = DIRECTION ( 'NONE',  ( 0.000000000000000000, 1.000000000000000000, 0.000000000000000000 ) ) ;
#24 = DIRECTION ( 'NONE',  ( 0.000000000000000000, 0.000000000000000000, 1.000000000000000000 ) ) ;
#25 = APPROVAL_DATE_TIME ( #163, #51 ) ;
#26 = LINE ( 'NONE', #152, #552 ) ;
#27 = LINE ( 'NONE', #384, #268 ) ;
#28 = CARTESIAN_POINT ( 'NONE',  ( -4.949999999999999289, 3.449999999999999734, 0.000000000000000000 ) ) ;
#29 = APPROVAL ( #487, 'UNSPECIFIED' ) ;
#30 = VECTOR ( 'NONE', #286, 1000.000000000000000 ) ;
#31 = ORIENTED_EDGE ( 'NONE', *, *, #290, .F. ) ;
#32 = EDGE_LOOP ( 'NONE', ( #177, #38, #165, #435 ) ) ;
#33 = DIRECTION ( 'NONE',  ( 0.000000000000000000, 0.000000000000000000, -1.000000000000000000 ) ) ;
#34 = PLANE ( 'NONE',  #564 ) ;
#35 = ORIENTED_EDGE ( 'NONE', *, *, #325, .T. ) ;
#36 = ORIENTED_EDGE ( 'NONE', *, *, #504, .T. ) ;
#37 = DIRECTION ( 'NONE',  ( 0.000000000000000000, 0.000000000000000000, -1.000000000000000000 ) ) ;
#38 = ORIENTED_EDGE ( 'NONE', *, *, #66, .T. ) ;
#39 = VECTOR ( 'NONE', #424, 1000.000000000000000 ) ;
#40 = VECTOR ( 'NONE', #565, 1000.000000000000000 ) ;
#41 = APPROVAL_STATUS ( 'not_yet_approved' ) ;
#42 = CARTESIAN_POINT ( 'NONE',  ( 4.950000000000001066, 3.449999999999999734, 0.000000000000000000 ) ) ;
#43 = EDGE_CURVE ( 'NONE', #563, #357, #119, .T. ) ;
#44 = EDGE_CURVE ( 'NONE', #390, #235, #171, .T. ) ;
#45 = ORIENTED_EDGE ( 'NONE', *, *, #3, .T. ) ;
#46 = APPLICATION_PROTOCOL_DEFINITION ( 'international standard', 'config_control_design', 1994, #112 ) ;
#47 = DIRECTION ( 'NONE',  ( 0.000000000000000000, 0.000000000000000000, -1.000000000000000000 ) ) ;
#48 =( NAMED_UNIT ( * ) SI_UNIT ( $, .STERADIAN. ) SOLID_ANGLE_UNIT ( ) );
#49 = CARTESIAN_POINT ( 'NONE',  ( -4.949999999999999289, 0.8500000000000000888, 14.48000000000000043 ) ) ;
#50 = VERTEX_POINT ( 'NONE', #380 ) ;
#51 = APPROVAL ( #428, 'UNSPECIFIED' ) ;
#52 = ORIENTED_EDGE ( 'NONE', *, *, #349, .F. ) ;
#53 = DIRECTION ( 'NONE',  ( 0.000000000000000000, 0.000000000000000000, 1.000000000000000000 ) ) ;
#54 = DIRECTION ( 'NONE',  ( 0.000000000000000000, -0.7071067811865474617, -0.7071067811865474617 ) ) ;
#55 = ORIENTED_EDGE ( 'NONE', *, *, #138, .T. ) ;
#56 = CARTESIAN_POINT ( 'NONE',  ( 4.950000000000001066, 3.449999999999999734, 14.48000000000000043 ) ) ;
#57 = AXIS2_PLACEMENT_3D ( 'NONE', #179, #271, #229 ) ;
#58 = EDGE_CURVE ( 'NONE', #123, #390, #214, .T. ) ;
#59 = CARTESIAN_POINT ( 'NONE',  ( 4.950000000000001066, 0.8499999999999990896, 11.64999999999999680 ) ) ;
#60 = VECTOR ( 'NONE', #273, 1000.000000000000114 ) ;
#61 = AXIS2_PLACEMENT_3D ( 'NONE', #376, #541, #464 ) ;
#62 = CARTESIAN_POINT ( 'NONE',  ( 4.950000000000001066, -3.449999999999996625, -14.24999999999999822 ) ) ;
#63 = LINE ( 'NONE', #373, #30 ) ;
#64 = DIRECTION ( 'NONE',  ( 0.000000000000000000, 0.000000000000000000, -1.000000000000000000 ) ) ;
#65 = LOCAL_TIME ( 23, 19, 7.000000000000000000, #155 ) ;
#66 = EDGE_CURVE ( 'NONE', #439, #235, #118, .T. ) ;
#67 = DIRECTION ( 'NONE',  ( 0.000000000000000000, 0.7071067811865474617, -0.7071067811865474617 ) ) ;
#68 = VECTOR ( 'NONE', #267, 1000.000000000000000 ) ;
#69 = CARTESIAN_POINT ( 'NONE',  ( -4.949999999999999289, -3.449999999999998401, 14.24999999999999822 ) ) ;
#70 = COORDINATED_UNIVERSAL_TIME_OFFSET ( 5, 30, .AHEAD. ) ;
#71 = CARTESIAN_POINT ( 'NONE',  ( -4.949999999999999289, 3.680000000000001048, -11.64999999999999858 ) ) ;
#72 = DIRECTION ( 'NONE',  ( 0.000000000000000000, -1.000000000000000000, 0.000000000000000000 ) ) ;
#73 = DIRECTION ( 'NONE',  ( -1.000000000000000000, 0.000000000000000000, -0.000000000000000000 ) ) ;
#74 = ORIENTED_EDGE ( 'NONE', *, *, #422, .T. ) ;
#75 = PLANE ( 'NONE',  #534 ) ;
#76 = DIRECTION ( 'NONE',  ( -0.000000000000000000, 0.000000000000000000, -1.000000000000000000 ) ) ;
#77 = ORIENTED_EDGE ( 'NONE', *, *, #44, .F. ) ;
#78 = ORIENTED_EDGE ( 'NONE', *, *, #566, .F. ) ;
#79 = FACE_OUTER_BOUND ( 'NONE', #218, .T. ) ;
#80 = APPROVAL_ROLE ( '' ) ;
#81 = CARTESIAN_POINT ( 'NONE',  ( -4.949999999999999289, -0.8499999999999990896, 11.64999999999999503 ) ) ;
#82 = ORIENTED_EDGE ( 'NONE', *, *, #521, .T. ) ;
#83 = DATE_TIME_ROLE ( 'creation_date' ) ;
#84 = EDGE_CURVE ( 'NONE', #398, #407, #27, .T. ) ;
#85 = CARTESIAN_POINT ( 'NONE',  ( -4.949999999999999289, 3.449999999999999734, 14.48000000000000043 ) ) ;
#86 = ADVANCED_FACE ( 'NONE', ( #470 ), #560, .F. ) ;
#87 = ORIENTED_EDGE ( 'NONE', *, *, #43, .T. ) ;
#88 = AXIS2_PLACEMENT_3D ( 'NONE', #255, #467, #503 ) ;
#89 = CALENDAR_DATE ( 2025, 5, 7 ) ;
#90 = CARTESIAN_POINT ( 'NONE',  ( 4.950000000000001066, 3.680000000000001048, -11.64999999999999858 ) ) ;
#91 = VECTOR ( 'NONE', #234, 1000.000000000000000 ) ;
#92 = VECTOR ( 'NONE', #64, 1000.000000000000000 ) ;
#93 = PERSON_AND_ORGANIZATION_ROLE ( 'design_supplier' ) ;
#94 = CARTESIAN_POINT ( 'NONE',  ( -4.949999999999999289, 3.449999999999999734, 0.000000000000000000 ) ) ;
#95 = EDGE_LOOP ( 'NONE', ( #444, #431, #36, #326 ) ) ;
#96 = CARTESIAN_POINT ( 'NONE',  ( -4.949999999999999289, -3.449999999999998845, 14.24999999999999822 ) ) ;
#97 = APPROVAL ( #41, 'UNSPECIFIED' ) ;
#98 = LOCAL_TIME ( 23, 19, 7.000000000000000000, #70 ) ;
#99 = VERTEX_POINT ( 'NONE', #423 ) ;
#100 = DIRECTION ( 'NONE',  ( -1.000000000000000000, 0.000000000000000000, 0.000000000000000000 ) ) ;
#101 = ADVANCED_FACE ( 'NONE', ( #79 ), #204, .F. ) ;
#102 = LINE ( 'NONE', #56, #285 ) ;
#103 = ADVANCED_FACE ( 'NONE', ( #337 ), #507, .F. ) ;
#104 = ORIENTED_EDGE ( 'NONE', *, *, #84, .F. ) ;
#105 = FACE_OUTER_BOUND ( 'NONE', #148, .T. ) ;
#106 = DESIGN_CONTEXT ( 'detailed design', #112, 'design' ) ;
#107 = CARTESIAN_POINT ( 'NONE',  ( -4.949999999999999289, -3.449999999999997957, -14.24999999999999822 ) ) ;
#108 = CARTESIAN_POINT ( 'NONE',  ( -4.949999999999999289, -0.8499999999999983125, -14.48000000000000398 ) ) ;
#109 = VECTOR ( 'NONE', #528, 1000.000000000000114 ) ;
#110 = ADVANCED_BREP_SHAPE_REPRESENTATION ( 'toroid_core', ( #248, #184 ), #359 ) ;
#111 = DIRECTION ( 'NONE',  ( 0.000000000000000000, 0.000000000000000000, -1.000000000000000000 ) ) ;
#112 = APPLICATION_CONTEXT ( 'configuration controlled 3d designs of mechanical parts and assemblies' ) ;
#113 = CC_DESIGN_PERSON_AND_ORGANIZATION_ASSIGNMENT ( #543, #550, ( #245 ) ) ;
#114 = DIRECTION ( 'NONE',  ( -0.000000000000000000, -0.000000000000000000, 1.000000000000000000 ) ) ;
#115 = PLANE ( 'NONE',  #61 ) ;
#116 = VECTOR ( 'NONE', #342, 1000.000000000000000 ) ;
#117 = VECTOR ( 'NONE', #331, 1000.000000000000000 ) ;
#118 = LINE ( 'NONE', #465, #116 ) ;
#119 = LINE ( 'NONE', #69, #406 ) ;
#120 = VERTEX_POINT ( 'NONE', #432 ) ;
#121 = DIRECTION ( 'NONE',  ( 0.000000000000000000, -0.7071067811865474617, 0.7071067811865474617 ) ) ;
#122 = FACE_OUTER_BOUND ( 'NONE', #213, .T. ) ;
#123 = VERTEX_POINT ( 'NONE', #28 ) ;
#124 = ORIENTED_EDGE ( 'NONE', *, *, #44, .T. ) ;
#125 = DIRECTION ( 'NONE',  ( 0.000000000000000000, -0.000000000000000000, 1.000000000000000000 ) ) ;
#126 = LINE ( 'NONE', #136, #451 ) ;
#127 = EDGE_CURVE ( 'NONE', #176, #1, #259, .T. ) ;
#128 = ORIENTED_EDGE ( 'NONE', *, *, #458, .F. ) ;
#129 = DIRECTION ( 'NONE',  ( 0.000000000000000000, -0.000000000000000000, 1.000000000000000000 ) ) ;
#130 = ORIENTED_EDGE ( 'NONE', *, *, #311, .T. ) ;
#131 = ORIENTED_EDGE ( 'NONE', *, *, #321, .T. ) ;
#132 = PERSON_AND_ORGANIZATION ( #372, #270 ) ;
#133 = FACE_OUTER_BOUND ( 'NONE', #344, .T. ) ;
#134 = AXIS2_PLACEMENT_3D ( 'NONE', #249, #295, #73 ) ;
#135 = PERSON_AND_ORGANIZATION ( #372, #270 ) ;
#136 = CARTESIAN_POINT ( 'NONE',  ( -4.949999999999999289, 2.265000000000001013, 13.06499999999999773 ) ) ;
#137 = AXIS2_PLACEMENT_3D ( 'NONE', #71, #19, #456 ) ;
#138 = EDGE_CURVE ( 'NONE', #99, #439, #264, .T. ) ;
#139 = ORIENTED_EDGE ( 'NONE', *, *, #147, .F. ) ;
#140 = ORIENTED_EDGE ( 'NONE', *, *, #311, .F. ) ;
#141 = PERSON_AND_ORGANIZATION_ROLE ( 'creator' ) ;
#142 = PRODUCT_DEFINITION_FORMATION_WITH_SPECIFIED_SOURCE ( 'ANY', '', #419, .NOT_KNOWN. ) ;
#143 = PERSON_AND_ORGANIZATION ( #372, #270 ) ;
#144 = AXIS2_PLACEMENT_3D ( 'NONE', #261, #172, #47 ) ;
#145 = ADVANCED_FACE ( 'NONE', ( #122 ), #462, .F. ) ;
#146 = DIRECTION ( 'NONE',  ( -1.000000000000000000, 0.000000000000000000, 0.000000000000000000 ) ) ;
#147 = EDGE_CURVE ( 'NONE', #357, #558, #378, .T. ) ;
#148 = EDGE_LOOP ( 'NONE', ( #512, #7, #350, #478 ) ) ;
#149 = CARTESIAN_POINT ( 'NONE',  ( 4.950000000000001066, -3.449999999999998401, -14.48000000000000398 ) ) ;
#150 = LINE ( 'NONE', #328, #92 ) ;
#151 = CARTESIAN_POINT ( 'NONE',  ( 4.950000000000001066, 0.8499999999999987566, -11.65000000000000036 ) ) ;
#152 = CARTESIAN_POINT ( 'NONE',  ( 4.950000000000001066, 0.8500000000000000888, 0.000000000000000000 ) ) ;
#153 = CC_DESIGN_DATE_AND_TIME_ASSIGNMENT ( #256, #511, ( #245 ) ) ;
#154 = LINE ( 'NONE', #107, #117 ) ;
#155 = COORDINATED_UNIVERSAL_TIME_OFFSET ( 5, 30, .AHEAD. ) ;
#156 = PLANE ( 'NONE',  #365 ) ;
#157 = ADVANCED_FACE ( 'NONE', ( #334 ), #522, .F. ) ;
#158 = DIRECTION ( 'NONE',  ( -0.000000000000000000, 1.000000000000000000, -0.000000000000000000 ) ) ;
#159 = CLOSED_SHELL ( 'NONE', ( #339, #101, #233, #332, #505, #86, #526, #22, #164, #292, #205, #309, #157, #366, #9, #545, #393, #103, #145, #251 ) ) ;
#160 = CARTESIAN_POINT ( 'NONE',  ( -4.949999999999999289, 3.680000000000000604, -14.24999999999999822 ) ) ;
#161 = AXIS2_PLACEMENT_3D ( 'NONE', #108, #282, #453 ) ;
#162 = AXIS2_PLACEMENT_3D ( 'NONE', #333, #542, #111 ) ;
#163 = DATE_AND_TIME ( #250, #65 ) ;
#164 = ADVANCED_FACE ( 'NONE', ( #133 ), #517, .F. ) ;
#165 = ORIENTED_EDGE ( 'NONE', *, *, #299, .T. ) ;
#166 = LINE ( 'NONE', #559, #502 ) ;
#167 = DIRECTION ( 'NONE',  ( -0.000000000000000000, 1.000000000000000000, -0.000000000000000000 ) ) ;
#168 = ORIENTED_EDGE ( 'NONE', *, *, #127, .T. ) ;
#169 = LOCAL_TIME ( 23, 19, 7.000000000000000000, #530 ) ;
#170 = ORIENTED_EDGE ( 'NONE', *, *, #299, .F. ) ;
#171 = LINE ( 'NONE', #345, #39 ) ;
#172 = DIRECTION ( 'NONE',  ( 1.000000000000000000, 0.000000000000000000, 0.000000000000000000 ) ) ;
#173 = EDGE_CURVE ( 'NONE', #563, #385, #265, .T. ) ;
#174 = ORIENTED_EDGE ( 'NONE', *, *, #187, .F. ) ;
#175 = FACE_OUTER_BOUND ( 'NONE', #212, .T. ) ;
#176 = VERTEX_POINT ( 'NONE', #81 ) ;
#177 = ORIENTED_EDGE ( 'NONE', *, *, #188, .T. ) ;
#178 = DIRECTION ( 'NONE',  ( -0.000000000000000000, -0.000000000000000000, 1.000000000000000000 ) ) ;
#179 = CARTESIAN_POINT ( 'NONE',  ( -4.949999999999999289, 0.8500000000000000888, 0.000000000000000000 ) ) ;
#180 = ORIENTED_EDGE ( 'NONE', *, *, #349, .T. ) ;
#181 = FACE_OUTER_BOUND ( 'NONE', #307, .T. ) ;
#182 = ORIENTED_EDGE ( 'NONE', *, *, #138, .F. ) ;
#183 = PERSON_AND_ORGANIZATION ( #372, #270 ) ;
#184 = AXIS2_PLACEMENT_3D ( 'NONE', #6, #313, #232 ) ;
#185 = EDGE_LOOP ( 'NONE', ( #139, #35, #55, #341 ) ) ;
#186 = CARTESIAN_POINT ( 'NONE',  ( 4.950000000000001066, 0.8500000000000000888, 14.48000000000000043 ) ) ;
#187 = EDGE_CURVE ( 'NONE', #1, #385, #126, .T. ) ;
#188 = EDGE_CURVE ( 'NONE', #558, #439, #215, .T. ) ;
#189 = PLANE ( 'NONE',  #314 ) ;
#190 = VECTOR ( 'NONE', #389, 1000.000000000000000 ) ;
#191 = LOCAL_TIME ( 23, 19, 7.000000000000000000, #308 ) ;
#192 = ORIENTED_EDGE ( 'NONE', *, *, #3, .F. ) ;
#193 = DIRECTION ( 'NONE',  ( -0.000000000000000000, 0.000000000000000000, 1.000000000000000000 ) ) ;
#194 = LINE ( 'NONE', #459, #240 ) ;
#195 = PLANE ( 'NONE',  #161 ) ;
#196 = CC_DESIGN_PERSON_AND_ORGANIZATION_ASSIGNMENT ( #143, #141, ( #242 ) ) ;
#197 = FACE_OUTER_BOUND ( 'NONE', #340, .T. ) ;
#198 = CARTESIAN_POINT ( 'NONE',  ( -4.949999999999999289, 3.449999999999999734, 0.000000000000000000 ) ) ;
#199 = FACE_OUTER_BOUND ( 'NONE', #185, .T. ) ;
#200 = FACE_OUTER_BOUND ( 'NONE', #472, .T. ) ;
#201 = EDGE_CURVE ( 'NONE', #390, #50, #429, .T. ) ;
#202 = DIRECTION ( 'NONE',  ( 1.000000000000000000, 0.000000000000000000, -0.000000000000000000 ) ) ;
#203 = DIRECTION ( 'NONE',  ( 0.000000000000000000, 0.000000000000000000, -1.000000000000000000 ) ) ;
#204 = PLANE ( 'NONE',  #13 ) ;
#205 = ADVANCED_FACE ( 'NONE', ( #175 ), #477, .F. ) ;
#206 = ORIENTED_EDGE ( 'NONE', *, *, #491, .T. ) ;
#207 = CARTESIAN_POINT ( 'NONE',  ( 4.950000000000001066, -0.8499999999999967581, -11.65000000000000036 ) ) ;
#208 = CARTESIAN_POINT ( 'NONE',  ( -4.949999999999999289, -3.680000000000000604, 11.64999999999999680 ) ) ;
#209 = VECTOR ( 'NONE', #178, 1000.000000000000000 ) ;
#210 = VECTOR ( 'NONE', #496, 1000.000000000000000 ) ;
#211 = CALENDAR_DATE ( 2025, 5, 7 ) ;
#212 = EDGE_LOOP ( 'NONE', ( #301, #446, #300, #516 ) ) ;
#213 = EDGE_LOOP ( 'NONE', ( #425, #74, #387, #174 ) ) ;
#214 = LINE ( 'NONE', #388, #524 ) ;
#215 = LINE ( 'NONE', #316, #283 ) ;
#216 = CC_DESIGN_DATE_AND_TIME_ASSIGNMENT ( #323, #83, ( #242 ) ) ;
#217 = ORIENTED_EDGE ( 'NONE', *, *, #58, .F. ) ;
#218 = EDGE_LOOP ( 'NONE', ( #395, #258, #140, #128 ) ) ;
#219 = LINE ( 'NONE', #310, #68 ) ;
#220 = VECTOR ( 'NONE', #114, 1000.000000000000000 ) ;
#221 = ORIENTED_EDGE ( 'NONE', *, *, #547, .F. ) ;
#222 = APPROVAL_ROLE ( '' ) ;
#223 = DIRECTION ( 'NONE',  ( 0.000000000000000000, 0.000000000000000000, -1.000000000000000000 ) ) ;
#224 = ORIENTED_EDGE ( 'NONE', *, *, #458, .T. ) ;
#225 = ORIENTED_EDGE ( 'NONE', *, *, #394, .T. ) ;
#226 = DATE_AND_TIME ( #89, #363 ) ;
#227 = DIRECTION ( 'NONE',  ( -0.000000000000000000, 1.000000000000000000, 0.000000000000000000 ) ) ;
#228 = APPLICATION_PROTOCOL_DEFINITION ( 'international standard', 'config_control_design', 1994, #386 ) ;
#229 = DIRECTION ( 'NONE',  ( 0.000000000000000000, -0.000000000000000000, 1.000000000000000000 ) ) ;
#230 = ORIENTED_EDGE ( 'NONE', *, *, #463, .T. ) ;
#231 = ORIENTED_EDGE ( 'NONE', *, *, #147, .T. ) ;
#232 = DIRECTION ( 'NONE',  ( 1.000000000000000000, 0.000000000000000000, 0.000000000000000000 ) ) ;
#233 = ADVANCED_FACE ( 'NONE', ( #181 ), #348, .F. ) ;
#234 = DIRECTION ( 'NONE',  ( 0.000000000000000000, 0.000000000000000000, -1.000000000000000000 ) ) ;
#235 = VERTEX_POINT ( 'NONE', #481 ) ;
#236 = DIRECTION ( 'NONE',  ( -1.000000000000000000, 0.000000000000000000, -0.000000000000000000 ) ) ;
#237 = AXIS2_PLACEMENT_3D ( 'NONE', #298, #202, #76 ) ;
#238 = PLANE ( 'NONE',  #315 ) ;
#239 = VECTOR ( 'NONE', #375, 1000.000000000000000 ) ;
#240 = VECTOR ( 'NONE', #21, 1000.000000000000000 ) ;
#241 = DIRECTION ( 'NONE',  ( -1.000000000000000000, 0.000000000000000000, 0.000000000000000000 ) ) ;
#242 = PRODUCT_DEFINITION ( 'UNKNOWN', '', #142, #106 ) ;
#243 = LINE ( 'NONE', #500, #220 ) ;
#244 = FACE_OUTER_BOUND ( 'NONE', #32, .T. ) ;
#245 = SECURITY_CLASSIFICATION ( '', '', #379 ) ;
#246 = PLANE ( 'NONE',  #162 ) ;
#247 = FACE_OUTER_BOUND ( 'NONE', #494, .T. ) ;
#248 = MANIFOLD_SOLID_BREP ( 'Sweep1', #159 ) ;
#249 = CARTESIAN_POINT ( 'NONE',  ( -4.949999999999999289, -3.680000000000000604, 14.24999999999999645 ) ) ;
#250 = CALENDAR_DATE ( 2025, 5, 7 ) ;
#251 = ADVANCED_FACE ( 'NONE', ( #434 ), #34, .F. ) ;
#252 = CARTESIAN_POINT ( 'NONE',  ( 4.950000000000001066, 3.680000000000001048, -11.64999999999999858 ) ) ;
#253 = EDGE_CURVE ( 'NONE', #385, #123, #475, .T. ) ;
#254 = DIRECTION ( 'NONE',  ( 0.000000000000000000, 1.000000000000000000, 0.000000000000000000 ) ) ;
#255 = CARTESIAN_POINT ( 'NONE',  ( -4.949999999999999289, -0.8499999999999983125, -14.48000000000000398 ) ) ;
#256 = DATE_AND_TIME ( #211, #98 ) ;
#257 = ORIENTED_EDGE ( 'NONE', *, *, #408, .T. ) ;
#258 = ORIENTED_EDGE ( 'NONE', *, *, #84, .T. ) ;
#259 = LINE ( 'NONE', #208, #364 ) ;
#260 = CC_DESIGN_PERSON_AND_ORGANIZATION_ASSIGNMENT ( #135, #93, ( #142 ) ) ;
#261 = CARTESIAN_POINT ( 'NONE',  ( -4.949999999999999289, 3.680000000000001048, -11.64999999999999858 ) ) ;
#262 = ORIENTED_EDGE ( 'NONE', *, *, #187, .T. ) ;
#263 = EDGE_LOOP ( 'NONE', ( #230, #317, #124, #519 ) ) ;
#264 = LINE ( 'NONE', #420, #437 ) ;
#265 = LINE ( 'NONE', #304, #190 ) ;
#266 = EDGE_LOOP ( 'NONE', ( #14, #297, #131, #403 ) ) ;
#267 = DIRECTION ( 'NONE',  ( 1.000000000000000000, 0.000000000000000000, 0.000000000000000000 ) ) ;
#268 = VECTOR ( 'NONE', #72, 1000.000000000000000 ) ;
#269 = VERTEX_POINT ( 'NONE', #42 ) ;
#270 = ORGANIZATION ( 'UNSPECIFIED', 'UNSPECIFIED', '' ) ;
#271 = DIRECTION ( 'NONE',  ( -0.000000000000000000, 1.000000000000000000, 0.000000000000000000 ) ) ;
#272 = EDGE_CURVE ( 'NONE', #385, #558, #219, .T. ) ;
#273 = DIRECTION ( 'NONE',  ( 0.000000000000000000, 0.7071067811865474617, 0.7071067811865474617 ) ) ;
#274 = LINE ( 'NONE', #443, #291 ) ;
#275 = ORIENTED_EDGE ( 'NONE', *, *, #463, .F. ) ;
#276 = MECHANICAL_CONTEXT ( 'NONE', #386, 'mechanical' ) ;
#277 = EDGE_LOOP ( 'NONE', ( #554, #217, #518, #401 ) ) ;
#278 = CARTESIAN_POINT ( 'NONE',  ( 4.950000000000001066, 1.415000000000002256, -9.385000000000001563 ) ) ;
#279 = CARTESIAN_POINT ( 'NONE',  ( -4.949999999999999289, 0.8500000000000000888, 11.64999999999999680 ) ) ;
#280 = DIRECTION ( 'NONE',  ( 0.000000000000000000, -0.7071067811865474617, 0.7071067811865474617 ) ) ;
#281 = ORIENTED_EDGE ( 'NONE', *, *, #201, .T. ) ;
#282 = DIRECTION ( 'NONE',  ( 1.000000000000000000, 0.000000000000000000, 0.000000000000000000 ) ) ;
#283 = VECTOR ( 'NONE', #354, 1000.000000000000114 ) ;
#284 = CARTESIAN_POINT ( 'NONE',  ( -4.949999999999999289, 3.680000000000001048, -11.64999999999999858 ) ) ;
#285 = VECTOR ( 'NONE', #15, 1000.000000000000000 ) ;
#286 = DIRECTION ( 'NONE',  ( 1.000000000000000000, 0.000000000000000000, 0.000000000000000000 ) ) ;
#287 = DIRECTION ( 'NONE',  ( -1.000000000000000000, -0.000000000000000000, 0.000000000000000000 ) ) ;
#288 = CC_DESIGN_APPROVAL ( #51, ( #245 ) ) ;
#289 = DIRECTION ( 'NONE',  ( 0.000000000000000000, 0.000000000000000000, 1.000000000000000000 ) ) ;
#290 = EDGE_CURVE ( 'NONE', #476, #2, #392, .T. ) ;
#291 = VECTOR ( 'NONE', #23, 1000.000000000000000 ) ;
#292 = ADVANCED_FACE ( 'NONE', ( #356 ), #400, .F. ) ;
#293 = DIRECTION ( 'NONE',  ( 0.000000000000000000, 0.000000000000000000, 1.000000000000000000 ) ) ;
#294 = DIRECTION ( 'NONE',  ( 1.000000000000000000, -0.000000000000000000, 0.000000000000000000 ) ) ;
#295 = DIRECTION ( 'NONE',  ( 0.000000000000000000, 0.000000000000000000, -1.000000000000000000 ) ) ;
#296 = VERTEX_POINT ( 'NONE', #525 ) ;
#297 = ORIENTED_EDGE ( 'NONE', *, *, #547, .T. ) ;
#298 = CARTESIAN_POINT ( 'NONE',  ( -4.949999999999999289, -3.680000000000000604, 11.64999999999999680 ) ) ;
#299 = EDGE_CURVE ( 'NONE', #235, #269, #274, .T. ) ;
#300 = ORIENTED_EDGE ( 'NONE', *, *, #370, .T. ) ;
#301 = ORIENTED_EDGE ( 'NONE', *, *, #466, .F. ) ;
#302 = DIRECTION ( 'NONE',  ( 1.000000000000000000, 0.000000000000000000, -0.000000000000000000 ) ) ;
#303 = PERSON_AND_ORGANIZATION ( #372, #270 ) ;
#304 = CARTESIAN_POINT ( 'NONE',  ( -4.949999999999999289, -3.680000000000000604, 14.24999999999999645 ) ) ;
#305 = ORIENTED_EDGE ( 'NONE', *, *, #353, .T. ) ;
#306 = CARTESIAN_POINT ( 'NONE',  ( -4.949999999999999289, 0.8500000000000000888, 0.000000000000000000 ) ) ;
#307 = EDGE_LOOP ( 'NONE', ( #537, #224, #529, #52 ) ) ;
#308 = COORDINATED_UNIVERSAL_TIME_OFFSET ( 5, 30, .AHEAD. ) ;
#309 = ADVANCED_FACE ( 'NONE', ( #200 ), #156, .F. ) ;
#310 = CARTESIAN_POINT ( 'NONE',  ( -4.949999999999999289, 3.449999999999999734, 14.24999999999999645 ) ) ;
#311 = EDGE_CURVE ( 'NONE', #319, #407, #154, .T. ) ;
#312 = AXIS2_PLACEMENT_3D ( 'NONE', #49, #227, #129 ) ;
#313 = DIRECTION ( 'NONE',  ( 0.000000000000000000, 0.000000000000000000, 1.000000000000000000 ) ) ;
#314 = AXIS2_PLACEMENT_3D ( 'NONE', #18, #236, #193 ) ;
#315 = AXIS2_PLACEMENT_3D ( 'NONE', #252, #287, #293 ) ;
#316 = CARTESIAN_POINT ( 'NONE',  ( 4.950000000000001066, 2.265000000000001013, 13.06499999999999773 ) ) ;
#317 = ORIENTED_EDGE ( 'NONE', *, *, #405, .T. ) ;
#318 = DATE_AND_TIME ( #402, #191 ) ;
#319 = VERTEX_POINT ( 'NONE', #412 ) ;
#320 = CARTESIAN_POINT ( 'NONE',  ( -4.949999999999999289, -3.449999999999998401, -14.48000000000000398 ) ) ;
#321 = EDGE_CURVE ( 'NONE', #2, #99, #243, .T. ) ;
#322 = VECTOR ( 'NONE', #37, 1000.000000000000000 ) ;
#323 = DATE_AND_TIME ( #479, #169 ) ;
#324 = CARTESIAN_POINT ( 'NONE',  ( -4.949999999999999289, 12.21500000000000163, -1.415000000000003144 ) ) ;
#325 = EDGE_CURVE ( 'NONE', #357, #99, #460, .T. ) ;
#326 = ORIENTED_EDGE ( 'NONE', *, *, #449, .F. ) ;
#327 = DIRECTION ( 'NONE',  ( -0.000000000000000000, -0.000000000000000000, 1.000000000000000000 ) ) ;
#328 = CARTESIAN_POINT ( 'NONE',  ( -4.949999999999999289, 0.8500000000000000888, 14.48000000000000043 ) ) ;
#329 = LINE ( 'NONE', #198, #91 ) ;
#330 = FACE_OUTER_BOUND ( 'NONE', #10, .T. ) ;
#331 = DIRECTION ( 'NONE',  ( 1.000000000000000000, 0.000000000000000000, -0.000000000000000000 ) ) ;
#332 = ADVANCED_FACE ( 'NONE', ( #247 ), #377, .F. ) ;
#333 = CARTESIAN_POINT ( 'NONE',  ( -4.949999999999999289, 0.8500000000000000888, 14.48000000000000043 ) ) ;
#334 = FACE_OUTER_BOUND ( 'NONE', #263, .T. ) ;
#335 = VECTOR ( 'NONE', #346, 1000.000000000000000 ) ;
#336 = VECTOR ( 'NONE', #540, 1000.000000000000000 ) ;
#337 = FACE_OUTER_BOUND ( 'NONE', #471, .T. ) ;
#338 = SHAPE_DEFINITION_REPRESENTATION ( #553, #110 ) ;
#339 = ADVANCED_FACE ( 'NONE', ( #330 ), #238, .F. ) ;
#340 = EDGE_LOOP ( 'NONE', ( #262, #489, #5, #430 ) ) ;
#341 = ORIENTED_EDGE ( 'NONE', *, *, #188, .F. ) ;
#342 = DIRECTION ( 'NONE',  ( 0.000000000000000000, 0.000000000000000000, -1.000000000000000000 ) ) ;
#343 = ORIENTED_EDGE ( 'NONE', *, *, #433, .F. ) ;
#344 = EDGE_LOOP ( 'NONE', ( #567, #77, #281, #468 ) ) ;
#345 = CARTESIAN_POINT ( 'NONE',  ( -4.949999999999999289, 0.8500000000000000888, 0.000000000000000000 ) ) ;
#346 = DIRECTION ( 'NONE',  ( 0.000000000000000000, 0.000000000000000000, -1.000000000000000000 ) ) ;
#347 = EDGE_LOOP ( 'NONE', ( #182, #361, #168, #275 ) ) ;
#348 = PLANE ( 'NONE',  #144 ) ;
#349 = EDGE_CURVE ( 'NONE', #50, #296, #418, .T. ) ;
#350 = ORIENTED_EDGE ( 'NONE', *, *, #566, .T. ) ;
#351 = EDGE_LOOP ( 'NONE', ( #78, #130, #82, #527 ) ) ;
#352 = LINE ( 'NONE', #278, #60 ) ;
#353 = EDGE_CURVE ( 'NONE', #269, #123, #374, .T. ) ;
#354 = DIRECTION ( 'NONE',  ( 0.000000000000000000, -0.7071067811865474617, -0.7071067811865474617 ) ) ;
#355 = PERSON_AND_ORGANIZATION ( #372, #270 ) ;
#356 = FACE_OUTER_BOUND ( 'NONE', #277, .T. ) ;
#357 = VERTEX_POINT ( 'NONE', #417 ) ;
#358 = APPROVAL_ROLE ( '' ) ;
#359 =( GEOMETRIC_REPRESENTATION_CONTEXT ( 3 ) GLOBAL_UNCERTAINTY_ASSIGNED_CONTEXT ( ( #445 ) ) GLOBAL_UNIT_ASSIGNED_CONTEXT ( ( #520, #442, #48 ) ) REPRESENTATION_CONTEXT ( 'NONE', 'WORKASPACE' ) );
#360 = CC_DESIGN_PERSON_AND_ORGANIZATION_ASSIGNMENT ( #132, #533, ( #419 ) ) ;
#361 = ORIENTED_EDGE ( 'NONE', *, *, #449, .T. ) ;
#362 = APPROVAL_DATE_TIME ( #318, #29 ) ;
#363 = LOCAL_TIME ( 23, 19, 7.000000000000000000, #396 ) ;
#364 = VECTOR ( 'NONE', #556, 1000.000000000000000 ) ;
#365 = AXIS2_PLACEMENT_3D ( 'NONE', #414, #421, #289 ) ;
#366 = ADVANCED_FACE ( 'NONE', ( #197 ), #246, .F. ) ;
#367 = CARTESIAN_POINT ( 'NONE',  ( -4.949999999999999289, 1.415000000000002256, -9.385000000000001563 ) ) ;
#368 = ORIENTED_EDGE ( 'NONE', *, *, #173, .F. ) ;
#369 = LINE ( 'NONE', #149, #410 ) ;
#370 = EDGE_CURVE ( 'NONE', #269, #398, #194, .T. ) ;
#371 = CARTESIAN_POINT ( 'NONE',  ( -4.949999999999999289, 3.449999999999999289, 14.24999999999999645 ) ) ;
#372 = PERSON ( 'UNSPECIFIED', 'UNSPECIFIED', 'UNSPECIFIED', ('UNSPECIFIED'), ('UNSPECIFIED'), ('UNSPECIFIED') ) ;
#373 = CARTESIAN_POINT ( 'NONE',  ( -4.949999999999999289, 3.449999999999997513, -14.24999999999999822 ) ) ;
#374 = LINE ( 'NONE', #544, #382 ) ;
#375 = DIRECTION ( 'NONE',  ( -0.000000000000000000, -0.000000000000000000, 1.000000000000000000 ) ) ;
#376 = CARTESIAN_POINT ( 'NONE',  ( 4.950000000000001066, -3.680000000000000604, 11.64999999999999680 ) ) ;
#377 = PLANE ( 'NONE',  #137 ) ;
#378 = LINE ( 'NONE', #546, #548 ) ;
#379 = SECURITY_CLASSIFICATION_LEVEL ( 'unclassified' ) ;
#380 = CARTESIAN_POINT ( 'NONE',  ( -4.949999999999999289, 0.8499999999999987566, -11.65000000000000036 ) ) ;
#381 = ORIENTED_EDGE ( 'NONE', *, *, #272, .T. ) ;
#382 = VECTOR ( 'NONE', #17, 1000.000000000000000 ) ;
#383 = ORIENTED_EDGE ( 'NONE', *, *, #272, .F. ) ;
#384 = CARTESIAN_POINT ( 'NONE',  ( 4.950000000000001066, 3.680000000000000604, -14.24999999999999822 ) ) ;
#385 = VERTEX_POINT ( 'NONE', #371 ) ;
#386 = APPLICATION_CONTEXT ( 'configuration controlled 3d designs of mechanical parts and assemblies' ) ;
#387 = ORIENTED_EDGE ( 'NONE', *, *, #173, .T. ) ;
#388 = CARTESIAN_POINT ( 'NONE',  ( -4.949999999999999289, 0.8500000000000000888, 0.000000000000000000 ) ) ;
#389 = DIRECTION ( 'NONE',  ( -0.000000000000000000, 1.000000000000000000, -0.000000000000000000 ) ) ;
#390 = VERTEX_POINT ( 'NONE', #539 ) ;
#391 = AXIS2_PLACEMENT_3D ( 'NONE', #438, #4, #223 ) ;
#392 = LINE ( 'NONE', #90, #40 ) ;
#393 = ADVANCED_FACE ( 'NONE', ( #199 ), #115, .F. ) ;
#394 = EDGE_CURVE ( 'NONE', #235, #476, #26, .T. ) ;
#395 = ORIENTED_EDGE ( 'NONE', *, *, #532, .T. ) ;
#396 = COORDINATED_UNIVERSAL_TIME_OFFSET ( 5, 30, .AHEAD. ) ;
#397 = DIRECTION ( 'NONE',  ( 1.000000000000000000, 0.000000000000000000, 0.000000000000000000 ) ) ;
#398 = VERTEX_POINT ( 'NONE', #499 ) ;
#399 = LINE ( 'NONE', #320, #209 ) ;
#400 = PLANE ( 'NONE',  #391 ) ;
#401 = ORIENTED_EDGE ( 'NONE', *, *, #557, .F. ) ;
#402 = CALENDAR_DATE ( 2025, 5, 7 ) ;
#403 = ORIENTED_EDGE ( 'NONE', *, *, #325, .F. ) ;
#404 = FACE_OUTER_BOUND ( 'NONE', #266, .T. ) ;
#405 = EDGE_CURVE ( 'NONE', #1, #390, #150, .T. ) ;
#406 = VECTOR ( 'NONE', #294, 1000.000000000000000 ) ;
#407 = VERTEX_POINT ( 'NONE', #62 ) ;
#408 = EDGE_CURVE ( 'NONE', #476, #50, #555, .T. ) ;
#409 = DIRECTION ( 'NONE',  ( -1.000000000000000000, 0.000000000000000000, 0.000000000000000000 ) ) ;
#410 = VECTOR ( 'NONE', #327, 1000.000000000000000 ) ;
#411 = VECTOR ( 'NONE', #100, 1000.000000000000000 ) ;
#412 = CARTESIAN_POINT ( 'NONE',  ( -4.949999999999999289, -3.449999999999998401, -14.24999999999999822 ) ) ;
#413 = LINE ( 'NONE', #536, #336 ) ;
#414 = CARTESIAN_POINT ( 'NONE',  ( 4.950000000000001066, 0.8500000000000000888, 0.000000000000000000 ) ) ;
#415 = CC_DESIGN_SECURITY_CLASSIFICATION ( #245, ( #142 ) ) ;
#416 = LINE ( 'NONE', #447, #454 ) ;
#417 = CARTESIAN_POINT ( 'NONE',  ( 4.950000000000001066, -3.449999999999998401, 14.24999999999999289 ) ) ;
#418 = LINE ( 'NONE', #284, #210 ) ;
#419 = PRODUCT ( 'toroid_core', 'toroid_core', '', ( #276 ) ) ;
#420 = CARTESIAN_POINT ( 'NONE',  ( 4.950000000000001066, -3.680000000000000604, 11.64999999999999680 ) ) ;
#421 = DIRECTION ( 'NONE',  ( -1.000000000000000000, 0.000000000000000000, 0.000000000000000000 ) ) ;
#422 = EDGE_CURVE ( 'NONE', #176, #563, #492, .T. ) ;
#423 = CARTESIAN_POINT ( 'NONE',  ( 4.950000000000001066, -0.8499999999999990896, 11.64999999999999503 ) ) ;
#424 = DIRECTION ( 'NONE',  ( 1.000000000000000000, 0.000000000000000000, 0.000000000000000000 ) ) ;
#425 = ORIENTED_EDGE ( 'NONE', *, *, #127, .F. ) ;
#426 = CARTESIAN_POINT ( 'NONE',  ( -4.949999999999999289, 3.449999999999999734, 14.48000000000000043 ) ) ;
#427 = DIRECTION ( 'NONE',  ( -0.000000000000000000, -1.000000000000000000, 0.000000000000000000 ) ) ;
#428 = APPROVAL_STATUS ( 'not_yet_approved' ) ;
#429 = LINE ( 'NONE', #306, #335 ) ;
#430 = ORIENTED_EDGE ( 'NONE', *, *, #405, .F. ) ;
#431 = ORIENTED_EDGE ( 'NONE', *, *, #433, .T. ) ;
#432 = CARTESIAN_POINT ( 'NONE',  ( -4.949999999999999289, 3.449999999999999289, -14.24999999999999822 ) ) ;
#433 = EDGE_CURVE ( 'NONE', #2, #296, #493, .T. ) ;
#434 = FACE_OUTER_BOUND ( 'NONE', #347, .T. ) ;
#435 = ORIENTED_EDGE ( 'NONE', *, *, #491, .F. ) ;
#436 = PERSON_AND_ORGANIZATION ( #372, #270 ) ;
#437 = VECTOR ( 'NONE', #167, 1000.000000000000000 ) ;
#438 = CARTESIAN_POINT ( 'NONE',  ( -4.949999999999999289, 0.8500000000000000888, 0.000000000000000000 ) ) ;
#439 = VERTEX_POINT ( 'NONE', #59 ) ;
#440 = APPROVAL_PERSON_ORGANIZATION ( #183, #29, #358 ) ;
#441 = DIRECTION ( 'NONE',  ( -0.000000000000000000, 0.000000000000000000, 1.000000000000000000 ) ) ;
#442 =( NAMED_UNIT ( * ) PLANE_ANGLE_UNIT ( ) SI_UNIT ( $, .RADIAN. ) );
#443 = CARTESIAN_POINT ( 'NONE',  ( 4.950000000000001066, 0.8500000000000000888, 0.000000000000000000 ) ) ;
#444 = ORIENTED_EDGE ( 'NONE', *, *, #321, .F. ) ;
#445 = UNCERTAINTY_MEASURE_WITH_UNIT (LENGTH_MEASURE( 1.000000000000000082E-05 ), #520, 'distance_accuracy_value', 'NONE');
#446 = ORIENTED_EDGE ( 'NONE', *, *, #353, .F. ) ;
#447 = CARTESIAN_POINT ( 'NONE',  ( -4.949999999999999289, -0.8499999999999983125, 11.65000000000000036 ) ) ;
#448 = EDGE_CURVE ( 'NONE', #296, #319, #20, .T. ) ;
#449 = EDGE_CURVE ( 'NONE', #99, #176, #416, .T. ) ;
#450 = LINE ( 'NONE', #279, #506 ) ;
#451 = VECTOR ( 'NONE', #569, 1000.000000000000114 ) ;
#452 = ORIENTED_EDGE ( 'NONE', *, *, #290, .T. ) ;
#453 = DIRECTION ( 'NONE',  ( 0.000000000000000000, 0.000000000000000000, -1.000000000000000000 ) ) ;
#454 = VECTOR ( 'NONE', #241, 1000.000000000000000 ) ;
#455 = VECTOR ( 'NONE', #409, 1000.000000000000000 ) ;
#456 = DIRECTION ( 'NONE',  ( -1.000000000000000000, 0.000000000000000000, -0.000000000000000000 ) ) ;
#457 = PLANE ( 'NONE',  #482 ) ;
#458 = EDGE_CURVE ( 'NONE', #120, #319, #413, .T. ) ;
#459 = CARTESIAN_POINT ( 'NONE',  ( 4.950000000000001066, 3.449999999999999734, 0.000000000000000000 ) ) ;
#460 = LINE ( 'NONE', #501, #535 ) ;
#461 = AXIS2_PLACEMENT_3D ( 'NONE', #94, #515, #562 ) ;
#462 = PLANE ( 'NONE',  #237 ) ;
#463 = EDGE_CURVE ( 'NONE', #439, #1, #450, .T. ) ;
#464 = DIRECTION ( 'NONE',  ( 0.000000000000000000, 0.000000000000000000, 1.000000000000000000 ) ) ;
#465 = CARTESIAN_POINT ( 'NONE',  ( 4.950000000000001066, 0.8500000000000000888, 14.48000000000000043 ) ) ;
#466 = EDGE_CURVE ( 'NONE', #123, #120, #329, .T. ) ;
#467 = DIRECTION ( 'NONE',  ( 0.000000000000000000, -1.000000000000000000, 0.000000000000000000 ) ) ;
#468 = ORIENTED_EDGE ( 'NONE', *, *, #408, .F. ) ;
#469 = FACE_OUTER_BOUND ( 'NONE', #486, .T. ) ;
#470 = FACE_OUTER_BOUND ( 'NONE', #351, .T. ) ;
#471 = EDGE_LOOP ( 'NONE', ( #368, #87, #231, #383 ) ) ;
#472 = EDGE_LOOP ( 'NONE', ( #513, #170, #225, #192 ) ) ;
#473 = FACE_OUTER_BOUND ( 'NONE', #95, .T. ) ;
#474 = CC_DESIGN_PERSON_AND_ORGANIZATION_ASSIGNMENT ( #355, #523, ( #142 ) ) ;
#475 = LINE ( 'NONE', #85, #322 ) ;
#476 = VERTEX_POINT ( 'NONE', #151 ) ;
#477 = PLANE ( 'NONE',  #461 ) ;
#478 = ORIENTED_EDGE ( 'NONE', *, *, #422, .F. ) ;
#479 = CALENDAR_DATE ( 2025, 5, 7 ) ;
#480 = AXIS2_PLACEMENT_3D ( 'NONE', #514, #254, #125 ) ;
#481 = CARTESIAN_POINT ( 'NONE',  ( 4.950000000000001066, 0.8500000000000000888, 0.000000000000000000 ) ) ;
#482 = AXIS2_PLACEMENT_3D ( 'NONE', #186, #11, #53 ) ;
#483 = VECTOR ( 'NONE', #280, 1000.000000000000114 ) ;
#484 = APPROVAL_DATE_TIME ( #226, #97 ) ;
#485 = CARTESIAN_POINT ( 'NONE',  ( -4.949999999999999289, -3.680000000000000604, 11.64999999999999680 ) ) ;
#486 = EDGE_LOOP ( 'NONE', ( #381, #206, #305, #508 ) ) ;
#487 = APPROVAL_STATUS ( 'not_yet_approved' ) ;
#488 = APPROVAL_PERSON_ORGANIZATION ( #436, #97, #222 ) ;
#489 = ORIENTED_EDGE ( 'NONE', *, *, #253, .T. ) ;
#490 = CARTESIAN_POINT ( 'NONE',  ( -4.949999999999999289, 2.264999999999999236, -13.06499999999999950 ) ) ;
#491 = EDGE_CURVE ( 'NONE', #558, #269, #102, .T. ) ;
#492 = LINE ( 'NONE', #324, #483 ) ;
#493 = LINE ( 'NONE', #12, #455 ) ;
#494 = EDGE_LOOP ( 'NONE', ( #257, #180, #343, #31 ) ) ;
#495 = LINE ( 'NONE', #538, #239 ) ;
#496 = DIRECTION ( 'NONE',  ( 0.000000000000000000, -1.000000000000000000, 0.000000000000000000 ) ) ;
#497 = PRODUCT_RELATED_PRODUCT_CATEGORY ( 'detail', '', ( #419 ) ) ;
#498 = CARTESIAN_POINT ( 'NONE',  ( -4.949999999999999289, 0.8499999999999974243, -11.64999999999999858 ) ) ;
#499 = CARTESIAN_POINT ( 'NONE',  ( 4.950000000000001066, 3.449999999999999289, -14.25000000000000000 ) ) ;
#500 = CARTESIAN_POINT ( 'NONE',  ( 4.950000000000001066, -0.8499999999999983125, -14.48000000000000398 ) ) ;
#501 = CARTESIAN_POINT ( 'NONE',  ( 4.950000000000001066, 12.21500000000000163, -1.415000000000003144 ) ) ;
#502 = VECTOR ( 'NONE', #121, 1000.000000000000114 ) ;
#503 = DIRECTION ( 'NONE',  ( 0.000000000000000000, -0.000000000000000000, -1.000000000000000000 ) ) ;
#504 = EDGE_CURVE ( 'NONE', #296, #176, #495, .T. ) ;
#505 = ADVANCED_FACE ( 'NONE', ( #404 ), #189, .F. ) ;
#506 = VECTOR ( 'NONE', #146, 1000.000000000000000 ) ;
#507 = PLANE ( 'NONE',  #134 ) ;
#508 = ORIENTED_EDGE ( 'NONE', *, *, #253, .F. ) ;
#509 = CARTESIAN_POINT ( 'NONE',  ( -4.949999999999999289, 0.8499999999999990896, 11.64999999999999680 ) ) ;
#510 = DIRECTION ( 'NONE',  ( 0.000000000000000000, -1.000000000000000000, -0.000000000000000000 ) ) ;
#511 = DATE_TIME_ROLE ( 'classification_date' ) ;
#512 = ORIENTED_EDGE ( 'NONE', *, *, #504, .F. ) ;
#513 = ORIENTED_EDGE ( 'NONE', *, *, #370, .F. ) ;
#514 = CARTESIAN_POINT ( 'NONE',  ( -4.949999999999999289, -3.449999999999998401, -14.48000000000000398 ) ) ;
#515 = DIRECTION ( 'NONE',  ( 0.000000000000000000, -1.000000000000000000, -0.000000000000000000 ) ) ;
#516 = ORIENTED_EDGE ( 'NONE', *, *, #532, .F. ) ;
#517 = PLANE ( 'NONE',  #57 ) ;
#518 = ORIENTED_EDGE ( 'NONE', *, *, #466, .T. ) ;
#519 = ORIENTED_EDGE ( 'NONE', *, *, #66, .F. ) ;
#520 =( LENGTH_UNIT ( ) NAMED_UNIT ( * ) SI_UNIT ( .MILLI., .METRE. ) );
#521 = EDGE_CURVE ( 'NONE', #407, #357, #369, .T. ) ;
#522 = PLANE ( 'NONE',  #312 ) ;
#523 = PERSON_AND_ORGANIZATION_ROLE ( 'creator' ) ;
#524 = VECTOR ( 'NONE', #427, 1000.000000000000000 ) ;
#525 = CARTESIAN_POINT ( 'NONE',  ( -4.949999999999999289, -0.8499999999999967581, -11.65000000000000036 ) ) ;
#526 = ADVANCED_FACE ( 'NONE', ( #105 ), #195, .F. ) ;
#527 = ORIENTED_EDGE ( 'NONE', *, *, #43, .F. ) ;
#528 = DIRECTION ( 'NONE',  ( 0.000000000000000000, 0.7071067811865474617, -0.7071067811865474617 ) ) ;
#529 = ORIENTED_EDGE ( 'NONE', *, *, #448, .F. ) ;
#530 = COORDINATED_UNIVERSAL_TIME_OFFSET ( 5, 30, .AHEAD. ) ;
#531 = CC_DESIGN_APPROVAL ( #97, ( #142 ) ) ;
#532 = EDGE_CURVE ( 'NONE', #120, #398, #63, .T. ) ;
#533 = PERSON_AND_ORGANIZATION_ROLE ( 'design_owner' ) ;
#534 = AXIS2_PLACEMENT_3D ( 'NONE', #426, #510, #33 ) ;
#535 = VECTOR ( 'NONE', #67, 1000.000000000000114 ) ;
#536 = CARTESIAN_POINT ( 'NONE',  ( -4.949999999999999289, 3.680000000000000604, -14.24999999999999822 ) ) ;
#537 = ORIENTED_EDGE ( 'NONE', *, *, #557, .T. ) ;
#538 = CARTESIAN_POINT ( 'NONE',  ( -4.949999999999999289, -0.8499999999999983125, -14.48000000000000398 ) ) ;
#539 = CARTESIAN_POINT ( 'NONE',  ( -4.949999999999999289, 0.8500000000000000888, 0.000000000000000000 ) ) ;
#540 = DIRECTION ( 'NONE',  ( 0.000000000000000000, -1.000000000000000000, 0.000000000000000000 ) ) ;
#541 = DIRECTION ( 'NONE',  ( -1.000000000000000000, 0.000000000000000000, 0.000000000000000000 ) ) ;
#542 = DIRECTION ( 'NONE',  ( 1.000000000000000000, 0.000000000000000000, 0.000000000000000000 ) ) ;
#543 = PERSON_AND_ORGANIZATION ( #372, #270 ) ;
#544 = CARTESIAN_POINT ( 'NONE',  ( -4.949999999999999289, 3.449999999999999734, 0.000000000000000000 ) ) ;
#545 = ADVANCED_FACE ( 'NONE', ( #244 ), #457, .F. ) ;
#546 = CARTESIAN_POINT ( 'NONE',  ( 4.950000000000001066, -3.680000000000000604, 14.24999999999999645 ) ) ;
#547 = EDGE_CURVE ( 'NONE', #407, #2, #352, .T. ) ;
#548 = VECTOR ( 'NONE', #158, 1000.000000000000000 ) ;
#549 = PLANE ( 'NONE',  #88 ) ;
#550 = PERSON_AND_ORGANIZATION_ROLE ( 'classification_officer' ) ;
#551 = VECTOR ( 'NONE', #54, 1000.000000000000114 ) ;
#552 = VECTOR ( 'NONE', #203, 1000.000000000000000 ) ;
#553 = PRODUCT_DEFINITION_SHAPE ( 'NONE', 'NONE',  #242 ) ;
#554 = ORIENTED_EDGE ( 'NONE', *, *, #201, .F. ) ;
#555 = LINE ( 'NONE', #498, #411 ) ;
#556 = DIRECTION ( 'NONE',  ( -0.000000000000000000, 1.000000000000000000, -0.000000000000000000 ) ) ;
#557 = EDGE_CURVE ( 'NONE', #50, #120, #8, .T. ) ;
#558 = VERTEX_POINT ( 'NONE', #568 ) ;
#559 = CARTESIAN_POINT ( 'NONE',  ( 4.950000000000001066, 2.264999999999999236, -13.06499999999999950 ) ) ;
#560 = PLANE ( 'NONE',  #480 ) ;
#561 = APPROVAL_PERSON_ORGANIZATION ( #303, #51, #80 ) ;
#562 = DIRECTION ( 'NONE',  ( 0.000000000000000000, 0.000000000000000000, -1.000000000000000000 ) ) ;
#563 = VERTEX_POINT ( 'NONE', #96 ) ;
#564 = AXIS2_PLACEMENT_3D ( 'NONE', #485, #441, #397 ) ;
#565 = DIRECTION ( 'NONE',  ( 0.000000000000000000, -1.000000000000000000, 0.000000000000000000 ) ) ;
#566 = EDGE_CURVE ( 'NONE', #319, #563, #399, .T. ) ;
#567 = ORIENTED_EDGE ( 'NONE', *, *, #394, .F. ) ;
#568 = CARTESIAN_POINT ( 'NONE',  ( 4.950000000000001066, 3.449999999999999289, 14.24999999999999645 ) ) ;
#569 = DIRECTION ( 'NONE',  ( -0.000000000000000000, 0.7071067811865474617, 0.7071067811865474617 ) ) ;
ENDSEC;
END-ISO-10303-21;
