ISO-10303-21;
HEADER;
/* Generated by software containing ST-Developer
 * from STEP Tools, Inc. (www.steptools.com) 
 */

FILE_DESCRIPTION(
/* description */ (''),
/* implementation_level */ '2;1');

FILE_NAME(
/* name */ 'motor_terminal_lug v1.step',
/* time_stamp */ '2025-10-03T16:04:47+05:30',
/* author */ (''),
/* organization */ (''),
/* preprocessor_version */ 'ST-DEVELOPER v20.1',
/* originating_system */ 'Autodesk Translation Framework v14.17.0.0',
/* authorisation */ '');

FILE_SCHEMA (('AUTOMOTIVE_DESIGN { 1 0 10303 214 3 1 1 }'));
ENDSEC;

DATA;
#10=MECHANICAL_DESIGN_GEOMETRIC_PRESENTATION_REPRESENTATION('',(#13),#428);
#11=SHAPE_REPRESENTATION_RELATIONSHIP('SRR','None',#435,#12);
#12=ADVANCED_BREP_SHAPE_REPRESENTATION('',(#14),#427);
#13=STYLED_ITEM('',(#444),#14);
#14=MANIFOLD_SOLID_BREP('Body1',#248);
#15=FACE_BOUND('',#44,.T.);
#16=FACE_BOUND('',#46,.T.);
#17=PLANE('',#271);
#18=PLANE('',#274);
#19=PLANE('',#275);
#20=PLANE('',#276);
#21=PLANE('',#281);
#22=PLANE('',#282);
#23=PLANE('',#283);
#24=PLANE('',#284);
#25=FACE_OUTER_BOUND('',#38,.T.);
#26=FACE_OUTER_BOUND('',#39,.T.);
#27=FACE_OUTER_BOUND('',#40,.T.);
#28=FACE_OUTER_BOUND('',#41,.T.);
#29=FACE_OUTER_BOUND('',#42,.T.);
#30=FACE_OUTER_BOUND('',#43,.T.);
#31=FACE_OUTER_BOUND('',#45,.T.);
#32=FACE_OUTER_BOUND('',#47,.T.);
#33=FACE_OUTER_BOUND('',#48,.T.);
#34=FACE_OUTER_BOUND('',#49,.T.);
#35=FACE_OUTER_BOUND('',#50,.T.);
#36=FACE_OUTER_BOUND('',#51,.T.);
#37=FACE_OUTER_BOUND('',#52,.T.);
#38=EDGE_LOOP('',(#164,#165,#166,#167));
#39=EDGE_LOOP('',(#168,#169,#170,#171));
#40=EDGE_LOOP('',(#172,#173,#174,#175));
#41=EDGE_LOOP('',(#176,#177,#178,#179,#180,#181,#182,#183));
#42=EDGE_LOOP('',(#184,#185,#186,#187));
#43=EDGE_LOOP('',(#188,#189,#190,#191,#192,#193));
#44=EDGE_LOOP('',(#194));
#45=EDGE_LOOP('',(#195,#196,#197,#198,#199,#200));
#46=EDGE_LOOP('',(#201));
#47=EDGE_LOOP('',(#202,#203,#204,#205));
#48=EDGE_LOOP('',(#206,#207,#208,#209));
#49=EDGE_LOOP('',(#210,#211,#212,#213,#214,#215,#216,#217));
#50=EDGE_LOOP('',(#218,#219,#220,#221));
#51=EDGE_LOOP('',(#222,#223,#224,#225));
#52=EDGE_LOOP('',(#226,#227,#228,#229));
#53=LINE('',#362,#76);
#54=LINE('',#365,#77);
#55=LINE('',#371,#78);
#56=LINE('',#374,#79);
#57=LINE('',#379,#80);
#58=LINE('',#383,#81);
#59=LINE('',#387,#82);
#60=LINE('',#389,#83);
#61=LINE('',#391,#84);
#62=LINE('',#394,#85);
#63=LINE('',#396,#86);
#64=LINE('',#397,#87);
#65=LINE('',#400,#88);
#66=LINE('',#401,#89);
#67=LINE('',#404,#90);
#68=LINE('',#405,#91);
#69=LINE('',#408,#92);
#70=LINE('',#412,#93);
#71=LINE('',#416,#94);
#72=LINE('',#418,#95);
#73=LINE('',#419,#96);
#74=LINE('',#421,#97);
#75=LINE('',#423,#98);
#76=VECTOR('',#291,10.);
#77=VECTOR('',#294,10.);
#78=VECTOR('',#299,10.);
#79=VECTOR('',#302,10.);
#80=VECTOR('',#307,4.2);
#81=VECTOR('',#312,10.);
#82=VECTOR('',#315,10.);
#83=VECTOR('',#316,10.);
#84=VECTOR('',#317,10.);
#85=VECTOR('',#320,10.);
#86=VECTOR('',#323,10.);
#87=VECTOR('',#324,10.);
#88=VECTOR('',#327,10.);
#89=VECTOR('',#328,10.);
#90=VECTOR('',#331,10.);
#91=VECTOR('',#332,10.);
#92=VECTOR('',#335,10.);
#93=VECTOR('',#340,10.);
#94=VECTOR('',#345,10.);
#95=VECTOR('',#346,10.);
#96=VECTOR('',#347,10.);
#97=VECTOR('',#350,10.);
#98=VECTOR('',#353,10.);
#99=CIRCLE('',#263,3.99999988079071);
#100=CIRCLE('',#264,3.99999988079071);
#101=CIRCLE('',#266,4.00000005960465);
#102=CIRCLE('',#267,4.00000005960465);
#103=CIRCLE('',#269,4.2);
#104=CIRCLE('',#270,4.2);
#105=CIRCLE('',#272,2.5);
#106=CIRCLE('',#273,0.499999999999998);
#107=CIRCLE('',#278,0.499999999999998);
#108=CIRCLE('',#280,2.5);
#109=VERTEX_POINT('',#358);
#110=VERTEX_POINT('',#359);
#111=VERTEX_POINT('',#361);
#112=VERTEX_POINT('',#363);
#113=VERTEX_POINT('',#367);
#114=VERTEX_POINT('',#368);
#115=VERTEX_POINT('',#370);
#116=VERTEX_POINT('',#372);
#117=VERTEX_POINT('',#376);
#118=VERTEX_POINT('',#378);
#119=VERTEX_POINT('',#382);
#120=VERTEX_POINT('',#384);
#121=VERTEX_POINT('',#386);
#122=VERTEX_POINT('',#388);
#123=VERTEX_POINT('',#390);
#124=VERTEX_POINT('',#392);
#125=VERTEX_POINT('',#399);
#126=VERTEX_POINT('',#403);
#127=VERTEX_POINT('',#407);
#128=VERTEX_POINT('',#411);
#129=VERTEX_POINT('',#415);
#130=VERTEX_POINT('',#417);
#131=EDGE_CURVE('',#109,#110,#99,.T.);
#132=EDGE_CURVE('',#109,#111,#53,.T.);
#133=EDGE_CURVE('',#112,#111,#100,.T.);
#134=EDGE_CURVE('',#110,#112,#54,.T.);
#135=EDGE_CURVE('',#113,#114,#101,.T.);
#136=EDGE_CURVE('',#113,#115,#55,.T.);
#137=EDGE_CURVE('',#116,#115,#102,.T.);
#138=EDGE_CURVE('',#114,#116,#56,.T.);
#139=EDGE_CURVE('',#117,#117,#103,.T.);
#140=EDGE_CURVE('',#117,#118,#57,.T.);
#141=EDGE_CURVE('',#118,#118,#104,.T.);
#142=EDGE_CURVE('',#119,#113,#58,.T.);
#143=EDGE_CURVE('',#120,#119,#105,.T.);
#144=EDGE_CURVE('',#121,#120,#59,.T.);
#145=EDGE_CURVE('',#122,#121,#60,.T.);
#146=EDGE_CURVE('',#122,#123,#61,.T.);
#147=EDGE_CURVE('',#123,#124,#106,.T.);
#148=EDGE_CURVE('',#124,#115,#62,.T.);
#149=EDGE_CURVE('',#109,#114,#63,.T.);
#150=EDGE_CURVE('',#116,#111,#64,.T.);
#151=EDGE_CURVE('',#124,#125,#65,.T.);
#152=EDGE_CURVE('',#125,#112,#66,.T.);
#153=EDGE_CURVE('',#126,#110,#67,.T.);
#154=EDGE_CURVE('',#126,#119,#68,.T.);
#155=EDGE_CURVE('',#123,#127,#69,.T.);
#156=EDGE_CURVE('',#127,#125,#107,.T.);
#157=EDGE_CURVE('',#128,#120,#70,.T.);
#158=EDGE_CURVE('',#128,#126,#108,.T.);
#159=EDGE_CURVE('',#129,#127,#71,.T.);
#160=EDGE_CURVE('',#130,#129,#72,.T.);
#161=EDGE_CURVE('',#130,#128,#73,.T.);
#162=EDGE_CURVE('',#129,#122,#74,.T.);
#163=EDGE_CURVE('',#121,#130,#75,.T.);
#164=ORIENTED_EDGE('',*,*,#131,.F.);
#165=ORIENTED_EDGE('',*,*,#132,.T.);
#166=ORIENTED_EDGE('',*,*,#133,.F.);
#167=ORIENTED_EDGE('',*,*,#134,.F.);
#168=ORIENTED_EDGE('',*,*,#135,.F.);
#169=ORIENTED_EDGE('',*,*,#136,.T.);
#170=ORIENTED_EDGE('',*,*,#137,.F.);
#171=ORIENTED_EDGE('',*,*,#138,.F.);
#172=ORIENTED_EDGE('',*,*,#139,.F.);
#173=ORIENTED_EDGE('',*,*,#140,.T.);
#174=ORIENTED_EDGE('',*,*,#141,.F.);
#175=ORIENTED_EDGE('',*,*,#140,.F.);
#176=ORIENTED_EDGE('',*,*,#136,.F.);
#177=ORIENTED_EDGE('',*,*,#142,.F.);
#178=ORIENTED_EDGE('',*,*,#143,.F.);
#179=ORIENTED_EDGE('',*,*,#144,.F.);
#180=ORIENTED_EDGE('',*,*,#145,.F.);
#181=ORIENTED_EDGE('',*,*,#146,.T.);
#182=ORIENTED_EDGE('',*,*,#147,.T.);
#183=ORIENTED_EDGE('',*,*,#148,.T.);
#184=ORIENTED_EDGE('',*,*,#132,.F.);
#185=ORIENTED_EDGE('',*,*,#149,.T.);
#186=ORIENTED_EDGE('',*,*,#138,.T.);
#187=ORIENTED_EDGE('',*,*,#150,.T.);
#188=ORIENTED_EDGE('',*,*,#133,.T.);
#189=ORIENTED_EDGE('',*,*,#150,.F.);
#190=ORIENTED_EDGE('',*,*,#137,.T.);
#191=ORIENTED_EDGE('',*,*,#148,.F.);
#192=ORIENTED_EDGE('',*,*,#151,.T.);
#193=ORIENTED_EDGE('',*,*,#152,.T.);
#194=ORIENTED_EDGE('',*,*,#139,.T.);
#195=ORIENTED_EDGE('',*,*,#131,.T.);
#196=ORIENTED_EDGE('',*,*,#153,.F.);
#197=ORIENTED_EDGE('',*,*,#154,.T.);
#198=ORIENTED_EDGE('',*,*,#142,.T.);
#199=ORIENTED_EDGE('',*,*,#135,.T.);
#200=ORIENTED_EDGE('',*,*,#149,.F.);
#201=ORIENTED_EDGE('',*,*,#141,.T.);
#202=ORIENTED_EDGE('',*,*,#155,.T.);
#203=ORIENTED_EDGE('',*,*,#156,.T.);
#204=ORIENTED_EDGE('',*,*,#151,.F.);
#205=ORIENTED_EDGE('',*,*,#147,.F.);
#206=ORIENTED_EDGE('',*,*,#157,.T.);
#207=ORIENTED_EDGE('',*,*,#143,.T.);
#208=ORIENTED_EDGE('',*,*,#154,.F.);
#209=ORIENTED_EDGE('',*,*,#158,.F.);
#210=ORIENTED_EDGE('',*,*,#134,.T.);
#211=ORIENTED_EDGE('',*,*,#152,.F.);
#212=ORIENTED_EDGE('',*,*,#156,.F.);
#213=ORIENTED_EDGE('',*,*,#159,.F.);
#214=ORIENTED_EDGE('',*,*,#160,.F.);
#215=ORIENTED_EDGE('',*,*,#161,.T.);
#216=ORIENTED_EDGE('',*,*,#158,.T.);
#217=ORIENTED_EDGE('',*,*,#153,.T.);
#218=ORIENTED_EDGE('',*,*,#162,.F.);
#219=ORIENTED_EDGE('',*,*,#159,.T.);
#220=ORIENTED_EDGE('',*,*,#155,.F.);
#221=ORIENTED_EDGE('',*,*,#146,.F.);
#222=ORIENTED_EDGE('',*,*,#163,.F.);
#223=ORIENTED_EDGE('',*,*,#144,.T.);
#224=ORIENTED_EDGE('',*,*,#157,.F.);
#225=ORIENTED_EDGE('',*,*,#161,.F.);
#226=ORIENTED_EDGE('',*,*,#163,.T.);
#227=ORIENTED_EDGE('',*,*,#160,.T.);
#228=ORIENTED_EDGE('',*,*,#162,.T.);
#229=ORIENTED_EDGE('',*,*,#145,.T.);
#230=CYLINDRICAL_SURFACE('',#262,3.99999988079071);
#231=CYLINDRICAL_SURFACE('',#265,4.00000005960465);
#232=CYLINDRICAL_SURFACE('',#268,4.2);
#233=CYLINDRICAL_SURFACE('',#277,0.5);
#234=CYLINDRICAL_SURFACE('',#279,2.5);
#235=ADVANCED_FACE('',(#25),#230,.T.);
#236=ADVANCED_FACE('',(#26),#231,.T.);
#237=ADVANCED_FACE('',(#27),#232,.F.);
#238=ADVANCED_FACE('',(#28),#17,.T.);
#239=ADVANCED_FACE('',(#29),#18,.T.);
#240=ADVANCED_FACE('',(#30,#15),#19,.T.);
#241=ADVANCED_FACE('',(#31,#16),#20,.T.);
#242=ADVANCED_FACE('',(#32),#233,.F.);
#243=ADVANCED_FACE('',(#33),#234,.T.);
#244=ADVANCED_FACE('',(#34),#21,.T.);
#245=ADVANCED_FACE('',(#35),#22,.T.);
#246=ADVANCED_FACE('',(#36),#23,.T.);
#247=ADVANCED_FACE('',(#37),#24,.F.);
#248=CLOSED_SHELL('',(#235,#236,#237,#238,#239,#240,#241,#242,#243,#244,
#245,#246,#247));
#249=DERIVED_UNIT_ELEMENT(#251,1.);
#250=DERIVED_UNIT_ELEMENT(#430,-3.);
#251=(
MASS_UNIT()
NAMED_UNIT(*)
SI_UNIT(.KILO.,.GRAM.)
);
#252=DERIVED_UNIT((#249,#250));
#253=MEASURE_REPRESENTATION_ITEM('density measure',
POSITIVE_RATIO_MEASURE(7850.),#252);
#254=PROPERTY_DEFINITION_REPRESENTATION(#259,#256);
#255=PROPERTY_DEFINITION_REPRESENTATION(#260,#257);
#256=REPRESENTATION('material name',(#258),#427);
#257=REPRESENTATION('density',(#253),#427);
#258=DESCRIPTIVE_REPRESENTATION_ITEM('Steel','Steel');
#259=PROPERTY_DEFINITION('material property','material name',#437);
#260=PROPERTY_DEFINITION('material property','density of part',#437);
#261=AXIS2_PLACEMENT_3D('',#356,#285,#286);
#262=AXIS2_PLACEMENT_3D('',#357,#287,#288);
#263=AXIS2_PLACEMENT_3D('',#360,#289,#290);
#264=AXIS2_PLACEMENT_3D('',#364,#292,#293);
#265=AXIS2_PLACEMENT_3D('',#366,#295,#296);
#266=AXIS2_PLACEMENT_3D('',#369,#297,#298);
#267=AXIS2_PLACEMENT_3D('',#373,#300,#301);
#268=AXIS2_PLACEMENT_3D('',#375,#303,#304);
#269=AXIS2_PLACEMENT_3D('',#377,#305,#306);
#270=AXIS2_PLACEMENT_3D('',#380,#308,#309);
#271=AXIS2_PLACEMENT_3D('',#381,#310,#311);
#272=AXIS2_PLACEMENT_3D('',#385,#313,#314);
#273=AXIS2_PLACEMENT_3D('',#393,#318,#319);
#274=AXIS2_PLACEMENT_3D('',#395,#321,#322);
#275=AXIS2_PLACEMENT_3D('',#398,#325,#326);
#276=AXIS2_PLACEMENT_3D('',#402,#329,#330);
#277=AXIS2_PLACEMENT_3D('',#406,#333,#334);
#278=AXIS2_PLACEMENT_3D('',#409,#336,#337);
#279=AXIS2_PLACEMENT_3D('',#410,#338,#339);
#280=AXIS2_PLACEMENT_3D('',#413,#341,#342);
#281=AXIS2_PLACEMENT_3D('',#414,#343,#344);
#282=AXIS2_PLACEMENT_3D('',#420,#348,#349);
#283=AXIS2_PLACEMENT_3D('',#422,#351,#352);
#284=AXIS2_PLACEMENT_3D('',#424,#354,#355);
#285=DIRECTION('axis',(0.,0.,1.));
#286=DIRECTION('refdir',(1.,0.,0.));
#287=DIRECTION('center_axis',(0.,1.,0.));
#288=DIRECTION('ref_axis',(1.,0.,0.));
#289=DIRECTION('center_axis',(0.,1.,-5.7673923357151E-17));
#290=DIRECTION('ref_axis',(1.,0.,0.));
#291=DIRECTION('',(0.,-1.,0.));
#292=DIRECTION('center_axis',(0.,-1.,5.7673923357151E-17));
#293=DIRECTION('ref_axis',(1.,0.,0.));
#294=DIRECTION('',(0.,-1.,0.));
#295=DIRECTION('center_axis',(0.,1.,0.));
#296=DIRECTION('ref_axis',(0.,0.,1.));
#297=DIRECTION('center_axis',(0.,1.,-5.7673923357151E-17));
#298=DIRECTION('ref_axis',(0.,0.,1.));
#299=DIRECTION('',(0.,-1.,0.));
#300=DIRECTION('center_axis',(0.,-1.,5.7673923357151E-17));
#301=DIRECTION('ref_axis',(0.,0.,1.));
#302=DIRECTION('',(0.,-1.,0.));
#303=DIRECTION('center_axis',(0.,1.,0.));
#304=DIRECTION('ref_axis',(1.,0.,0.));
#305=DIRECTION('center_axis',(0.,1.,-5.7673923357151E-17));
#306=DIRECTION('ref_axis',(1.,0.,0.));
#307=DIRECTION('',(0.,1.,0.));
#308=DIRECTION('center_axis',(0.,-1.,5.7673923357151E-17));
#309=DIRECTION('ref_axis',(1.,0.,0.));
#310=DIRECTION('center_axis',(-1.,0.,0.));
#311=DIRECTION('ref_axis',(0.,0.,1.));
#312=DIRECTION('',(0.,5.7673923357151E-17,1.));
#313=DIRECTION('center_axis',(1.,0.,0.));
#314=DIRECTION('ref_axis',(0.,-8.88178419700126E-16,-1.));
#315=DIRECTION('',(0.,1.,0.));
#316=DIRECTION('',(0.,0.,-1.));
#317=DIRECTION('',(0.,1.,0.));
#318=DIRECTION('center_axis',(1.,0.,0.));
#319=DIRECTION('ref_axis',(0.,0.,-1.));
#320=DIRECTION('',(0.,5.7673923357151E-17,1.));
#321=DIRECTION('center_axis',(0.,6.12323399573677E-17,1.));
#322=DIRECTION('ref_axis',(1.,0.,0.));
#323=DIRECTION('',(-1.,0.,0.));
#324=DIRECTION('',(1.,0.,0.));
#325=DIRECTION('center_axis',(0.,-1.,5.7673923357151E-17));
#326=DIRECTION('ref_axis',(1.,0.,0.));
#327=DIRECTION('',(1.,0.,0.));
#328=DIRECTION('',(0.,5.7673923357151E-17,1.));
#329=DIRECTION('center_axis',(0.,1.,-5.7673923357151E-17));
#330=DIRECTION('ref_axis',(-1.,0.,0.));
#331=DIRECTION('',(0.,5.7673923357151E-17,1.));
#332=DIRECTION('',(-1.,0.,0.));
#333=DIRECTION('center_axis',(1.,0.,0.));
#334=DIRECTION('ref_axis',(0.,0.,-1.));
#335=DIRECTION('',(1.,0.,0.));
#336=DIRECTION('center_axis',(1.,0.,0.));
#337=DIRECTION('ref_axis',(0.,0.,-1.));
#338=DIRECTION('center_axis',(1.,0.,0.));
#339=DIRECTION('ref_axis',(0.,0.,-1.));
#340=DIRECTION('',(-1.,0.,0.));
#341=DIRECTION('center_axis',(1.,0.,0.));
#342=DIRECTION('ref_axis',(0.,-8.88178419700126E-16,-1.));
#343=DIRECTION('center_axis',(1.,0.,0.));
#344=DIRECTION('ref_axis',(0.,0.,-1.));
#345=DIRECTION('',(0.,1.,0.));
#346=DIRECTION('',(0.,0.,1.));
#347=DIRECTION('',(0.,1.,0.));
#348=DIRECTION('center_axis',(0.,0.,1.));
#349=DIRECTION('ref_axis',(1.,0.,0.));
#350=DIRECTION('',(-1.,0.,0.));
#351=DIRECTION('center_axis',(0.,0.,-1.));
#352=DIRECTION('ref_axis',(-1.,0.,0.));
#353=DIRECTION('',(1.,0.,0.));
#354=DIRECTION('center_axis',(0.,1.,0.));
#355=DIRECTION('ref_axis',(1.,0.,0.));
#356=CARTESIAN_POINT('',(0.,0.,0.));
#357=CARTESIAN_POINT('Origin',(8.00000011920929,13.,36.0000001192093));
#358=CARTESIAN_POINT('',(8.00000011920929,15.,40.));
#359=CARTESIAN_POINT('',(12.,15.,36.0000001192093));
#360=CARTESIAN_POINT('Origin',(8.00000011920929,15.,36.0000001192093));
#361=CARTESIAN_POINT('',(8.00000011920929,13.,40.));
#362=CARTESIAN_POINT('',(8.00000011920929,13.,40.));
#363=CARTESIAN_POINT('',(12.,13.,36.0000001192093));
#364=CARTESIAN_POINT('Origin',(8.00000011920929,13.,36.0000001192093));
#365=CARTESIAN_POINT('',(12.,13.,36.0000001192093));
#366=CARTESIAN_POINT('Origin',(-7.99999994039536,13.,35.9999999403953));
#367=CARTESIAN_POINT('',(-12.,15.,35.9999999403953));
#368=CARTESIAN_POINT('',(-7.99999994039536,15.,40.));
#369=CARTESIAN_POINT('Origin',(-7.99999994039536,15.,35.9999999403953));
#370=CARTESIAN_POINT('',(-12.,13.,35.9999999403953));
#371=CARTESIAN_POINT('',(-12.,13.,35.9999999403953));
#372=CARTESIAN_POINT('',(-7.99999994039536,13.,40.));
#373=CARTESIAN_POINT('Origin',(-7.99999994039536,13.,35.9999999403953));
#374=CARTESIAN_POINT('',(-7.99999994039536,13.,40.));
#375=CARTESIAN_POINT('Origin',(5.9604644553346E-8,13.,33.));
#376=CARTESIAN_POINT('',(-4.19999994039535,13.,33.));
#377=CARTESIAN_POINT('Origin',(5.9604644553346E-8,13.,33.));
#378=CARTESIAN_POINT('',(-4.19999994039535,15.,33.));
#379=CARTESIAN_POINT('',(-4.19999994039535,13.,33.));
#380=CARTESIAN_POINT('Origin',(5.9604644553346E-8,15.,33.));
#381=CARTESIAN_POINT('Origin',(-12.,0.,-1.));
#382=CARTESIAN_POINT('',(-12.,15.,1.5));
#383=CARTESIAN_POINT('',(-12.,15.,1.5));
#384=CARTESIAN_POINT('',(-12.,12.5,-1.));
#385=CARTESIAN_POINT('Origin',(-12.,12.5,1.5));
#386=CARTESIAN_POINT('',(-12.,0.,-1.));
#387=CARTESIAN_POINT('',(-12.,0.,-1.));
#388=CARTESIAN_POINT('',(-12.,0.,1.));
#389=CARTESIAN_POINT('',(-12.,0.,1.));
#390=CARTESIAN_POINT('',(-12.,12.5,1.));
#391=CARTESIAN_POINT('',(-12.,0.,1.));
#392=CARTESIAN_POINT('',(-12.,13.,1.5));
#393=CARTESIAN_POINT('Origin',(-12.,12.5,1.5));
#394=CARTESIAN_POINT('',(-12.,13.,1.5));
#395=CARTESIAN_POINT('Origin',(0.,14.,40.));
#396=CARTESIAN_POINT('',(-12.,15.,40.));
#397=CARTESIAN_POINT('',(12.,13.,40.));
#398=CARTESIAN_POINT('Origin',(-12.,13.,1.5));
#399=CARTESIAN_POINT('',(12.,13.,1.5));
#400=CARTESIAN_POINT('',(12.,13.,1.5));
#401=CARTESIAN_POINT('',(12.,13.,1.5));
#402=CARTESIAN_POINT('Origin',(12.,15.,1.5));
#403=CARTESIAN_POINT('',(12.,15.,1.5));
#404=CARTESIAN_POINT('',(12.,15.,1.5));
#405=CARTESIAN_POINT('',(-12.,15.,1.5));
#406=CARTESIAN_POINT('Origin',(0.,12.5,1.5));
#407=CARTESIAN_POINT('',(12.,12.5,1.));
#408=CARTESIAN_POINT('',(12.,12.5,1.));
#409=CARTESIAN_POINT('Origin',(12.,12.5,1.5));
#410=CARTESIAN_POINT('Origin',(0.,12.5,1.5));
#411=CARTESIAN_POINT('',(12.,12.5,-1.));
#412=CARTESIAN_POINT('',(-12.,12.5,-1.));
#413=CARTESIAN_POINT('Origin',(12.,12.5,1.5));
#414=CARTESIAN_POINT('Origin',(12.,0.,1.));
#415=CARTESIAN_POINT('',(12.,0.,1.));
#416=CARTESIAN_POINT('',(12.,0.,1.));
#417=CARTESIAN_POINT('',(12.,0.,-1.));
#418=CARTESIAN_POINT('',(12.,0.,-1.));
#419=CARTESIAN_POINT('',(12.,0.,-1.));
#420=CARTESIAN_POINT('Origin',(-12.,0.,1.));
#421=CARTESIAN_POINT('',(12.,0.,1.));
#422=CARTESIAN_POINT('Origin',(12.,0.,-1.));
#423=CARTESIAN_POINT('',(-12.,0.,-1.));
#424=CARTESIAN_POINT('Origin',(0.,0.,0.));
#425=UNCERTAINTY_MEASURE_WITH_UNIT(LENGTH_MEASURE(0.01),#429,
'DISTANCE_ACCURACY_VALUE',
'Maximum model space distance between geometric entities at asserted c
onnectivities');
#426=UNCERTAINTY_MEASURE_WITH_UNIT(LENGTH_MEASURE(0.01),#429,
'DISTANCE_ACCURACY_VALUE',
'Maximum model space distance between geometric entities at asserted c
onnectivities');
#427=(
GEOMETRIC_REPRESENTATION_CONTEXT(3)
GLOBAL_UNCERTAINTY_ASSIGNED_CONTEXT((#425))
GLOBAL_UNIT_ASSIGNED_CONTEXT((#429,#431,#432))
REPRESENTATION_CONTEXT('','3D')
);
#428=(
GEOMETRIC_REPRESENTATION_CONTEXT(3)
GLOBAL_UNCERTAINTY_ASSIGNED_CONTEXT((#426))
GLOBAL_UNIT_ASSIGNED_CONTEXT((#429,#431,#432))
REPRESENTATION_CONTEXT('','3D')
);
#429=(
LENGTH_UNIT()
NAMED_UNIT(*)
SI_UNIT(.MILLI.,.METRE.)
);
#430=(
LENGTH_UNIT()
NAMED_UNIT(*)
SI_UNIT($,.METRE.)
);
#431=(
NAMED_UNIT(*)
PLANE_ANGLE_UNIT()
SI_UNIT($,.RADIAN.)
);
#432=(
NAMED_UNIT(*)
SI_UNIT($,.STERADIAN.)
SOLID_ANGLE_UNIT()
);
#433=SHAPE_DEFINITION_REPRESENTATION(#434,#435);
#434=PRODUCT_DEFINITION_SHAPE('',$,#437);
#435=SHAPE_REPRESENTATION('',(#261),#427);
#436=PRODUCT_DEFINITION_CONTEXT('part definition',#441,'design');
#437=PRODUCT_DEFINITION('motor_terminal_lug','motor_terminal_lug v2',#438,
#436);
#438=PRODUCT_DEFINITION_FORMATION('',$,#443);
#439=PRODUCT_RELATED_PRODUCT_CATEGORY('motor_terminal_lug v2',
'motor_terminal_lug v2',(#443));
#440=APPLICATION_PROTOCOL_DEFINITION('international standard',
'automotive_design',2009,#441);
#441=APPLICATION_CONTEXT(
'Core Data for Automotive Mechanical Design Process');
#442=PRODUCT_CONTEXT('part definition',#441,'mechanical');
#443=PRODUCT('motor_terminal_lug','motor_terminal_lug v2',$,(#442));
#444=PRESENTATION_STYLE_ASSIGNMENT((#445));
#445=SURFACE_STYLE_USAGE(.BOTH.,#446);
#446=SURFACE_SIDE_STYLE('',(#447));
#447=SURFACE_STYLE_FILL_AREA(#448);
#448=FILL_AREA_STYLE('Steel - Satin',(#449));
#449=FILL_AREA_STYLE_COLOUR('Steel - Satin',#450);
#450=COLOUR_RGB('Steel - Satin',0.627450980392157,0.627450980392157,0.627450980392157);
ENDSEC;
END-ISO-10303-21;
