ISO-10303-21;
HEADER;
/* Generated by software containing ST-Developer
 * from STEP Tools, Inc. (www.steptools.com) 
 */
/* OPTION: strings as raw bytes, not using required /X/ escapes */

FILE_DESCRIPTION(
/* description */ ('Unknown'),
/* implementation_level */ '2;1');

FILE_NAME(
/* name */ 'Y14860R00010F9R',
/* time_stamp */ '2024-08-28T11:52:26+02:00',
/* author */ ('Unknown'),
/* organization */ ('Unknown'),
/* preprocessor_version */ 'ST-DEVELOPER v18.102',
/* originating_system */ 'Solid Edge',
/* authorisation */ 'Unknown');

FILE_SCHEMA (('AUTOMOTIVE_DESIGN {1 0 10303 214 3 1 1}'));
ENDSEC;

DATA;
#10=PROPERTY_DEFINITION_REPRESENTATION(#14,#12);
#11=PROPERTY_DEFINITION_REPRESENTATION(#15,#13);
#12=REPRESENTATION('',(#16),#1585);
#13=REPRESENTATION('',(#17),#1585);
#14=PROPERTY_DEFINITION('pmi validation property','',#1590);
#15=PROPERTY_DEFINITION('pmi validation property','',#1590);
#16=VALUE_REPRESENTATION_ITEM('number of annotations',COUNT_MEASURE(0.));
#17=VALUE_REPRESENTATION_ITEM('number of views',COUNT_MEASURE(0.));
#18=SHAPE_REPRESENTATION_RELATIONSHIP('','',#1091,#19);
#19=ADVANCED_BREP_SHAPE_REPRESENTATION('',(#1089),#1585);
#20=CYLINDRICAL_SURFACE('',#1143,0.327813461248708);
#21=CYLINDRICAL_SURFACE('',#1144,0.327813461248708);
#22=CYLINDRICAL_SURFACE('',#1145,0.327813461248708);
#23=CYLINDRICAL_SURFACE('',#1146,0.327813461248708);
#24=CYLINDRICAL_SURFACE('',#1147,0.327813461248708);
#25=CYLINDRICAL_SURFACE('',#1148,0.327813461248708);
#26=CYLINDRICAL_SURFACE('',#1149,0.327813461248708);
#27=CYLINDRICAL_SURFACE('',#1150,0.327813461248708);
#28=CIRCLE('',#1097,0.327813461248708);
#29=CIRCLE('',#1098,0.327813461248708);
#30=CIRCLE('',#1099,0.327813461248708);
#31=CIRCLE('',#1100,0.327813461248708);
#32=CIRCLE('',#1102,0.327813461248708);
#33=CIRCLE('',#1103,0.327813461248708);
#34=CIRCLE('',#1104,0.327813461248708);
#35=CIRCLE('',#1105,0.327813461248708);
#36=CIRCLE('',#1110,0.327813461248708);
#37=CIRCLE('',#1111,0.327813461248708);
#38=CIRCLE('',#1112,0.327813461248708);
#39=CIRCLE('',#1113,0.327813461248708);
#40=CIRCLE('',#1115,0.327813461248708);
#41=CIRCLE('',#1116,0.327813461248708);
#42=CIRCLE('',#1117,0.327813461248708);
#43=CIRCLE('',#1118,0.327813461248708);
#44=ORIENTED_EDGE('',*,*,#260,.T.);
#45=ORIENTED_EDGE('',*,*,#261,.T.);
#46=ORIENTED_EDGE('',*,*,#262,.T.);
#47=ORIENTED_EDGE('',*,*,#263,.F.);
#48=ORIENTED_EDGE('',*,*,#264,.F.);
#49=ORIENTED_EDGE('',*,*,#265,.F.);
#50=ORIENTED_EDGE('',*,*,#266,.T.);
#51=ORIENTED_EDGE('',*,*,#267,.F.);
#52=ORIENTED_EDGE('',*,*,#268,.F.);
#53=ORIENTED_EDGE('',*,*,#269,.T.);
#54=ORIENTED_EDGE('',*,*,#270,.T.);
#55=ORIENTED_EDGE('',*,*,#271,.T.);
#56=ORIENTED_EDGE('',*,*,#272,.T.);
#57=ORIENTED_EDGE('',*,*,#273,.F.);
#58=ORIENTED_EDGE('',*,*,#274,.T.);
#59=ORIENTED_EDGE('',*,*,#275,.T.);
#60=ORIENTED_EDGE('',*,*,#276,.T.);
#61=ORIENTED_EDGE('',*,*,#277,.T.);
#62=ORIENTED_EDGE('',*,*,#278,.T.);
#63=ORIENTED_EDGE('',*,*,#279,.T.);
#64=ORIENTED_EDGE('',*,*,#280,.T.);
#65=ORIENTED_EDGE('',*,*,#281,.T.);
#66=ORIENTED_EDGE('',*,*,#282,.T.);
#67=ORIENTED_EDGE('',*,*,#283,.T.);
#68=ORIENTED_EDGE('',*,*,#284,.T.);
#69=ORIENTED_EDGE('',*,*,#285,.F.);
#70=ORIENTED_EDGE('',*,*,#286,.T.);
#71=ORIENTED_EDGE('',*,*,#287,.F.);
#72=ORIENTED_EDGE('',*,*,#288,.T.);
#73=ORIENTED_EDGE('',*,*,#289,.F.);
#74=ORIENTED_EDGE('',*,*,#290,.F.);
#75=ORIENTED_EDGE('',*,*,#291,.F.);
#76=ORIENTED_EDGE('',*,*,#292,.T.);
#77=ORIENTED_EDGE('',*,*,#293,.F.);
#78=ORIENTED_EDGE('',*,*,#294,.T.);
#79=ORIENTED_EDGE('',*,*,#295,.F.);
#80=ORIENTED_EDGE('',*,*,#285,.T.);
#81=ORIENTED_EDGE('',*,*,#296,.T.);
#82=ORIENTED_EDGE('',*,*,#272,.F.);
#83=ORIENTED_EDGE('',*,*,#297,.T.);
#84=ORIENTED_EDGE('',*,*,#298,.F.);
#85=ORIENTED_EDGE('',*,*,#299,.T.);
#86=ORIENTED_EDGE('',*,*,#300,.T.);
#87=ORIENTED_EDGE('',*,*,#301,.F.);
#88=ORIENTED_EDGE('',*,*,#302,.F.);
#89=ORIENTED_EDGE('',*,*,#267,.T.);
#90=ORIENTED_EDGE('',*,*,#303,.T.);
#91=ORIENTED_EDGE('',*,*,#262,.F.);
#92=ORIENTED_EDGE('',*,*,#304,.T.);
#93=ORIENTED_EDGE('',*,*,#268,.T.);
#94=ORIENTED_EDGE('',*,*,#305,.T.);
#95=ORIENTED_EDGE('',*,*,#306,.T.);
#96=ORIENTED_EDGE('',*,*,#307,.T.);
#97=ORIENTED_EDGE('',*,*,#308,.T.);
#98=ORIENTED_EDGE('',*,*,#309,.T.);
#99=ORIENTED_EDGE('',*,*,#310,.T.);
#100=ORIENTED_EDGE('',*,*,#311,.T.);
#101=ORIENTED_EDGE('',*,*,#312,.T.);
#102=ORIENTED_EDGE('',*,*,#313,.T.);
#103=ORIENTED_EDGE('',*,*,#298,.T.);
#104=ORIENTED_EDGE('',*,*,#270,.F.);
#105=ORIENTED_EDGE('',*,*,#314,.F.);
#106=ORIENTED_EDGE('',*,*,#300,.F.);
#107=ORIENTED_EDGE('',*,*,#315,.T.);
#108=ORIENTED_EDGE('',*,*,#316,.F.);
#109=ORIENTED_EDGE('',*,*,#317,.T.);
#110=ORIENTED_EDGE('',*,*,#318,.F.);
#111=ORIENTED_EDGE('',*,*,#319,.F.);
#112=ORIENTED_EDGE('',*,*,#320,.F.);
#113=ORIENTED_EDGE('',*,*,#321,.T.);
#114=ORIENTED_EDGE('',*,*,#322,.F.);
#115=ORIENTED_EDGE('',*,*,#323,.T.);
#116=ORIENTED_EDGE('',*,*,#295,.T.);
#117=ORIENTED_EDGE('',*,*,#324,.T.);
#118=ORIENTED_EDGE('',*,*,#274,.F.);
#119=ORIENTED_EDGE('',*,*,#325,.T.);
#120=ORIENTED_EDGE('',*,*,#290,.T.);
#121=ORIENTED_EDGE('',*,*,#326,.F.);
#122=ORIENTED_EDGE('',*,*,#279,.F.);
#123=ORIENTED_EDGE('',*,*,#327,.T.);
#124=ORIENTED_EDGE('',*,*,#289,.T.);
#125=ORIENTED_EDGE('',*,*,#328,.T.);
#126=ORIENTED_EDGE('',*,*,#280,.F.);
#127=ORIENTED_EDGE('',*,*,#326,.T.);
#128=ORIENTED_EDGE('',*,*,#287,.T.);
#129=ORIENTED_EDGE('',*,*,#329,.T.);
#130=ORIENTED_EDGE('',*,*,#282,.F.);
#131=ORIENTED_EDGE('',*,*,#330,.T.);
#132=ORIENTED_EDGE('',*,*,#265,.T.);
#133=ORIENTED_EDGE('',*,*,#331,.T.);
#134=ORIENTED_EDGE('',*,*,#260,.F.);
#135=ORIENTED_EDGE('',*,*,#332,.T.);
#136=ORIENTED_EDGE('',*,*,#306,.F.);
#137=ORIENTED_EDGE('',*,*,#333,.T.);
#138=ORIENTED_EDGE('',*,*,#322,.T.);
#139=ORIENTED_EDGE('',*,*,#334,.T.);
#140=ORIENTED_EDGE('',*,*,#308,.F.);
#141=ORIENTED_EDGE('',*,*,#335,.T.);
#142=ORIENTED_EDGE('',*,*,#320,.T.);
#143=ORIENTED_EDGE('',*,*,#336,.F.);
#144=ORIENTED_EDGE('',*,*,#319,.T.);
#145=ORIENTED_EDGE('',*,*,#337,.F.);
#146=ORIENTED_EDGE('',*,*,#309,.F.);
#147=ORIENTED_EDGE('',*,*,#336,.T.);
#148=ORIENTED_EDGE('',*,*,#318,.T.);
#149=ORIENTED_EDGE('',*,*,#338,.T.);
#150=ORIENTED_EDGE('',*,*,#310,.F.);
#151=ORIENTED_EDGE('',*,*,#337,.T.);
#152=ORIENTED_EDGE('',*,*,#312,.F.);
#153=ORIENTED_EDGE('',*,*,#339,.T.);
#154=ORIENTED_EDGE('',*,*,#316,.T.);
#155=ORIENTED_EDGE('',*,*,#340,.T.);
#156=ORIENTED_EDGE('',*,*,#293,.T.);
#157=ORIENTED_EDGE('',*,*,#341,.T.);
#158=ORIENTED_EDGE('',*,*,#276,.F.);
#159=ORIENTED_EDGE('',*,*,#342,.T.);
#160=ORIENTED_EDGE('',*,*,#278,.F.);
#161=ORIENTED_EDGE('',*,*,#343,.T.);
#162=ORIENTED_EDGE('',*,*,#291,.T.);
#163=ORIENTED_EDGE('',*,*,#327,.F.);
#164=ORIENTED_EDGE('',*,*,#344,.T.);
#165=ORIENTED_EDGE('',*,*,#345,.T.);
#166=ORIENTED_EDGE('',*,*,#346,.T.);
#167=ORIENTED_EDGE('',*,*,#347,.T.);
#168=ORIENTED_EDGE('',*,*,#273,.T.);
#169=ORIENTED_EDGE('',*,*,#296,.F.);
#170=ORIENTED_EDGE('',*,*,#284,.F.);
#171=ORIENTED_EDGE('',*,*,#325,.F.);
#172=ORIENTED_EDGE('',*,*,#348,.T.);
#173=ORIENTED_EDGE('',*,*,#349,.T.);
#174=ORIENTED_EDGE('',*,*,#350,.T.);
#175=ORIENTED_EDGE('',*,*,#351,.T.);
#176=ORIENTED_EDGE('',*,*,#263,.T.);
#177=ORIENTED_EDGE('',*,*,#303,.F.);
#178=ORIENTED_EDGE('',*,*,#266,.F.);
#179=ORIENTED_EDGE('',*,*,#332,.F.);
#180=ORIENTED_EDGE('',*,*,#352,.F.);
#181=ORIENTED_EDGE('',*,*,#353,.F.);
#182=ORIENTED_EDGE('',*,*,#354,.F.);
#183=ORIENTED_EDGE('',*,*,#355,.F.);
#184=ORIENTED_EDGE('',*,*,#301,.T.);
#185=ORIENTED_EDGE('',*,*,#314,.T.);
#186=ORIENTED_EDGE('',*,*,#269,.F.);
#187=ORIENTED_EDGE('',*,*,#304,.F.);
#188=ORIENTED_EDGE('',*,*,#356,.F.);
#189=ORIENTED_EDGE('',*,*,#357,.F.);
#190=ORIENTED_EDGE('',*,*,#358,.F.);
#191=ORIENTED_EDGE('',*,*,#359,.F.);
#192=ORIENTED_EDGE('',*,*,#261,.F.);
#193=ORIENTED_EDGE('',*,*,#331,.F.);
#194=ORIENTED_EDGE('',*,*,#264,.T.);
#195=ORIENTED_EDGE('',*,*,#302,.T.);
#196=ORIENTED_EDGE('',*,*,#360,.F.);
#197=ORIENTED_EDGE('',*,*,#353,.T.);
#198=ORIENTED_EDGE('',*,*,#361,.T.);
#199=ORIENTED_EDGE('',*,*,#359,.T.);
#200=ORIENTED_EDGE('',*,*,#362,.F.);
#201=ORIENTED_EDGE('',*,*,#354,.T.);
#202=ORIENTED_EDGE('',*,*,#360,.T.);
#203=ORIENTED_EDGE('',*,*,#358,.T.);
#204=ORIENTED_EDGE('',*,*,#363,.F.);
#205=ORIENTED_EDGE('',*,*,#355,.T.);
#206=ORIENTED_EDGE('',*,*,#362,.T.);
#207=ORIENTED_EDGE('',*,*,#357,.T.);
#208=ORIENTED_EDGE('',*,*,#361,.F.);
#209=ORIENTED_EDGE('',*,*,#352,.T.);
#210=ORIENTED_EDGE('',*,*,#363,.T.);
#211=ORIENTED_EDGE('',*,*,#356,.T.);
#212=ORIENTED_EDGE('',*,*,#345,.F.);
#213=ORIENTED_EDGE('',*,*,#364,.F.);
#214=ORIENTED_EDGE('',*,*,#349,.F.);
#215=ORIENTED_EDGE('',*,*,#365,.T.);
#216=ORIENTED_EDGE('',*,*,#346,.F.);
#217=ORIENTED_EDGE('',*,*,#365,.F.);
#218=ORIENTED_EDGE('',*,*,#348,.F.);
#219=ORIENTED_EDGE('',*,*,#366,.T.);
#220=ORIENTED_EDGE('',*,*,#347,.F.);
#221=ORIENTED_EDGE('',*,*,#366,.F.);
#222=ORIENTED_EDGE('',*,*,#351,.F.);
#223=ORIENTED_EDGE('',*,*,#367,.T.);
#224=ORIENTED_EDGE('',*,*,#344,.F.);
#225=ORIENTED_EDGE('',*,*,#367,.F.);
#226=ORIENTED_EDGE('',*,*,#350,.F.);
#227=ORIENTED_EDGE('',*,*,#364,.T.);
#228=ORIENTED_EDGE('',*,*,#313,.F.);
#229=ORIENTED_EDGE('',*,*,#340,.F.);
#230=ORIENTED_EDGE('',*,*,#315,.F.);
#231=ORIENTED_EDGE('',*,*,#299,.F.);
#232=ORIENTED_EDGE('',*,*,#281,.F.);
#233=ORIENTED_EDGE('',*,*,#328,.F.);
#234=ORIENTED_EDGE('',*,*,#288,.F.);
#235=ORIENTED_EDGE('',*,*,#330,.F.);
#236=ORIENTED_EDGE('',*,*,#275,.F.);
#237=ORIENTED_EDGE('',*,*,#324,.F.);
#238=ORIENTED_EDGE('',*,*,#294,.F.);
#239=ORIENTED_EDGE('',*,*,#342,.F.);
#240=ORIENTED_EDGE('',*,*,#307,.F.);
#241=ORIENTED_EDGE('',*,*,#334,.F.);
#242=ORIENTED_EDGE('',*,*,#321,.F.);
#243=ORIENTED_EDGE('',*,*,#335,.F.);
#244=ORIENTED_EDGE('',*,*,#311,.F.);
#245=ORIENTED_EDGE('',*,*,#338,.F.);
#246=ORIENTED_EDGE('',*,*,#317,.F.);
#247=ORIENTED_EDGE('',*,*,#339,.F.);
#248=ORIENTED_EDGE('',*,*,#305,.F.);
#249=ORIENTED_EDGE('',*,*,#271,.F.);
#250=ORIENTED_EDGE('',*,*,#323,.F.);
#251=ORIENTED_EDGE('',*,*,#333,.F.);
#252=ORIENTED_EDGE('',*,*,#283,.F.);
#253=ORIENTED_EDGE('',*,*,#329,.F.);
#254=ORIENTED_EDGE('',*,*,#286,.F.);
#255=ORIENTED_EDGE('',*,*,#297,.F.);
#256=ORIENTED_EDGE('',*,*,#277,.F.);
#257=ORIENTED_EDGE('',*,*,#341,.F.);
#258=ORIENTED_EDGE('',*,*,#292,.F.);
#259=ORIENTED_EDGE('',*,*,#343,.F.);
#260=EDGE_CURVE('',#368,#369,#440,.T.);
#261=EDGE_CURVE('',#369,#370,#441,.T.);
#262=EDGE_CURVE('',#370,#371,#442,.T.);
#263=EDGE_CURVE('',#368,#371,#443,.T.);
#264=EDGE_CURVE('',#372,#373,#444,.T.);
#265=EDGE_CURVE('',#374,#372,#445,.T.);
#266=EDGE_CURVE('',#374,#375,#446,.T.);
#267=EDGE_CURVE('',#373,#375,#447,.T.);
#268=EDGE_CURVE('',#376,#377,#448,.T.);
#269=EDGE_CURVE('',#376,#378,#449,.T.);
#270=EDGE_CURVE('',#378,#379,#450,.T.);
#271=EDGE_CURVE('',#379,#377,#451,.F.);
#272=EDGE_CURVE('',#380,#381,#452,.T.);
#273=EDGE_CURVE('',#382,#381,#453,.T.);
#274=EDGE_CURVE('',#382,#383,#454,.T.);
#275=EDGE_CURVE('',#383,#384,#28,.T.);
#276=EDGE_CURVE('',#384,#385,#455,.T.);
#277=EDGE_CURVE('',#385,#386,#29,.F.);
#278=EDGE_CURVE('',#386,#387,#456,.T.);
#279=EDGE_CURVE('',#387,#388,#457,.T.);
#280=EDGE_CURVE('',#388,#389,#458,.T.);
#281=EDGE_CURVE('',#389,#390,#30,.T.);
#282=EDGE_CURVE('',#390,#391,#459,.T.);
#283=EDGE_CURVE('',#391,#380,#31,.F.);
#284=EDGE_CURVE('',#392,#393,#460,.T.);
#285=EDGE_CURVE('',#394,#393,#461,.T.);
#286=EDGE_CURVE('',#394,#395,#32,.T.);
#287=EDGE_CURVE('',#396,#395,#462,.T.);
#288=EDGE_CURVE('',#396,#397,#33,.F.);
#289=EDGE_CURVE('',#398,#397,#463,.T.);
#290=EDGE_CURVE('',#399,#398,#464,.T.);
#291=EDGE_CURVE('',#400,#399,#465,.T.);
#292=EDGE_CURVE('',#400,#401,#34,.T.);
#293=EDGE_CURVE('',#402,#401,#466,.T.);
#294=EDGE_CURVE('',#402,#403,#35,.F.);
#295=EDGE_CURVE('',#392,#403,#467,.T.);
#296=EDGE_CURVE('',#393,#381,#468,.T.);
#297=EDGE_CURVE('',#380,#394,#469,.T.);
#298=EDGE_CURVE('',#404,#405,#470,.T.);
#299=EDGE_CURVE('',#404,#406,#471,.T.);
#300=EDGE_CURVE('',#406,#407,#472,.T.);
#301=EDGE_CURVE('',#405,#407,#473,.T.);
#302=EDGE_CURVE('',#373,#370,#474,.T.);
#303=EDGE_CURVE('',#375,#371,#475,.T.);
#304=EDGE_CURVE('',#405,#376,#476,.T.);
#305=EDGE_CURVE('',#377,#408,#36,.F.);
#306=EDGE_CURVE('',#408,#409,#477,.T.);
#307=EDGE_CURVE('',#409,#410,#37,.T.);
#308=EDGE_CURVE('',#410,#411,#478,.T.);
#309=EDGE_CURVE('',#411,#412,#479,.T.);
#310=EDGE_CURVE('',#412,#413,#480,.T.);
#311=EDGE_CURVE('',#413,#414,#38,.F.);
#312=EDGE_CURVE('',#414,#415,#481,.T.);
#313=EDGE_CURVE('',#415,#404,#39,.T.);
#314=EDGE_CURVE('',#407,#378,#482,.T.);
#315=EDGE_CURVE('',#406,#416,#40,.F.);
#316=EDGE_CURVE('',#417,#416,#483,.T.);
#317=EDGE_CURVE('',#417,#418,#41,.T.);
#318=EDGE_CURVE('',#419,#418,#484,.T.);
#319=EDGE_CURVE('',#420,#419,#485,.T.);
#320=EDGE_CURVE('',#421,#420,#486,.T.);
#321=EDGE_CURVE('',#421,#422,#42,.F.);
#322=EDGE_CURVE('',#423,#422,#487,.T.);
#323=EDGE_CURVE('',#423,#379,#43,.T.);
#324=EDGE_CURVE('',#403,#383,#488,.F.);
#325=EDGE_CURVE('',#382,#392,#489,.T.);
#326=EDGE_CURVE('',#388,#398,#490,.T.);
#327=EDGE_CURVE('',#387,#399,#491,.T.);
#328=EDGE_CURVE('',#397,#389,#492,.F.);
#329=EDGE_CURVE('',#395,#391,#493,.F.);
#330=EDGE_CURVE('',#390,#396,#494,.T.);
#331=EDGE_CURVE('',#372,#369,#495,.T.);
#332=EDGE_CURVE('',#368,#374,#496,.T.);
#333=EDGE_CURVE('',#408,#423,#497,.T.);
#334=EDGE_CURVE('',#422,#409,#498,.F.);
#335=EDGE_CURVE('',#410,#421,#499,.T.);
#336=EDGE_CURVE('',#411,#420,#500,.T.);
#337=EDGE_CURVE('',#412,#419,#501,.T.);
#338=EDGE_CURVE('',#418,#413,#502,.F.);
#339=EDGE_CURVE('',#414,#417,#503,.T.);
#340=EDGE_CURVE('',#416,#415,#504,.F.);
#341=EDGE_CURVE('',#401,#385,#505,.F.);
#342=EDGE_CURVE('',#384,#402,#506,.T.);
#343=EDGE_CURVE('',#386,#400,#507,.T.);
#344=EDGE_CURVE('',#424,#425,#508,.T.);
#345=EDGE_CURVE('',#425,#426,#509,.T.);
#346=EDGE_CURVE('',#426,#427,#510,.T.);
#347=EDGE_CURVE('',#427,#424,#511,.T.);
#348=EDGE_CURVE('',#428,#429,#512,.T.);
#349=EDGE_CURVE('',#429,#430,#513,.T.);
#350=EDGE_CURVE('',#430,#431,#514,.T.);
#351=EDGE_CURVE('',#431,#428,#515,.T.);
#352=EDGE_CURVE('',#432,#433,#516,.T.);
#353=EDGE_CURVE('',#434,#432,#517,.T.);
#354=EDGE_CURVE('',#435,#434,#518,.T.);
#355=EDGE_CURVE('',#433,#435,#519,.T.);
#356=EDGE_CURVE('',#436,#437,#520,.T.);
#357=EDGE_CURVE('',#438,#436,#521,.T.);
#358=EDGE_CURVE('',#439,#438,#522,.T.);
#359=EDGE_CURVE('',#437,#439,#523,.T.);
#360=EDGE_CURVE('',#434,#439,#524,.T.);
#361=EDGE_CURVE('',#432,#437,#525,.T.);
#362=EDGE_CURVE('',#435,#438,#526,.T.);
#363=EDGE_CURVE('',#433,#436,#527,.T.);
#364=EDGE_CURVE('',#430,#425,#528,.T.);
#365=EDGE_CURVE('',#429,#426,#529,.T.);
#366=EDGE_CURVE('',#428,#427,#530,.T.);
#367=EDGE_CURVE('',#431,#424,#531,.T.);
#368=VERTEX_POINT('',#1364);
#369=VERTEX_POINT('',#1365);
#370=VERTEX_POINT('',#1367);
#371=VERTEX_POINT('',#1369);
#372=VERTEX_POINT('',#1373);
#373=VERTEX_POINT('',#1374);
#374=VERTEX_POINT('',#1376);
#375=VERTEX_POINT('',#1378);
#376=VERTEX_POINT('',#1382);
#377=VERTEX_POINT('',#1383);
#378=VERTEX_POINT('',#1385);
#379=VERTEX_POINT('',#1387);
#380=VERTEX_POINT('',#1391);
#381=VERTEX_POINT('',#1392);
#382=VERTEX_POINT('',#1394);
#383=VERTEX_POINT('',#1396);
#384=VERTEX_POINT('',#1398);
#385=VERTEX_POINT('',#1400);
#386=VERTEX_POINT('',#1402);
#387=VERTEX_POINT('',#1404);
#388=VERTEX_POINT('',#1406);
#389=VERTEX_POINT('',#1408);
#390=VERTEX_POINT('',#1410);
#391=VERTEX_POINT('',#1412);
#392=VERTEX_POINT('',#1416);
#393=VERTEX_POINT('',#1417);
#394=VERTEX_POINT('',#1419);
#395=VERTEX_POINT('',#1421);
#396=VERTEX_POINT('',#1423);
#397=VERTEX_POINT('',#1425);
#398=VERTEX_POINT('',#1427);
#399=VERTEX_POINT('',#1429);
#400=VERTEX_POINT('',#1431);
#401=VERTEX_POINT('',#1433);
#402=VERTEX_POINT('',#1435);
#403=VERTEX_POINT('',#1437);
#404=VERTEX_POINT('',#1444);
#405=VERTEX_POINT('',#1445);
#406=VERTEX_POINT('',#1447);
#407=VERTEX_POINT('',#1449);
#408=VERTEX_POINT('',#1457);
#409=VERTEX_POINT('',#1459);
#410=VERTEX_POINT('',#1461);
#411=VERTEX_POINT('',#1463);
#412=VERTEX_POINT('',#1465);
#413=VERTEX_POINT('',#1467);
#414=VERTEX_POINT('',#1469);
#415=VERTEX_POINT('',#1471);
#416=VERTEX_POINT('',#1476);
#417=VERTEX_POINT('',#1478);
#418=VERTEX_POINT('',#1480);
#419=VERTEX_POINT('',#1482);
#420=VERTEX_POINT('',#1484);
#421=VERTEX_POINT('',#1486);
#422=VERTEX_POINT('',#1488);
#423=VERTEX_POINT('',#1490);
#424=VERTEX_POINT('',#1526);
#425=VERTEX_POINT('',#1527);
#426=VERTEX_POINT('',#1529);
#427=VERTEX_POINT('',#1531);
#428=VERTEX_POINT('',#1535);
#429=VERTEX_POINT('',#1536);
#430=VERTEX_POINT('',#1538);
#431=VERTEX_POINT('',#1540);
#432=VERTEX_POINT('',#1544);
#433=VERTEX_POINT('',#1545);
#434=VERTEX_POINT('',#1547);
#435=VERTEX_POINT('',#1549);
#436=VERTEX_POINT('',#1553);
#437=VERTEX_POINT('',#1554);
#438=VERTEX_POINT('',#1556);
#439=VERTEX_POINT('',#1558);
#440=LINE('',#1363,#532);
#441=LINE('',#1366,#533);
#442=LINE('',#1368,#534);
#443=LINE('',#1370,#535);
#444=LINE('',#1372,#536);
#445=LINE('',#1375,#537);
#446=LINE('',#1377,#538);
#447=LINE('',#1379,#539);
#448=LINE('',#1381,#540);
#449=LINE('',#1384,#541);
#450=LINE('',#1386,#542);
#451=LINE('',#1388,#543);
#452=LINE('',#1390,#544);
#453=LINE('',#1393,#545);
#454=LINE('',#1395,#546);
#455=LINE('',#1399,#547);
#456=LINE('',#1403,#548);
#457=LINE('',#1405,#549);
#458=LINE('',#1407,#550);
#459=LINE('',#1411,#551);
#460=LINE('',#1415,#552);
#461=LINE('',#1418,#553);
#462=LINE('',#1422,#554);
#463=LINE('',#1426,#555);
#464=LINE('',#1428,#556);
#465=LINE('',#1430,#557);
#466=LINE('',#1434,#558);
#467=LINE('',#1438,#559);
#468=LINE('',#1440,#560);
#469=LINE('',#1441,#561);
#470=LINE('',#1443,#562);
#471=LINE('',#1446,#563);
#472=LINE('',#1448,#564);
#473=LINE('',#1450,#565);
#474=LINE('',#1452,#566);
#475=LINE('',#1453,#567);
#476=LINE('',#1455,#568);
#477=LINE('',#1458,#569);
#478=LINE('',#1462,#570);
#479=LINE('',#1464,#571);
#480=LINE('',#1466,#572);
#481=LINE('',#1470,#573);
#482=LINE('',#1474,#574);
#483=LINE('',#1477,#575);
#484=LINE('',#1481,#576);
#485=LINE('',#1483,#577);
#486=LINE('',#1485,#578);
#487=LINE('',#1489,#579);
#488=LINE('',#1493,#580);
#489=LINE('',#1494,#581);
#490=LINE('',#1496,#582);
#491=LINE('',#1497,#583);
#492=LINE('',#1499,#584);
#493=LINE('',#1501,#585);
#494=LINE('',#1502,#586);
#495=LINE('',#1504,#587);
#496=LINE('',#1505,#588);
#497=LINE('',#1507,#589);
#498=LINE('',#1508,#590);
#499=LINE('',#1510,#591);
#500=LINE('',#1511,#592);
#501=LINE('',#1513,#593);
#502=LINE('',#1515,#594);
#503=LINE('',#1517,#595);
#504=LINE('',#1518,#596);
#505=LINE('',#1520,#597);
#506=LINE('',#1521,#598);
#507=LINE('',#1523,#599);
#508=LINE('',#1525,#600);
#509=LINE('',#1528,#601);
#510=LINE('',#1530,#602);
#511=LINE('',#1532,#603);
#512=LINE('',#1534,#604);
#513=LINE('',#1537,#605);
#514=LINE('',#1539,#606);
#515=LINE('',#1541,#607);
#516=LINE('',#1543,#608);
#517=LINE('',#1546,#609);
#518=LINE('',#1548,#610);
#519=LINE('',#1550,#611);
#520=LINE('',#1552,#612);
#521=LINE('',#1555,#613);
#522=LINE('',#1557,#614);
#523=LINE('',#1559,#615);
#524=LINE('',#1561,#616);
#525=LINE('',#1562,#617);
#526=LINE('',#1564,#618);
#527=LINE('',#1566,#619);
#528=LINE('',#1569,#620);
#529=LINE('',#1570,#621);
#530=LINE('',#1572,#622);
#531=LINE('',#1574,#623);
#532=VECTOR('',#1155,1000.);
#533=VECTOR('',#1156,1000.);
#534=VECTOR('',#1157,1000.);
#535=VECTOR('',#1158,1000.);
#536=VECTOR('',#1161,1000.);
#537=VECTOR('',#1162,1000.);
#538=VECTOR('',#1163,1000.);
#539=VECTOR('',#1164,1000.);
#540=VECTOR('',#1167,1000.);
#541=VECTOR('',#1168,1000.);
#542=VECTOR('',#1169,1000.);
#543=VECTOR('',#1170,1000.);
#544=VECTOR('',#1173,1000.);
#545=VECTOR('',#1174,1000.);
#546=VECTOR('',#1175,1000.);
#547=VECTOR('',#1178,1000.);
#548=VECTOR('',#1181,1000.);
#549=VECTOR('',#1182,1000.);
#550=VECTOR('',#1183,1000.);
#551=VECTOR('',#1186,1000.);
#552=VECTOR('',#1191,1000.);
#553=VECTOR('',#1192,1000.);
#554=VECTOR('',#1195,1000.);
#555=VECTOR('',#1198,1000.);
#556=VECTOR('',#1199,1000.);
#557=VECTOR('',#1200,1000.);
#558=VECTOR('',#1203,1000.);
#559=VECTOR('',#1206,1000.);
#560=VECTOR('',#1209,1000.);
#561=VECTOR('',#1210,1000.);
#562=VECTOR('',#1213,1000.);
#563=VECTOR('',#1214,1000.);
#564=VECTOR('',#1215,1000.);
#565=VECTOR('',#1216,1000.);
#566=VECTOR('',#1219,1000.);
#567=VECTOR('',#1220,1000.);
#568=VECTOR('',#1223,1000.);
#569=VECTOR('',#1226,1000.);
#570=VECTOR('',#1229,1000.);
#571=VECTOR('',#1230,1000.);
#572=VECTOR('',#1231,1000.);
#573=VECTOR('',#1234,1000.);
#574=VECTOR('',#1239,1000.);
#575=VECTOR('',#1242,1000.);
#576=VECTOR('',#1245,1000.);
#577=VECTOR('',#1246,1000.);
#578=VECTOR('',#1247,1000.);
#579=VECTOR('',#1250,1000.);
#580=VECTOR('',#1255,1000.);
#581=VECTOR('',#1256,1000.);
#582=VECTOR('',#1259,1000.);
#583=VECTOR('',#1260,1000.);
#584=VECTOR('',#1263,1000.);
#585=VECTOR('',#1266,1000.);
#586=VECTOR('',#1267,1000.);
#587=VECTOR('',#1270,1000.);
#588=VECTOR('',#1271,1000.);
#589=VECTOR('',#1274,1000.);
#590=VECTOR('',#1275,1000.);
#591=VECTOR('',#1278,1000.);
#592=VECTOR('',#1279,1000.);
#593=VECTOR('',#1282,1000.);
#594=VECTOR('',#1285,1000.);
#595=VECTOR('',#1288,1000.);
#596=VECTOR('',#1289,1000.);
#597=VECTOR('',#1292,1000.);
#598=VECTOR('',#1293,1000.);
#599=VECTOR('',#1296,1000.);
#600=VECTOR('',#1299,1000.);
#601=VECTOR('',#1300,1000.);
#602=VECTOR('',#1301,1000.);
#603=VECTOR('',#1302,1000.);
#604=VECTOR('',#1305,1000.);
#605=VECTOR('',#1306,1000.);
#606=VECTOR('',#1307,1000.);
#607=VECTOR('',#1308,1000.);
#608=VECTOR('',#1311,1000.);
#609=VECTOR('',#1312,1000.);
#610=VECTOR('',#1313,1000.);
#611=VECTOR('',#1314,1000.);
#612=VECTOR('',#1317,1000.);
#613=VECTOR('',#1318,1000.);
#614=VECTOR('',#1319,1000.);
#615=VECTOR('',#1320,1000.);
#616=VECTOR('',#1323,1000.);
#617=VECTOR('',#1324,1000.);
#618=VECTOR('',#1327,1000.);
#619=VECTOR('',#1330,1000.);
#620=VECTOR('',#1335,1000.);
#621=VECTOR('',#1336,1000.);
#622=VECTOR('',#1339,1000.);
#623=VECTOR('',#1342,1000.);
#624=EDGE_LOOP('',(#44,#45,#46,#47));
#625=EDGE_LOOP('',(#48,#49,#50,#51));
#626=EDGE_LOOP('',(#52,#53,#54,#55));
#627=EDGE_LOOP('',(#56,#57,#58,#59,#60,#61,#62,#63,#64,#65,#66,#67));
#628=EDGE_LOOP('',(#68,#69,#70,#71,#72,#73,#74,#75,#76,#77,#78,#79));
#629=EDGE_LOOP('',(#80,#81,#82,#83));
#630=EDGE_LOOP('',(#84,#85,#86,#87));
#631=EDGE_LOOP('',(#88,#89,#90,#91));
#632=EDGE_LOOP('',(#92,#93,#94,#95,#96,#97,#98,#99,#100,#101,#102,#103));
#633=EDGE_LOOP('',(#104,#105,#106,#107,#108,#109,#110,#111,#112,#113,#114,
#115));
#634=EDGE_LOOP('',(#116,#117,#118,#119));
#635=EDGE_LOOP('',(#120,#121,#122,#123));
#636=EDGE_LOOP('',(#124,#125,#126,#127));
#637=EDGE_LOOP('',(#128,#129,#130,#131));
#638=EDGE_LOOP('',(#132,#133,#134,#135));
#639=EDGE_LOOP('',(#136,#137,#138,#139));
#640=EDGE_LOOP('',(#140,#141,#142,#143));
#641=EDGE_LOOP('',(#144,#145,#146,#147));
#642=EDGE_LOOP('',(#148,#149,#150,#151));
#643=EDGE_LOOP('',(#152,#153,#154,#155));
#644=EDGE_LOOP('',(#156,#157,#158,#159));
#645=EDGE_LOOP('',(#160,#161,#162,#163));
#646=EDGE_LOOP('',(#164,#165,#166,#167));
#647=EDGE_LOOP('',(#168,#169,#170,#171));
#648=EDGE_LOOP('',(#172,#173,#174,#175));
#649=EDGE_LOOP('',(#176,#177,#178,#179));
#650=EDGE_LOOP('',(#180,#181,#182,#183));
#651=EDGE_LOOP('',(#184,#185,#186,#187));
#652=EDGE_LOOP('',(#188,#189,#190,#191));
#653=EDGE_LOOP('',(#192,#193,#194,#195));
#654=EDGE_LOOP('',(#196,#197,#198,#199));
#655=EDGE_LOOP('',(#200,#201,#202,#203));
#656=EDGE_LOOP('',(#204,#205,#206,#207));
#657=EDGE_LOOP('',(#208,#209,#210,#211));
#658=EDGE_LOOP('',(#212,#213,#214,#215));
#659=EDGE_LOOP('',(#216,#217,#218,#219));
#660=EDGE_LOOP('',(#220,#221,#222,#223));
#661=EDGE_LOOP('',(#224,#225,#226,#227));
#662=EDGE_LOOP('',(#228,#229,#230,#231));
#663=EDGE_LOOP('',(#232,#233,#234,#235));
#664=EDGE_LOOP('',(#236,#237,#238,#239));
#665=EDGE_LOOP('',(#240,#241,#242,#243));
#666=EDGE_LOOP('',(#244,#245,#246,#247));
#667=EDGE_LOOP('',(#248,#249,#250,#251));
#668=EDGE_LOOP('',(#252,#253,#254,#255));
#669=EDGE_LOOP('',(#256,#257,#258,#259));
#670=FACE_BOUND('',#624,.T.);
#671=FACE_BOUND('',#625,.T.);
#672=FACE_BOUND('',#626,.T.);
#673=FACE_BOUND('',#627,.T.);
#674=FACE_BOUND('',#628,.T.);
#675=FACE_BOUND('',#629,.T.);
#676=FACE_BOUND('',#630,.T.);
#677=FACE_BOUND('',#631,.T.);
#678=FACE_BOUND('',#632,.T.);
#679=FACE_BOUND('',#633,.T.);
#680=FACE_BOUND('',#634,.T.);
#681=FACE_BOUND('',#635,.T.);
#682=FACE_BOUND('',#636,.T.);
#683=FACE_BOUND('',#637,.T.);
#684=FACE_BOUND('',#638,.T.);
#685=FACE_BOUND('',#639,.T.);
#686=FACE_BOUND('',#640,.T.);
#687=FACE_BOUND('',#641,.T.);
#688=FACE_BOUND('',#642,.T.);
#689=FACE_BOUND('',#643,.T.);
#690=FACE_BOUND('',#644,.T.);
#691=FACE_BOUND('',#645,.T.);
#692=FACE_BOUND('',#646,.T.);
#693=FACE_BOUND('',#647,.T.);
#694=FACE_BOUND('',#648,.T.);
#695=FACE_BOUND('',#649,.T.);
#696=FACE_BOUND('',#650,.T.);
#697=FACE_BOUND('',#651,.T.);
#698=FACE_BOUND('',#652,.T.);
#699=FACE_BOUND('',#653,.T.);
#700=FACE_BOUND('',#654,.T.);
#701=FACE_BOUND('',#655,.T.);
#702=FACE_BOUND('',#656,.T.);
#703=FACE_BOUND('',#657,.T.);
#704=FACE_BOUND('',#658,.T.);
#705=FACE_BOUND('',#659,.T.);
#706=FACE_BOUND('',#660,.T.);
#707=FACE_BOUND('',#661,.T.);
#708=FACE_BOUND('',#662,.T.);
#709=FACE_BOUND('',#663,.T.);
#710=FACE_BOUND('',#664,.T.);
#711=FACE_BOUND('',#665,.T.);
#712=FACE_BOUND('',#666,.T.);
#713=FACE_BOUND('',#667,.T.);
#714=FACE_BOUND('',#668,.T.);
#715=FACE_BOUND('',#669,.T.);
#716=PLANE('',#1093);
#717=PLANE('',#1094);
#718=PLANE('',#1095);
#719=PLANE('',#1096);
#720=PLANE('',#1101);
#721=PLANE('',#1106);
#722=PLANE('',#1107);
#723=PLANE('',#1108);
#724=PLANE('',#1109);
#725=PLANE('',#1114);
#726=PLANE('',#1119);
#727=PLANE('',#1120);
#728=PLANE('',#1121);
#729=PLANE('',#1122);
#730=PLANE('',#1123);
#731=PLANE('',#1124);
#732=PLANE('',#1125);
#733=PLANE('',#1126);
#734=PLANE('',#1127);
#735=PLANE('',#1128);
#736=PLANE('',#1129);
#737=PLANE('',#1130);
#738=PLANE('',#1131);
#739=PLANE('',#1132);
#740=PLANE('',#1133);
#741=PLANE('',#1134);
#742=PLANE('',#1135);
#743=PLANE('',#1136);
#744=PLANE('',#1137);
#745=PLANE('',#1138);
#746=PLANE('',#1139);
#747=PLANE('',#1140);
#748=PLANE('',#1141);
#749=PLANE('',#1142);
#750=STYLED_ITEM('',(#792),#1046);
#751=STYLED_ITEM('',(#793),#1047);
#752=STYLED_ITEM('',(#794),#1048);
#753=STYLED_ITEM('',(#795),#1049);
#754=STYLED_ITEM('',(#796),#1050);
#755=STYLED_ITEM('',(#797),#1051);
#756=STYLED_ITEM('',(#798),#1052);
#757=STYLED_ITEM('',(#799),#1053);
#758=STYLED_ITEM('',(#800),#1054);
#759=STYLED_ITEM('',(#801),#1055);
#760=STYLED_ITEM('',(#802),#1056);
#761=STYLED_ITEM('',(#803),#1057);
#762=STYLED_ITEM('',(#804),#1058);
#763=STYLED_ITEM('',(#805),#1059);
#764=STYLED_ITEM('',(#806),#1060);
#765=STYLED_ITEM('',(#807),#1061);
#766=STYLED_ITEM('',(#808),#1062);
#767=STYLED_ITEM('',(#809),#1063);
#768=STYLED_ITEM('',(#810),#1064);
#769=STYLED_ITEM('',(#811),#1065);
#770=STYLED_ITEM('',(#812),#1066);
#771=STYLED_ITEM('',(#813),#1067);
#772=STYLED_ITEM('',(#814),#1068);
#773=STYLED_ITEM('',(#815),#1069);
#774=STYLED_ITEM('',(#816),#1070);
#775=STYLED_ITEM('',(#817),#1071);
#776=STYLED_ITEM('',(#818),#1072);
#777=STYLED_ITEM('',(#819),#1073);
#778=STYLED_ITEM('',(#820),#1074);
#779=STYLED_ITEM('',(#821),#1075);
#780=STYLED_ITEM('',(#822),#1076);
#781=STYLED_ITEM('',(#823),#1077);
#782=STYLED_ITEM('',(#824),#1078);
#783=STYLED_ITEM('',(#825),#1079);
#784=STYLED_ITEM('',(#826),#1080);
#785=STYLED_ITEM('',(#827),#1081);
#786=STYLED_ITEM('',(#828),#1082);
#787=STYLED_ITEM('',(#829),#1083);
#788=STYLED_ITEM('',(#830),#1084);
#789=STYLED_ITEM('',(#831),#1085);
#790=STYLED_ITEM('',(#832),#1086);
#791=STYLED_ITEM('',(#833),#1087);
#792=PRESENTATION_STYLE_ASSIGNMENT((#834));
#793=PRESENTATION_STYLE_ASSIGNMENT((#835));
#794=PRESENTATION_STYLE_ASSIGNMENT((#836));
#795=PRESENTATION_STYLE_ASSIGNMENT((#837));
#796=PRESENTATION_STYLE_ASSIGNMENT((#838));
#797=PRESENTATION_STYLE_ASSIGNMENT((#839));
#798=PRESENTATION_STYLE_ASSIGNMENT((#840));
#799=PRESENTATION_STYLE_ASSIGNMENT((#841));
#800=PRESENTATION_STYLE_ASSIGNMENT((#842));
#801=PRESENTATION_STYLE_ASSIGNMENT((#843));
#802=PRESENTATION_STYLE_ASSIGNMENT((#844));
#803=PRESENTATION_STYLE_ASSIGNMENT((#845));
#804=PRESENTATION_STYLE_ASSIGNMENT((#846));
#805=PRESENTATION_STYLE_ASSIGNMENT((#847));
#806=PRESENTATION_STYLE_ASSIGNMENT((#848));
#807=PRESENTATION_STYLE_ASSIGNMENT((#849));
#808=PRESENTATION_STYLE_ASSIGNMENT((#850));
#809=PRESENTATION_STYLE_ASSIGNMENT((#851));
#810=PRESENTATION_STYLE_ASSIGNMENT((#852));
#811=PRESENTATION_STYLE_ASSIGNMENT((#853));
#812=PRESENTATION_STYLE_ASSIGNMENT((#854));
#813=PRESENTATION_STYLE_ASSIGNMENT((#855));
#814=PRESENTATION_STYLE_ASSIGNMENT((#856));
#815=PRESENTATION_STYLE_ASSIGNMENT((#857));
#816=PRESENTATION_STYLE_ASSIGNMENT((#858));
#817=PRESENTATION_STYLE_ASSIGNMENT((#859));
#818=PRESENTATION_STYLE_ASSIGNMENT((#860));
#819=PRESENTATION_STYLE_ASSIGNMENT((#861));
#820=PRESENTATION_STYLE_ASSIGNMENT((#862));
#821=PRESENTATION_STYLE_ASSIGNMENT((#863));
#822=PRESENTATION_STYLE_ASSIGNMENT((#864));
#823=PRESENTATION_STYLE_ASSIGNMENT((#865));
#824=PRESENTATION_STYLE_ASSIGNMENT((#866));
#825=PRESENTATION_STYLE_ASSIGNMENT((#867));
#826=PRESENTATION_STYLE_ASSIGNMENT((#868));
#827=PRESENTATION_STYLE_ASSIGNMENT((#869));
#828=PRESENTATION_STYLE_ASSIGNMENT((#870));
#829=PRESENTATION_STYLE_ASSIGNMENT((#871));
#830=PRESENTATION_STYLE_ASSIGNMENT((#872));
#831=PRESENTATION_STYLE_ASSIGNMENT((#873));
#832=PRESENTATION_STYLE_ASSIGNMENT((#874));
#833=PRESENTATION_STYLE_ASSIGNMENT((#875));
#834=SURFACE_STYLE_USAGE(.BOTH.,#876);
#835=SURFACE_STYLE_USAGE(.BOTH.,#877);
#836=SURFACE_STYLE_USAGE(.BOTH.,#878);
#837=SURFACE_STYLE_USAGE(.BOTH.,#879);
#838=SURFACE_STYLE_USAGE(.BOTH.,#880);
#839=SURFACE_STYLE_USAGE(.BOTH.,#881);
#840=SURFACE_STYLE_USAGE(.BOTH.,#882);
#841=SURFACE_STYLE_USAGE(.BOTH.,#883);
#842=SURFACE_STYLE_USAGE(.BOTH.,#884);
#843=SURFACE_STYLE_USAGE(.BOTH.,#885);
#844=SURFACE_STYLE_USAGE(.BOTH.,#886);
#845=SURFACE_STYLE_USAGE(.BOTH.,#887);
#846=SURFACE_STYLE_USAGE(.BOTH.,#888);
#847=SURFACE_STYLE_USAGE(.BOTH.,#889);
#848=SURFACE_STYLE_USAGE(.BOTH.,#890);
#849=SURFACE_STYLE_USAGE(.BOTH.,#891);
#850=SURFACE_STYLE_USAGE(.BOTH.,#892);
#851=SURFACE_STYLE_USAGE(.BOTH.,#893);
#852=SURFACE_STYLE_USAGE(.BOTH.,#894);
#853=SURFACE_STYLE_USAGE(.BOTH.,#895);
#854=SURFACE_STYLE_USAGE(.BOTH.,#896);
#855=SURFACE_STYLE_USAGE(.BOTH.,#897);
#856=SURFACE_STYLE_USAGE(.BOTH.,#898);
#857=SURFACE_STYLE_USAGE(.BOTH.,#899);
#858=SURFACE_STYLE_USAGE(.BOTH.,#900);
#859=SURFACE_STYLE_USAGE(.BOTH.,#901);
#860=SURFACE_STYLE_USAGE(.BOTH.,#902);
#861=SURFACE_STYLE_USAGE(.BOTH.,#903);
#862=SURFACE_STYLE_USAGE(.BOTH.,#904);
#863=SURFACE_STYLE_USAGE(.BOTH.,#905);
#864=SURFACE_STYLE_USAGE(.BOTH.,#906);
#865=SURFACE_STYLE_USAGE(.BOTH.,#907);
#866=SURFACE_STYLE_USAGE(.BOTH.,#908);
#867=SURFACE_STYLE_USAGE(.BOTH.,#909);
#868=SURFACE_STYLE_USAGE(.BOTH.,#910);
#869=SURFACE_STYLE_USAGE(.BOTH.,#911);
#870=SURFACE_STYLE_USAGE(.BOTH.,#912);
#871=SURFACE_STYLE_USAGE(.BOTH.,#913);
#872=SURFACE_STYLE_USAGE(.BOTH.,#914);
#873=SURFACE_STYLE_USAGE(.BOTH.,#915);
#874=SURFACE_STYLE_USAGE(.BOTH.,#916);
#875=SURFACE_STYLE_USAGE(.BOTH.,#917);
#876=SURFACE_SIDE_STYLE('',(#918));
#877=SURFACE_SIDE_STYLE('',(#919));
#878=SURFACE_SIDE_STYLE('',(#920));
#879=SURFACE_SIDE_STYLE('',(#921));
#880=SURFACE_SIDE_STYLE('',(#922));
#881=SURFACE_SIDE_STYLE('',(#923));
#882=SURFACE_SIDE_STYLE('',(#924));
#883=SURFACE_SIDE_STYLE('',(#925));
#884=SURFACE_SIDE_STYLE('',(#926));
#885=SURFACE_SIDE_STYLE('',(#927));
#886=SURFACE_SIDE_STYLE('',(#928));
#887=SURFACE_SIDE_STYLE('',(#929));
#888=SURFACE_SIDE_STYLE('',(#930));
#889=SURFACE_SIDE_STYLE('',(#931));
#890=SURFACE_SIDE_STYLE('',(#932));
#891=SURFACE_SIDE_STYLE('',(#933));
#892=SURFACE_SIDE_STYLE('',(#934));
#893=SURFACE_SIDE_STYLE('',(#935));
#894=SURFACE_SIDE_STYLE('',(#936));
#895=SURFACE_SIDE_STYLE('',(#937));
#896=SURFACE_SIDE_STYLE('',(#938));
#897=SURFACE_SIDE_STYLE('',(#939));
#898=SURFACE_SIDE_STYLE('',(#940));
#899=SURFACE_SIDE_STYLE('',(#941));
#900=SURFACE_SIDE_STYLE('',(#942));
#901=SURFACE_SIDE_STYLE('',(#943));
#902=SURFACE_SIDE_STYLE('',(#944));
#903=SURFACE_SIDE_STYLE('',(#945));
#904=SURFACE_SIDE_STYLE('',(#946));
#905=SURFACE_SIDE_STYLE('',(#947));
#906=SURFACE_SIDE_STYLE('',(#948));
#907=SURFACE_SIDE_STYLE('',(#949));
#908=SURFACE_SIDE_STYLE('',(#950));
#909=SURFACE_SIDE_STYLE('',(#951));
#910=SURFACE_SIDE_STYLE('',(#952));
#911=SURFACE_SIDE_STYLE('',(#953));
#912=SURFACE_SIDE_STYLE('',(#954));
#913=SURFACE_SIDE_STYLE('',(#955));
#914=SURFACE_SIDE_STYLE('',(#956));
#915=SURFACE_SIDE_STYLE('',(#957));
#916=SURFACE_SIDE_STYLE('',(#958));
#917=SURFACE_SIDE_STYLE('',(#959));
#918=SURFACE_STYLE_FILL_AREA(#960);
#919=SURFACE_STYLE_FILL_AREA(#961);
#920=SURFACE_STYLE_FILL_AREA(#962);
#921=SURFACE_STYLE_FILL_AREA(#963);
#922=SURFACE_STYLE_FILL_AREA(#964);
#923=SURFACE_STYLE_FILL_AREA(#965);
#924=SURFACE_STYLE_FILL_AREA(#966);
#925=SURFACE_STYLE_FILL_AREA(#967);
#926=SURFACE_STYLE_FILL_AREA(#968);
#927=SURFACE_STYLE_FILL_AREA(#969);
#928=SURFACE_STYLE_FILL_AREA(#970);
#929=SURFACE_STYLE_FILL_AREA(#971);
#930=SURFACE_STYLE_FILL_AREA(#972);
#931=SURFACE_STYLE_FILL_AREA(#973);
#932=SURFACE_STYLE_FILL_AREA(#974);
#933=SURFACE_STYLE_FILL_AREA(#975);
#934=SURFACE_STYLE_FILL_AREA(#976);
#935=SURFACE_STYLE_FILL_AREA(#977);
#936=SURFACE_STYLE_FILL_AREA(#978);
#937=SURFACE_STYLE_FILL_AREA(#979);
#938=SURFACE_STYLE_FILL_AREA(#980);
#939=SURFACE_STYLE_FILL_AREA(#981);
#940=SURFACE_STYLE_FILL_AREA(#982);
#941=SURFACE_STYLE_FILL_AREA(#983);
#942=SURFACE_STYLE_FILL_AREA(#984);
#943=SURFACE_STYLE_FILL_AREA(#985);
#944=SURFACE_STYLE_FILL_AREA(#986);
#945=SURFACE_STYLE_FILL_AREA(#987);
#946=SURFACE_STYLE_FILL_AREA(#988);
#947=SURFACE_STYLE_FILL_AREA(#989);
#948=SURFACE_STYLE_FILL_AREA(#990);
#949=SURFACE_STYLE_FILL_AREA(#991);
#950=SURFACE_STYLE_FILL_AREA(#992);
#951=SURFACE_STYLE_FILL_AREA(#993);
#952=SURFACE_STYLE_FILL_AREA(#994);
#953=SURFACE_STYLE_FILL_AREA(#995);
#954=SURFACE_STYLE_FILL_AREA(#996);
#955=SURFACE_STYLE_FILL_AREA(#997);
#956=SURFACE_STYLE_FILL_AREA(#998);
#957=SURFACE_STYLE_FILL_AREA(#999);
#958=SURFACE_STYLE_FILL_AREA(#1000);
#959=SURFACE_STYLE_FILL_AREA(#1001);
#960=FILL_AREA_STYLE('',(#1002));
#961=FILL_AREA_STYLE('',(#1003));
#962=FILL_AREA_STYLE('',(#1004));
#963=FILL_AREA_STYLE('',(#1005));
#964=FILL_AREA_STYLE('',(#1006));
#965=FILL_AREA_STYLE('',(#1007));
#966=FILL_AREA_STYLE('',(#1008));
#967=FILL_AREA_STYLE('',(#1009));
#968=FILL_AREA_STYLE('',(#1010));
#969=FILL_AREA_STYLE('',(#1011));
#970=FILL_AREA_STYLE('',(#1012));
#971=FILL_AREA_STYLE('',(#1013));
#972=FILL_AREA_STYLE('',(#1014));
#973=FILL_AREA_STYLE('',(#1015));
#974=FILL_AREA_STYLE('',(#1016));
#975=FILL_AREA_STYLE('',(#1017));
#976=FILL_AREA_STYLE('',(#1018));
#977=FILL_AREA_STYLE('',(#1019));
#978=FILL_AREA_STYLE('',(#1020));
#979=FILL_AREA_STYLE('',(#1021));
#980=FILL_AREA_STYLE('',(#1022));
#981=FILL_AREA_STYLE('',(#1023));
#982=FILL_AREA_STYLE('',(#1024));
#983=FILL_AREA_STYLE('',(#1025));
#984=FILL_AREA_STYLE('',(#1026));
#985=FILL_AREA_STYLE('',(#1027));
#986=FILL_AREA_STYLE('',(#1028));
#987=FILL_AREA_STYLE('',(#1029));
#988=FILL_AREA_STYLE('',(#1030));
#989=FILL_AREA_STYLE('',(#1031));
#990=FILL_AREA_STYLE('',(#1032));
#991=FILL_AREA_STYLE('',(#1033));
#992=FILL_AREA_STYLE('',(#1034));
#993=FILL_AREA_STYLE('',(#1035));
#994=FILL_AREA_STYLE('',(#1036));
#995=FILL_AREA_STYLE('',(#1037));
#996=FILL_AREA_STYLE('',(#1038));
#997=FILL_AREA_STYLE('',(#1039));
#998=FILL_AREA_STYLE('',(#1040));
#999=FILL_AREA_STYLE('',(#1041));
#1000=FILL_AREA_STYLE('',(#1042));
#1001=FILL_AREA_STYLE('',(#1043));
#1002=FILL_AREA_STYLE_COLOUR('',#1044);
#1003=FILL_AREA_STYLE_COLOUR('',#1044);
#1004=FILL_AREA_STYLE_COLOUR('',#1045);
#1005=FILL_AREA_STYLE_COLOUR('',#1045);
#1006=FILL_AREA_STYLE_COLOUR('',#1045);
#1007=FILL_AREA_STYLE_COLOUR('',#1045);
#1008=FILL_AREA_STYLE_COLOUR('',#1045);
#1009=FILL_AREA_STYLE_COLOUR('',#1044);
#1010=FILL_AREA_STYLE_COLOUR('',#1045);
#1011=FILL_AREA_STYLE_COLOUR('',#1045);
#1012=FILL_AREA_STYLE_COLOUR('',#1045);
#1013=FILL_AREA_STYLE_COLOUR('',#1045);
#1014=FILL_AREA_STYLE_COLOUR('',#1045);
#1015=FILL_AREA_STYLE_COLOUR('',#1045);
#1016=FILL_AREA_STYLE_COLOUR('',#1044);
#1017=FILL_AREA_STYLE_COLOUR('',#1045);
#1018=FILL_AREA_STYLE_COLOUR('',#1045);
#1019=FILL_AREA_STYLE_COLOUR('',#1045);
#1020=FILL_AREA_STYLE_COLOUR('',#1045);
#1021=FILL_AREA_STYLE_COLOUR('',#1045);
#1022=FILL_AREA_STYLE_COLOUR('',#1045);
#1023=FILL_AREA_STYLE_COLOUR('',#1045);
#1024=FILL_AREA_STYLE_COLOUR('',#1045);
#1025=FILL_AREA_STYLE_COLOUR('',#1044);
#1026=FILL_AREA_STYLE_COLOUR('',#1045);
#1027=FILL_AREA_STYLE_COLOUR('',#1044);
#1028=FILL_AREA_STYLE_COLOUR('',#1044);
#1029=FILL_AREA_STYLE_COLOUR('',#1044);
#1030=FILL_AREA_STYLE_COLOUR('',#1044);
#1031=FILL_AREA_STYLE_COLOUR('',#1044);
#1032=FILL_AREA_STYLE_COLOUR('',#1044);
#1033=FILL_AREA_STYLE_COLOUR('',#1044);
#1034=FILL_AREA_STYLE_COLOUR('',#1044);
#1035=FILL_AREA_STYLE_COLOUR('',#1044);
#1036=FILL_AREA_STYLE_COLOUR('',#1045);
#1037=FILL_AREA_STYLE_COLOUR('',#1045);
#1038=FILL_AREA_STYLE_COLOUR('',#1045);
#1039=FILL_AREA_STYLE_COLOUR('',#1045);
#1040=FILL_AREA_STYLE_COLOUR('',#1045);
#1041=FILL_AREA_STYLE_COLOUR('',#1045);
#1042=FILL_AREA_STYLE_COLOUR('',#1045);
#1043=FILL_AREA_STYLE_COLOUR('',#1045);
#1044=COLOUR_RGB('',0.331739127635956,0.340869575738907,0.349999994039536);
#1045=COLOUR_RGB('',0.550000011920929,0.311243504285812,0.21841649711132);
#1046=ADVANCED_FACE('',(#670),#716,.T.);
#1047=ADVANCED_FACE('',(#671),#717,.F.);
#1048=ADVANCED_FACE('',(#672),#718,.F.);
#1049=ADVANCED_FACE('',(#673),#719,.T.);
#1050=ADVANCED_FACE('',(#674),#720,.F.);
#1051=ADVANCED_FACE('',(#675),#721,.F.);
#1052=ADVANCED_FACE('',(#676),#722,.F.);
#1053=ADVANCED_FACE('',(#677),#723,.F.);
#1054=ADVANCED_FACE('',(#678),#724,.T.);
#1055=ADVANCED_FACE('',(#679),#725,.F.);
#1056=ADVANCED_FACE('',(#680),#726,.F.);
#1057=ADVANCED_FACE('',(#681),#727,.F.);
#1058=ADVANCED_FACE('',(#682),#728,.F.);
#1059=ADVANCED_FACE('',(#683),#729,.F.);
#1060=ADVANCED_FACE('',(#684),#730,.F.);
#1061=ADVANCED_FACE('',(#685),#731,.F.);
#1062=ADVANCED_FACE('',(#686),#732,.F.);
#1063=ADVANCED_FACE('',(#687),#733,.F.);
#1064=ADVANCED_FACE('',(#688),#734,.F.);
#1065=ADVANCED_FACE('',(#689),#735,.F.);
#1066=ADVANCED_FACE('',(#690),#736,.F.);
#1067=ADVANCED_FACE('',(#691),#737,.F.);
#1068=ADVANCED_FACE('',(#692,#693),#738,.F.);
#1069=ADVANCED_FACE('',(#694,#695),#739,.F.);
#1070=ADVANCED_FACE('',(#696,#697),#740,.T.);
#1071=ADVANCED_FACE('',(#698,#699),#741,.T.);
#1072=ADVANCED_FACE('',(#700),#742,.T.);
#1073=ADVANCED_FACE('',(#701),#743,.T.);
#1074=ADVANCED_FACE('',(#702),#744,.T.);
#1075=ADVANCED_FACE('',(#703),#745,.T.);
#1076=ADVANCED_FACE('',(#704),#746,.T.);
#1077=ADVANCED_FACE('',(#705),#747,.T.);
#1078=ADVANCED_FACE('',(#706),#748,.T.);
#1079=ADVANCED_FACE('',(#707),#749,.T.);
#1080=ADVANCED_FACE('',(#708),#20,.T.);
#1081=ADVANCED_FACE('',(#709),#21,.T.);
#1082=ADVANCED_FACE('',(#710),#22,.T.);
#1083=ADVANCED_FACE('',(#711),#23,.T.);
#1084=ADVANCED_FACE('',(#712),#24,.F.);
#1085=ADVANCED_FACE('',(#713),#25,.F.);
#1086=ADVANCED_FACE('',(#714),#26,.F.);
#1087=ADVANCED_FACE('',(#715),#27,.F.);
#1088=CLOSED_SHELL('',(#1046,#1047,#1048,#1049,#1050,#1051,#1052,#1053,
#1054,#1055,#1056,#1057,#1058,#1059,#1060,#1061,#1062,#1063,#1064,#1065,
#1066,#1067,#1068,#1069,#1070,#1071,#1072,#1073,#1074,#1075,#1076,#1077,
#1078,#1079,#1080,#1081,#1082,#1083,#1084,#1085,#1086,#1087));
#1089=MANIFOLD_SOLID_BREP('',#1088);
#1090=SHAPE_DEFINITION_REPRESENTATION(#1590,#1091);
#1091=SHAPE_REPRESENTATION('Y14860R00010F9R',(#1092),#1585);
#1092=AXIS2_PLACEMENT_3D('',#1361,#1151,#1152);
#1093=AXIS2_PLACEMENT_3D('',#1362,#1153,#1154);
#1094=AXIS2_PLACEMENT_3D('',#1371,#1159,#1160);
#1095=AXIS2_PLACEMENT_3D('',#1380,#1165,#1166);
#1096=AXIS2_PLACEMENT_3D('',#1389,#1171,#1172);
#1097=AXIS2_PLACEMENT_3D('',#1397,#1176,#1177);
#1098=AXIS2_PLACEMENT_3D('',#1401,#1179,#1180);
#1099=AXIS2_PLACEMENT_3D('',#1409,#1184,#1185);
#1100=AXIS2_PLACEMENT_3D('',#1413,#1187,#1188);
#1101=AXIS2_PLACEMENT_3D('',#1414,#1189,#1190);
#1102=AXIS2_PLACEMENT_3D('',#1420,#1193,#1194);
#1103=AXIS2_PLACEMENT_3D('',#1424,#1196,#1197);
#1104=AXIS2_PLACEMENT_3D('',#1432,#1201,#1202);
#1105=AXIS2_PLACEMENT_3D('',#1436,#1204,#1205);
#1106=AXIS2_PLACEMENT_3D('',#1439,#1207,#1208);
#1107=AXIS2_PLACEMENT_3D('',#1442,#1211,#1212);
#1108=AXIS2_PLACEMENT_3D('',#1451,#1217,#1218);
#1109=AXIS2_PLACEMENT_3D('',#1454,#1221,#1222);
#1110=AXIS2_PLACEMENT_3D('',#1456,#1224,#1225);
#1111=AXIS2_PLACEMENT_3D('',#1460,#1227,#1228);
#1112=AXIS2_PLACEMENT_3D('',#1468,#1232,#1233);
#1113=AXIS2_PLACEMENT_3D('',#1472,#1235,#1236);
#1114=AXIS2_PLACEMENT_3D('',#1473,#1237,#1238);
#1115=AXIS2_PLACEMENT_3D('',#1475,#1240,#1241);
#1116=AXIS2_PLACEMENT_3D('',#1479,#1243,#1244);
#1117=AXIS2_PLACEMENT_3D('',#1487,#1248,#1249);
#1118=AXIS2_PLACEMENT_3D('',#1491,#1251,#1252);
#1119=AXIS2_PLACEMENT_3D('',#1492,#1253,#1254);
#1120=AXIS2_PLACEMENT_3D('',#1495,#1257,#1258);
#1121=AXIS2_PLACEMENT_3D('',#1498,#1261,#1262);
#1122=AXIS2_PLACEMENT_3D('',#1500,#1264,#1265);
#1123=AXIS2_PLACEMENT_3D('',#1503,#1268,#1269);
#1124=AXIS2_PLACEMENT_3D('',#1506,#1272,#1273);
#1125=AXIS2_PLACEMENT_3D('',#1509,#1276,#1277);
#1126=AXIS2_PLACEMENT_3D('',#1512,#1280,#1281);
#1127=AXIS2_PLACEMENT_3D('',#1514,#1283,#1284);
#1128=AXIS2_PLACEMENT_3D('',#1516,#1286,#1287);
#1129=AXIS2_PLACEMENT_3D('',#1519,#1290,#1291);
#1130=AXIS2_PLACEMENT_3D('',#1522,#1294,#1295);
#1131=AXIS2_PLACEMENT_3D('',#1524,#1297,#1298);
#1132=AXIS2_PLACEMENT_3D('',#1533,#1303,#1304);
#1133=AXIS2_PLACEMENT_3D('',#1542,#1309,#1310);
#1134=AXIS2_PLACEMENT_3D('',#1551,#1315,#1316);
#1135=AXIS2_PLACEMENT_3D('',#1560,#1321,#1322);
#1136=AXIS2_PLACEMENT_3D('',#1563,#1325,#1326);
#1137=AXIS2_PLACEMENT_3D('',#1565,#1328,#1329);
#1138=AXIS2_PLACEMENT_3D('',#1567,#1331,#1332);
#1139=AXIS2_PLACEMENT_3D('',#1568,#1333,#1334);
#1140=AXIS2_PLACEMENT_3D('',#1571,#1337,#1338);
#1141=AXIS2_PLACEMENT_3D('',#1573,#1340,#1341);
#1142=AXIS2_PLACEMENT_3D('',#1575,#1343,#1344);
#1143=AXIS2_PLACEMENT_3D('',#1576,#1345,#1346);
#1144=AXIS2_PLACEMENT_3D('',#1577,#1347,#1348);
#1145=AXIS2_PLACEMENT_3D('',#1578,#1349,#1350);
#1146=AXIS2_PLACEMENT_3D('',#1579,#1351,#1352);
#1147=AXIS2_PLACEMENT_3D('',#1580,#1353,#1354);
#1148=AXIS2_PLACEMENT_3D('',#1581,#1355,#1356);
#1149=AXIS2_PLACEMENT_3D('',#1582,#1357,#1358);
#1150=AXIS2_PLACEMENT_3D('',#1583,#1359,#1360);
#1151=DIRECTION('',(0.,0.,1.));
#1152=DIRECTION('',(1.,0.,0.));
#1153=DIRECTION('',(0.,-1.,0.));
#1154=DIRECTION('',(0.,0.,-1.));
#1155=DIRECTION('',(1.,0.,0.));
#1156=DIRECTION('',(0.,0.,1.));
#1157=DIRECTION('',(-1.,0.,8.64597325190939E-16));
#1158=DIRECTION('',(0.,0.,1.));
#1159=DIRECTION('',(0.,-1.,0.));
#1160=DIRECTION('',(0.,0.,-1.));
#1161=DIRECTION('',(0.,0.,1.));
#1162=DIRECTION('',(1.,0.,0.));
#1163=DIRECTION('',(0.,0.,1.));
#1164=DIRECTION('',(-1.,0.,-8.64597325190939E-16));
#1165=DIRECTION('',(0.,0.,1.));
#1166=DIRECTION('',(1.,0.,0.));
#1167=DIRECTION('',(1.,0.,0.));
#1168=DIRECTION('',(0.,1.,0.));
#1169=DIRECTION('',(1.,0.,0.));
#1170=DIRECTION('',(0.,1.,0.));
#1171=DIRECTION('',(0.,-1.,0.));
#1172=DIRECTION('',(0.,0.,-1.));
#1173=DIRECTION('',(1.,0.,0.));
#1174=DIRECTION('',(0.,0.,-1.));
#1175=DIRECTION('',(-1.,0.,8.64597325190939E-16));
#1176=DIRECTION('',(0.,-1.,0.));
#1177=DIRECTION('',(0.,0.,-1.));
#1178=DIRECTION('',(-0.769422343285312,0.,-0.638740367953474));
#1179=DIRECTION('',(0.,-1.,0.));
#1180=DIRECTION('',(0.,0.,-1.));
#1181=DIRECTION('',(-1.,0.,0.));
#1182=DIRECTION('',(0.,0.,-1.));
#1183=DIRECTION('',(1.,0.,0.));
#1184=DIRECTION('',(0.,-1.,0.));
#1185=DIRECTION('',(0.,0.,-1.));
#1186=DIRECTION('',(0.769422343285312,0.,0.638740367953475));
#1187=DIRECTION('',(0.,-1.,0.));
#1188=DIRECTION('',(0.,0.,-1.));
#1189=DIRECTION('',(0.,-1.,0.));
#1190=DIRECTION('',(0.,0.,-1.));
#1191=DIRECTION('',(0.,0.,-1.));
#1192=DIRECTION('',(1.,0.,0.));
#1193=DIRECTION('',(0.,-1.,0.));
#1194=DIRECTION('',(0.,0.,-1.));
#1195=DIRECTION('',(0.769422343285312,0.,0.638740367953475));
#1196=DIRECTION('',(0.,-1.,0.));
#1197=DIRECTION('',(0.,0.,-1.));
#1198=DIRECTION('',(1.,0.,0.));
#1199=DIRECTION('',(0.,0.,-1.));
#1200=DIRECTION('',(-1.,0.,0.));
#1201=DIRECTION('',(0.,-1.,0.));
#1202=DIRECTION('',(0.,0.,-1.));
#1203=DIRECTION('',(-0.769422343285312,0.,-0.638740367953474));
#1204=DIRECTION('',(0.,-1.,0.));
#1205=DIRECTION('',(0.,0.,-1.));
#1206=DIRECTION('',(-1.,0.,-8.64597325190939E-16));
#1207=DIRECTION('',(0.,0.,1.));
#1208=DIRECTION('',(1.,0.,0.));
#1209=DIRECTION('',(0.,-1.,0.));
#1210=DIRECTION('',(0.,1.,0.));
#1211=DIRECTION('',(8.64597325190939E-16,0.,-1.));
#1212=DIRECTION('',(-1.,0.,-8.64597325190939E-16));
#1213=DIRECTION('',(-1.,0.,8.64597325190939E-16));
#1214=DIRECTION('',(0.,1.,0.));
#1215=DIRECTION('',(-1.,0.,-8.64597325190939E-16));
#1216=DIRECTION('',(0.,1.,0.));
#1217=DIRECTION('',(8.64597325190939E-16,0.,-1.));
#1218=DIRECTION('',(-1.,0.,-8.64597325190939E-16));
#1219=DIRECTION('',(0.,-1.,0.));
#1220=DIRECTION('',(0.,-1.,0.));
#1221=DIRECTION('',(0.,-1.,0.));
#1222=DIRECTION('',(0.,0.,-1.));
#1223=DIRECTION('',(0.,0.,-1.));
#1224=DIRECTION('',(0.,-1.,0.));
#1225=DIRECTION('',(0.,0.,-1.));
#1226=DIRECTION('',(0.769422343285312,0.,-0.638740367953475));
#1227=DIRECTION('',(0.,-1.,0.));
#1228=DIRECTION('',(0.,0.,-1.));
#1229=DIRECTION('',(1.,0.,0.));
#1230=DIRECTION('',(0.,0.,1.));
#1231=DIRECTION('',(-1.,0.,0.));
#1232=DIRECTION('',(0.,-1.,0.));
#1233=DIRECTION('',(0.,0.,-1.));
#1234=DIRECTION('',(-0.769422343285313,0.,0.638740367953473));
#1235=DIRECTION('',(0.,-1.,0.));
#1236=DIRECTION('',(0.,0.,-1.));
#1237=DIRECTION('',(0.,-1.,0.));
#1238=DIRECTION('',(0.,0.,-1.));
#1239=DIRECTION('',(0.,0.,-1.));
#1240=DIRECTION('',(0.,-1.,0.));
#1241=DIRECTION('',(0.,0.,-1.));
#1242=DIRECTION('',(-0.769422343285313,0.,0.638740367953473));
#1243=DIRECTION('',(0.,-1.,0.));
#1244=DIRECTION('',(0.,0.,-1.));
#1245=DIRECTION('',(-1.,0.,0.));
#1246=DIRECTION('',(0.,0.,1.));
#1247=DIRECTION('',(1.,0.,0.));
#1248=DIRECTION('',(0.,-1.,0.));
#1249=DIRECTION('',(0.,0.,-1.));
#1250=DIRECTION('',(0.769422343285312,0.,-0.638740367953475));
#1251=DIRECTION('',(0.,-1.,0.));
#1252=DIRECTION('',(0.,0.,-1.));
#1253=DIRECTION('',(8.64597325190939E-16,0.,-1.));
#1254=DIRECTION('',(-1.,0.,-8.64597325190939E-16));
#1255=DIRECTION('',(0.,1.,0.));
#1256=DIRECTION('',(0.,1.,0.));
#1257=DIRECTION('',(1.,0.,0.));
#1258=DIRECTION('',(0.,0.,-1.));
#1259=DIRECTION('',(0.,1.,0.));
#1260=DIRECTION('',(0.,1.,0.));
#1261=DIRECTION('',(0.,0.,1.));
#1262=DIRECTION('',(1.,0.,0.));
#1263=DIRECTION('',(0.,1.,0.));
#1264=DIRECTION('',(-0.638740367953474,0.,0.769422343285312));
#1265=DIRECTION('',(0.769422343285312,0.,0.638740367953475));
#1266=DIRECTION('',(0.,1.,0.));
#1267=DIRECTION('',(0.,1.,0.));
#1268=DIRECTION('',(0.,0.,1.));
#1269=DIRECTION('',(1.,0.,0.));
#1270=DIRECTION('',(0.,-1.,0.));
#1271=DIRECTION('',(0.,1.,0.));
#1272=DIRECTION('',(0.638740367953474,0.,0.769422343285312));
#1273=DIRECTION('',(0.769422343285312,0.,-0.638740367953475));
#1274=DIRECTION('',(0.,1.,0.));
#1275=DIRECTION('',(0.,1.,0.));
#1276=DIRECTION('',(0.,0.,1.));
#1277=DIRECTION('',(1.,0.,0.));
#1278=DIRECTION('',(0.,1.,0.));
#1279=DIRECTION('',(0.,1.,0.));
#1280=DIRECTION('',(-1.,0.,0.));
#1281=DIRECTION('',(0.,0.,1.));
#1282=DIRECTION('',(0.,1.,0.));
#1283=DIRECTION('',(0.,0.,-1.));
#1284=DIRECTION('',(-1.,0.,0.));
#1285=DIRECTION('',(0.,1.,0.));
#1286=DIRECTION('',(-0.638740367953473,0.,-0.769422343285313));
#1287=DIRECTION('',(-0.769422343285313,0.,0.638740367953473));
#1288=DIRECTION('',(0.,1.,0.));
#1289=DIRECTION('',(0.,1.,0.));
#1290=DIRECTION('',(0.638740367953474,0.,-0.769422343285312));
#1291=DIRECTION('',(-0.769422343285313,0.,-0.638740367953474));
#1292=DIRECTION('',(0.,1.,0.));
#1293=DIRECTION('',(0.,1.,0.));
#1294=DIRECTION('',(0.,0.,-1.));
#1295=DIRECTION('',(-1.,0.,0.));
#1296=DIRECTION('',(0.,1.,0.));
#1297=DIRECTION('',(-1.,0.,0.));
#1298=DIRECTION('',(0.,0.,1.));
#1299=DIRECTION('',(0.,-1.,1.15595803569222E-16));
#1300=DIRECTION('',(0.,2.38117812833217E-16,1.));
#1301=DIRECTION('',(0.,1.,-1.15595803569222E-16));
#1302=DIRECTION('',(0.,-2.38117812833217E-16,-1.));
#1303=DIRECTION('',(1.,0.,0.));
#1304=DIRECTION('',(0.,0.,-1.));
#1305=DIRECTION('',(0.,-1.,1.15595803569222E-16));
#1306=DIRECTION('',(0.,-2.38117812833217E-16,-1.));
#1307=DIRECTION('',(0.,1.,-1.15595803569222E-16));
#1308=DIRECTION('',(0.,2.38117812833217E-16,1.));
#1309=DIRECTION('',(-1.,0.,0.));
#1310=DIRECTION('',(0.,0.,1.));
#1311=DIRECTION('',(0.,2.38117812833217E-16,1.));
#1312=DIRECTION('',(0.,-1.,1.15595803569222E-16));
#1313=DIRECTION('',(0.,-2.38117812833217E-16,-1.));
#1314=DIRECTION('',(0.,1.,-1.15595803569222E-16));
#1315=DIRECTION('',(1.,0.,0.));
#1316=DIRECTION('',(0.,0.,-1.));
#1317=DIRECTION('',(0.,-2.38117812833217E-16,-1.));
#1318=DIRECTION('',(0.,-1.,1.15595803569222E-16));
#1319=DIRECTION('',(0.,2.38117812833217E-16,1.));
#1320=DIRECTION('',(0.,1.,-1.15595803569222E-16));
#1321=DIRECTION('',(0.,-1.15595803569222E-16,-1.));
#1322=DIRECTION('',(0.,1.,-1.15595803569222E-16));
#1323=DIRECTION('',(-1.,0.,0.));
#1324=DIRECTION('',(-1.,0.,0.));
#1325=DIRECTION('',(0.,1.,-2.38117812833217E-16));
#1326=DIRECTION('',(0.,2.38117812833217E-16,1.));
#1327=DIRECTION('',(-1.,0.,0.));
#1328=DIRECTION('',(0.,1.15595803569222E-16,1.));
#1329=DIRECTION('',(0.,-1.,1.15595803569222E-16));
#1330=DIRECTION('',(-1.,0.,0.));
#1331=DIRECTION('',(0.,-1.,2.38117812833217E-16));
#1332=DIRECTION('',(0.,-2.38117812833217E-16,-1.));
#1333=DIRECTION('',(0.,-1.,2.38117812833217E-16));
#1334=DIRECTION('',(0.,-2.38117812833217E-16,-1.));
#1335=DIRECTION('',(-1.,0.,0.));
#1336=DIRECTION('',(-1.,0.,0.));
#1337=DIRECTION('',(0.,1.15595803569222E-16,1.));
#1338=DIRECTION('',(0.,-1.,1.15595803569222E-16));
#1339=DIRECTION('',(-1.,0.,0.));
#1340=DIRECTION('',(0.,1.,-2.38117812833217E-16));
#1341=DIRECTION('',(0.,2.38117812833217E-16,1.));
#1342=DIRECTION('',(-1.,0.,0.));
#1343=DIRECTION('',(0.,-1.15595803569222E-16,-1.));
#1344=DIRECTION('',(0.,1.,-1.15595803569222E-16));
#1345=DIRECTION('',(0.,1.,0.));
#1346=DIRECTION('',(0.,0.,1.));
#1347=DIRECTION('',(0.,1.,0.));
#1348=DIRECTION('',(0.,0.,1.));
#1349=DIRECTION('',(0.,1.,0.));
#1350=DIRECTION('',(0.,0.,1.));
#1351=DIRECTION('',(0.,1.,0.));
#1352=DIRECTION('',(0.,0.,1.));
#1353=DIRECTION('',(0.,-1.,0.));
#1354=DIRECTION('',(0.,0.,-1.));
#1355=DIRECTION('',(0.,-1.,0.));
#1356=DIRECTION('',(0.,0.,-1.));
#1357=DIRECTION('',(0.,-1.,0.));
#1358=DIRECTION('',(0.,0.,-1.));
#1359=DIRECTION('',(0.,-1.,0.));
#1360=DIRECTION('',(0.,0.,-1.));
#1361=CARTESIAN_POINT('',(0.,0.,0.));
#1362=CARTESIAN_POINT('',(0.,-3.8,0.));
#1363=CARTESIAN_POINT('',(-2.69770336909303,-3.8,0.5));
#1364=CARTESIAN_POINT('',(-2.24379267640356,-3.8,0.5));
#1365=CARTESIAN_POINT('',(2.24379267640356,-3.8,0.5));
#1366=CARTESIAN_POINT('',(2.24379267640356,-3.8,0.));
#1367=CARTESIAN_POINT('',(2.24379267640356,-3.8,2.5));
#1368=CARTESIAN_POINT('',(2.50799335342858,-3.8,2.5));
#1369=CARTESIAN_POINT('',(-2.24379267640356,-3.8,2.5));
#1370=CARTESIAN_POINT('',(-2.24379267640356,-3.8,0.));
#1371=CARTESIAN_POINT('',(0.,3.8,0.));
#1372=CARTESIAN_POINT('',(2.24379267640356,3.8,0.));
#1373=CARTESIAN_POINT('',(2.24379267640356,3.8,0.5));
#1374=CARTESIAN_POINT('',(2.24379267640356,3.8,2.5));
#1375=CARTESIAN_POINT('',(2.69770336909303,3.8,0.5));
#1376=CARTESIAN_POINT('',(-2.24379267640356,3.8,0.5));
#1377=CARTESIAN_POINT('',(-2.24379267640356,3.8,0.));
#1378=CARTESIAN_POINT('',(-2.24379267640356,3.8,2.5));
#1379=CARTESIAN_POINT('',(-2.50799335342858,3.8,2.5));
#1380=CARTESIAN_POINT('',(2.69770336909303,-3.8,0.5));
#1381=CARTESIAN_POINT('',(-2.69770336909303,-3.8,0.5));
#1382=CARTESIAN_POINT('',(2.27986826976458,-3.8,0.5));
#1383=CARTESIAN_POINT('',(2.57936661831519,-3.8,0.5));
#1384=CARTESIAN_POINT('',(2.27986826976458,-3.8,0.5));
#1385=CARTESIAN_POINT('',(2.27986826976458,3.8,0.5));
#1386=CARTESIAN_POINT('',(2.69770336909303,3.8,0.5));
#1387=CARTESIAN_POINT('',(2.57936661831519,3.8,0.5));
#1388=CARTESIAN_POINT('',(2.57936661831519,-3.8,0.5));
#1389=CARTESIAN_POINT('',(0.,-3.8,0.));
#1390=CARTESIAN_POINT('',(-2.69770336909303,-3.8,0.5));
#1391=CARTESIAN_POINT('',(-2.57936661831519,-3.8,0.5));
#1392=CARTESIAN_POINT('',(-2.27986826976458,-3.8,0.5));
#1393=CARTESIAN_POINT('',(-2.27986826976458,-3.8,0.));
#1394=CARTESIAN_POINT('',(-2.27986826976458,-3.8,2.5));
#1395=CARTESIAN_POINT('',(2.50799335342858,-3.8,2.5));
#1396=CARTESIAN_POINT('',(-2.38965660265074,-3.8,2.5));
#1397=CARTESIAN_POINT('',(-2.38965660265074,-3.8,2.17218653875129));
#1398=CARTESIAN_POINT('',(-2.59904429350884,-3.8,2.42441354026574));
#1399=CARTESIAN_POINT('',(-3.11028998433556,-3.8,2.));
#1400=CARTESIAN_POINT('',(-3.0192390442553,-3.8,2.07558645973426));
#1401=CARTESIAN_POINT('',(-3.2286267351134,-3.8,2.32781346124871));
#1402=CARTESIAN_POINT('',(-3.2286267351134,-3.8,2.));
#1403=CARTESIAN_POINT('',(-7.5,-3.8,2.));
#1404=CARTESIAN_POINT('',(-7.5,-3.8,2.));
#1405=CARTESIAN_POINT('',(-7.5,-3.8,0.));
#1406=CARTESIAN_POINT('',(-7.5,-3.8,0.));
#1407=CARTESIAN_POINT('',(-7.5,-3.8,0.));
#1408=CARTESIAN_POINT('',(-3.41833675077784,-3.8,0.));
#1409=CARTESIAN_POINT('',(-3.41833675077784,-3.8,0.327813461248708));
#1410=CARTESIAN_POINT('',(-3.20894905991974,-3.8,0.0755864597342582));
#1411=CARTESIAN_POINT('',(-3.3,-3.8,0.));
#1412=CARTESIAN_POINT('',(-2.78875430917329,-3.8,0.424413540265742));
#1413=CARTESIAN_POINT('',(-2.57936661831519,-3.8,0.172186538751292));
#1414=CARTESIAN_POINT('',(0.,3.8,0.));
#1415=CARTESIAN_POINT('',(-2.27986826976458,3.8,0.));
#1416=CARTESIAN_POINT('',(-2.27986826976458,3.8,2.5));
#1417=CARTESIAN_POINT('',(-2.27986826976458,3.8,0.5));
#1418=CARTESIAN_POINT('',(2.69770336909303,3.8,0.5));
#1419=CARTESIAN_POINT('',(-2.57936661831519,3.8,0.5));
#1420=CARTESIAN_POINT('',(-2.57936661831519,3.8,0.172186538751292));
#1421=CARTESIAN_POINT('',(-2.78875430917329,3.8,0.424413540265742));
#1422=CARTESIAN_POINT('',(-3.3,3.8,0.));
#1423=CARTESIAN_POINT('',(-3.20894905991974,3.8,0.0755864597342582));
#1424=CARTESIAN_POINT('',(-3.41833675077784,3.8,0.327813461248708));
#1425=CARTESIAN_POINT('',(-3.41833675077784,3.8,0.));
#1426=CARTESIAN_POINT('',(-7.5,3.8,0.));
#1427=CARTESIAN_POINT('',(-7.5,3.8,0.));
#1428=CARTESIAN_POINT('',(-7.5,3.8,0.));
#1429=CARTESIAN_POINT('',(-7.5,3.8,2.));
#1430=CARTESIAN_POINT('',(-7.5,3.8,2.));
#1431=CARTESIAN_POINT('',(-3.2286267351134,3.8,2.));
#1432=CARTESIAN_POINT('',(-3.2286267351134,3.8,2.32781346124871));
#1433=CARTESIAN_POINT('',(-3.0192390442553,3.8,2.07558645973426));
#1434=CARTESIAN_POINT('',(-3.11028998433556,3.8,2.));
#1435=CARTESIAN_POINT('',(-2.59904429350884,3.8,2.42441354026574));
#1436=CARTESIAN_POINT('',(-2.38965660265074,3.8,2.17218653875129));
#1437=CARTESIAN_POINT('',(-2.38965660265074,3.8,2.5));
#1438=CARTESIAN_POINT('',(-2.50799335342858,3.8,2.5));
#1439=CARTESIAN_POINT('',(2.69770336909303,-3.8,0.5));
#1440=CARTESIAN_POINT('',(-2.27986826976458,-3.8,0.5));
#1441=CARTESIAN_POINT('',(-2.57936661831519,3.8,0.5));
#1442=CARTESIAN_POINT('',(-2.50799335342858,-3.8,2.5));
#1443=CARTESIAN_POINT('',(2.50799335342858,-3.8,2.5));
#1444=CARTESIAN_POINT('',(2.38965660265074,-3.8,2.5));
#1445=CARTESIAN_POINT('',(2.27986826976458,-3.8,2.5));
#1446=CARTESIAN_POINT('',(2.38965660265074,-3.8,2.5));
#1447=CARTESIAN_POINT('',(2.38965660265074,3.8,2.5));
#1448=CARTESIAN_POINT('',(-2.50799335342858,3.8,2.5));
#1449=CARTESIAN_POINT('',(2.27986826976458,3.8,2.5));
#1450=CARTESIAN_POINT('',(2.27986826976458,-3.8,2.5));
#1451=CARTESIAN_POINT('',(-2.50799335342858,-3.8,2.5));
#1452=CARTESIAN_POINT('',(2.24379267640356,-3.8,2.5));
#1453=CARTESIAN_POINT('',(-2.24379267640356,-3.8,2.5));
#1454=CARTESIAN_POINT('',(0.,-3.8,0.));
#1455=CARTESIAN_POINT('',(2.27986826976458,-3.8,0.));
#1456=CARTESIAN_POINT('',(2.57936661831519,-3.8,0.172186538751292));
#1457=CARTESIAN_POINT('',(2.78875430917329,-3.8,0.424413540265742));
#1458=CARTESIAN_POINT('',(3.3,-3.8,0.));
#1459=CARTESIAN_POINT('',(3.20894905991974,-3.8,0.0755864597342582));
#1460=CARTESIAN_POINT('',(3.41833675077784,-3.8,0.327813461248708));
#1461=CARTESIAN_POINT('',(3.41833675077784,-3.8,0.));
#1462=CARTESIAN_POINT('',(3.3,-3.8,0.));
#1463=CARTESIAN_POINT('',(7.5,-3.8,0.));
#1464=CARTESIAN_POINT('',(7.5,-3.8,0.));
#1465=CARTESIAN_POINT('',(7.5,-3.8,2.));
#1466=CARTESIAN_POINT('',(7.5,-3.8,2.));
#1467=CARTESIAN_POINT('',(3.2286267351134,-3.8,2.));
#1468=CARTESIAN_POINT('',(3.2286267351134,-3.8,2.32781346124871));
#1469=CARTESIAN_POINT('',(3.0192390442553,-3.8,2.07558645973426));
#1470=CARTESIAN_POINT('',(3.11028998433556,-3.8,2.));
#1471=CARTESIAN_POINT('',(2.59904429350884,-3.8,2.42441354026575));
#1472=CARTESIAN_POINT('',(2.38965660265074,-3.8,2.1721865387513));
#1473=CARTESIAN_POINT('',(0.,3.8,0.));
#1474=CARTESIAN_POINT('',(2.27986826976458,3.8,0.));
#1475=CARTESIAN_POINT('',(2.38965660265074,3.8,2.1721865387513));
#1476=CARTESIAN_POINT('',(2.59904429350884,3.8,2.42441354026575));
#1477=CARTESIAN_POINT('',(3.11028998433556,3.8,2.));
#1478=CARTESIAN_POINT('',(3.0192390442553,3.8,2.07558645973426));
#1479=CARTESIAN_POINT('',(3.2286267351134,3.8,2.32781346124871));
#1480=CARTESIAN_POINT('',(3.2286267351134,3.8,2.));
#1481=CARTESIAN_POINT('',(7.5,3.8,2.));
#1482=CARTESIAN_POINT('',(7.5,3.8,2.));
#1483=CARTESIAN_POINT('',(7.5,3.8,0.));
#1484=CARTESIAN_POINT('',(7.5,3.8,0.));
#1485=CARTESIAN_POINT('',(3.3,3.8,0.));
#1486=CARTESIAN_POINT('',(3.41833675077784,3.8,0.));
#1487=CARTESIAN_POINT('',(3.41833675077784,3.8,0.327813461248708));
#1488=CARTESIAN_POINT('',(3.20894905991974,3.8,0.0755864597342582));
#1489=CARTESIAN_POINT('',(3.3,3.8,0.));
#1490=CARTESIAN_POINT('',(2.78875430917329,3.8,0.424413540265742));
#1491=CARTESIAN_POINT('',(2.57936661831519,3.8,0.172186538751292));
#1492=CARTESIAN_POINT('',(-2.50799335342858,-3.8,2.5));
#1493=CARTESIAN_POINT('',(-2.38965660265074,-3.8,2.5));
#1494=CARTESIAN_POINT('',(-2.27986826976458,-3.8,2.5));
#1495=CARTESIAN_POINT('',(-7.5,-3.8,0.));
#1496=CARTESIAN_POINT('',(-7.5,-3.8,0.));
#1497=CARTESIAN_POINT('',(-7.5,-3.8,2.));
#1498=CARTESIAN_POINT('',(-7.5,-3.8,0.));
#1499=CARTESIAN_POINT('',(-3.41833675077784,-3.8,0.));
#1500=CARTESIAN_POINT('',(-3.3,-3.8,0.));
#1501=CARTESIAN_POINT('',(-2.78875430917329,-3.8,0.424413540265742));
#1502=CARTESIAN_POINT('',(-3.20894905991974,-3.8,0.0755864597342582));
#1503=CARTESIAN_POINT('',(2.69770336909303,-3.8,0.5));
#1504=CARTESIAN_POINT('',(2.24379267640356,-3.8,0.5));
#1505=CARTESIAN_POINT('',(-2.24379267640356,-3.8,0.5));
#1506=CARTESIAN_POINT('',(3.3,-3.8,0.));
#1507=CARTESIAN_POINT('',(2.78875430917329,3.8,0.424413540265742));
#1508=CARTESIAN_POINT('',(3.20894905991974,-3.8,0.0755864597342582));
#1509=CARTESIAN_POINT('',(3.3,-3.8,0.));
#1510=CARTESIAN_POINT('',(3.41833675077784,-3.8,0.));
#1511=CARTESIAN_POINT('',(7.5,-3.8,0.));
#1512=CARTESIAN_POINT('',(7.5,-3.8,0.));
#1513=CARTESIAN_POINT('',(7.5,-3.8,2.));
#1514=CARTESIAN_POINT('',(7.5,-3.8,2.));
#1515=CARTESIAN_POINT('',(3.2286267351134,-3.8,2.));
#1516=CARTESIAN_POINT('',(3.11028998433556,-3.8,2.));
#1517=CARTESIAN_POINT('',(3.0192390442553,3.8,2.07558645973426));
#1518=CARTESIAN_POINT('',(2.59904429350884,-3.8,2.42441354026575));
#1519=CARTESIAN_POINT('',(-3.11028998433556,-3.8,2.));
#1520=CARTESIAN_POINT('',(-3.0192390442553,-3.8,2.07558645973426));
#1521=CARTESIAN_POINT('',(-2.59904429350884,-3.8,2.42441354026574));
#1522=CARTESIAN_POINT('',(-7.5,-3.8,2.));
#1523=CARTESIAN_POINT('',(-3.2286267351134,3.8,2.));
#1524=CARTESIAN_POINT('',(-2.27986826976458,-15.8106050558962,0.507160308300027));
#1525=CARTESIAN_POINT('',(-2.27986826976458,-15.8106050558962,0.631112532122801));
#1526=CARTESIAN_POINT('',(-2.27986826976458,3.75170080230899,0.631112532122799));
#1527=CARTESIAN_POINT('',(-2.27986826976458,-3.75170080230899,0.631112532122799));
#1528=CARTESIAN_POINT('',(-2.27986826976458,-3.75170080230899,0.507160308300025));
#1529=CARTESIAN_POINT('',(-2.27986826976458,-3.75170080230899,2.45239949857903));
#1530=CARTESIAN_POINT('',(-2.27986826976458,-15.8106050558962,2.45239949857903));
#1531=CARTESIAN_POINT('',(-2.27986826976458,3.75170080230899,2.45239949857903));
#1532=CARTESIAN_POINT('',(-2.27986826976458,3.75170080230899,0.507160308300023));
#1533=CARTESIAN_POINT('',(-2.24379267640356,-15.8106050558962,2.64681199746902));
#1534=CARTESIAN_POINT('',(-2.24379267640356,-15.8106050558962,2.45239949857903));
#1535=CARTESIAN_POINT('',(-2.24379267640356,3.75170080230899,2.45239949857903));
#1536=CARTESIAN_POINT('',(-2.24379267640356,-3.75170080230899,2.45239949857903));
#1537=CARTESIAN_POINT('',(-2.24379267640356,-3.75170080230899,2.64681199746902));
#1538=CARTESIAN_POINT('',(-2.24379267640356,-3.75170080230899,0.631112532122799));
#1539=CARTESIAN_POINT('',(-2.24379267640356,-15.8106050558962,0.631112532122801));
#1540=CARTESIAN_POINT('',(-2.24379267640356,3.75170080230899,0.631112532122798));
#1541=CARTESIAN_POINT('',(-2.24379267640356,3.75170080230899,2.64681199746901));
#1542=CARTESIAN_POINT('',(2.27986826976458,-15.8106050558962,0.507160308300027));
#1543=CARTESIAN_POINT('',(2.27986826976458,-3.75170080230899,0.507160308300025));
#1544=CARTESIAN_POINT('',(2.27986826976458,-3.75170080230899,0.631112532122799));
#1545=CARTESIAN_POINT('',(2.27986826976458,-3.75170080230899,2.45239949857903));
#1546=CARTESIAN_POINT('',(2.27986826976458,-15.8106050558962,0.631112532122801));
#1547=CARTESIAN_POINT('',(2.27986826976458,3.75170080230899,0.631112532122799));
#1548=CARTESIAN_POINT('',(2.27986826976458,3.75170080230899,0.507160308300023));
#1549=CARTESIAN_POINT('',(2.27986826976458,3.75170080230899,2.45239949857903));
#1550=CARTESIAN_POINT('',(2.27986826976458,-15.8106050558962,2.45239949857903));
#1551=CARTESIAN_POINT('',(2.24379267640356,-15.8106050558962,2.64681199746902));
#1552=CARTESIAN_POINT('',(2.24379267640356,-3.75170080230899,2.64681199746902));
#1553=CARTESIAN_POINT('',(2.24379267640356,-3.75170080230899,2.45239949857903));
#1554=CARTESIAN_POINT('',(2.24379267640356,-3.75170080230899,0.631112532122799));
#1555=CARTESIAN_POINT('',(2.24379267640356,-15.8106050558962,2.45239949857903));
#1556=CARTESIAN_POINT('',(2.24379267640356,3.75170080230899,2.45239949857903));
#1557=CARTESIAN_POINT('',(2.24379267640356,3.75170080230899,2.64681199746901));
#1558=CARTESIAN_POINT('',(2.24379267640356,3.75170080230899,0.631112532122799));
#1559=CARTESIAN_POINT('',(2.24379267640356,-15.8106050558962,0.631112532122801));
#1560=CARTESIAN_POINT('',(2.34665119354651,3.75170080230899,0.631112532122799));
#1561=CARTESIAN_POINT('',(2.34665119354651,3.75170080230899,0.631112532122799));
#1562=CARTESIAN_POINT('',(2.34665119354651,-3.75170080230899,0.631112532122799));
#1563=CARTESIAN_POINT('',(2.34665119354651,3.75170080230899,2.45239949857903));
#1564=CARTESIAN_POINT('',(2.34665119354651,3.75170080230899,2.45239949857903));
#1565=CARTESIAN_POINT('',(2.34665119354651,-3.75170080230899,2.45239949857903));
#1566=CARTESIAN_POINT('',(2.34665119354651,-3.75170080230899,2.45239949857903));
#1567=CARTESIAN_POINT('',(2.34665119354651,-3.75170080230899,0.631112532122799));
#1568=CARTESIAN_POINT('',(2.34665119354651,-3.75170080230899,0.631112532122799));
#1569=CARTESIAN_POINT('',(2.34665119354651,-3.75170080230899,0.631112532122799));
#1570=CARTESIAN_POINT('',(2.34665119354651,-3.75170080230899,2.45239949857903));
#1571=CARTESIAN_POINT('',(2.34665119354651,-3.75170080230899,2.45239949857903));
#1572=CARTESIAN_POINT('',(2.34665119354651,3.75170080230899,2.45239949857903));
#1573=CARTESIAN_POINT('',(2.34665119354651,3.75170080230899,2.45239949857903));
#1574=CARTESIAN_POINT('',(2.34665119354651,3.75170080230899,0.631112532122799));
#1575=CARTESIAN_POINT('',(2.34665119354651,3.75170080230899,0.631112532122799));
#1576=CARTESIAN_POINT('',(2.38965660265074,-3.8,2.1721865387513));
#1577=CARTESIAN_POINT('',(-3.41833675077784,-3.8,0.327813461248708));
#1578=CARTESIAN_POINT('',(-2.38965660265074,-3.8,2.17218653875129));
#1579=CARTESIAN_POINT('',(3.41833675077784,-3.8,0.327813461248708));
#1580=CARTESIAN_POINT('',(3.2286267351134,-3.8,2.32781346124871));
#1581=CARTESIAN_POINT('',(2.57936661831519,-3.8,0.172186538751292));
#1582=CARTESIAN_POINT('',(-2.57936661831519,-3.8,0.172186538751292));
#1583=CARTESIAN_POINT('',(-3.2286267351134,-3.8,2.32781346124871));
#1584=MECHANICAL_DESIGN_GEOMETRIC_PRESENTATION_REPRESENTATION('',(#750,
#751,#752,#753,#754,#755,#756,#757,#758,#759,#760,#761,#762,#763,#764,#765,
#766,#767,#768,#769,#770,#771,#772,#773,#774,#775,#776,#777,#778,#779,#780,
#781,#782,#783,#784,#785,#786,#787,#788,#789,#790,#791),#1585);
#1585=(
GEOMETRIC_REPRESENTATION_CONTEXT(3)
GLOBAL_UNCERTAINTY_ASSIGNED_CONTEXT((#1586))
GLOBAL_UNIT_ASSIGNED_CONTEXT((#1589,#1588,#1587))
REPRESENTATION_CONTEXT('Y14860R00010F9R','TOP_LEVEL_ASSEMBLY_PART')
);
#1586=UNCERTAINTY_MEASURE_WITH_UNIT(LENGTH_MEASURE(0.005),#1589,
'DISTANCE_ACCURACY_VALUE','Maximum Tolerance applied to model');
#1587=(
NAMED_UNIT(*)
SI_UNIT($,.STERADIAN.)
SOLID_ANGLE_UNIT()
);
#1588=(
NAMED_UNIT(*)
PLANE_ANGLE_UNIT()
SI_UNIT($,.RADIAN.)
);
#1589=(
LENGTH_UNIT()
NAMED_UNIT(*)
SI_UNIT(.MILLI.,.METRE.)
);
#1590=PRODUCT_DEFINITION_SHAPE('','',#1591);
#1591=PRODUCT_DEFINITION('','',#1593,#1592);
#1592=PRODUCT_DEFINITION_CONTEXT('',#1599,'design');
#1593=PRODUCT_DEFINITION_FORMATION_WITH_SPECIFIED_SOURCE('','',#1595,
 .NOT_KNOWN.);
#1594=PRODUCT_RELATED_PRODUCT_CATEGORY('','',(#1595));
#1595=PRODUCT('Y14860R00010F9R','Y14860R00010F9R','Y14860R00010F9R',(#1597));
#1596=PRODUCT_CATEGORY('','');
#1597=PRODUCT_CONTEXT('',#1599,'mechanical');
#1598=APPLICATION_PROTOCOL_DEFINITION('international standard',
'automotive_design',2010,#1599);
#1599=APPLICATION_CONTEXT(
'core data for automotive mechanical design processes');
ENDSEC;
END-ISO-10303-21;
