%TF.GenerationSoftware,KiCad,Pcbnew,9.0.2*%
%TF.CreationDate,2025-07-05T11:30:25+05:30*%
%TF.ProjectId,Active Flyback converter,41637469-7665-4204-966c-796261636b20,1.1*%
%TF.SameCoordinates,Original*%
%TF.FileFunction,Copper,L6,Bot*%
%TF.FilePolarity,Positive*%
%FSLAX46Y46*%
G04 Gerber Fmt 4.6, Leading zero omitted, Abs format (unit mm)*
G04 Created by KiCad (PCBNEW 9.0.2) date 2025-07-05 11:30:25*
%MOMM*%
%LPD*%
G01*
G04 APERTURE LIST*
%TA.AperFunction,ComponentPad*%
%ADD10R,1.700000X1.700000*%
%TD*%
%TA.AperFunction,ViaPad*%
%ADD11C,0.600000*%
%TD*%
%TA.AperFunction,Conductor*%
%ADD12C,0.200000*%
%TD*%
G04 APERTURE END LIST*
D10*
%TO.P,J8,1,Pin_1*%
%TO.N,/secondary*%
X124800000Y-37200000D03*
%TD*%
%TO.P,J6,1,Pin_1*%
%TO.N,/secondary*%
X132000000Y-37200000D03*
%TD*%
%TO.P,J5,1,Pin_1*%
%TO.N,/secondary*%
X135700000Y-47600000D03*
%TD*%
%TO.P,J4,1,Pin_1*%
%TO.N,/secondary*%
X135700000Y-40400000D03*
%TD*%
%TO.P,J7,1,Pin_1*%
%TO.N,/secondary*%
X135700000Y-44000000D03*
%TD*%
%TO.P,J1,1,Pin_1*%
%TO.N,/primary*%
X99800000Y-66500000D03*
%TD*%
%TO.P,J3,1,Pin_1*%
%TO.N,/primary*%
X99800000Y-39600000D03*
%TD*%
%TO.P,J2,1,Pin_1*%
%TO.N,/secondary*%
X128400000Y-37200000D03*
%TD*%
D11*
%TO.N,/primary*%
X98700000Y-67750000D03*
X99450000Y-40850000D03*
X98700000Y-38350000D03*
X99450000Y-65250000D03*
X118000000Y-65900000D03*
X118000000Y-50600000D03*
X100950000Y-65250000D03*
X100950000Y-67750000D03*
X100950000Y-38350000D03*
X98700000Y-65250000D03*
X98700000Y-40850000D03*
X117000000Y-50600000D03*
X118500000Y-80100000D03*
X117000000Y-65900000D03*
X100200000Y-67750000D03*
X116500000Y-80100000D03*
X117500000Y-64800000D03*
X99450000Y-38350000D03*
X99450000Y-67750000D03*
X100950000Y-40850000D03*
X117500000Y-80100000D03*
X100200000Y-38350000D03*
X100200000Y-40850000D03*
X100200000Y-65250000D03*
%TO.N,/secondary*%
X135200000Y-46750000D03*
X130350000Y-36950000D03*
X125800000Y-36950000D03*
X127300000Y-38450000D03*
X136700000Y-42000000D03*
X135950000Y-56400000D03*
X136700000Y-41250000D03*
X136700000Y-55650000D03*
X130350000Y-37700000D03*
X136700000Y-45250000D03*
X135200000Y-51100000D03*
X134450000Y-56400000D03*
X136700000Y-46000000D03*
X135950000Y-52600000D03*
X135200000Y-53350000D03*
X135200000Y-54900000D03*
X135200000Y-56400000D03*
X131100000Y-36200000D03*
X135950000Y-51100000D03*
X128050000Y-36950000D03*
X136700000Y-52600000D03*
X135200000Y-42000000D03*
X130350000Y-38450000D03*
X134450000Y-51100000D03*
X134450000Y-53350000D03*
X136700000Y-53350000D03*
X129600000Y-37700000D03*
X135950000Y-54150000D03*
X135200000Y-45250000D03*
X136700000Y-54150000D03*
X135950000Y-42750000D03*
X134450000Y-41250000D03*
X128850000Y-36950000D03*
X127300000Y-36200000D03*
X136700000Y-51100000D03*
X126550000Y-36950000D03*
X128850000Y-38450000D03*
X128850000Y-37700000D03*
X135200000Y-52600000D03*
X134450000Y-42750000D03*
X135950000Y-45250000D03*
X125800000Y-37700000D03*
X134450000Y-55650000D03*
X134450000Y-46750000D03*
X135950000Y-53350000D03*
X125800000Y-38450000D03*
X125800000Y-36200000D03*
X126550000Y-36200000D03*
X126550000Y-38450000D03*
X128050000Y-37700000D03*
X126550000Y-37700000D03*
X135950000Y-54900000D03*
X135200000Y-54150000D03*
X131100000Y-38450000D03*
X135200000Y-51850000D03*
X136700000Y-46750000D03*
X134450000Y-54150000D03*
X127300000Y-37700000D03*
X136700000Y-56400000D03*
X135200000Y-46000000D03*
X135950000Y-41250000D03*
X134450000Y-45250000D03*
X135950000Y-51850000D03*
X135200000Y-55650000D03*
X129600000Y-36200000D03*
X135950000Y-55650000D03*
X129600000Y-36950000D03*
X135950000Y-42000000D03*
X135950000Y-46000000D03*
X129600000Y-38450000D03*
X136700000Y-51850000D03*
X128050000Y-36200000D03*
X128850000Y-36200000D03*
X131100000Y-36950000D03*
X134450000Y-42000000D03*
X136700000Y-54900000D03*
X130350000Y-36200000D03*
X131100000Y-37700000D03*
X134450000Y-52600000D03*
X127300000Y-36950000D03*
X134450000Y-54900000D03*
X134450000Y-46000000D03*
X134450000Y-51850000D03*
X136700000Y-42750000D03*
X135200000Y-41250000D03*
X128050000Y-38450000D03*
X135200000Y-42750000D03*
X135950000Y-46750000D03*
%TD*%
D12*
%TO.N,/primary*%
X123100001Y-53200000D02*
X123100001Y-51000000D01*
X122500001Y-49600000D02*
X112500000Y-49600000D01*
X123500001Y-53600000D02*
X123500001Y-50600000D01*
X123300001Y-48800000D02*
X111700000Y-48800000D01*
X124300001Y-54400000D02*
X124300001Y-49800000D01*
X111299999Y-55400000D02*
X123300001Y-55400000D01*
X123700001Y-48400000D02*
X111300000Y-48400000D01*
X124700001Y-54800000D02*
X124700001Y-49400000D01*
X125100001Y-55200000D02*
X125100001Y-49000000D01*
X109500001Y-48599998D02*
X109500001Y-55200001D01*
X125500001Y-55600000D02*
X125500001Y-48600000D01*
X110099999Y-56600000D02*
X124500001Y-56600000D01*
X109100001Y-48199998D02*
X109100001Y-55600001D01*
X110300001Y-49399998D02*
X110300001Y-54400001D01*
X125300001Y-46800000D02*
X109700000Y-46800000D01*
X109900001Y-48999998D02*
X109900001Y-54800001D01*
X108300001Y-47399998D02*
X108300001Y-56400001D01*
X108899999Y-57800000D02*
X125700001Y-57800000D01*
X107900001Y-46999998D02*
X107900001Y-56800001D01*
X126700001Y-56800000D02*
X126700001Y-47400000D01*
X126100001Y-46000000D02*
X108900000Y-46000000D01*
X107500001Y-46599998D02*
X107500001Y-57200001D01*
X126500001Y-45600000D02*
X108500000Y-45600000D01*
X108099999Y-58600000D02*
X126500001Y-58600000D01*
X107700000Y-59000000D02*
X126900001Y-59000000D01*
X106700001Y-45799999D02*
X106700001Y-58000001D01*
X109299999Y-57400000D02*
X125300001Y-57400000D01*
X127300001Y-44800000D02*
X107700000Y-44800000D01*
X128300001Y-58400000D02*
X128300001Y-45800000D01*
X128700001Y-58800000D02*
X128700001Y-45400000D01*
X105500001Y-44599999D02*
X105500001Y-59200001D01*
X128500001Y-43600000D02*
X106500000Y-43600000D01*
X106100000Y-60600000D02*
X128500001Y-60600000D01*
X127900001Y-58000000D02*
X127900001Y-46200000D01*
X128900001Y-43200000D02*
X106100000Y-43200000D01*
X105700000Y-61000000D02*
X128900001Y-61000000D01*
X104700001Y-43799999D02*
X104700001Y-60000001D01*
X129300001Y-42800000D02*
X105700000Y-42800000D01*
X130300001Y-60400000D02*
X130300001Y-43800000D01*
X105100001Y-44199999D02*
X105100001Y-59600001D01*
X104300001Y-43399999D02*
X104300001Y-60400001D01*
X130700001Y-60800000D02*
X130700001Y-43400000D01*
X103900001Y-42999999D02*
X103900001Y-60800001D01*
X131100001Y-61200000D02*
X131100001Y-43000000D01*
X103500001Y-42599999D02*
X103500001Y-61200001D01*
X130500001Y-41600000D02*
X104500000Y-41600000D01*
X104100000Y-62600000D02*
X130500001Y-62600000D01*
X124500001Y-47600000D02*
X110500000Y-47600000D01*
X103700000Y-63000000D02*
X130900001Y-63000000D01*
X102700001Y-41799999D02*
X102700001Y-62000001D01*
X131300001Y-40800000D02*
X103700000Y-40800000D01*
X102300001Y-41399999D02*
X102300001Y-62400001D01*
X133100001Y-63200000D02*
X133100001Y-41000000D01*
X120900000Y-64200000D02*
X132100001Y-64200000D01*
X118600000Y-66500000D02*
X120900000Y-64200000D01*
X117400002Y-66500000D02*
X118600000Y-66500000D01*
X102900000Y-66499999D02*
X117400001Y-66499999D01*
X132100001Y-90699999D02*
X102900000Y-90699999D01*
X102300000Y-89299999D02*
X102300000Y-67899999D01*
X131700001Y-90299999D02*
X103300000Y-90299999D01*
X107100001Y-46199998D02*
X107100001Y-57600001D01*
X132700000Y-68299998D02*
X132700000Y-89300000D01*
X103700000Y-67299999D02*
X131700001Y-67299999D01*
X102700000Y-88899999D02*
X102700000Y-68299999D01*
X131300001Y-89899999D02*
X103700000Y-89899999D01*
X132300000Y-68699998D02*
X132300000Y-88900000D01*
X104100000Y-67699999D02*
X131300001Y-67699999D01*
X131900000Y-69099998D02*
X131900000Y-88500000D01*
X103500000Y-88099999D02*
X103500000Y-69099999D01*
X130500001Y-89099999D02*
X104500000Y-89099999D01*
X131500000Y-69499998D02*
X131500000Y-88100000D01*
X104900000Y-68499999D02*
X130500001Y-68499999D01*
X103900000Y-87699999D02*
X103900000Y-69499999D01*
X130100001Y-88699999D02*
X104900000Y-88699999D01*
X130900001Y-41200000D02*
X104100000Y-41200000D01*
X104300000Y-87299999D02*
X104300000Y-69899999D01*
X129700001Y-88299999D02*
X105300000Y-88299999D01*
X130700000Y-70299998D02*
X130700000Y-87300000D01*
X105700000Y-69299999D02*
X129700001Y-69299999D01*
X104700000Y-86899999D02*
X104700000Y-70299999D01*
X106100000Y-69699999D02*
X129300001Y-69699999D01*
X105100000Y-86499999D02*
X105100000Y-70699999D01*
X106500000Y-70099999D02*
X128900001Y-70099999D01*
X128500001Y-87099999D02*
X106500000Y-87099999D01*
X106900000Y-70499999D02*
X128500001Y-70499999D01*
X131700001Y-40400000D02*
X103300000Y-40400000D01*
X105900000Y-85699999D02*
X105900000Y-71499999D01*
X111100001Y-50199998D02*
X111100001Y-53600001D01*
X129100000Y-71899998D02*
X129100000Y-85700000D01*
X130300000Y-70699998D02*
X130300000Y-86900000D01*
X129300001Y-87899999D02*
X105700000Y-87899999D01*
X107300000Y-70899999D02*
X128100001Y-70899999D01*
X106300000Y-85299999D02*
X106300000Y-71899999D01*
X127700001Y-86299999D02*
X107300000Y-86299999D01*
X106700000Y-84899999D02*
X106700000Y-72299999D01*
X128300000Y-72699998D02*
X128300000Y-84900000D01*
X107100000Y-84499999D02*
X107100000Y-72699999D01*
X126900001Y-85499999D02*
X108100000Y-85499999D01*
X104500000Y-68099999D02*
X130900001Y-68099999D01*
X107500000Y-84099999D02*
X107500000Y-73099999D01*
X107900000Y-83699999D02*
X107900000Y-73499999D01*
X109300000Y-72899999D02*
X126100002Y-72899999D01*
X125700001Y-84299999D02*
X109300000Y-84299999D01*
X108700000Y-82899999D02*
X108700000Y-74299999D01*
X126300000Y-74699998D02*
X126300000Y-82900001D01*
X110100000Y-73699999D02*
X125300002Y-73699999D01*
X109100000Y-82499999D02*
X109100000Y-74699999D01*
X125900000Y-75099998D02*
X125900000Y-82500001D01*
X110500000Y-74099999D02*
X124900002Y-74099999D01*
X127900000Y-73099998D02*
X127900000Y-84500001D01*
X124500001Y-83099999D02*
X110500000Y-83099999D01*
X126500001Y-85099999D02*
X108500000Y-85099999D01*
X125500000Y-75499998D02*
X125500000Y-82100001D01*
X111500001Y-50600000D02*
X111500001Y-53200000D01*
X110900000Y-74499999D02*
X124500002Y-74499999D01*
X109900000Y-81699999D02*
X109900000Y-75499999D01*
X125100000Y-75899998D02*
X125100000Y-81700001D01*
X111300000Y-74899999D02*
X124100002Y-74899999D01*
X110300000Y-81299999D02*
X110300000Y-75899999D01*
X104900000Y-61800000D02*
X129700001Y-61800000D01*
X111700000Y-75299999D02*
X123700002Y-75299999D01*
X123300001Y-81899999D02*
X111700000Y-81899999D01*
X123700001Y-82299999D02*
X111300000Y-82299999D01*
X112100000Y-75699999D02*
X123300002Y-75699999D01*
X103300000Y-63400000D02*
X131300001Y-63400000D01*
X111100000Y-80499999D02*
X111100000Y-76699999D01*
X122900001Y-49200000D02*
X112100000Y-49200000D01*
X112500000Y-76099999D02*
X122900002Y-76099999D01*
X123500000Y-77499999D02*
X123500000Y-80099999D01*
X122900001Y-81499999D02*
X112100000Y-81499999D01*
X132100001Y-40000000D02*
X102900000Y-40000000D01*
X108499999Y-58200000D02*
X126100001Y-58200000D01*
X112900000Y-76499999D02*
X122500000Y-76499999D01*
X115900001Y-80699999D02*
X112900000Y-80699999D01*
X124100001Y-82699999D02*
X110900000Y-82699999D01*
X123100001Y-51000000D02*
G75*
G03*
X122100001Y-49999999I-1000001J0D01*
G01*
X109700000Y-73299999D02*
X125700002Y-73299999D01*
X122100001Y-54200000D02*
G75*
G03*
X123100000Y-53200000I-1J1000000D01*
G01*
X111500001Y-53200000D02*
G75*
G03*
X112500001Y-54199999I999999J0D01*
G01*
X123500001Y-50600000D02*
G75*
G03*
X122500001Y-49599999I-1000001J0D01*
G01*
X111100001Y-53600001D02*
G75*
G03*
X112099999Y-54599999I999999J1D01*
G01*
X112100000Y-49200000D02*
G75*
G03*
X111100000Y-50199998I0J-1000000D01*
G01*
X123900001Y-50200000D02*
G75*
G03*
X122900001Y-49199999I-1000001J0D01*
G01*
X122900001Y-55000000D02*
G75*
G03*
X123900000Y-54000000I-1J1000000D01*
G01*
X110700001Y-54000001D02*
G75*
G03*
X111699999Y-54999999I999999J1D01*
G01*
X111700000Y-48800000D02*
G75*
G03*
X110700000Y-49799998I0J-1000000D01*
G01*
X124300001Y-49800000D02*
G75*
G03*
X123300001Y-48799999I-1000001J0D01*
G01*
X106500000Y-60200000D02*
X128100001Y-60200000D01*
X123300001Y-55400000D02*
G75*
G03*
X124300000Y-54400000I-1J1000000D01*
G01*
X110300001Y-54400001D02*
G75*
G03*
X111299999Y-55399999I999999J1D01*
G01*
X108300000Y-83299999D02*
X108300000Y-73899999D01*
X111300000Y-48400000D02*
G75*
G03*
X110300000Y-49399998I0J-1000000D01*
G01*
X124700001Y-49400000D02*
G75*
G03*
X123700001Y-48399999I-1000001J0D01*
G01*
X123700001Y-55800000D02*
G75*
G03*
X124700000Y-54800000I-1J1000000D01*
G01*
X109900001Y-54800001D02*
G75*
G03*
X110899999Y-55799999I999999J1D01*
G01*
X125100001Y-49000000D02*
G75*
G03*
X124100001Y-47999999I-1000001J0D01*
G01*
X124100001Y-56200000D02*
G75*
G03*
X125100000Y-55200000I-1J1000000D01*
G01*
X109500001Y-55200001D02*
G75*
G03*
X110499999Y-56199999I999999J1D01*
G01*
X110500000Y-47600000D02*
G75*
G03*
X109500000Y-48599998I0J-1000000D01*
G01*
X127100000Y-73899998D02*
X127100000Y-83700001D01*
X125500001Y-48600000D02*
G75*
G03*
X124500001Y-47599999I-1000001J0D01*
G01*
X131100000Y-69899998D02*
X131100000Y-87700000D01*
X130100001Y-42000000D02*
X104900000Y-42000000D01*
X109100001Y-55600001D02*
G75*
G03*
X110099999Y-56599999I999999J1D01*
G01*
X107300000Y-59400000D02*
X127300001Y-59400000D01*
X125900001Y-48200000D02*
G75*
G03*
X124900001Y-47199999I-1000001J0D01*
G01*
X124900001Y-57000000D02*
G75*
G03*
X125900000Y-56000000I-1J1000000D01*
G01*
X125900001Y-56000000D02*
X125900001Y-48200000D01*
X108700001Y-56000001D02*
G75*
G03*
X109699999Y-56999999I999999J1D01*
G01*
X109700000Y-46800000D02*
G75*
G03*
X108700000Y-47799998I0J-1000000D01*
G01*
X126300001Y-47800000D02*
G75*
G03*
X125300001Y-46799999I-1000001J0D01*
G01*
X108300001Y-56400001D02*
G75*
G03*
X109299999Y-57399999I999999J1D01*
G01*
X109300000Y-46400000D02*
G75*
G03*
X108300000Y-47399998I0J-1000000D01*
G01*
X127500001Y-57600000D02*
X127500001Y-46600000D01*
X126700001Y-47400000D02*
G75*
G03*
X125700001Y-46399999I-1000001J0D01*
G01*
X126900001Y-45200000D02*
X108100000Y-45200000D01*
X125700001Y-57800000D02*
G75*
G03*
X126700000Y-56800000I-1J1000000D01*
G01*
X108900000Y-46000000D02*
G75*
G03*
X107900000Y-46999998I0J-1000000D01*
G01*
X127100001Y-47000000D02*
G75*
G03*
X126100001Y-45999999I-1000001J0D01*
G01*
X107500001Y-57200001D02*
G75*
G03*
X108499999Y-58199999I999999J1D01*
G01*
X126300001Y-56400000D02*
X126300001Y-47800000D01*
X108500000Y-45600000D02*
G75*
G03*
X107500000Y-46599998I0J-1000000D01*
G01*
X127500001Y-46600000D02*
G75*
G03*
X126500001Y-45599999I-1000001J0D01*
G01*
X128900001Y-87499999D02*
X106100000Y-87499999D01*
X127100001Y-57200000D02*
X127100001Y-47000000D01*
X126500001Y-58600000D02*
G75*
G03*
X127500000Y-57600000I-1J1000000D01*
G01*
X107100001Y-57600001D02*
G75*
G03*
X108099999Y-58599999I999999J1D01*
G01*
X126100001Y-84699999D02*
X108900000Y-84699999D01*
X108100000Y-45200000D02*
G75*
G03*
X107100000Y-46199998I0J-1000000D01*
G01*
X127900001Y-46200000D02*
G75*
G03*
X126900001Y-45199999I-1000001J0D01*
G01*
X126900001Y-59000000D02*
G75*
G03*
X127900000Y-58000000I-1J1000000D01*
G01*
X105300000Y-68899999D02*
X130100001Y-68899999D01*
X106700001Y-58000001D02*
G75*
G03*
X107700000Y-58999999I999999J1D01*
G01*
X130900001Y-89499999D02*
X104100000Y-89499999D01*
X128300001Y-45800000D02*
G75*
G03*
X127300001Y-44799999I-1000001J0D01*
G01*
X127300001Y-59400000D02*
G75*
G03*
X128300000Y-58400000I-1J1000000D01*
G01*
X106300001Y-58400001D02*
G75*
G03*
X107300000Y-59399999I999999J1D01*
G01*
X107300000Y-44400000D02*
G75*
G03*
X106300000Y-45399999I0J-1000000D01*
G01*
X110899999Y-55800000D02*
X123700001Y-55800000D01*
X112099999Y-54600000D02*
X122500001Y-54600000D01*
X128700001Y-45400000D02*
G75*
G03*
X127700001Y-44399999I-1000001J0D01*
G01*
X108500000Y-72099999D02*
X126900002Y-72099999D01*
X129900001Y-60000000D02*
X129900001Y-44200000D01*
X127700001Y-59800000D02*
G75*
G03*
X128700000Y-58800000I-1J1000000D01*
G01*
X111500000Y-80099999D02*
X111500000Y-77099999D01*
X103100001Y-42199999D02*
X103100001Y-61600001D01*
X105900001Y-58800001D02*
G75*
G03*
X106900000Y-59799999I999999J1D01*
G01*
X106900000Y-44000000D02*
G75*
G03*
X105900000Y-44999999I0J-1000000D01*
G01*
X129100001Y-45000000D02*
G75*
G03*
X128100001Y-43999999I-1000001J0D01*
G01*
X128100001Y-60200000D02*
G75*
G03*
X129100000Y-59200000I-1J1000000D01*
G01*
X129100001Y-59200000D02*
X129100001Y-45000000D01*
X106500000Y-43600000D02*
G75*
G03*
X105500000Y-44599999I0J-1000000D01*
G01*
X105100001Y-59600001D02*
G75*
G03*
X106100000Y-60599999I999999J1D01*
G01*
X129700001Y-42400000D02*
X105300000Y-42400000D01*
X106100000Y-43200000D02*
G75*
G03*
X105100000Y-44199999I0J-1000000D01*
G01*
X129900001Y-44200000D02*
G75*
G03*
X128900001Y-43199999I-1000001J0D01*
G01*
X128900001Y-61000000D02*
G75*
G03*
X129900000Y-60000000I-1J1000000D01*
G01*
X104700001Y-60000001D02*
G75*
G03*
X105700000Y-60999999I999999J1D01*
G01*
X130300001Y-43800000D02*
G75*
G03*
X129300001Y-42799999I-1000001J0D01*
G01*
X129300001Y-61400000D02*
G75*
G03*
X130300000Y-60400000I-1J1000000D01*
G01*
X105300000Y-42400000D02*
G75*
G03*
X104300000Y-43399999I0J-1000000D01*
G01*
X129700001Y-61800000D02*
G75*
G03*
X130700000Y-60800000I-1J1000000D01*
G01*
X103900001Y-60800001D02*
G75*
G03*
X104900000Y-61799999I999999J1D01*
G01*
X104900000Y-42000000D02*
G75*
G03*
X103900000Y-42999999I0J-1000000D01*
G01*
X110700000Y-80899999D02*
X110700000Y-76299999D01*
X109699999Y-57000000D02*
X124900001Y-57000000D01*
X131100001Y-43000000D02*
G75*
G03*
X130100001Y-41999999I-1000001J0D01*
G01*
X110700001Y-49799998D02*
X110700001Y-54000001D01*
X130100001Y-62200000D02*
G75*
G03*
X131100000Y-61200000I-1J1000000D01*
G01*
X103500001Y-61200001D02*
G75*
G03*
X104500000Y-62199999I999999J1D01*
G01*
X111900000Y-79699999D02*
X111900000Y-77499999D01*
X104500000Y-41600000D02*
G75*
G03*
X103500000Y-42599999I0J-1000000D01*
G01*
X131500001Y-42600000D02*
G75*
G03*
X130500001Y-41599999I-1000001J0D01*
G01*
X128100001Y-44000000D02*
X106900000Y-44000000D01*
X130500001Y-62600000D02*
G75*
G03*
X131500000Y-61600000I-1J1000000D01*
G01*
X103100001Y-61600001D02*
G75*
G03*
X104100000Y-62599999I999999J1D01*
G01*
X104100000Y-41200000D02*
G75*
G03*
X103100000Y-42199999I0J-1000000D01*
G01*
X131900001Y-42200000D02*
G75*
G03*
X130900001Y-41199999I-1000001J0D01*
G01*
X130900001Y-63000000D02*
G75*
G03*
X131900000Y-62000000I-1J1000000D01*
G01*
X102700001Y-62000001D02*
G75*
G03*
X103700000Y-62999999I999999J1D01*
G01*
X103700000Y-40800000D02*
G75*
G03*
X102700000Y-41799999I0J-1000000D01*
G01*
X132300001Y-41800000D02*
G75*
G03*
X131300001Y-40799999I-1000001J0D01*
G01*
X133100000Y-67899998D02*
X133100000Y-89700000D01*
X131300001Y-63400000D02*
G75*
G03*
X132300000Y-62400000I-1J1000000D01*
G01*
X102300001Y-62400001D02*
G75*
G03*
X103300000Y-63399999I999999J1D01*
G01*
X103300000Y-40400000D02*
G75*
G03*
X102300000Y-41399999I0J-1000000D01*
G01*
X131700001Y-63800000D02*
G75*
G03*
X132700000Y-62800000I-1J1000000D01*
G01*
X101900001Y-62800001D02*
G75*
G03*
X102900000Y-63799999I999999J1D01*
G01*
X102900000Y-40000000D02*
G75*
G03*
X101900000Y-40999999I0J-1000000D01*
G01*
X106900000Y-59800000D02*
X127700001Y-59800000D01*
X133100001Y-41000000D02*
G75*
G03*
X132100001Y-39999999I-1000001J0D01*
G01*
X112500000Y-49600000D02*
G75*
G03*
X111500000Y-50600000I0J-1000000D01*
G01*
X132100001Y-64200000D02*
G75*
G03*
X133100000Y-63200000I-1J1000000D01*
G01*
X101900000Y-67499999D02*
G75*
G02*
X102900000Y-66500000I1000000J-1D01*
G01*
X122500001Y-54600000D02*
G75*
G03*
X123500000Y-53600000I-1J1000000D01*
G01*
X102900000Y-90699999D02*
G75*
G02*
X101900001Y-89699999I0J999999D01*
G01*
X108900000Y-72499999D02*
X126500002Y-72499999D01*
X133100000Y-89700000D02*
G75*
G02*
X132100001Y-90700000I-1000000J0D01*
G01*
X107700000Y-44800000D02*
G75*
G03*
X106700000Y-45799999I0J-1000000D01*
G01*
X132100001Y-66899999D02*
G75*
G02*
X133100001Y-67899998I-1J-1000001D01*
G01*
X102300000Y-67899999D02*
G75*
G02*
X103300000Y-66900000I1000000J-1D01*
G01*
X132700000Y-89300000D02*
G75*
G02*
X131700001Y-90300000I-1000000J0D01*
G01*
X131700001Y-67299999D02*
G75*
G02*
X132700001Y-68299998I-1J-1000001D01*
G01*
X127500000Y-73499998D02*
X127500000Y-84100001D01*
X102700000Y-68299999D02*
G75*
G02*
X103700000Y-67300000I1000000J-1D01*
G01*
X103700000Y-89899999D02*
G75*
G02*
X102700001Y-88899999I0J999999D01*
G01*
X132300000Y-88900000D02*
G75*
G02*
X131300001Y-89900000I-1000000J0D01*
G01*
X105700000Y-42800000D02*
G75*
G03*
X104700000Y-43799999I0J-1000000D01*
G01*
X117400001Y-66499999D02*
X117400002Y-66500000D01*
X131300001Y-67699999D02*
G75*
G02*
X132300001Y-68699998I-1J-1000001D01*
G01*
X101900001Y-40999999D02*
X101900001Y-62800001D01*
X103100000Y-68699999D02*
G75*
G02*
X104100000Y-67700000I1000000J-1D01*
G01*
X104100000Y-89499999D02*
G75*
G02*
X103100001Y-88499999I0J999999D01*
G01*
X131900001Y-62000000D02*
X131900001Y-42200000D01*
X124100001Y-48000000D02*
X110900000Y-48000000D01*
X131900000Y-88500000D02*
G75*
G02*
X130900001Y-89500000I-1000000J0D01*
G01*
X107900001Y-56800001D02*
G75*
G03*
X108899999Y-57799999I999999J1D01*
G01*
X109500000Y-82099999D02*
X109500000Y-75099999D01*
X132300001Y-62400000D02*
X132300001Y-41800000D01*
X104500000Y-89099999D02*
G75*
G02*
X103500001Y-88099999I0J999999D01*
G01*
X131500000Y-88100000D02*
G75*
G02*
X130500001Y-89100000I-1000000J0D01*
G01*
X130500001Y-68499999D02*
G75*
G02*
X131500001Y-69499998I-1J-1000001D01*
G01*
X131100000Y-87700000D02*
G75*
G02*
X130100001Y-88700000I-1000000J0D01*
G01*
X130100001Y-68899999D02*
G75*
G02*
X131100001Y-69899998I-1J-1000001D01*
G01*
X104300000Y-69899999D02*
G75*
G02*
X105300000Y-68900000I1000000J-1D01*
G01*
X129500001Y-44600000D02*
G75*
G03*
X128500001Y-43599999I-1000001J0D01*
G01*
X116500000Y-80100000D02*
X115900001Y-80699999D01*
X105300000Y-88299999D02*
G75*
G02*
X104300001Y-87299999I0J999999D01*
G01*
X130700000Y-87300000D02*
G75*
G02*
X129700001Y-88300000I-1000000J0D01*
G01*
X129700001Y-69299999D02*
G75*
G02*
X130700001Y-70299998I-1J-1000001D01*
G01*
X105500001Y-59200001D02*
G75*
G03*
X106500000Y-60199999I999999J1D01*
G01*
X104700000Y-70299999D02*
G75*
G02*
X105700000Y-69300000I1000000J-1D01*
G01*
X105700000Y-87899999D02*
G75*
G02*
X104700001Y-86899999I0J999999D01*
G01*
X130300000Y-86900000D02*
G75*
G02*
X129300001Y-87900000I-1000000J0D01*
G01*
X129900000Y-71099998D02*
X129900000Y-86500000D01*
X129300001Y-69699999D02*
G75*
G02*
X130300001Y-70699998I-1J-1000001D01*
G01*
X123900000Y-77099998D02*
X123900000Y-80500001D01*
X105100000Y-70699999D02*
G75*
G02*
X106100000Y-69700000I1000000J-1D01*
G01*
X130700001Y-43400000D02*
G75*
G03*
X129700001Y-42399999I-1000001J0D01*
G01*
X106100000Y-87499999D02*
G75*
G02*
X105100001Y-86499999I0J999999D01*
G01*
X129900000Y-86500000D02*
G75*
G02*
X128900001Y-87500000I-1000000J0D01*
G01*
X128900001Y-70099999D02*
G75*
G02*
X129900001Y-71099998I-1J-1000001D01*
G01*
X105500000Y-71099999D02*
G75*
G02*
X106500000Y-70100000I1000000J-1D01*
G01*
X128100001Y-86699999D02*
X106900000Y-86699999D01*
X106500000Y-87099999D02*
G75*
G02*
X105500001Y-86099999I0J999999D01*
G01*
X117600000Y-50000000D02*
X117000000Y-50600000D01*
X105900000Y-71499999D02*
G75*
G02*
X106900000Y-70500000I1000000J-1D01*
G01*
X124700000Y-76299998D02*
X124700000Y-81300001D01*
X108100000Y-71699999D02*
X127300001Y-71699999D01*
X129100000Y-85700000D02*
G75*
G02*
X128100001Y-86700000I-1000000J0D01*
G01*
X106300000Y-71899999D02*
G75*
G02*
X107300000Y-70900000I1000000J-1D01*
G01*
X106700000Y-72299999D02*
G75*
G02*
X107700000Y-71300000I1000000J-1D01*
G01*
X128300000Y-84900000D02*
G75*
G02*
X127300001Y-85900000I-1000000J0D01*
G01*
X108100000Y-85499999D02*
G75*
G02*
X107100001Y-84499999I0J999999D01*
G01*
X124500001Y-56600000D02*
G75*
G03*
X125500000Y-55600000I-1J1000000D01*
G01*
X111699999Y-55000000D02*
X122900001Y-55000000D01*
X127900000Y-84500001D02*
G75*
G02*
X126900001Y-85500000I-1000000J1D01*
G01*
X126900002Y-72099999D02*
G75*
G02*
X127900001Y-73099998I-2J-1000001D01*
G01*
X124300000Y-76699998D02*
X124300000Y-80900001D01*
X107500000Y-73099999D02*
G75*
G02*
X108500000Y-72100000I1000000J-1D01*
G01*
X125300001Y-57400000D02*
G75*
G03*
X126300000Y-56400000I-1J1000000D01*
G01*
X132700001Y-62800000D02*
X132700001Y-41400000D01*
X112500001Y-54200000D02*
X122100001Y-54200000D01*
X108500000Y-85099999D02*
G75*
G02*
X107500001Y-84099999I0J999999D01*
G01*
X127500000Y-84100001D02*
G75*
G02*
X126500001Y-85100000I-1000000J1D01*
G01*
X107900000Y-73499999D02*
G75*
G02*
X108900000Y-72500000I1000000J-1D01*
G01*
X124900001Y-83499999D02*
X110100000Y-83499999D01*
X127300001Y-85899999D02*
X107700000Y-85899999D01*
X129500000Y-71499998D02*
X129500000Y-86100000D01*
X108900000Y-84699999D02*
G75*
G02*
X107900001Y-83699999I0J999999D01*
G01*
X108300000Y-73899999D02*
G75*
G02*
X109300000Y-72900000I1000000J-1D01*
G01*
X126500002Y-72499999D02*
G75*
G02*
X127500001Y-73499998I-2J-1000001D01*
G01*
X126700000Y-83300001D02*
G75*
G02*
X125700001Y-84300000I-1000000J1D01*
G01*
X103300000Y-66899999D02*
X132100001Y-66899999D01*
X124900001Y-47200000D02*
X110100000Y-47200000D01*
X108700000Y-74299999D02*
G75*
G02*
X109700000Y-73300000I1000000J-1D01*
G01*
X104900000Y-88699999D02*
G75*
G02*
X103900001Y-87699999I0J999999D01*
G01*
X108700001Y-47799998D02*
X108700001Y-56000001D01*
X109700000Y-83899999D02*
G75*
G02*
X108700001Y-82899999I0J999999D01*
G01*
X125700002Y-73299999D02*
G75*
G02*
X126700001Y-74299998I-2J-1000001D01*
G01*
X126300000Y-82900001D02*
G75*
G02*
X125300001Y-83900000I-1000000J1D01*
G01*
X125300002Y-73699999D02*
G75*
G02*
X126300001Y-74699998I-2J-1000001D01*
G01*
X109100000Y-74699999D02*
G75*
G02*
X110100000Y-73700000I1000000J-1D01*
G01*
X125900000Y-82500001D02*
G75*
G02*
X124900001Y-83500000I-1000000J1D01*
G01*
X124900002Y-74099999D02*
G75*
G02*
X125900001Y-75099998I-2J-1000001D01*
G01*
X109500000Y-75099999D02*
G75*
G02*
X110500000Y-74100000I1000000J-1D01*
G01*
X130900001Y-68099999D02*
G75*
G02*
X131900001Y-69099998I-1J-1000001D01*
G01*
X126700000Y-74299998D02*
X126700000Y-83300001D01*
X110500000Y-83099999D02*
G75*
G02*
X109500001Y-82099999I0J999999D01*
G01*
X125500000Y-82100001D02*
G75*
G02*
X124500001Y-83100000I-1000000J1D01*
G01*
X124500002Y-74499999D02*
G75*
G02*
X125500001Y-75499998I-2J-1000001D01*
G01*
X109900000Y-75499999D02*
G75*
G02*
X110900000Y-74500000I1000000J-1D01*
G01*
X110900000Y-48000000D02*
G75*
G03*
X109900000Y-48999998I0J-1000000D01*
G01*
X128700000Y-72299998D02*
X128700000Y-85300000D01*
X105500000Y-86099999D02*
X105500000Y-71099999D01*
X128500001Y-70499999D02*
G75*
G02*
X129500001Y-71499998I-1J-1000001D01*
G01*
X110900000Y-82699999D02*
G75*
G02*
X109900001Y-81699999I0J999999D01*
G01*
X129500001Y-59600000D02*
X129500001Y-44600000D01*
X126100002Y-72899999D02*
G75*
G02*
X127100001Y-73899998I-2J-1000001D01*
G01*
X107100000Y-72699999D02*
G75*
G02*
X108100000Y-71700000I1000000J-1D01*
G01*
X125100000Y-81700001D02*
G75*
G02*
X124100001Y-82700000I-1000000J1D01*
G01*
X102900000Y-63800000D02*
X131700001Y-63800000D01*
X124100002Y-74899999D02*
G75*
G02*
X125100001Y-75899998I-2J-1000001D01*
G01*
X110100000Y-47200000D02*
G75*
G03*
X109100000Y-48199998I0J-1000000D01*
G01*
X110300000Y-75899999D02*
G75*
G02*
X111300000Y-74900000I1000000J-1D01*
G01*
X104300001Y-60400001D02*
G75*
G03*
X105300000Y-61399999I999999J1D01*
G01*
X128100001Y-70899999D02*
G75*
G02*
X129100001Y-71899998I-1J-1000001D01*
G01*
X103900000Y-69499999D02*
G75*
G02*
X104900000Y-68500000I1000000J-1D01*
G01*
X127700001Y-44400000D02*
X107300000Y-44400000D01*
X111300000Y-82299999D02*
G75*
G02*
X110300001Y-81299999I0J999999D01*
G01*
X132700001Y-41400000D02*
G75*
G03*
X131700001Y-40399999I-1000001J0D01*
G01*
X104500000Y-62200000D02*
X130100001Y-62200000D01*
X110100000Y-83499999D02*
G75*
G02*
X109100001Y-82499999I0J999999D01*
G01*
X123700002Y-75299999D02*
G75*
G02*
X124700001Y-76299998I-2J-1000001D01*
G01*
X110700000Y-76299999D02*
G75*
G02*
X111700000Y-75300000I1000000J-1D01*
G01*
X128500001Y-60600000D02*
G75*
G03*
X129500000Y-59600000I-1J1000000D01*
G01*
X122100001Y-50000000D02*
X117600000Y-50000000D01*
X124700000Y-81300001D02*
G75*
G02*
X123700001Y-82300000I-1000000J1D01*
G01*
X122500001Y-81099999D02*
X112500000Y-81099999D01*
X107700000Y-71299999D02*
X127700001Y-71299999D01*
X111700000Y-81899999D02*
G75*
G02*
X110700001Y-80899999I0J999999D01*
G01*
X103500000Y-69099999D02*
G75*
G02*
X104500000Y-68100000I1000000J-1D01*
G01*
X123300002Y-75699999D02*
G75*
G02*
X124300001Y-76699998I-2J-1000001D01*
G01*
X111100000Y-76699999D02*
G75*
G02*
X112100000Y-75700000I1000000J-1D01*
G01*
X125300001Y-83899999D02*
X109700000Y-83899999D01*
X101900000Y-89699999D02*
X101900000Y-67499999D01*
X110499999Y-56200000D02*
X124100001Y-56200000D01*
X109300000Y-84299999D02*
G75*
G02*
X108300001Y-83299999I0J999999D01*
G01*
X122900002Y-76099999D02*
G75*
G02*
X123900001Y-77099998I-2J-1000001D01*
G01*
X125700001Y-46400000D02*
X109300000Y-46400000D01*
X112100000Y-81499999D02*
G75*
G02*
X111100001Y-80499999I0J999999D01*
G01*
X112500000Y-81099999D02*
G75*
G02*
X111500001Y-80099999I0J999999D01*
G01*
X131500001Y-61600000D02*
X131500001Y-42600000D01*
X105900001Y-44999999D02*
X105900001Y-58800001D01*
X127100000Y-83700001D02*
G75*
G02*
X126100001Y-84700000I-1000000J1D01*
G01*
X129500000Y-86100000D02*
G75*
G02*
X128500001Y-87100000I-1000000J0D01*
G01*
X123500000Y-80099999D02*
G75*
G02*
X122500001Y-81100000I-1000000J-1D01*
G01*
X122500000Y-76499999D02*
G75*
G02*
X123500001Y-77499999I0J-1000001D01*
G01*
X127300001Y-71699999D02*
G75*
G02*
X128300001Y-72699998I-1J-1000001D01*
G01*
X111900000Y-77499999D02*
G75*
G02*
X112900000Y-76500000I1000000J-1D01*
G01*
X103300000Y-90299999D02*
G75*
G02*
X102300001Y-89299999I0J999999D01*
G01*
X107700000Y-85899999D02*
G75*
G02*
X106700001Y-84899999I0J999999D01*
G01*
X103100000Y-88499999D02*
X103100000Y-68699999D01*
X123900000Y-80500001D02*
G75*
G02*
X122900001Y-81500000I-1000000J1D01*
G01*
X105300000Y-61400000D02*
X129300001Y-61400000D01*
X124300000Y-80900001D02*
G75*
G02*
X123300001Y-81900000I-1000000J1D01*
G01*
X106300001Y-45399999D02*
X106300001Y-58400001D01*
X123900001Y-54000000D02*
X123900001Y-50200000D01*
X107300000Y-86299999D02*
G75*
G02*
X106300001Y-85299999I0J999999D01*
G01*
X106900000Y-86699999D02*
G75*
G02*
X105900001Y-85699999I0J999999D01*
G01*
X112900000Y-80699999D02*
G75*
G02*
X111900001Y-79699999I0J999999D01*
G01*
X126100001Y-58200000D02*
G75*
G03*
X127100000Y-57200000I-1J1000000D01*
G01*
X127700001Y-71299999D02*
G75*
G02*
X128700001Y-72299998I-1J-1000001D01*
G01*
X128700000Y-85300000D02*
G75*
G02*
X127700001Y-86300000I-1000000J0D01*
G01*
X111500000Y-77099999D02*
G75*
G02*
X112500000Y-76100000I1000000J-1D01*
G01*
%TD*%
%TA.AperFunction,Conductor*%
%TO.N,/primary*%
G36*
X101543039Y-64719685D02*
G01*
X101588794Y-64772489D01*
X101600000Y-64824000D01*
X101600000Y-68176000D01*
X101580315Y-68243039D01*
X101527511Y-68288794D01*
X101476000Y-68300000D01*
X98124000Y-68300000D01*
X98056961Y-68280315D01*
X98011206Y-68227511D01*
X98000000Y-68176000D01*
X98000000Y-64824000D01*
X98019685Y-64756961D01*
X98072489Y-64711206D01*
X98124000Y-64700000D01*
X101476000Y-64700000D01*
X101543039Y-64719685D01*
G37*
%TD.AperFunction*%
%TD*%
%TA.AperFunction,Conductor*%
%TO.N,/primary*%
G36*
X101543039Y-37819685D02*
G01*
X101588794Y-37872489D01*
X101600000Y-37924000D01*
X101600000Y-41276000D01*
X101580315Y-41343039D01*
X101527511Y-41388794D01*
X101476000Y-41400000D01*
X98124000Y-41400000D01*
X98056961Y-41380315D01*
X98011206Y-41327511D01*
X98000000Y-41276000D01*
X98000000Y-37924000D01*
X98019685Y-37856961D01*
X98072489Y-37811206D01*
X98124000Y-37800000D01*
X101476000Y-37800000D01*
X101543039Y-37819685D01*
G37*
%TD.AperFunction*%
%TD*%
M02*
