M48
; DRILL file {KiCad 9.0.2} date 2025-07-05T11:30:27+0530
; FORMAT={-:-/ absolute / metric / decimal}
; #@! TF.CreationDate,2025-07-05T11:30:27+05:30
; #@! TF.GenerationSoftware,Kicad,Pcbnew,9.0.2
; #@! TF.FileFunction,Plated,1,6,PTH
FMAT,2
METRIC
; #@! TA.AperFunction,Plated,PTH,ViaDrill
T1C0.300
; #@! TA.AperFunction,Plated,PTH,ComponentDrill
T2C1.000
%
G90
G05
T1
X98.7Y-38.35
X98.7Y-40.85
X98.7Y-65.25
X98.7Y-67.75
X99.45Y-38.35
X99.45Y-40.85
X99.45Y-65.25
X99.45Y-67.75
X100.2Y-38.35
X100.2Y-40.85
X100.2Y-65.25
X100.2Y-67.75
X100.95Y-38.35
X100.95Y-40.85
X100.95Y-65.25
X100.95Y-67.75
X116.5Y-80.1
X117.0Y-50.6
X117.0Y-65.9
X117.5Y-64.8
X117.5Y-80.1
X118.0Y-50.6
X118.0Y-65.9
X118.5Y-80.1
X125.8Y-36.2
X125.8Y-36.95
X125.8Y-37.7
X125.8Y-38.45
X126.55Y-36.2
X126.55Y-36.95
X126.55Y-37.7
X126.55Y-38.45
X127.3Y-36.2
X127.3Y-36.95
X127.3Y-37.7
X127.3Y-38.45
X128.05Y-36.2
X128.05Y-36.95
X128.05Y-37.7
X128.05Y-38.45
X128.85Y-36.2
X128.85Y-36.95
X128.85Y-37.7
X128.85Y-38.45
X129.6Y-36.2
X129.6Y-36.95
X129.6Y-37.7
X129.6Y-38.45
X130.35Y-36.2
X130.35Y-36.95
X130.35Y-37.7
X130.35Y-38.45
X131.1Y-36.2
X131.1Y-36.95
X131.1Y-37.7
X131.1Y-38.45
X134.45Y-41.25
X134.45Y-42.0
X134.45Y-42.75
X134.45Y-45.25
X134.45Y-46.0
X134.45Y-46.75
X134.45Y-51.1
X134.45Y-51.85
X134.45Y-52.6
X134.45Y-53.35
X134.45Y-54.15
X134.45Y-54.9
X134.45Y-55.65
X134.45Y-56.4
X135.2Y-41.25
X135.2Y-42.0
X135.2Y-42.75
X135.2Y-45.25
X135.2Y-46.0
X135.2Y-46.75
X135.2Y-51.1
X135.2Y-51.85
X135.2Y-52.6
X135.2Y-53.35
X135.2Y-54.15
X135.2Y-54.9
X135.2Y-55.65
X135.2Y-56.4
X135.95Y-41.25
X135.95Y-42.0
X135.95Y-42.75
X135.95Y-45.25
X135.95Y-46.0
X135.95Y-46.75
X135.95Y-51.1
X135.95Y-51.85
X135.95Y-52.6
X135.95Y-53.35
X135.95Y-54.15
X135.95Y-54.9
X135.95Y-55.65
X135.95Y-56.4
X136.7Y-41.25
X136.7Y-42.0
X136.7Y-42.75
X136.7Y-45.25
X136.7Y-46.0
X136.7Y-46.75
X136.7Y-51.1
X136.7Y-51.85
X136.7Y-52.6
X136.7Y-53.35
X136.7Y-54.15
X136.7Y-54.9
X136.7Y-55.65
X136.7Y-56.4
T2
X99.8Y-39.6
X99.8Y-66.5
X124.8Y-37.2
X128.4Y-37.2
X132.0Y-37.2
X135.7Y-40.4
X135.7Y-44.0
X135.7Y-47.6
M30
