%TF.GenerationSoftware,KiCad,Pcbnew,9.0.2*%
%TF.CreationDate,2025-07-05T11:30:25+05:30*%
%TF.ProjectId,Active Flyback converter,41637469-7665-4204-966c-796261636b20,1.1*%
%TF.SameCoordinates,Original*%
%TF.FileFunction,Legend,Bot*%
%TF.FilePolarity,Positive*%
%FSLAX46Y46*%
G04 Gerber Fmt 4.6, Leading zero omitted, Abs format (unit mm)*
G04 Created by KiCad (PCBNEW 9.0.2) date 2025-07-05 11:30:25*
%MOMM*%
%LPD*%
G01*
G04 APERTURE LIST*
%ADD10C,0.120000*%
G04 APERTURE END LIST*
D10*
%TO.C,J8*%
X123420000Y-38580000D02*
X124800000Y-38580000D01*
X123420000Y-37200000D02*
X123420000Y-38580000D01*
X123420000Y-35930000D02*
X123420000Y-35820000D01*
X123420000Y-35930000D02*
X126180000Y-35930000D01*
X123420000Y-35820000D02*
X126180000Y-35820000D01*
X126180000Y-35930000D02*
X126180000Y-35820000D01*
%TO.C,J6*%
X130620000Y-38580000D02*
X132000000Y-38580000D01*
X130620000Y-37200000D02*
X130620000Y-38580000D01*
X130620000Y-35930000D02*
X130620000Y-35820000D01*
X130620000Y-35930000D02*
X133380000Y-35930000D01*
X130620000Y-35820000D02*
X133380000Y-35820000D01*
X133380000Y-35930000D02*
X133380000Y-35820000D01*
%TO.C,J5*%
X137080000Y-48980000D02*
X137080000Y-47600000D01*
X135700000Y-48980000D02*
X137080000Y-48980000D01*
X134430000Y-48980000D02*
X134320000Y-48980000D01*
X134430000Y-48980000D02*
X134430000Y-46220000D01*
X134320000Y-48980000D02*
X134320000Y-46220000D01*
X134430000Y-46220000D02*
X134320000Y-46220000D01*
%TO.C,J4*%
X137080000Y-41780000D02*
X137080000Y-40400000D01*
X135700000Y-41780000D02*
X137080000Y-41780000D01*
X134430000Y-41780000D02*
X134320000Y-41780000D01*
X134430000Y-41780000D02*
X134430000Y-39020000D01*
X134320000Y-41780000D02*
X134320000Y-39020000D01*
X134430000Y-39020000D02*
X134320000Y-39020000D01*
%TO.C,J7*%
X137080000Y-45380000D02*
X137080000Y-44000000D01*
X135700000Y-45380000D02*
X137080000Y-45380000D01*
X134430000Y-45380000D02*
X134430000Y-42620000D01*
X134430000Y-45380000D02*
X134320000Y-45380000D01*
X134430000Y-42620000D02*
X134320000Y-42620000D01*
X134320000Y-45380000D02*
X134320000Y-42620000D01*
%TO.C,J1*%
X98420000Y-67880000D02*
X98420000Y-65120000D01*
X98530000Y-65120000D02*
X98420000Y-65120000D01*
X98530000Y-67880000D02*
X98420000Y-67880000D01*
X98530000Y-67880000D02*
X98530000Y-65120000D01*
X99800000Y-67880000D02*
X101180000Y-67880000D01*
X101180000Y-67880000D02*
X101180000Y-66500000D01*
%TO.C,J3*%
X98420000Y-40980000D02*
X98420000Y-38220000D01*
X98530000Y-38220000D02*
X98420000Y-38220000D01*
X98530000Y-40980000D02*
X98420000Y-40980000D01*
X98530000Y-40980000D02*
X98530000Y-38220000D01*
X99800000Y-40980000D02*
X101180000Y-40980000D01*
X101180000Y-40980000D02*
X101180000Y-39600000D01*
%TO.C,J2*%
X127020000Y-35820000D02*
X129780000Y-35820000D01*
X127020000Y-35930000D02*
X127020000Y-35820000D01*
X127020000Y-35930000D02*
X129780000Y-35930000D01*
X127020000Y-37200000D02*
X127020000Y-38580000D01*
X127020000Y-38580000D02*
X128400000Y-38580000D01*
X129780000Y-35930000D02*
X129780000Y-35820000D01*
%TD*%
M02*
