%TF.GenerationSoftware,KiCad,Pcbnew,9.0.2*%
%TF.CreationDate,2025-07-05T11:30:25+05:30*%
%TF.ProjectId,Active Flyback converter,41637469-7665-4204-966c-796261636b20,1.1*%
%TF.SameCoordinates,Original*%
%TF.FileFunction,Copper,L3,Inr*%
%TF.FilePolarity,Positive*%
%FSLAX46Y46*%
G04 Gerber Fmt 4.6, Leading zero omitted, Abs format (unit mm)*
G04 Created by KiCad (PCBNEW 9.0.2) date 2025-07-05 11:30:25*
%MOMM*%
%LPD*%
G01*
G04 APERTURE LIST*
%TA.AperFunction,ComponentPad*%
%ADD10R,1.700000X1.700000*%
%TD*%
%TA.AperFunction,ViaPad*%
%ADD11C,0.600000*%
%TD*%
%TA.AperFunction,Conductor*%
%ADD12C,0.200000*%
%TD*%
G04 APERTURE END LIST*
D10*
%TO.N,/secondary*%
%TO.C,J8*%
X124800000Y-37200000D03*
%TD*%
%TO.N,/secondary*%
%TO.C,J6*%
X132000000Y-37200000D03*
%TD*%
%TO.N,/secondary*%
%TO.C,J5*%
X135700000Y-47600000D03*
%TD*%
%TO.N,/secondary*%
%TO.C,J4*%
X135700000Y-40400000D03*
%TD*%
%TO.N,/secondary*%
%TO.C,J7*%
X135700000Y-44000000D03*
%TD*%
%TO.N,/primary*%
%TO.C,J1*%
X99800000Y-66500000D03*
%TD*%
%TO.N,/primary*%
%TO.C,J3*%
X99800000Y-39600000D03*
%TD*%
%TO.N,/secondary*%
%TO.C,J2*%
X128400000Y-37200000D03*
%TD*%
D11*
%TO.N,/primary*%
X98700000Y-67750000D03*
X99450000Y-40850000D03*
X98700000Y-38350000D03*
X99450000Y-65250000D03*
X118000000Y-65900000D03*
X118000000Y-50600000D03*
X100950000Y-65250000D03*
X100950000Y-67750000D03*
X100950000Y-38350000D03*
X98700000Y-65250000D03*
X98700000Y-40850000D03*
X117000000Y-50600000D03*
X118500000Y-80100000D03*
X117000000Y-65900000D03*
X100200000Y-67750000D03*
X116500000Y-80100000D03*
X117500000Y-64800000D03*
X99450000Y-38350000D03*
X99450000Y-67750000D03*
X100950000Y-40850000D03*
X117500000Y-80100000D03*
X100200000Y-38350000D03*
X100200000Y-40850000D03*
X100200000Y-65250000D03*
%TO.N,/secondary*%
X135200000Y-46750000D03*
X130350000Y-36950000D03*
X125800000Y-36950000D03*
X127300000Y-38450000D03*
X136700000Y-42000000D03*
X135950000Y-56400000D03*
X136700000Y-41250000D03*
X136700000Y-55650000D03*
X130350000Y-37700000D03*
X136700000Y-45250000D03*
X135200000Y-51100000D03*
X134450000Y-56400000D03*
X136700000Y-46000000D03*
X135950000Y-52600000D03*
X135200000Y-53350000D03*
X135200000Y-54900000D03*
X135200000Y-56400000D03*
X131100000Y-36200000D03*
X135950000Y-51100000D03*
X128050000Y-36950000D03*
X136700000Y-52600000D03*
X135200000Y-42000000D03*
X130350000Y-38450000D03*
X134450000Y-51100000D03*
X134450000Y-53350000D03*
X136700000Y-53350000D03*
X129600000Y-37700000D03*
X135950000Y-54150000D03*
X135200000Y-45250000D03*
X136700000Y-54150000D03*
X135950000Y-42750000D03*
X134450000Y-41250000D03*
X128850000Y-36950000D03*
X127300000Y-36200000D03*
X136700000Y-51100000D03*
X126550000Y-36950000D03*
X128850000Y-38450000D03*
X128850000Y-37700000D03*
X135200000Y-52600000D03*
X134450000Y-42750000D03*
X135950000Y-45250000D03*
X125800000Y-37700000D03*
X134450000Y-55650000D03*
X134450000Y-46750000D03*
X135950000Y-53350000D03*
X125800000Y-38450000D03*
X125800000Y-36200000D03*
X126550000Y-36200000D03*
X126550000Y-38450000D03*
X128050000Y-37700000D03*
X126550000Y-37700000D03*
X135950000Y-54900000D03*
X135200000Y-54150000D03*
X131100000Y-38450000D03*
X135200000Y-51850000D03*
X136700000Y-46750000D03*
X134450000Y-54150000D03*
X127300000Y-37700000D03*
X136700000Y-56400000D03*
X135200000Y-46000000D03*
X135950000Y-41250000D03*
X134450000Y-45250000D03*
X135950000Y-51850000D03*
X135200000Y-55650000D03*
X129600000Y-36200000D03*
X135950000Y-55650000D03*
X129600000Y-36950000D03*
X135950000Y-42000000D03*
X135950000Y-46000000D03*
X129600000Y-38450000D03*
X136700000Y-51850000D03*
X128050000Y-36200000D03*
X128850000Y-36200000D03*
X131100000Y-36950000D03*
X134450000Y-42000000D03*
X136700000Y-54900000D03*
X130350000Y-36200000D03*
X131100000Y-37700000D03*
X134450000Y-52600000D03*
X127300000Y-36950000D03*
X134450000Y-54900000D03*
X134450000Y-46000000D03*
X134450000Y-51850000D03*
X136700000Y-42750000D03*
X135200000Y-41250000D03*
X128050000Y-38450000D03*
X135200000Y-42750000D03*
X135950000Y-46750000D03*
%TD*%
D12*
%TO.N,/primary*%
X117600000Y-66500000D02*
X117000000Y-65900000D01*
X133100000Y-89700000D02*
X133100000Y-67500000D01*
X131700000Y-66900000D02*
X102899999Y-66900000D01*
X132700000Y-89300000D02*
X132700000Y-67900000D01*
X103299999Y-90300000D02*
X131700000Y-90300000D01*
X132300000Y-88900000D02*
X132300000Y-68300000D01*
X102700000Y-68699999D02*
X102700000Y-88900001D01*
X131900000Y-88500000D02*
X131900000Y-68700000D01*
X104099999Y-89500000D02*
X130900000Y-89500000D01*
X103100000Y-69099999D02*
X103100000Y-88500001D01*
X104499999Y-89100000D02*
X130500000Y-89100000D01*
X131100000Y-87700000D02*
X131100000Y-69500000D01*
X104899999Y-88700000D02*
X130100000Y-88700000D01*
X130700000Y-87300000D02*
X130700000Y-69900000D01*
X104300000Y-70299999D02*
X104300000Y-87300001D01*
X129300000Y-69300000D02*
X105299999Y-69300000D01*
X130300000Y-86900000D02*
X130300000Y-70300000D01*
X105699999Y-87900000D02*
X129300000Y-87900000D01*
X102300000Y-68299999D02*
X102300000Y-89300001D01*
X104700000Y-70699999D02*
X104700000Y-86900001D01*
X128900000Y-69700000D02*
X105699999Y-69700000D01*
X129900000Y-86500000D02*
X129900000Y-70700000D01*
X106099999Y-87500000D02*
X128900000Y-87500000D01*
X105100000Y-71099999D02*
X105100000Y-86500001D01*
X106499999Y-87100000D02*
X128500000Y-87100000D01*
X105500000Y-71499999D02*
X105500000Y-86100001D01*
X128100000Y-70500000D02*
X106499999Y-70500000D01*
X106899999Y-86700000D02*
X128100000Y-86700000D01*
X128700000Y-85300000D02*
X128700000Y-71900000D01*
X127300000Y-71300000D02*
X107299999Y-71300000D01*
X128300000Y-84900000D02*
X128300000Y-72300000D01*
X107699999Y-85900000D02*
X127300000Y-85900000D01*
X106700000Y-72699999D02*
X106700000Y-84900001D01*
X126900000Y-71700000D02*
X107699999Y-71700000D01*
X108099999Y-85500000D02*
X126900000Y-85500000D01*
X107100000Y-73099999D02*
X107100000Y-84500002D01*
X126500000Y-72100000D02*
X108099998Y-72100000D01*
X127500000Y-84100000D02*
X127500000Y-73100000D01*
X108499999Y-85100000D02*
X126500000Y-85100000D01*
X107500000Y-73499999D02*
X107500000Y-84100002D01*
X126100000Y-72500000D02*
X108499998Y-72500000D01*
X127700000Y-70900000D02*
X106899999Y-70900000D01*
X127100000Y-83700000D02*
X127100000Y-73500000D01*
X107900000Y-73899999D02*
X107900000Y-83700002D01*
X125700000Y-72900000D02*
X108899998Y-72900000D01*
X129700000Y-68900000D02*
X104899999Y-68900000D01*
X126700000Y-83300000D02*
X126700000Y-73900000D01*
X109299999Y-84300000D02*
X125700000Y-84300000D01*
X108300000Y-74299999D02*
X108300000Y-83300002D01*
X125300000Y-73300000D02*
X109299998Y-73300000D01*
X109699999Y-83900000D02*
X125300000Y-83900000D01*
X108700000Y-74699999D02*
X108700000Y-82900002D01*
X125900000Y-82500000D02*
X125900000Y-74700000D01*
X110099999Y-83500000D02*
X124900000Y-83500000D01*
X131500000Y-88100000D02*
X131500000Y-69100000D01*
X109100000Y-75099999D02*
X109100000Y-82500002D01*
X124500000Y-74100000D02*
X110099998Y-74100000D01*
X125500000Y-82100000D02*
X125500000Y-75100000D01*
X127900000Y-84500000D02*
X127900000Y-72700000D01*
X110499999Y-83100000D02*
X124500000Y-83100000D01*
X109500000Y-75499999D02*
X109500000Y-82100002D01*
X124100000Y-74500000D02*
X110499998Y-74500000D01*
X125100000Y-81700000D02*
X125100000Y-75500000D01*
X109900000Y-75899999D02*
X109900000Y-81700002D01*
X123700000Y-74900000D02*
X110899998Y-74900000D01*
X124700000Y-81300000D02*
X124700000Y-75900000D01*
X111299999Y-82300000D02*
X123700000Y-82300000D01*
X110300000Y-76299999D02*
X110300000Y-81300002D01*
X123300000Y-75300000D02*
X111299998Y-75300000D01*
X124300000Y-80900000D02*
X124300000Y-76300000D01*
X103900000Y-69899999D02*
X103900000Y-87700001D01*
X122900000Y-75700000D02*
X111699998Y-75700000D01*
X123900000Y-80500000D02*
X123900000Y-76700000D01*
X112099999Y-81500000D02*
X122900000Y-81500000D01*
X122500000Y-76100000D02*
X112099998Y-76100000D01*
X123500000Y-80100000D02*
X123500000Y-77100000D01*
X103699999Y-89900000D02*
X131300000Y-89900000D01*
X112499999Y-81100000D02*
X122500000Y-81100000D01*
X128500000Y-70100000D02*
X106099999Y-70100000D01*
X111500000Y-77500000D02*
X111500000Y-80100000D01*
X123100000Y-79700000D02*
X123100000Y-77500000D01*
X118100000Y-80700000D02*
X122100000Y-80700000D01*
X130900000Y-67700000D02*
X103699999Y-67700000D01*
X117500000Y-80100000D02*
X118100000Y-80700000D01*
X133100000Y-67500000D02*
G75*
G03*
X132100000Y-66500000I-1000000J0D01*
G01*
X132100000Y-90700000D02*
G75*
G03*
X133100000Y-89700000I0J1000000D01*
G01*
X102899999Y-66900000D02*
G75*
G03*
X101900000Y-67899999I1J-1000000D01*
G01*
X111100000Y-77099999D02*
X111100000Y-80500002D01*
X107299999Y-86300000D02*
X127700000Y-86300000D01*
X132700000Y-67900000D02*
G75*
G03*
X131700000Y-66900000I-1000000J0D01*
G01*
X131700000Y-90300000D02*
G75*
G03*
X132700000Y-89300000I0J1000000D01*
G01*
X101900000Y-67899999D02*
X101900000Y-89700001D01*
X102300000Y-89300001D02*
G75*
G03*
X103299999Y-90300000I1000000J1D01*
G01*
X103299999Y-67300000D02*
G75*
G03*
X102300000Y-68299999I1J-1000000D01*
G01*
X132300000Y-68300000D02*
G75*
G03*
X131300000Y-67300000I-1000000J0D01*
G01*
X131300000Y-89900000D02*
G75*
G03*
X132300000Y-88900000I0J1000000D01*
G01*
X111699999Y-81900000D02*
X123300000Y-81900000D01*
X102700000Y-88900001D02*
G75*
G03*
X103699999Y-89900000I1000000J1D01*
G01*
X103699999Y-67700000D02*
G75*
G03*
X102700000Y-68699999I1J-1000000D01*
G01*
X131900000Y-68700000D02*
G75*
G03*
X130900000Y-67700000I-1000000J0D01*
G01*
X130900000Y-89500000D02*
G75*
G03*
X131900000Y-88500000I0J1000000D01*
G01*
X103100000Y-88500001D02*
G75*
G03*
X104099999Y-89500000I1000000J1D01*
G01*
X104099999Y-68100000D02*
G75*
G03*
X103100000Y-69099999I1J-1000000D01*
G01*
X131500000Y-69100000D02*
G75*
G03*
X130500000Y-68100000I-1000000J0D01*
G01*
X130500000Y-89100000D02*
G75*
G03*
X131500000Y-88100000I0J1000000D01*
G01*
X126300000Y-82900000D02*
X126300000Y-74300000D01*
X103500000Y-88100001D02*
G75*
G03*
X104499999Y-89100000I1000000J1D01*
G01*
X108899999Y-84700000D02*
X126100000Y-84700000D01*
X104499999Y-68500000D02*
G75*
G03*
X103500000Y-69499999I1J-1000000D01*
G01*
X131100000Y-69500000D02*
G75*
G03*
X130100000Y-68500000I-1000000J0D01*
G01*
X132100000Y-66500000D02*
X117600000Y-66500000D01*
X130100000Y-88700000D02*
G75*
G03*
X131100000Y-87700000I0J1000000D01*
G01*
X103900000Y-87700001D02*
G75*
G03*
X104899999Y-88700000I1000000J1D01*
G01*
X104899999Y-68900000D02*
G75*
G03*
X103900000Y-69899999I1J-1000000D01*
G01*
X129500000Y-86100000D02*
X129500000Y-71100000D01*
X130700000Y-69900000D02*
G75*
G03*
X129700000Y-68900000I-1000000J0D01*
G01*
X129700000Y-88300000D02*
G75*
G03*
X130700000Y-87300000I0J1000000D01*
G01*
X104300000Y-87300001D02*
G75*
G03*
X105299999Y-88300000I1000000J1D01*
G01*
X101900000Y-89700001D02*
G75*
G03*
X102899999Y-90700000I1000000J1D01*
G01*
X105299999Y-69300000D02*
G75*
G03*
X104300000Y-70299999I1J-1000000D01*
G01*
X130300000Y-70300000D02*
G75*
G03*
X129300000Y-69300000I-1000000J0D01*
G01*
X103500000Y-69499999D02*
X103500000Y-88100001D01*
X129300000Y-87900000D02*
G75*
G03*
X130300000Y-86900000I0J1000000D01*
G01*
X104700000Y-86900001D02*
G75*
G03*
X105699999Y-87900000I1000000J1D01*
G01*
X105900000Y-71899999D02*
X105900000Y-85700001D01*
X105699999Y-69700000D02*
G75*
G03*
X104700000Y-70699999I1J-1000000D01*
G01*
X129900000Y-70700000D02*
G75*
G03*
X128900000Y-69700000I-1000000J0D01*
G01*
X128900000Y-87500000D02*
G75*
G03*
X129900000Y-86500000I0J1000000D01*
G01*
X105100000Y-86500001D02*
G75*
G03*
X106099999Y-87500000I1000000J1D01*
G01*
X106099999Y-70100000D02*
G75*
G03*
X105100000Y-71099999I1J-1000000D01*
G01*
X129500000Y-71100000D02*
G75*
G03*
X128500000Y-70100000I-1000000J0D01*
G01*
X128500000Y-87100000D02*
G75*
G03*
X129500000Y-86100000I0J1000000D01*
G01*
X106899999Y-70900000D02*
G75*
G03*
X105900000Y-71899999I1J-1000000D01*
G01*
X128700000Y-71900000D02*
G75*
G03*
X127700000Y-70900000I-1000000J0D01*
G01*
X128100000Y-86700000D02*
G75*
G03*
X129100000Y-85700000I0J1000000D01*
G01*
X127700000Y-86300000D02*
G75*
G03*
X128700000Y-85300000I0J1000000D01*
G01*
X106499999Y-70500000D02*
G75*
G03*
X105500000Y-71499999I1J-1000000D01*
G01*
X127300000Y-85900000D02*
G75*
G03*
X128300000Y-84900000I0J1000000D01*
G01*
X105299999Y-88300000D02*
X129700000Y-88300000D01*
X127900000Y-72700000D02*
G75*
G03*
X126900000Y-71700000I-1000000J0D01*
G01*
X107100000Y-84500002D02*
G75*
G03*
X108099999Y-85500000I1000000J2D01*
G01*
X108499998Y-72500000D02*
G75*
G03*
X107500000Y-73499999I2J-1000000D01*
G01*
X126100000Y-84700000D02*
G75*
G03*
X127100000Y-83700000I0J1000000D01*
G01*
X126700000Y-73900000D02*
G75*
G03*
X125700000Y-72900000I-1000000J0D01*
G01*
X108300000Y-83300002D02*
G75*
G03*
X109299999Y-84300000I1000000J2D01*
G01*
X105500000Y-86100001D02*
G75*
G03*
X106499999Y-87100000I1000000J1D01*
G01*
X109299998Y-73300000D02*
G75*
G03*
X108300000Y-74299999I2J-1000000D01*
G01*
X106300000Y-72299999D02*
X106300000Y-85300001D01*
X126300000Y-74300000D02*
G75*
G03*
X125300000Y-73300000I-1000000J0D01*
G01*
X108700000Y-82900002D02*
G75*
G03*
X109699999Y-83900000I1000000J2D01*
G01*
X125300000Y-83900000D02*
G75*
G03*
X126300000Y-82900000I0J1000000D01*
G01*
X109699998Y-73700000D02*
G75*
G03*
X108700000Y-74699999I2J-1000000D01*
G01*
X127500000Y-73100000D02*
G75*
G03*
X126500000Y-72100000I-1000000J0D01*
G01*
X125900000Y-74700000D02*
G75*
G03*
X124900000Y-73700000I-1000000J0D01*
G01*
X107699999Y-71700000D02*
G75*
G03*
X106700000Y-72699999I1J-1000000D01*
G01*
X106700000Y-84900001D02*
G75*
G03*
X107699999Y-85900000I1000000J1D01*
G01*
X124900000Y-83500000D02*
G75*
G03*
X125900000Y-82500000I0J1000000D01*
G01*
X107500000Y-84100002D02*
G75*
G03*
X108499999Y-85100000I1000000J2D01*
G01*
X110099998Y-74100000D02*
G75*
G03*
X109100000Y-75099999I2J-1000000D01*
G01*
X126900000Y-85500000D02*
G75*
G03*
X127900000Y-84500000I0J1000000D01*
G01*
X110899999Y-82700000D02*
X124100000Y-82700000D01*
X125500000Y-75100000D02*
G75*
G03*
X124500000Y-74100000I-1000000J0D01*
G01*
X129100000Y-71500000D02*
G75*
G03*
X128100000Y-70500000I-1000000J0D01*
G01*
X124500000Y-83100000D02*
G75*
G03*
X125500000Y-82100000I0J1000000D01*
G01*
X107900000Y-83700002D02*
G75*
G03*
X108899999Y-84700000I1000000J2D01*
G01*
X102899999Y-90700000D02*
X132100000Y-90700000D01*
X109500000Y-82100002D02*
G75*
G03*
X110499999Y-83100000I1000000J2D01*
G01*
X124100000Y-82700000D02*
G75*
G03*
X125100000Y-81700000I0J1000000D01*
G01*
X109900000Y-81700002D02*
G75*
G03*
X110899999Y-82700000I1000000J2D01*
G01*
X106300000Y-85300001D02*
G75*
G03*
X107299999Y-86300000I1000000J1D01*
G01*
X124700000Y-75900000D02*
G75*
G03*
X123700000Y-74900000I-1000000J0D01*
G01*
X123700000Y-82300000D02*
G75*
G03*
X124700000Y-81300000I0J1000000D01*
G01*
X131300000Y-67300000D02*
X103299999Y-67300000D01*
X110300000Y-81300002D02*
G75*
G03*
X111299999Y-82300000I1000000J2D01*
G01*
X124300000Y-76300000D02*
G75*
G03*
X123300000Y-75300000I-1000000J0D01*
G01*
X110499998Y-74500000D02*
G75*
G03*
X109500000Y-75499999I2J-1000000D01*
G01*
X126500000Y-85100000D02*
G75*
G03*
X127500000Y-84100000I0J1000000D01*
G01*
X123300000Y-81900000D02*
G75*
G03*
X124300000Y-80900000I0J1000000D01*
G01*
X125700000Y-84300000D02*
G75*
G03*
X126700000Y-83300000I0J1000000D01*
G01*
X110700000Y-80900002D02*
G75*
G03*
X111699999Y-81900000I1000000J2D01*
G01*
X108099998Y-72100000D02*
G75*
G03*
X107100000Y-73099999I2J-1000000D01*
G01*
X111699998Y-75700000D02*
G75*
G03*
X110700000Y-76699999I2J-1000000D01*
G01*
X123900000Y-76700000D02*
G75*
G03*
X122900000Y-75700000I-1000000J0D01*
G01*
X129100000Y-85700000D02*
X129100000Y-71500000D01*
X127100000Y-73500000D02*
G75*
G03*
X126100000Y-72500000I-1000000J0D01*
G01*
X128300000Y-72300000D02*
G75*
G03*
X127300000Y-71300000I-1000000J0D01*
G01*
X122900000Y-81500000D02*
G75*
G03*
X123900000Y-80500000I0J1000000D01*
G01*
X122500000Y-81100000D02*
G75*
G03*
X123500000Y-80100000I0J1000000D01*
G01*
X112099998Y-76100000D02*
G75*
G03*
X111100000Y-77099999I2J-1000000D01*
G01*
X107299999Y-71300000D02*
G75*
G03*
X106300000Y-72299999I1J-1000000D01*
G01*
X105900000Y-85700001D02*
G75*
G03*
X106899999Y-86700000I1000000J1D01*
G01*
X124900000Y-73700000D02*
X109699998Y-73700000D01*
X111100000Y-80500002D02*
G75*
G03*
X112099999Y-81500000I1000000J2D01*
G01*
X110899998Y-74900000D02*
G75*
G03*
X109900000Y-75899999I2J-1000000D01*
G01*
X108899998Y-72900000D02*
G75*
G03*
X107900000Y-73899999I2J-1000000D01*
G01*
X111500000Y-80100000D02*
G75*
G03*
X112499999Y-81100000I1000000J0D01*
G01*
X111299998Y-75300000D02*
G75*
G03*
X110300000Y-76299999I2J-1000000D01*
G01*
X110700000Y-76699999D02*
X110700000Y-80900002D01*
X130100000Y-68500000D02*
X104499999Y-68500000D01*
X112500000Y-76500000D02*
G75*
G03*
X111500000Y-77500000I0J-1000000D01*
G01*
X123500000Y-77100000D02*
G75*
G03*
X122500000Y-76100000I-1000000J0D01*
G01*
X123100000Y-77500000D02*
G75*
G03*
X122100000Y-76500000I-1000000J0D01*
G01*
X109100000Y-82500002D02*
G75*
G03*
X110099999Y-83500000I1000000J2D01*
G01*
X130500000Y-68100000D02*
X104099999Y-68100000D01*
X122100000Y-80700000D02*
G75*
G03*
X123100000Y-79700000I0J1000000D01*
G01*
X125100000Y-75500000D02*
G75*
G03*
X124100000Y-74500000I-1000000J0D01*
G01*
X122100000Y-76500000D02*
X112500000Y-76500000D01*
X102699999Y-41800000D02*
X102699999Y-62400000D01*
X123899999Y-53600001D02*
X123899999Y-50199998D01*
X109299999Y-57800000D02*
X126100001Y-57800000D01*
X110299999Y-49400000D02*
X110299999Y-54800000D01*
X130299999Y-60000001D02*
X130299999Y-43799999D01*
X106099999Y-61000000D02*
X129300000Y-61000000D01*
X131300000Y-40800000D02*
X103699999Y-40800000D01*
X133099999Y-62800001D02*
X133099999Y-40999999D01*
X129499999Y-59200001D02*
X129499999Y-44599999D01*
X124100000Y-48000000D02*
X110899999Y-48000000D01*
X103899999Y-43000000D02*
X103899999Y-61200000D01*
X110699999Y-49800000D02*
X110699999Y-54400000D01*
X125700000Y-46400000D02*
X109299999Y-46400000D01*
X103699999Y-63400000D02*
X131700000Y-63400000D01*
X127300000Y-44800000D02*
X107699999Y-44800000D01*
X133500000Y-63200000D02*
X133500000Y-40600000D01*
X130900000Y-41200000D02*
X104099999Y-41200000D01*
X105099999Y-44200000D02*
X105099999Y-60000000D01*
X117400000Y-50000000D02*
X112899999Y-50000000D01*
X129700000Y-42400000D02*
X105299999Y-42400000D01*
X124299999Y-54000001D02*
X124299999Y-49799998D01*
X125099999Y-54800001D02*
X125099999Y-48999998D01*
X127499999Y-57200001D02*
X127499999Y-46599998D01*
X112099999Y-55000000D02*
X123300001Y-55000000D01*
X132699999Y-62400001D02*
X132699999Y-41399999D01*
X128299999Y-58000001D02*
X128299999Y-45799999D01*
X132500000Y-39600000D02*
X99900000Y-39600000D01*
X108499999Y-58600000D02*
X126900001Y-58600000D01*
X126299999Y-56000001D02*
X126299999Y-47799998D01*
X110499999Y-56600000D02*
X124900001Y-56600000D01*
X105299999Y-61800000D02*
X130100000Y-61800000D01*
X129899999Y-59600001D02*
X129899999Y-44199999D01*
X102299999Y-41400000D02*
X102299999Y-62800000D01*
X107699999Y-59400000D02*
X127700000Y-59400000D01*
X106899999Y-60200000D02*
X128500000Y-60200000D01*
X101899999Y-41000000D02*
X101899999Y-63200000D01*
X123700000Y-48400000D02*
X111299999Y-48400000D01*
X109899999Y-49000000D02*
X109899999Y-55200000D01*
X106699999Y-45800000D02*
X106699999Y-58400000D01*
X131700000Y-40400000D02*
X103299999Y-40400000D01*
X123300000Y-48800000D02*
X111699999Y-48800000D01*
X103099999Y-42200000D02*
X103099999Y-62000000D01*
X111099999Y-50200000D02*
X111099999Y-54000000D01*
X104899999Y-62200000D02*
X130500000Y-62200000D01*
X132299999Y-62000001D02*
X132299999Y-41799999D01*
X109499999Y-48600000D02*
X109499999Y-55600000D01*
X107499999Y-46600000D02*
X107499999Y-57600000D01*
X109099999Y-48200000D02*
X109099999Y-56000000D01*
X125899999Y-55600001D02*
X125899999Y-48199998D01*
X103499999Y-42600000D02*
X103499999Y-61600000D01*
X128100000Y-44000000D02*
X106899999Y-44000000D01*
X124900000Y-47200000D02*
X110099999Y-47200000D01*
X126699999Y-56400001D02*
X126699999Y-47399998D01*
X106299999Y-45400000D02*
X106299999Y-58800000D01*
X112499999Y-54600000D02*
X122900001Y-54600000D01*
X111899999Y-51000000D02*
X111899999Y-53200000D01*
X111499999Y-50600000D02*
X111499999Y-53600000D01*
X129099999Y-58800001D02*
X129099999Y-44999999D01*
X107899999Y-47000000D02*
X107899999Y-57200000D01*
X125499999Y-55200001D02*
X125499999Y-48599998D01*
X128500000Y-43600000D02*
X106499999Y-43600000D01*
X131899999Y-61600001D02*
X131899999Y-42199999D01*
X105699999Y-61400000D02*
X129700000Y-61400000D01*
X108899999Y-58200000D02*
X126500001Y-58200000D01*
X124699999Y-54400001D02*
X124699999Y-49399998D01*
X112899999Y-54200000D02*
X122499999Y-54200000D01*
X122500000Y-49600000D02*
X112499999Y-49600000D01*
X125300000Y-46800000D02*
X109699999Y-46800000D01*
X106499999Y-60600000D02*
X128900000Y-60600000D01*
X108099999Y-59000000D02*
X127300000Y-59000000D01*
X109699999Y-57400000D02*
X125700001Y-57400000D01*
X111299999Y-55800000D02*
X124100001Y-55800000D01*
X111699999Y-55400000D02*
X123700001Y-55400000D01*
X118000000Y-50600000D02*
X117400000Y-50000000D01*
X105499999Y-44600000D02*
X105499999Y-59600000D01*
X126500000Y-45600000D02*
X108499999Y-45600000D01*
X122900000Y-49200000D02*
X112099999Y-49200000D01*
X132100000Y-40000000D02*
X102899999Y-40000000D01*
X131499999Y-61200001D02*
X131499999Y-42599999D01*
X128699999Y-58400001D02*
X128699999Y-45399999D01*
X104099999Y-63000000D02*
X131300000Y-63000000D01*
X129300000Y-42800000D02*
X105699999Y-42800000D01*
X105899999Y-45000000D02*
X105899999Y-59200000D01*
X127099999Y-56800001D02*
X127099999Y-46999998D01*
X107099999Y-46200000D02*
X107099999Y-58000000D01*
X104299999Y-43400000D02*
X104299999Y-60800000D01*
X127899999Y-57600001D02*
X127899999Y-46199998D01*
X104699999Y-43800000D02*
X104699999Y-60400000D01*
X110099999Y-57000000D02*
X125300001Y-57000000D01*
X126100000Y-46000000D02*
X108899999Y-46000000D01*
X102899999Y-64200000D02*
X132500000Y-64200000D01*
X107299999Y-59800000D02*
X128100000Y-59800000D01*
X130699999Y-60400001D02*
X130699999Y-43399999D01*
X131099999Y-60800001D02*
X131099999Y-42999999D01*
X103299999Y-63800000D02*
X132100000Y-63800000D01*
X128900000Y-43200000D02*
X106099999Y-43200000D01*
X104499999Y-62600000D02*
X130900000Y-62600000D01*
X124500000Y-47600000D02*
X110499999Y-47600000D01*
X110899999Y-56200000D02*
X124500001Y-56200000D01*
X108699999Y-47800000D02*
X108699999Y-56400000D01*
X108299999Y-47400000D02*
X108299999Y-56800000D01*
X130500000Y-41600000D02*
X104499999Y-41600000D01*
X123499999Y-53200000D02*
X123499999Y-50600000D01*
X126900000Y-45200000D02*
X108099999Y-45200000D01*
X130100000Y-42000000D02*
X104899999Y-42000000D01*
X127700000Y-44400000D02*
X107299999Y-44400000D01*
X107099999Y-58000000D02*
G75*
G03*
X108099999Y-59000001I1000001J0D01*
G01*
X129099999Y-44999999D02*
G75*
G03*
X128100000Y-44000001I-999999J-1D01*
G01*
X129700000Y-61400000D02*
G75*
G03*
X130700000Y-60400001I0J1000000D01*
G01*
X105899999Y-59200000D02*
G75*
G03*
X106899999Y-60200001I1000001J0D01*
G01*
X105699999Y-42800000D02*
G75*
G03*
X104700000Y-43800000I1J-1000000D01*
G01*
X112499999Y-49600000D02*
G75*
G03*
X111500000Y-50600000I1J-1000000D01*
G01*
X108699999Y-56400000D02*
G75*
G03*
X109699999Y-57400001I1000001J0D01*
G01*
X127499999Y-46599998D02*
G75*
G03*
X126500000Y-45600001I-999999J-2D01*
G01*
X110499999Y-47600000D02*
G75*
G03*
X109500000Y-48600000I1J-1000000D01*
G01*
X105099999Y-60000000D02*
G75*
G03*
X106099999Y-61000001I1000001J0D01*
G01*
X122499999Y-54200000D02*
G75*
G03*
X123500000Y-53200000I1J1000000D01*
G01*
X110699999Y-54400000D02*
G75*
G03*
X111699999Y-55400001I1000001J0D01*
G01*
X110099999Y-47200000D02*
G75*
G03*
X109100000Y-48200000I1J-1000000D01*
G01*
X102699999Y-62400000D02*
G75*
G03*
X103699999Y-63400001I1000001J0D01*
G01*
X104299999Y-60800000D02*
G75*
G03*
X105299999Y-61800001I1000001J0D01*
G01*
X128500000Y-60200000D02*
G75*
G03*
X129500000Y-59200001I0J1000000D01*
G01*
X111499999Y-53600000D02*
G75*
G03*
X112499999Y-54600001I1000001J0D01*
G01*
X124699999Y-49399998D02*
G75*
G03*
X123700000Y-48400001I-999999J-2D01*
G01*
X123300001Y-55000000D02*
G75*
G03*
X124300000Y-54000001I-1J1000000D01*
G01*
X106099999Y-43200000D02*
G75*
G03*
X105100000Y-44200000I1J-1000000D01*
G01*
X128299999Y-45799999D02*
G75*
G03*
X127300000Y-44800001I-999999J-1D01*
G01*
X103899999Y-61200000D02*
G75*
G03*
X104899999Y-62200001I1000001J0D01*
G01*
X127899999Y-46199998D02*
G75*
G03*
X126900000Y-45200001I-999999J-2D01*
G01*
X109699999Y-46800000D02*
G75*
G03*
X108700000Y-47800000I1J-1000000D01*
G01*
X105299999Y-42400000D02*
G75*
G03*
X104300000Y-43400000I1J-1000000D01*
G01*
X130500000Y-62200000D02*
G75*
G03*
X131500000Y-61200001I0J1000000D01*
G01*
X112099999Y-49200000D02*
G75*
G03*
X111100000Y-50200000I1J-1000000D01*
G01*
X106299999Y-58800000D02*
G75*
G03*
X107299999Y-59800001I1000001J0D01*
G01*
X132100000Y-63800000D02*
G75*
G03*
X133100000Y-62800001I0J1000000D01*
G01*
X109099999Y-56000000D02*
G75*
G03*
X110099999Y-57000001I1000001J0D01*
G01*
X102299999Y-62800000D02*
G75*
G03*
X103299999Y-63800001I1000001J0D01*
G01*
X133099999Y-40999999D02*
G75*
G03*
X132100000Y-40000001I-999999J-1D01*
G01*
X123700001Y-55400000D02*
G75*
G03*
X124700000Y-54400001I-1J1000000D01*
G01*
X128699999Y-45399999D02*
G75*
G03*
X127700000Y-44400001I-999999J-1D01*
G01*
X106899999Y-44000000D02*
G75*
G03*
X105900000Y-45000000I1J-1000000D01*
G01*
X107699999Y-44800000D02*
G75*
G03*
X106700000Y-45800000I1J-1000000D01*
G01*
X125899999Y-48199998D02*
G75*
G03*
X124900000Y-47200001I-999999J-2D01*
G01*
X107899999Y-57200000D02*
G75*
G03*
X108899999Y-58200001I1000001J0D01*
G01*
X111699999Y-48800000D02*
G75*
G03*
X110700000Y-49800000I1J-1000000D01*
G01*
X130699999Y-43399999D02*
G75*
G03*
X129700000Y-42400001I-999999J-1D01*
G01*
X126699999Y-47399998D02*
G75*
G03*
X125700000Y-46400001I-999999J-2D01*
G01*
X131700000Y-63400000D02*
G75*
G03*
X132700000Y-62400001I0J1000000D01*
G01*
X127700000Y-59400000D02*
G75*
G03*
X128700000Y-58400001I0J1000000D01*
G01*
X107299999Y-44400000D02*
G75*
G03*
X106300000Y-45400000I1J-1000000D01*
G01*
X108499999Y-45600000D02*
G75*
G03*
X107500000Y-46600000I1J-1000000D01*
G01*
X125099999Y-48999998D02*
G75*
G03*
X124100000Y-48000001I-999999J-2D01*
G01*
X104099999Y-41200000D02*
G75*
G03*
X103100000Y-42200000I1J-1000000D01*
G01*
X131300000Y-63000000D02*
G75*
G03*
X132300000Y-62000001I0J1000000D01*
G01*
X131099999Y-42999999D02*
G75*
G03*
X130100000Y-42000001I-999999J-1D01*
G01*
X132699999Y-41399999D02*
G75*
G03*
X131700000Y-40400001I-999999J-1D01*
G01*
X129899999Y-44199999D02*
G75*
G03*
X128900000Y-43200001I-999999J-1D01*
G01*
X127300000Y-59000000D02*
G75*
G03*
X128300000Y-58000001I0J1000000D01*
G01*
X103099999Y-62000000D02*
G75*
G03*
X104099999Y-63000001I1000001J0D01*
G01*
X125700001Y-57400000D02*
G75*
G03*
X126700000Y-56400001I-1J1000000D01*
G01*
X106499999Y-43600000D02*
G75*
G03*
X105500000Y-44600000I1J-1000000D01*
G01*
X108299999Y-56800000D02*
G75*
G03*
X109299999Y-57800001I1000001J0D01*
G01*
X109299999Y-46400000D02*
G75*
G03*
X108300000Y-47400000I1J-1000000D01*
G01*
X126500001Y-58200000D02*
G75*
G03*
X127500000Y-57200001I-1J1000000D01*
G01*
X131899999Y-42199999D02*
G75*
G03*
X130900000Y-41200001I-999999J-1D01*
G01*
X124299999Y-49799998D02*
G75*
G03*
X123300000Y-48800001I-999999J-2D01*
G01*
X101899999Y-63200000D02*
G75*
G03*
X102899999Y-64200001I1000001J0D01*
G01*
X108099999Y-45200000D02*
G75*
G03*
X107100000Y-46200000I1J-1000000D01*
G01*
X125499999Y-48599998D02*
G75*
G03*
X124500000Y-47600001I-999999J-2D01*
G01*
X102899999Y-40000000D02*
G75*
G03*
X101900000Y-41000000I1J-1000000D01*
G01*
X104899999Y-42000000D02*
G75*
G03*
X103900000Y-43000000I1J-1000000D01*
G01*
X103299999Y-40400000D02*
G75*
G03*
X102300000Y-41400000I1J-1000000D01*
G01*
X126900001Y-58600000D02*
G75*
G03*
X127900000Y-57600001I-1J1000000D01*
G01*
X104499999Y-41600000D02*
G75*
G03*
X103500000Y-42600000I1J-1000000D01*
G01*
X130900000Y-62600000D02*
G75*
G03*
X131900000Y-61600001I0J1000000D01*
G01*
X133500000Y-40600000D02*
G75*
G03*
X132500000Y-39600000I-1000000J0D01*
G01*
X126100001Y-57800000D02*
G75*
G03*
X127100000Y-56800001I-1J1000000D01*
G01*
X128100000Y-59800000D02*
G75*
G03*
X129100000Y-58800001I0J1000000D01*
G01*
X103699999Y-40800000D02*
G75*
G03*
X102700000Y-41800000I1J-1000000D01*
G01*
X108899999Y-46000000D02*
G75*
G03*
X107900000Y-47000000I1J-1000000D01*
G01*
X130100000Y-61800000D02*
G75*
G03*
X131100000Y-60800001I0J1000000D01*
G01*
X132299999Y-41799999D02*
G75*
G03*
X131300000Y-40800001I-999999J-1D01*
G01*
X107499999Y-57600000D02*
G75*
G03*
X108499999Y-58600001I1000001J0D01*
G01*
X129300000Y-61000000D02*
G75*
G03*
X130300000Y-60000001I0J1000000D01*
G01*
X109499999Y-55600000D02*
G75*
G03*
X110499999Y-56600001I1000001J0D01*
G01*
X112899999Y-50000000D02*
G75*
G03*
X111900000Y-51000000I1J-1000000D01*
G01*
X109899999Y-55200000D02*
G75*
G03*
X110899999Y-56200001I1000001J0D01*
G01*
X105499999Y-59600000D02*
G75*
G03*
X106499999Y-60600001I1000001J0D01*
G01*
X110299999Y-54800000D02*
G75*
G03*
X111299999Y-55800001I1000001J0D01*
G01*
X125300001Y-57000000D02*
G75*
G03*
X126300000Y-56000001I-1J1000000D01*
G01*
X103499999Y-61600000D02*
G75*
G03*
X104499999Y-62600001I1000001J0D01*
G01*
X131499999Y-42599999D02*
G75*
G03*
X130500000Y-41600001I-999999J-1D01*
G01*
X126299999Y-47799998D02*
G75*
G03*
X125300000Y-46800001I-999999J-2D01*
G01*
X130299999Y-43799999D02*
G75*
G03*
X129300000Y-42800001I-999999J-1D01*
G01*
X129499999Y-44599999D02*
G75*
G03*
X128500000Y-43600001I-999999J-1D01*
G01*
X128900000Y-60600000D02*
G75*
G03*
X129900000Y-59600001I0J1000000D01*
G01*
X106699999Y-58400000D02*
G75*
G03*
X107699999Y-59400001I1000001J0D01*
G01*
X123899999Y-50199998D02*
G75*
G03*
X122900000Y-49200001I-999999J-2D01*
G01*
X110899999Y-48000000D02*
G75*
G03*
X109900000Y-49000000I1J-1000000D01*
G01*
X104699999Y-60400000D02*
G75*
G03*
X105699999Y-61400001I1000001J0D01*
G01*
X124900001Y-56600000D02*
G75*
G03*
X125900000Y-55600001I-1J1000000D01*
G01*
X111099999Y-54000000D02*
G75*
G03*
X112099999Y-55000001I1000001J0D01*
G01*
X132500000Y-64200000D02*
G75*
G03*
X133500000Y-63200000I0J1000000D01*
G01*
X111899999Y-53200000D02*
G75*
G03*
X112899999Y-54200001I1000001J0D01*
G01*
X122900001Y-54600000D02*
G75*
G03*
X123900000Y-53600001I-1J1000000D01*
G01*
X124100001Y-55800000D02*
G75*
G03*
X125100000Y-54800001I-1J1000000D01*
G01*
X124500001Y-56200000D02*
G75*
G03*
X125500000Y-55200001I-1J1000000D01*
G01*
X127099999Y-46999998D02*
G75*
G03*
X126100000Y-46000001I-999999J-2D01*
G01*
X111299999Y-48400000D02*
G75*
G03*
X110300000Y-49400000I1J-1000000D01*
G01*
X123499999Y-50600000D02*
G75*
G03*
X122500000Y-49600001I-999999J0D01*
G01*
%TD*%
%TA.AperFunction,Conductor*%
%TO.N,/primary*%
G36*
X101543039Y-64719685D02*
G01*
X101588794Y-64772489D01*
X101600000Y-64824000D01*
X101600000Y-68176000D01*
X101580315Y-68243039D01*
X101527511Y-68288794D01*
X101476000Y-68300000D01*
X98124000Y-68300000D01*
X98056961Y-68280315D01*
X98011206Y-68227511D01*
X98000000Y-68176000D01*
X98000000Y-64824000D01*
X98019685Y-64756961D01*
X98072489Y-64711206D01*
X98124000Y-64700000D01*
X101476000Y-64700000D01*
X101543039Y-64719685D01*
G37*
%TD.AperFunction*%
%TD*%
%TA.AperFunction,Conductor*%
%TO.N,/primary*%
G36*
X101543039Y-37819685D02*
G01*
X101588794Y-37872489D01*
X101600000Y-37924000D01*
X101600000Y-41276000D01*
X101580315Y-41343039D01*
X101527511Y-41388794D01*
X101476000Y-41400000D01*
X98124000Y-41400000D01*
X98056961Y-41380315D01*
X98011206Y-41327511D01*
X98000000Y-41276000D01*
X98000000Y-37924000D01*
X98019685Y-37856961D01*
X98072489Y-37811206D01*
X98124000Y-37800000D01*
X101476000Y-37800000D01*
X101543039Y-37819685D01*
G37*
%TD.AperFunction*%
%TD*%
M02*
